{"accessors": [{"bufferView": 2, "componentType": 5126, "count": 310, "max": [0.8944588303565979, 1.2342264652252197, -9.784114837646484], "min": [-2.7575955390930176, -1.2954105138778687, -13.078364372253418], "type": "VEC3"}, {"bufferView": 2, "byteOffset": 3720, "componentType": 5126, "count": 310, "max": [0.8648239970207214, 0.9986088275909424, 1.0], "min": [-0.8648239970207214, -0.9986088275909424, 0.05272993817925453], "type": "VEC3"}, {"bufferView": 1, "componentType": 5125, "count": 468, "type": "SCALAR"}, {"bufferView": 2, "byteOffset": 7440, "componentType": 5126, "count": 90, "max": [0.6496304869651794, 1.0222008228302002, -21.10828399658203], "min": [-2.512770891189575, -1.083379864692688, -21.346864700317383], "type": "VEC3"}, {"bufferView": 2, "byteOffset": 8520, "componentType": 5126, "count": 90, "max": [0.8660293817520142, 1.0, 0.0], "min": [-0.8660293817520142, -1.0, -1.0], "type": "VEC3"}, {"bufferView": 1, "byteOffset": 1872, "componentType": 5125, "count": 144, "type": "SCALAR"}, {"bufferView": 2, "byteOffset": 9600, "componentType": 5126, "count": 648, "max": [1.2520049810409546, 1.5438727140426636, -13.002094268798828], "min": [-3.1151366233825684, -1.6050517559051514, -21.33527374267578], "type": "VEC3"}, {"bufferView": 2, "byteOffset": 17376, "componentType": 5126, "count": 648, "max": [0.8660293817520142, 1.0, 1.0], "min": [-0.8660293817520142, -1.0, -1.0], "type": "VEC3"}, {"bufferView": 1, "byteOffset": 2448, "componentType": 5125, "count": 1188, "type": "SCALAR"}, {"bufferView": 2, "byteOffset": 25152, "componentType": 5126, "count": 72, "max": [-0.7386682629585266, 0.8114114999771118, 64.39973449707031], "min": [-9.584909439086914, -0.8114916086196899, -24.249595642089844], "type": "VEC3"}, {"bufferView": 2, "byteOffset": 26016, "componentType": 5126, "count": 72, "max": [1.0, 1.0, 1.0], "min": [-1.0, -1.0, -1.0], "type": "VEC3"}, {"bufferView": 1, "byteOffset": 7200, "componentType": 5125, "count": 132, "type": "SCALAR"}, {"bufferView": 2, "byteOffset": 26880, "componentType": 5126, "count": 218, "max": [23.65876579284668, 2.4993584156036377, -33.93243408203125], "min": [-2.782397508621216, -5.44419002532959, -95.59970092773438], "type": "VEC3"}, {"bufferView": 2, "byteOffset": 29496, "componentType": 5126, "count": 218, "max": [0.989105224609375, 1.0, 1.0], "min": [-0.9980078935623169, -1.0, -1.0], "type": "VEC3"}, {"bufferView": 1, "byteOffset": 7728, "componentType": 5125, "count": 384, "type": "SCALAR"}, {"bufferView": 2, "byteOffset": 32112, "componentType": 5126, "count": 122, "max": [-3.4857823848724365, 1.9525092840194702, -5.6812543869018555], "min": [-7.390963077545166, -1.952680230140686, -6.735944747924805], "type": "VEC3"}, {"bufferView": 2, "byteOffset": 33576, "componentType": 5126, "count": 122, "max": [0.959502100944519, 0.959502100944519, 1.0], "min": [-0.959502100944519, -0.959502100944519, -1.0], "type": "VEC3"}, {"bufferView": 1, "byteOffset": 9264, "componentType": 5125, "count": 240, "type": "SCALAR"}, {"bufferView": 2, "byteOffset": 35040, "componentType": 5126, "count": 270, "max": [-2.9621455669403076, 3.509159803390503, -6.360444068908691], "min": [-7.548538684844971, -3.555868625640869, -23.12783432006836], "type": "VEC3"}, {"bufferView": 2, "byteOffset": 38280, "componentType": 5126, "count": 270, "max": [0.9670194983482361, 0.9652995467185974, 1.0], "min": [-0.9731366038322449, -0.9652995467185974, -1.0], "type": "VEC3"}, {"bufferView": 1, "byteOffset": 10224, "componentType": 5125, "count": 444, "type": "SCALAR"}, {"bufferView": 2, "byteOffset": 41520, "componentType": 5126, "count": 1488, "max": [-0.04148444905877113, 4.4628095626831055, 100.97840881347656], "min": [-10.362282752990723, -4.4630327224731445, -33.924625396728516], "type": "VEC3"}, {"bufferView": 2, "byteOffset": 59376, "componentType": 5126, "count": 1488, "max": [1.0, 1.0, 1.0], "min": [-1.0, -1.0, -1.0], "type": "VEC3"}, {"bufferView": 1, "byteOffset": 12000, "componentType": 5125, "count": 3621, "type": "SCALAR"}, {"bufferView": 2, "byteOffset": 77232, "componentType": 5126, "count": 730, "max": [22.033164978027344, 5.042964458465576, -7.144524574279785], "min": [-3.857541799545288, -2.0700480937957764, -24.574684143066406], "type": "VEC3"}, {"bufferView": 2, "byteOffset": 85992, "componentType": 5126, "count": 730, "max": [1.0, 1.0, 1.0], "min": [-1.0, -1.0, -1.0], "type": "VEC3"}, {"bufferView": 1, "byteOffset": 26484, "componentType": 5125, "count": 1176, "type": "SCALAR"}, {"bufferView": 2, "byteOffset": 94752, "componentType": 5126, "count": 291, "max": [-1.9257707595825195, -2.9801418781280518, -4.088324546813965], "min": [-5.106279373168945, -4.4206109046936035, -39.75405502319336], "type": "VEC3"}, {"bufferView": 2, "byteOffset": 98244, "componentType": 5126, "count": 291, "max": [1.0, 1.0, 1.0], "min": [-1.0, -1.0, -1.0], "type": "VEC3"}, {"bufferView": 1, "byteOffset": 31188, "componentType": 5125, "count": 636, "type": "SCALAR"}, {"bufferView": 2, "byteOffset": 101736, "componentType": 5126, "count": 280, "max": [-2.114429235458374, -0.6780787110328674, 18.220693588256836], "min": [-8.136602401733398, -8.879666328430176, -14.252843856811523], "type": "VEC3"}, {"bufferView": 2, "byteOffset": 105096, "componentType": 5126, "count": 280, "max": [1.0, 1.0, 1.0], "min": [-1.0, -1.0, -1.0], "type": "VEC3"}, {"bufferView": 1, "byteOffset": 33732, "componentType": 5125, "count": 468, "type": "SCALAR"}, {"bufferView": 2, "byteOffset": 108456, "componentType": 5126, "count": 3183, "max": [11.04666519165039, 4.795880317687988, 87.17057800292969], "min": [-11.35745906829834, -3.835798978805542, -40.54127502441406], "type": "VEC3"}, {"bufferView": 2, "byteOffset": 146652, "componentType": 5126, "count": 3183, "max": [1.0, 1.0, 1.0], "min": [-1.0, -1.0, -1.0], "type": "VEC3"}, {"bufferView": 1, "byteOffset": 35604, "componentType": 5125, "count": 5829, "type": "SCALAR"}, {"bufferView": 2, "byteOffset": 184848, "componentType": 5126, "count": 1495, "max": [-3.3454906940460205, 3.3802387714385986, 49.847190856933594], "min": [-8.652716636657715, -3.38039493560791, -4.050864219665527], "type": "VEC3"}, {"bufferView": 2, "byteOffset": 202788, "componentType": 5126, "count": 1495, "max": [1.0, 1.0, 1.0], "min": [-0.9911626577377319, -1.0, -1.0], "type": "VEC3"}, {"bufferView": 1, "byteOffset": 58920, "componentType": 5125, "count": 2379, "type": "SCALAR"}, {"bufferView": 2, "byteOffset": 220728, "componentType": 5126, "count": 227, "max": [9.778322219848633, 0.7683403491973877, -21.610044479370117], "min": [4.575250148773193, -0.7682428359985352, -35.612876892089844], "type": "VEC3"}, {"bufferView": 2, "byteOffset": 223452, "componentType": 5126, "count": 227, "max": [1.0, 1.0, 1.0], "min": [-1.0, -1.0, -1.0], "type": "VEC3"}, {"bufferView": 1, "byteOffset": 68436, "componentType": 5125, "count": 432, "type": "SCALAR"}, {"bufferView": 2, "byteOffset": 226176, "componentType": 5126, "count": 1014, "max": [24.186100006103516, 4.34327507019043, 49.55841064453125], "min": [-4.21584939956665, -4.155345916748047, -94.29010009765625], "type": "VEC3"}, {"bufferView": 2, "byteOffset": 238344, "componentType": 5126, "count": 1014, "max": [1.0, 1.0, 1.0], "min": [-1.0, -1.0, -1.0], "type": "VEC3"}, {"bufferView": 1, "byteOffset": 70164, "componentType": 5125, "count": 1725, "type": "SCALAR"}, {"bufferView": 4, "componentType": 5126, "count": 11, "max": [1.0, 0.04818601906299591, 0.04835914447903633, 0.0, 0.04835914447903633, 1.0, 0.0, 0.0, 0.002199203008785844, 0.05012999847531319, 1.0, 0.0, 0.27213001251220703, 1.6179399490356445, 1.5520000457763672, 1.0], "min": [0.0, -0.0021215155720710754, -0.012820976786315441, 0.0, -0.04835914447903633, 0.0, -0.04835914447903633, 0.0, -0.04238641634583473, -0.02521839737892151, -0.048336345702409744, 0.0, -0.4144200086593628, -0.792639970779419, -1.0006200075149536, 1.0], "type": "MAT4"}, {"bufferView": 0, "componentType": 5123, "count": 310, "type": "VEC4"}, {"bufferView": 3, "componentType": 5126, "count": 310, "max": [1.0, 0.0, 0.0, 0.0], "min": [1.0, 0.0, 0.0, 0.0], "type": "VEC4"}, {"bufferView": 0, "byteOffset": 2480, "componentType": 5123, "count": 90, "type": "VEC4"}, {"bufferView": 3, "byteOffset": 4960, "componentType": 5126, "count": 90, "max": [1.0, 0.0, 0.0, 0.0], "min": [1.0, 0.0, 0.0, 0.0], "type": "VEC4"}, {"bufferView": 0, "byteOffset": 3200, "componentType": 5123, "count": 648, "type": "VEC4"}, {"bufferView": 3, "byteOffset": 6400, "componentType": 5126, "count": 648, "max": [1.0, 0.0, 0.0, 0.0], "min": [1.0, 0.0, 0.0, 0.0], "type": "VEC4"}, {"bufferView": 0, "byteOffset": 8384, "componentType": 5123, "count": 72, "type": "VEC4"}, {"bufferView": 3, "byteOffset": 16768, "componentType": 5126, "count": 72, "max": [1.0, 0.0, 0.0, 0.0], "min": [1.0, 0.0, 0.0, 0.0], "type": "VEC4"}, {"bufferView": 0, "byteOffset": 8960, "componentType": 5123, "count": 218, "type": "VEC4"}, {"bufferView": 3, "byteOffset": 17920, "componentType": 5126, "count": 218, "max": [1.0, 0.0, 0.0, 0.0], "min": [1.0, 0.0, 0.0, 0.0], "type": "VEC4"}, {"bufferView": 0, "byteOffset": 10704, "componentType": 5123, "count": 122, "type": "VEC4"}, {"bufferView": 3, "byteOffset": 21408, "componentType": 5126, "count": 122, "max": [1.0, 0.0, 0.0, 0.0], "min": [1.0, 0.0, 0.0, 0.0], "type": "VEC4"}, {"bufferView": 0, "byteOffset": 11680, "componentType": 5123, "count": 270, "type": "VEC4"}, {"bufferView": 3, "byteOffset": 23360, "componentType": 5126, "count": 270, "max": [1.0, 0.0, 0.0, 0.0], "min": [1.0, 0.0, 0.0, 0.0], "type": "VEC4"}, {"bufferView": 0, "byteOffset": 13840, "componentType": 5123, "count": 1488, "type": "VEC4"}, {"bufferView": 3, "byteOffset": 27680, "componentType": 5126, "count": 1488, "max": [1.0, 0.0, 0.0, 0.0], "min": [1.0, 0.0, 0.0, 0.0], "type": "VEC4"}, {"bufferView": 0, "byteOffset": 25744, "componentType": 5123, "count": 730, "type": "VEC4"}, {"bufferView": 3, "byteOffset": 51488, "componentType": 5126, "count": 730, "max": [1.0, 0.0, 0.0, 0.0], "min": [1.0, 0.0, 0.0, 0.0], "type": "VEC4"}, {"bufferView": 0, "byteOffset": 31584, "componentType": 5123, "count": 291, "type": "VEC4"}, {"bufferView": 3, "byteOffset": 63168, "componentType": 5126, "count": 291, "max": [1.0, 0.0, 0.0, 0.0], "min": [1.0, 0.0, 0.0, 0.0], "type": "VEC4"}, {"bufferView": 0, "byteOffset": 33912, "componentType": 5123, "count": 280, "type": "VEC4"}, {"bufferView": 3, "byteOffset": 67824, "componentType": 5126, "count": 280, "max": [1.0, 0.0, 0.0, 0.0], "min": [1.0, 0.0, 0.0, 0.0], "type": "VEC4"}, {"bufferView": 0, "byteOffset": 36152, "componentType": 5123, "count": 3183, "type": "VEC4"}, {"bufferView": 3, "byteOffset": 72304, "componentType": 5126, "count": 3183, "max": [1.0, 0.0, 0.0, 0.0], "min": [0.0, 0.0, 0.0, 0.0], "type": "VEC4"}, {"bufferView": 0, "byteOffset": 61616, "componentType": 5123, "count": 1495, "type": "VEC4"}, {"bufferView": 3, "byteOffset": 123232, "componentType": 5126, "count": 1495, "max": [1.0, 0.0, 0.0, 0.0], "min": [1.0, 0.0, 0.0, 0.0], "type": "VEC4"}, {"bufferView": 0, "byteOffset": 73576, "componentType": 5123, "count": 227, "type": "VEC4"}, {"bufferView": 3, "byteOffset": 147152, "componentType": 5126, "count": 227, "max": [1.0, 0.0, 0.0, 0.0], "min": [1.0, 0.0, 0.0, 0.0], "type": "VEC4"}, {"bufferView": 0, "byteOffset": 75392, "componentType": 5123, "count": 1014, "type": "VEC4"}, {"bufferView": 3, "byteOffset": 150784, "componentType": 5126, "count": 1014, "max": [1.0, 0.0, 0.0, 0.0], "min": [1.0, 0.0, 0.0, 0.0], "type": "VEC4"}], "asset": {"extras": {"author": "TastyTony (https://sketchfab.com/TastyTony)", "license": "CC-BY-4.0 (http://creativecommons.org/licenses/by/4.0/)", "source": "https://sketchfab.com/3d-models/low-poly-m14-30e47673a17b434386e9c3af54670bed", "title": "Low-Poly M14"}, "generator": "Sketchfab-15.10.0", "version": "2.0"}, "bufferViews": [{"buffer": 0, "byteLength": 83504, "byteStride": 8, "name": "shortBufferViews", "target": 34962}, {"buffer": 0, "byteLength": 77064, "byteOffset": 83504, "name": "floatBufferViews", "target": 34963}, {"buffer": 0, "byteLength": 250512, "byteOffset": 160568, "byteStride": 12, "name": "floatBufferViews", "target": 34962}, {"buffer": 0, "byteLength": 167008, "byteOffset": 411080, "byteStride": 16, "name": "floatBufferViews", "target": 34962}, {"buffer": 0, "byteLength": 704, "byteOffset": 578088, "name": "floatBufferViews"}], "buffers": [{"byteLength": 578792, "uri": "scene.bin"}], "extensionsRequired": [], "extensionsUsed": [], "materials": [{"doubleSided": true, "name": "Material.014", "pbrMetallicRoughness": {"baseColorFactor": [1.0, 1.0, 1.0, 1.0], "metallicFactor": 0.0, "roughnessFactor": 0.0}}, {"doubleSided": true, "name": "Material.013", "pbrMetallicRoughness": {"baseColorFactor": [1.0, 1.0, 1.0, 1.0], "metallicFactor": 0.0, "roughnessFactor": 0.0}}, {"doubleSided": true, "name": "Material.007", "pbrMetallicRoughness": {"baseColorFactor": [1.0, 1.0, 1.0, 1.0], "metallicFactor": 0.0, "roughnessFactor": 0.0}}, {"doubleSided": true, "name": "Material.008", "pbrMetallicRoughness": {"baseColorFactor": [0.0870807927, 0.0870807927, 0.0870807927, 1.0], "metallicFactor": 0.0, "roughnessFactor": 1.0}}, {"doubleSided": true, "name": "Material.011", "pbrMetallicRoughness": {"baseColorFactor": [0.0383003049, 0.0383003049, 0.0383003049, 1.0], "metallicFactor": 0.0, "roughnessFactor": 1.0}}, {"doubleSided": true, "name": "bolt2", "pbrMetallicRoughness": {"baseColorFactor": [0.2029344512, 0.2029344512, 0.2029344512, 1.0], "metallicFactor": 0.0, "roughnessFactor": 1.0}}, {"doubleSided": true, "name": "bolt1", "pbrMetallicRoughness": {"baseColorFactor": [0.0509354834, 0.0517662898, 0.046939967, 1.0], "metallicFactor": 0.0, "roughnessFactor": 1.0}}, {"doubleSided": true, "name": "Material.006", "pbrMetallicRoughness": {"baseColorFactor": [0.0626905488, 0.0626905488, 0.0626905488, 1.0], "metallicFactor": 0.0, "roughnessFactor": 1.0}}, {"doubleSided": true, "name": "Material.012", "pbrMetallicRoughness": {"baseColorFactor": [0.0931783537, 0.0931783537, 0.0931783537, 1.0], "metallicFactor": 0.0, "roughnessFactor": 1.0}}, {"doubleSided": true, "name": "Material.010", "pbrMetallicRoughness": {"baseColorFactor": [0.0651879173, 0.0640345713, 0.0640345713, 1.0], "metallicFactor": 0.0, "roughnessFactor": 1.0}}, {"doubleSided": true, "name": "Material.005", "pbrMetallicRoughness": {"baseColorFactor": [0.0626905488, 0.0626905488, 0.0626905488, 1.0], "metallicFactor": 0.0, "roughnessFactor": 1.0}}, {"doubleSided": true, "name": "Material.004", "pbrMetallicRoughness": {"baseColorFactor": [0.0448950492, 0.0448950492, 0.0448950492, 1.0], "metallicFactor": 0.0, "roughnessFactor": 1.0}}, {"doubleSided": true, "name": "Material.002", "pbrMetallicRoughness": {"baseColorFactor": [0.0804465136, 0.050104071, 0.0400373119, 1.0], "metallicFactor": 0.0, "roughnessFactor": 0.0}}, {"doubleSided": true, "name": "Material.009", "pbrMetallicRoughness": {"baseColorFactor": [0.1114710366, 0.1114710366, 0.1114710366, 1.0], "metallicFactor": 0.0, "roughnessFactor": 1.0}}, {"doubleSided": true, "name": "Material", "pbrMetallicRoughness": {"baseColorFactor": [0.1055604129, 0.0586924089, 0.0455609876, 1.0], "metallicFactor": 0.0, "roughnessFactor": 1.0}}], "meshes": [{"name": "Cylinder.007", "primitives": [{"attributes": {"JOINTS_0": 46, "NORMAL": 1, "POSITION": 0, "WEIGHTS_0": 47}, "indices": 2, "material": 0, "mode": 4}]}, {"name": "Cylinder.007", "primitives": [{"attributes": {"JOINTS_0": 48, "NORMAL": 4, "POSITION": 3, "WEIGHTS_0": 49}, "indices": 5, "material": 1, "mode": 4}]}, {"name": "Cylinder.007", "primitives": [{"attributes": {"JOINTS_0": 50, "NORMAL": 7, "POSITION": 6, "WEIGHTS_0": 51}, "indices": 8, "material": 2, "mode": 4}]}, {"name": "Cylinder.007", "primitives": [{"attributes": {"JOINTS_0": 52, "NORMAL": 10, "POSITION": 9, "WEIGHTS_0": 53}, "indices": 11, "material": 3, "mode": 4}]}, {"name": "Cylinder.007", "primitives": [{"attributes": {"JOINTS_0": 54, "NORMAL": 13, "POSITION": 12, "WEIGHTS_0": 55}, "indices": 14, "material": 4, "mode": 4}]}, {"name": "Cylinder.007", "primitives": [{"attributes": {"JOINTS_0": 56, "NORMAL": 16, "POSITION": 15, "WEIGHTS_0": 57}, "indices": 17, "material": 5, "mode": 4}]}, {"name": "Cylinder.007", "primitives": [{"attributes": {"JOINTS_0": 58, "NORMAL": 19, "POSITION": 18, "WEIGHTS_0": 59}, "indices": 20, "material": 6, "mode": 4}]}, {"name": "Cylinder.007", "primitives": [{"attributes": {"JOINTS_0": 60, "NORMAL": 22, "POSITION": 21, "WEIGHTS_0": 61}, "indices": 23, "material": 7, "mode": 4}]}, {"name": "Cylinder.007", "primitives": [{"attributes": {"JOINTS_0": 62, "NORMAL": 25, "POSITION": 24, "WEIGHTS_0": 63}, "indices": 26, "material": 8, "mode": 4}]}, {"name": "Cylinder.007", "primitives": [{"attributes": {"JOINTS_0": 64, "NORMAL": 28, "POSITION": 27, "WEIGHTS_0": 65}, "indices": 29, "material": 9, "mode": 4}]}, {"name": "Cylinder.007", "primitives": [{"attributes": {"JOINTS_0": 66, "NORMAL": 31, "POSITION": 30, "WEIGHTS_0": 67}, "indices": 32, "material": 10, "mode": 4}]}, {"name": "Cylinder.007", "primitives": [{"attributes": {"JOINTS_0": 68, "NORMAL": 34, "POSITION": 33, "WEIGHTS_0": 69}, "indices": 35, "material": 11, "mode": 4}]}, {"name": "Cylinder.007", "primitives": [{"attributes": {"JOINTS_0": 70, "NORMAL": 37, "POSITION": 36, "WEIGHTS_0": 71}, "indices": 38, "material": 12, "mode": 4}]}, {"name": "Cylinder.007", "primitives": [{"attributes": {"JOINTS_0": 72, "NORMAL": 40, "POSITION": 39, "WEIGHTS_0": 73}, "indices": 41, "material": 13, "mode": 4}]}, {"name": "Cylinder.007", "primitives": [{"attributes": {"JOINTS_0": 74, "NORMAL": 43, "POSITION": 42, "WEIGHTS_0": 75}, "indices": 44, "material": 14, "mode": 4}]}], "nodes": [{"children": [1], "matrix": [1.0, 0.0, 0.0, 0.0, 0.0, 2.220446049250313e-16, -1.0, 0.0, 0.0, 1.0, 2.220446049250313e-16, 0.0, 0.0, 0.0, 0.0, 1.0], "name": "Sketchfab_model"}, {"children": [2, 4], "name": "Root"}, {"children": [3], "matrix": [0.015090000000000003, 0.56335, 0.82608, 0.0, -0.90249, -0.3479800000000001, 0.25378999999999996, 0.0, 0.43044000000000004, -0.7493700000000001, 0.50317, 0.0, 7.19625, -8.176490000000001, 6.31957, 1.0], "name": "Lamp"}, {"name": "Lamp"}, {"children": [5, 17, 18, 19, 20, 21, 22, 23, 24, 25, 26, 27, 28, 29, 30, 31, 16], "matrix": [0.0, 0.0, -1.0, 0.0, -0.0, 1.0, -0.0, 0.0, 1.0, 0.0, 0.0, 0.0, -0.1279, -0.0, 0.31879, 1.0], "name": "Armature"}, {"children": [6], "name": "Armature_rootJoint"}, {"children": [7, 8, 9, 10, 11, 12, 13], "name": "body_Armature", "rotation": [0.7071068286895752, 0.0, 0.0, 0.7071068286895752], "scale": [1.0, 1.0, 1.0], "translation": [0.0, 0.0, 0.0]}, {"name": "bolt_Armature", "rotation": [0.0, 0.0, 0.02194022201001644, 0.9997593760490417], "scale": [1.0000027418136597, 1.0000027418136597, 1.0], "translation": [-0.22586999833583832, -1.0595500469207764, 0.0]}, {"name": "charginghandle_Armature", "rotation": [0.0, 0.7071068286895752, 0.0, 0.7071068286895752], "scale": [1.0, 1.0, 1.0], "translation": [-0.23808999359607697, -0.07038000226020813, 0.2034900039434433]}, {"name": "moving_thing_Armature", "rotation": [0.0, 0.7071068286895752, 0.0, 0.7071068286895752], "scale": [1.0, 1.0, 1.0], "translation": [-0.1548900008201599, -1.4203799962997437, 0.2034900039434433]}, {"name": "safety_Armature", "rotation": [0.0, 0.7071068286895752, 0.0, 0.7071068286895752], "scale": [1.0, 1.0, 1.0], "translation": [0.3183000087738037, -1.6179399490356445, 0.0]}, {"name": "magrelease_Armature", "rotation": [0.5623875260353088, 0.42862606048583984, -0.5623875260353088, 0.42862606048583984], "scale": [1.0, 1.0000044107437134, 1.0000044107437134], "translation": [0.2478799968957901, -1.1059099435806274, 0.0]}, {"name": "selector_Armature", "rotation": [0.6129968762397766, 0.35246962308883667, 0.6129968762397766, -0.35246962308883667], "scale": [1.0, 0.9999986886978149, 0.9999986886978149], "translation": [-0.09571000188589096, -1.7400699853897095, 0.2257000058889389]}, {"children": [14, 15], "name": "mag_Armature", "rotation": [-0.18617239594459534, -0.2026251256465912, -0.6504568457603455, 0.7079468965530396], "scale": [0.9999997615814209, 0.9999944567680359, 1.0000050067901611], "translation": [-0.033250000327825546, -0.4929400086402893, 0.0]}, {"name": "bullet_Armature", "rotation": [-0.3282986879348755, 0.6438716053962708, 0.5915862321853638, 0.35731643438339233], "scale": [1.0000050067901611, 0.9999997615814209, 0.9999944567680359], "translation": [0.4386500120162964, -0.11133000254631042, -0.273499995470047]}, {"name": "bullets_Armature", "rotation": [-0.3282986879348755, 0.6438716053962708, 0.5915862321853638, 0.35731643438339233], "scale": [1.0000050067901611, 0.9999997615814209, 0.9999944567680359], "translation": [0.438289999961853, -0.034219998866319656, -0.27327999472618103]}, {"matrix": [0.04188000000000001, 0.024180000000000004, 0.0, 0.0, -0.024180000000000004, 0.04188000000000001, 0.0, 0.0, -0.0, -0.0, 0.050130000000000015, 0.0, 0.009300000000000003, 0.029270000000000004, -0.9921, 1.0], "name": "Cylinder.007"}, {"mesh": 0, "name": "Cylinder.007_0", "skin": 0}, {"mesh": 1, "name": "Cylinder.007_1", "skin": 0}, {"mesh": 2, "name": "Cylinder.007_2", "skin": 0}, {"mesh": 3, "name": "Cylinder.007_3", "skin": 0}, {"mesh": 4, "name": "Cylinder.007_4", "skin": 0}, {"mesh": 5, "name": "Cylinder.007_5", "skin": 0}, {"mesh": 6, "name": "Cylinder.007_6", "skin": 0}, {"mesh": 7, "name": "Cylinder.007_7", "skin": 0}, {"mesh": 8, "name": "Cylinder.007_8", "skin": 0}, {"mesh": 9, "name": "Cylinder.007_9", "skin": 0}, {"mesh": 10, "name": "Cylinder.007_10", "skin": 0}, {"mesh": 11, "name": "Cylinder.007_11", "skin": 0}, {"mesh": 12, "name": "Cylinder.007_12", "skin": 0}, {"mesh": 13, "name": "Cylinder.007_13", "skin": 0}, {"mesh": 14, "name": "Cylinder.007_14", "skin": 0}], "scene": 0, "scenes": [{"name": "Sketchfab_Scene", "nodes": [0]}], "skins": [{"inverseBindMatrices": 45, "joints": [5, 6, 7, 8, 9, 10, 11, 12, 13, 14, 15], "skeleton": 5}]}