{"accessors": [{"bufferView": 2, "componentType": 5126, "count": 396, "max": [0.049650002270936966, 0.047853607684373856, 0.049650002270936966], "min": [-0.049650002270936966, -0.14364640414714813, -0.049650002270936966], "type": "VEC3"}, {"bufferView": 2, "byteOffset": 4752, "componentType": 5126, "count": 396, "max": [0.9238796234130859, 1.0, 0.9238796830177307], "min": [-0.9238796234130859, -1.0, -0.9238796830177307], "type": "VEC3"}, {"bufferView": 1, "componentType": 5126, "count": 396, "max": [1.0, 1.0], "min": [0.0, 0.01000000536441803], "type": "VEC2"}, {"bufferView": 0, "componentType": 5125, "count": 600, "type": "SCALAR"}, {"bufferView": 2, "byteOffset": 9504, "componentType": 5126, "count": 144, "max": [0.04500000551342964, 0.14364640414714813, 0.04500000551342964], "min": [-0.04500000551342964, 0.047853607684373856, -0.04500000551342964], "type": "VEC3"}, {"bufferView": 2, "byteOffset": 11232, "componentType": 5126, "count": 144, "max": [0.9227418303489685, 1.0, 0.9227418303489685], "min": [-0.9227418303489685, 0.04961371421813965, -0.9227418303489685], "type": "VEC3"}, {"bufferView": 1, "byteOffset": 3168, "componentType": 5126, "count": 144, "max": [0.49000000953674316, 0.49000003933906555], "min": [0.01000000536441803, 0.01000000536441803], "type": "VEC2"}, {"bufferView": 0, "byteOffset": 2400, "componentType": 5125, "count": 216, "type": "SCALAR"}, {"bufferView": 2, "byteOffset": 12960, "componentType": 5126, "count": 436, "max": [0.049650005996227264, 0.09575000405311584, 0.049650002270936966], "min": [-0.049650005996227264, -0.09575000405311584, -0.049650002270936966], "type": "VEC3"}, {"bufferView": 2, "byteOffset": 18192, "componentType": 5126, "count": 436, "max": [0.9238796830177307, 1.0, 0.9238796830177307], "min": [-0.9238796830177307, -1.0, -0.9238796830177307], "type": "VEC3"}, {"bufferView": 1, "byteOffset": 4320, "componentType": 5126, "count": 436, "max": [1.0, 1.0], "min": [0.0, 0.01000000536441803], "type": "VEC2"}, {"bufferView": 0, "byteOffset": 3264, "componentType": 5125, "count": 672, "type": "SCALAR"}, {"bufferView": 2, "byteOffset": 23424, "componentType": 5126, "count": 1987, "max": [0.2540339529514313, 0.5669963955879211, 0.14084619283676147], "min": [-0.16978737711906433, -0.5958395004272461, -0.14084619283676147], "type": "VEC3"}, {"bufferView": 2, "byteOffset": 47268, "componentType": 5126, "count": 1987, "max": [1.0, 1.0, 1.0], "min": [-1.0, -1.0, -1.0], "type": "VEC3"}, {"bufferView": 1, "byteOffset": 7808, "componentType": 5126, "count": 1987, "max": [1.0, 1.0], "min": [0.0, 0.0], "type": "VEC2"}, {"bufferView": 0, "byteOffset": 5952, "componentType": 5125, "count": 2922, "type": "SCALAR"}, {"bufferView": 2, "byteOffset": 71112, "componentType": 5126, "count": 48, "max": [0.04029742628335953, -0.5285432934761047, 0.0388641394674778], "min": [-0.0340409018099308, -0.5564297437667847, -0.038864120841026306], "type": "VEC3"}, {"bufferView": 2, "byteOffset": 71688, "componentType": 5126, "count": 48, "max": [0.8412002921104431, -0.46435150504112244, 0.6688743829727173], "min": [-0.4382067024707794, -0.9563878178596497, -0.668874979019165], "type": "VEC3"}, {"bufferView": 1, "byteOffset": 23704, "componentType": 5126, "count": 48, "max": [0.22400911152362823, 0.6577482223510742], "min": [0.19114921987056732, 0.5922517776489258], "type": "VEC2"}, {"bufferView": 0, "byteOffset": 17640, "componentType": 5125, "count": 66, "type": "SCALAR"}, {"bufferView": 2, "byteOffset": 72264, "componentType": 5126, "count": 1810, "max": [0.2540339529514313, 0.5621713995933533, 0.14084619283676147], "min": [-0.16978290677070618, -0.5958394408226013, -0.14084619283676147], "type": "VEC3"}, {"bufferView": 2, "byteOffset": 93984, "componentType": 5126, "count": 1810, "max": [1.0, 1.0, 1.0], "min": [-1.0, -1.0, -1.0], "type": "VEC3"}, {"bufferView": 1, "byteOffset": 24088, "componentType": 5126, "count": 1810, "max": [1.0, 1.0], "min": [0.0, 0.0], "type": "VEC2"}, {"bufferView": 0, "byteOffset": 17904, "componentType": 5125, "count": 2715, "type": "SCALAR"}, {"bufferView": 2, "byteOffset": 115704, "componentType": 5126, "count": 4020, "max": [0.068334199488163, 0.5735616683959961, 0.0892554223537445], "min": [-0.1448383778333664, -0.2989320158958435, -0.0892554223537445], "type": "VEC3"}, {"bufferView": 2, "byteOffset": 163944, "componentType": 5126, "count": 4020, "max": [1.0, 0.9264541268348694, 0.9759892821311951], "min": [-1.0, -0.9344397783279419, -0.9796937704086304], "type": "VEC3"}, {"bufferView": 1, "byteOffset": 38568, "componentType": 5126, "count": 4020, "max": [1.0, 1.0], "min": [0.0, 0.01000000536441803], "type": "VEC2"}, {"bufferView": 0, "byteOffset": 28764, "componentType": 5125, "count": 5934, "type": "SCALAR"}, {"bufferView": 2, "byteOffset": 212184, "componentType": 5126, "count": 424, "max": [0.14635170996189117, 0.5828930139541626, 0.0724184662103653], "min": [0.0341084785759449, 0.25322169065475464, -0.08460544049739838], "type": "VEC3"}, {"bufferView": 2, "byteOffset": 217272, "componentType": 5126, "count": 424, "max": [1.0, 0.9344702959060669, 0.9227419495582581], "min": [-0.29252609610557556, -0.9227591753005981, -0.9227420091629028], "type": "VEC3"}, {"bufferView": 1, "byteOffset": 70728, "componentType": 5126, "count": 424, "max": [0.49000000953674316, 0.49000003933906555], "min": [0.01000000536441803, 0.01000000536441803], "type": "VEC2"}, {"bufferView": 0, "byteOffset": 52500, "componentType": 5125, "count": 630, "type": "SCALAR"}, {"bufferView": 2, "byteOffset": 222360, "componentType": 5126, "count": 48, "max": [0.040297359228134155, -0.5285434126853943, 0.038864146918058395], "min": [-0.03404097631573677, -0.5564298033714294, -0.038864124566316605], "type": "VEC3"}, {"bufferView": 2, "byteOffset": 222936, "componentType": 5126, "count": 48, "max": [0.841200053691864, -0.46435192227363586, 0.6688758730888367], "min": [-0.4382092356681824, -0.9563884139060974, -0.6688755750656128], "type": "VEC3"}, {"bufferView": 1, "byteOffset": 74120, "componentType": 5126, "count": 48, "max": [0.22400909662246704, 0.6577482223510742], "min": [0.19114919006824493, 0.5922517776489258], "type": "VEC2"}, {"bufferView": 0, "byteOffset": 55020, "componentType": 5125, "count": 66, "type": "SCALAR"}, {"bufferView": 2, "byteOffset": 223512, "componentType": 5126, "count": 712, "max": [1.0358314514160156, 0.10333778709173203, 0.08636537194252014], "min": [-0.03962714597582817, -0.14112448692321777, -0.08636537194252014], "type": "VEC3"}, {"bufferView": 2, "byteOffset": 232056, "componentType": 5126, "count": 712, "max": [1.0, 1.0, 1.0], "min": [-1.0, -1.0, -1.0], "type": "VEC3"}, {"bufferView": 1, "byteOffset": 74504, "componentType": 5126, "count": 712, "max": [1.0, 1.0000001192092896], "min": [0.0, 0.08029438555240631], "type": "VEC2"}, {"bufferView": 0, "byteOffset": 55284, "componentType": 5125, "count": 1026, "type": "SCALAR"}, {"bufferView": 2, "byteOffset": 240600, "componentType": 5126, "count": 2962, "max": [0.9453422427177429, 0.14269627630710602, 0.13974744081497192], "min": [-0.9237856268882751, -0.21337904036045074, -0.13974744081497192], "type": "VEC3"}, {"bufferView": 2, "byteOffset": 276144, "componentType": 5126, "count": 2962, "max": [1.0, 1.0, 1.0], "min": [-1.0, -1.0, -1.0], "type": "VEC3"}, {"bufferView": 1, "byteOffset": 80200, "componentType": 5126, "count": 2962, "max": [1.0, 1.0], "min": [0.0, 0.0], "type": "VEC2"}, {"bufferView": 0, "byteOffset": 59388, "componentType": 5125, "count": 4275, "type": "SCALAR"}, {"bufferView": 2, "byteOffset": 311688, "componentType": 5126, "count": 228, "max": [0.8872047066688538, 0.18224956095218658, 0.0958867222070694], "min": [-0.7710224986076355, 0.10222483426332474, -0.09588667005300522], "type": "VEC3"}, {"bufferView": 2, "byteOffset": 314424, "componentType": 5126, "count": 228, "max": [1.0, 1.0, 1.0], "min": [-0.9672545194625854, -1.0, -1.0], "type": "VEC3"}, {"bufferView": 1, "byteOffset": 103896, "componentType": 5126, "count": 228, "max": [0.875, 1.0], "min": [0.125, 0.0], "type": "VEC2"}, {"bufferView": 0, "byteOffset": 76488, "componentType": 5125, "count": 330, "type": "SCALAR"}, {"bufferView": 2, "byteOffset": 317160, "componentType": 5126, "count": 36, "max": [0.7993434071540833, 0.17957018315792084, 0.04310080409049988], "min": [-0.7558525204658508, 0.16003520786762238, -0.04310076683759689], "type": "VEC3"}, {"bufferView": 2, "byteOffset": 317592, "componentType": 5126, "count": 36, "max": [-0.6601095795631409, 0.6351862549781799, 0.43957003951072693], "min": [-0.9101956486701965, -0.22430773079395294, -0.43957003951072693], "type": "VEC3"}, {"bufferView": 1, "byteOffset": 105720, "componentType": 5126, "count": 36, "max": [0.6721009612083435, 0.2251153290271759], "min": [0.6024101376533508, 0.030784709379076958], "type": "VEC2"}, {"bufferView": 0, "byteOffset": 77808, "componentType": 5125, "count": 36, "type": "SCALAR"}, {"bufferView": 2, "byteOffset": 318024, "componentType": 5126, "count": 2991, "max": [0.9661808013916016, 0.5360691547393799, 0.14039859175682068], "min": [-0.9661808013916016, -0.5751779079437256, -0.1403985321521759], "type": "VEC3"}, {"bufferView": 2, "byteOffset": 353916, "componentType": 5126, "count": 2991, "max": [1.0, 1.0, 1.0], "min": [-1.0, -1.0, -1.0], "type": "VEC3"}, {"bufferView": 1, "byteOffset": 106008, "componentType": 5126, "count": 2991, "max": [1.0, 1.000718593597412], "min": [0.0, 0.0], "type": "VEC2"}, {"bufferView": 0, "byteOffset": 77952, "componentType": 5125, "count": 4272, "type": "SCALAR"}, {"bufferView": 2, "byteOffset": 389808, "componentType": 5126, "count": 962, "max": [0.11042368412017822, 0.5751779079437256, 0.12512674927711487], "min": [-0.9174144268035889, -0.5024706125259399, -0.10804835706949234], "type": "VEC3"}, {"bufferView": 2, "byteOffset": 401352, "componentType": 5126, "count": 962, "max": [1.0, 1.0, 1.0], "min": [-1.0, -1.0, -1.0], "type": "VEC3"}, {"bufferView": 1, "byteOffset": 129936, "componentType": 5126, "count": 962, "max": [1.0, 0.8893463611602783], "min": [0.0, 0.0], "type": "VEC2"}, {"bufferView": 0, "byteOffset": 95040, "componentType": 5125, "count": 1386, "type": "SCALAR"}, {"bufferView": 2, "byteOffset": 412896, "componentType": 5126, "count": 334, "max": [0.9762159585952759, 0.5002081990242004, 0.12898850440979004], "min": [-0.8179948329925537, 0.3493019938468933, -0.05818707495927811], "type": "VEC3"}, {"bufferView": 2, "byteOffset": 416904, "componentType": 5126, "count": 334, "max": [1.0, 1.0, 1.0], "min": [-1.0, -1.0, -1.0], "type": "VEC3"}, {"bufferView": 1, "byteOffset": 137632, "componentType": 5126, "count": 334, "max": [1.0, 1.0000001192092896], "min": [0.0, 0.01000000536441803], "type": "VEC2"}, {"bufferView": 0, "byteOffset": 100584, "componentType": 5125, "count": 504, "type": "SCALAR"}, {"bufferView": 2, "byteOffset": 420912, "componentType": 5126, "count": 210, "max": [0.25828316807746887, 0.053269241005182266, -0.14039850234985352], "min": [-0.05552239716053009, -0.05326925963163376, -0.20162740349769592], "type": "VEC3"}, {"bufferView": 2, "byteOffset": 423432, "componentType": 5126, "count": 210, "max": [1.0, 1.0, 1.0], "min": [-1.0, -1.0, -1.0], "type": "VEC3"}, {"bufferView": 1, "byteOffset": 140304, "componentType": 5126, "count": 210, "max": [1.0, 0.5000000596046448], "min": [0.125, 0.4999999701976776], "type": "VEC2"}, {"bufferView": 0, "byteOffset": 102600, "componentType": 5125, "count": 288, "type": "SCALAR"}, {"bufferView": 2, "byteOffset": 425952, "componentType": 5126, "count": 176, "max": [0.029175570234656334, 0.02917557768523693, 0.13769806921482086], "min": [-0.029175573959946632, -0.02917557768523693, -0.1403985172510147], "type": "VEC3"}, {"bufferView": 2, "byteOffset": 428064, "componentType": 5126, "count": 176, "max": [0.9238796234130859, 1.0, 1.0], "min": [-0.9238796234130859, -0.9238796234130859, -1.0], "type": "VEC3"}, {"bufferView": 1, "byteOffset": 141984, "componentType": 5126, "count": 176, "max": [1.0, 0.9881440997123718], "min": [0.0, 0.01000000536441803], "type": "VEC2"}, {"bufferView": 0, "byteOffset": 103752, "componentType": 5125, "count": 270, "type": "SCALAR"}, {"bufferView": 2, "byteOffset": 430176, "componentType": 5126, "count": 372, "max": [0.06423552334308624, 0.05816905200481415, 0.13264401257038116], "min": [-0.4516475200653076, -0.06423553824424744, -0.18327930569648743], "type": "VEC3"}, {"bufferView": 2, "byteOffset": 434640, "componentType": 5126, "count": 372, "max": [1.0, 0.999174177646637, 1.0], "min": [-1.0, -0.999174177646637, -1.0], "type": "VEC3"}, {"bufferView": 1, "byteOffset": 143392, "componentType": 5126, "count": 372, "max": [1.0, 1.0], "min": [0.0, 0.0], "type": "VEC2"}, {"bufferView": 0, "byteOffset": 104832, "componentType": 5125, "count": 534, "type": "SCALAR"}, {"bufferView": 2, "byteOffset": 439104, "componentType": 5126, "count": 410, "max": [0.09578073769807816, 0.27892500162124634, 0.039701711386442184], "min": [-0.15170137584209442, -0.18937785923480988, -0.039701707661151886], "type": "VEC3"}, {"bufferView": 2, "byteOffset": 444024, "componentType": 5126, "count": 410, "max": [1.0, 1.0, 1.0], "min": [-0.9692218899726868, -1.0, -1.0], "type": "VEC3"}, {"bufferView": 1, "byteOffset": 146368, "componentType": 5126, "count": 410, "max": [1.0, 1.000002384185791], "min": [0.01000000536441803, 0.0235079824924469], "type": "VEC2"}, {"bufferView": 0, "byteOffset": 106968, "componentType": 5125, "count": 588, "type": "SCALAR"}, {"bufferView": 2, "byteOffset": 448944, "componentType": 5126, "count": 273, "max": [0.10458729416131973, 0.03166710585355759, 0.06780248135328293], "min": [-0.034726668149232864, -0.29013878107070923, -0.06780248880386353], "type": "VEC3"}, {"bufferView": 2, "byteOffset": 452220, "componentType": 5126, "count": 273, "max": [0.9905521869659424, 1.0, 1.0], "min": [-0.9971301555633545, -0.9547252655029297, -1.0], "type": "VEC3"}, {"bufferView": 1, "byteOffset": 149648, "componentType": 5126, "count": 273, "max": [1.0, 1.0], "min": [0.0, 0.01000000536441803], "type": "VEC2"}, {"bufferView": 0, "byteOffset": 109320, "componentType": 5125, "count": 396, "type": "SCALAR"}], "asset": {"extras": {"author": "D_U (https://sketchfab.com/DU1701)", "license": "CC-BY-4.0 (http://creativecommons.org/licenses/by/4.0/)", "source": "https://sketchfab.com/3d-models/low-poly-hk-usp-9mm-5a06cfce588d4c6b960b9eda658ec47d", "title": "low-poly HK USP 9mm"}, "generator": "Sketchfab-17.8.0", "version": "2.0"}, "bufferViews": [{"buffer": 0, "byteLength": 110904, "name": "floatBufferViews", "target": 34963}, {"buffer": 0, "byteLength": 151832, "byteOffset": 110904, "byteStride": 8, "name": "floatBufferViews", "target": 34962}, {"buffer": 0, "byteLength": 455496, "byteOffset": 262736, "byteStride": 12, "name": "floatBufferViews", "target": 34962}], "buffers": [{"byteLength": 718232, "uri": "scene.bin"}], "materials": [{"doubleSided": true, "name": "brass", "pbrMetallicRoughness": {"baseColorFactor": [0.445201, 0.366252, 0.0528608, 1.0], "roughnessFactor": 0.3}}, {"doubleSided": true, "name": "copper", "pbrMetallicRoughness": {"baseColorFactor": [0.47932, 0.171441, 0.0331048, 1.0], "roughnessFactor": 0.3}}, {"doubleSided": true, "name": "polymer", "pbrMetallicRoughness": {"baseColorFactor": [0.0202885, 0.0202885, 0.0202886, 1.0], "metallicFactor": 0.0, "roughnessFactor": 0.7}}, {"doubleSided": true, "name": "h-190", "pbrMetallicRoughness": {"baseColorFactor": [0.0109601, 0.0109601, 0.0109601, 1.0], "metallicFactor": 0.5, "roughnessFactor": 0.5}}, {"doubleSided": true, "emissiveFactor": [0.0, 1.0, 0.0], "name": "tritium", "pbrMetallicRoughness": {"baseColorFactor": [0.0, 1.0, 0.0, 1.0], "metallicFactor": 0.0, "roughnessFactor": 0.5}}, {"doubleSided": true, "name": "stell", "pbrMetallicRoughness": {"baseColorFactor": [0.203312, 0.203312, 0.203312, 1.0], "metallicFactor": 0.5, "roughnessFactor": 0.5}}], "meshes": [{"name": "Object_0", "primitives": [{"attributes": {"NORMAL": 1, "POSITION": 0, "TEXCOORD_0": 2}, "indices": 3, "material": 0, "mode": 4}]}, {"name": "Object_1", "primitives": [{"attributes": {"NORMAL": 5, "POSITION": 4, "TEXCOORD_0": 6}, "indices": 7, "material": 1, "mode": 4}]}, {"name": "Object_2", "primitives": [{"attributes": {"NORMAL": 9, "POSITION": 8, "TEXCOORD_0": 10}, "indices": 11, "material": 0, "mode": 4}]}, {"name": "Object_3", "primitives": [{"attributes": {"NORMAL": 13, "POSITION": 12, "TEXCOORD_0": 14}, "indices": 15, "material": 2, "mode": 4}]}, {"name": "Object_4", "primitives": [{"attributes": {"NORMAL": 17, "POSITION": 16, "TEXCOORD_0": 18}, "indices": 19, "material": 3, "mode": 4}]}, {"name": "Object_5", "primitives": [{"attributes": {"NORMAL": 21, "POSITION": 20, "TEXCOORD_0": 22}, "indices": 23, "material": 2, "mode": 4}]}, {"name": "Object_6", "primitives": [{"attributes": {"NORMAL": 25, "POSITION": 24, "TEXCOORD_0": 26}, "indices": 27, "material": 0, "mode": 4}]}, {"name": "Object_7", "primitives": [{"attributes": {"NORMAL": 29, "POSITION": 28, "TEXCOORD_0": 30}, "indices": 31, "material": 1, "mode": 4}]}, {"name": "Object_8", "primitives": [{"attributes": {"NORMAL": 33, "POSITION": 32, "TEXCOORD_0": 34}, "indices": 35, "material": 3, "mode": 4}]}, {"name": "Object_9", "primitives": [{"attributes": {"NORMAL": 37, "POSITION": 36, "TEXCOORD_0": 38}, "indices": 39, "material": 3, "mode": 4}]}, {"name": "Object_10", "primitives": [{"attributes": {"NORMAL": 41, "POSITION": 40, "TEXCOORD_0": 42}, "indices": 43, "material": 3, "mode": 4}]}, {"name": "Object_11", "primitives": [{"attributes": {"NORMAL": 45, "POSITION": 44, "TEXCOORD_0": 46}, "indices": 47, "material": 2, "mode": 4}]}, {"name": "Object_12", "primitives": [{"attributes": {"NORMAL": 49, "POSITION": 48, "TEXCOORD_0": 50}, "indices": 51, "material": 4, "mode": 4}]}, {"name": "Object_13", "primitives": [{"attributes": {"NORMAL": 53, "POSITION": 52, "TEXCOORD_0": 54}, "indices": 55, "material": 2, "mode": 4}]}, {"name": "Object_14", "primitives": [{"attributes": {"NORMAL": 57, "POSITION": 56, "TEXCOORD_0": 58}, "indices": 59, "material": 5, "mode": 4}]}, {"name": "Object_15", "primitives": [{"attributes": {"NORMAL": 61, "POSITION": 60, "TEXCOORD_0": 62}, "indices": 63, "material": 3, "mode": 4}]}, {"name": "Object_16", "primitives": [{"attributes": {"NORMAL": 65, "POSITION": 64, "TEXCOORD_0": 66}, "indices": 67, "material": 2, "mode": 4}]}, {"name": "Object_17", "primitives": [{"attributes": {"NORMAL": 69, "POSITION": 68, "TEXCOORD_0": 70}, "indices": 71, "material": 3, "mode": 4}]}, {"name": "Object_18", "primitives": [{"attributes": {"NORMAL": 73, "POSITION": 72, "TEXCOORD_0": 74}, "indices": 75, "material": 3, "mode": 4}]}, {"name": "Object_19", "primitives": [{"attributes": {"NORMAL": 77, "POSITION": 76, "TEXCOORD_0": 78}, "indices": 79, "material": 3, "mode": 4}]}, {"name": "Object_20", "primitives": [{"attributes": {"NORMAL": 81, "POSITION": 80, "TEXCOORD_0": 82}, "indices": 83, "material": 3, "mode": 4}]}], "nodes": [{"children": [1], "matrix": [1.0, 0.0, 0.0, 0.0, 0.0, 2.220446049250313e-16, -1.0, 0.0, 0.0, 1.0, 2.220446049250313e-16, 0.0, 0.0, 0.0, 0.0, 1.0], "name": "Sketchfab_model"}, {"children": [2], "name": "root"}, {"children": [3, 6, 8, 11, 16, 18, 22, 26, 29, 31, 33], "matrix": [1.0, 0.0, 0.0, 0.0, 0.0, 2.220446049250313e-16, 1.0, 0.0, 0.0, -1.0, 2.220446049250313e-16, 0.0, 0.0, 0.0, 0.0, 1.0], "name": "GLTF_SceneRootNode"}, {"children": [4, 5], "matrix": [1.0, 0.0, 0.0, 0.0, 0.0, 1.0, 0.0, 0.0, 0.0, 0.0, 1.0, 0.0, 0.5029491186141968, -0.089431531727314, 0.0, 1.0], "name": "919_0"}, {"mesh": 0, "name": "Object_4"}, {"mesh": 1, "name": "Object_5"}, {"children": [7], "matrix": [1.0, 0.0, 0.0, 0.0, 0.0, 1.0, 0.0, 0.0, 0.0, 0.0, 1.0, 0.0, 0.6267821788787842, -0.13732793927192688, 0.0, 1.0], "name": "919 case_1"}, {"mesh": 2, "name": "Object_7"}, {"children": [9, 10], "matrix": [0.9563873355097594, -0.29210146264019793, -0.0, 0.0, 0.29210146264019793, 0.9563873355097594, 0.0, 0.0, 0.0, -0.0, 1.0, 0.0, -0.5148938894271851, -0.16092927753925323, 0.0, 1.0], "name": "usp9 15rnd empty_2"}, {"mesh": 3, "name": "Object_9"}, {"mesh": 4, "name": "Object_10"}, {"children": [12, 13, 14, 15], "matrix": [1.685873969314855e-07, 0.9999999999999857, 0.0, 0.0, -0.9999999999999857, 1.685873969314855e-07, 0.0, 0.0, 0.0, 0.0, 1.0, 0.0, 0.36004018783569336, -0.49744245409965515, 0.0, 1.0], "name": "usp9 15rnd mag_3"}, {"mesh": 5, "name": "Object_12"}, {"mesh": 6, "name": "Object_13"}, {"mesh": 7, "name": "Object_14"}, {"mesh": 8, "name": "Object_15"}, {"children": [17], "matrix": [1.0, 0.0, 0.0, 0.0, 0.0, 1.0, 0.0, 0.0, 0.0, 0.0, 1.0, 0.0, -0.062426552176475525, 0.49709177017211914, 0.0, 1.0], "name": "usp9 barrel_4"}, {"mesh": 9, "name": "Object_17"}, {"children": [19, 20, 21], "matrix": [1.0, 0.0, 0.0, 0.0, 0.0, 1.0, 0.0, 0.0, 0.0, 0.0, 1.0, 0.0, 0.02130710519850254, 0.4693033695220947, 0.0, 1.0], "name": "usp9 slide_5"}, {"mesh": 10, "name": "Object_19"}, {"mesh": 11, "name": "Object_20"}, {"mesh": 12, "name": "Object_21"}, {"children": [23, 24, 25], "matrix": [1.0, 0.0, 0.0, 0.0, 0.0, 1.0, 0.0, 0.0, 0.0, 0.0, 1.0, 0.0, -0.003027990460395813, -0.10269204527139664, 0.0, 1.0], "name": "usp9 frame_6"}, {"mesh": 13, "name": "Object_23"}, {"mesh": 14, "name": "Object_24"}, {"mesh": 15, "name": "Object_25"}, {"children": [27, 28], "matrix": [1.0, 0.0, 0.0, 0.0, 0.0, 1.0, 0.0, 0.0, 0.0, 0.0, 1.0, 0.0, -0.7639909386634827, 0.29698246717453003, 0.0, 1.0], "name": "usp9 safety_7"}, {"mesh": 16, "name": "Object_27"}, {"mesh": 17, "name": "Object_28"}, {"children": [30], "matrix": [1.0, 0.0, 0.0, 0.0, 0.0, 1.0, 0.0, 0.0, 0.0, 0.0, 1.0, 0.0, 0.07554313540458679, 0.28364673256874084, 0.0, 1.0], "name": "usp9 slide catch_8"}, {"mesh": 18, "name": "Object_30"}, {"children": [32], "matrix": [1.0, 0.0, 0.0, 0.0, 0.0, 1.0, 0.0, 0.0, 0.0, 0.0, 1.0, 0.0, -0.7639909386634827, 0.29698246717453003, 0.0, 1.0], "name": "usp9 hammer_9"}, {"mesh": 19, "name": "Object_32"}, {"children": [34], "matrix": [1.0, 0.0, 0.0, 0.0, 0.0, 1.0, 0.0, 0.0, 0.0, 0.0, 1.0, 0.0, -0.023818040266633034, 0.2379000186920166, 0.0, 1.0], "name": "usp9 trigga_10"}, {"mesh": 20, "name": "Object_34"}], "scene": 0, "scenes": [{"name": "Sketchfab_Scene", "nodes": [0]}]}