{"accessors": [{"bufferView": 2, "componentType": 5126, "count": 1092, "max": [3.3929641246795654, 1.3751124143600464, 0.3096793591976166], "min": [-0.2813657224178314, -0.8438820242881775, -0.45948800444602966], "type": "VEC3"}, {"bufferView": 2, "byteOffset": 13104, "componentType": 5126, "count": 1092, "max": [1.0, 1.0, 1.0], "min": [-1.0, -1.0, -1.0], "type": "VEC3"}, {"bufferView": 1, "componentType": 5125, "count": 1278, "type": "SCALAR"}, {"bufferView": 2, "byteOffset": 26208, "componentType": 5126, "count": 4122, "max": [3.412069797515869, 1.8319569826126099, 0.31274840235710144], "min": [-1.1310259103775024, -1.8748080730438232, -0.31274858117103577], "type": "VEC3"}, {"bufferView": 2, "byteOffset": 75672, "componentType": 5126, "count": 4122, "max": [1.0, 1.0, 1.0], "min": [-1.0, -1.0, -1.0], "type": "VEC3"}, {"bufferView": 1, "byteOffset": 5112, "componentType": 5125, "count": 4506, "type": "SCALAR"}, {"bufferView": 2, "byteOffset": 125136, "componentType": 5126, "count": 515, "max": [-0.9632890820503235, 1.4873881340026855, 0.32603031396865845], "min": [-1.2589997053146362, 0.44052499532699585, -0.32540246844291687], "type": "VEC3"}, {"bufferView": 2, "byteOffset": 131316, "componentType": 5126, "count": 515, "max": [1.0, 0.9994207620620728, 1.0], "min": [-1.0, -0.9999384880065918, -1.0], "type": "VEC3"}, {"bufferView": 1, "byteOffset": 23136, "componentType": 5125, "count": 609, "type": "SCALAR"}, {"bufferView": 2, "byteOffset": 137496, "componentType": 5126, "count": 1459, "max": [3.3950109481811523, 1.8319569826126099, 0.2078070193529129], "min": [-0.8553038239479065, 0.07328902184963226, -0.20780712366104126], "type": "VEC3"}, {"bufferView": 2, "byteOffset": 155004, "componentType": 5126, "count": 1459, "max": [1.0, 1.0, 1.0], "min": [-1.0, -1.0, -1.0], "type": "VEC3"}, {"bufferView": 1, "byteOffset": 25572, "componentType": 5125, "count": 1716, "type": "SCALAR"}, {"bufferView": 2, "byteOffset": 172512, "componentType": 5126, "count": 1019, "max": [3.3531296253204346, 1.6164205074310303, 0.23583005368709564], "min": [-0.8125022053718567, -1.8951144218444824, -0.23583005368709564], "type": "VEC3"}, {"bufferView": 2, "byteOffset": 184740, "componentType": 5126, "count": 1019, "max": [1.0, 0.9998508095741272, 1.0], "min": [-1.0, -0.9238809943199158, -1.0], "type": "VEC3"}, {"bufferView": 1, "byteOffset": 32436, "componentType": 5125, "count": 1176, "type": "SCALAR"}, {"bufferView": 2, "byteOffset": 196968, "componentType": 5126, "count": 1048, "max": [1.4147448539733887, 0.9048539996147156, 0.10933300107717514], "min": [1.1610097885131836, 0.445447713136673, -0.09605388343334198], "type": "VEC3"}, {"bufferView": 2, "byteOffset": 209544, "componentType": 5126, "count": 1048, "max": [1.0, 0.8660282492637634, 1.0], "min": [-1.0, -0.8660282492637634, -1.0], "type": "VEC3"}, {"bufferView": 1, "byteOffset": 37140, "componentType": 5125, "count": 1296, "type": "SCALAR"}, {"bufferView": 2, "byteOffset": 222120, "componentType": 5126, "count": 606, "max": [1.5613274574279785, 0.9010294079780579, 0.1060209572315216], "min": [1.41474449634552, 0.4492720663547516, -0.09274197369813919], "type": "VEC3"}, {"bufferView": 2, "byteOffset": 229392, "componentType": 5126, "count": 606, "max": [1.0, 0.8646594882011414, 0.9984210133552551], "min": [0.056172631680965424, -0.8646591901779175, -0.9984210133552551], "type": "VEC3"}, {"bufferView": 1, "byteOffset": 42324, "componentType": 5125, "count": 624, "type": "SCALAR"}, {"bufferView": 2, "byteOffset": 236664, "componentType": 5126, "count": 166, "max": [1.1749567985534668, 0.8619984984397888, 0.07221920043230057], "min": [1.161930799484253, 0.48830297589302063, -0.05894008278846741], "type": "VEC3"}, {"bufferView": 2, "byteOffset": 238656, "componentType": 5126, "count": 166, "max": [1.597085065441206e-05, 0.8660277128219604, 1.0], "min": [-1.0, -0.8660277128219604, -1.0], "type": "VEC3"}, {"bufferView": 1, "byteOffset": 44820, "componentType": 5125, "count": 192, "type": "SCALAR"}, {"bufferView": 2, "byteOffset": 240648, "componentType": 5126, "count": 2227, "max": [3.290546417236328, 1.6858645677566528, 0.20630280673503876], "min": [-1.2753208875656128, -1.3242580890655518, -0.20630300045013428], "type": "VEC3"}, {"bufferView": 2, "byteOffset": 267372, "componentType": 5126, "count": 2227, "max": [1.0, 1.0, 1.0], "min": [-1.0, -1.0, -1.0], "type": "VEC3"}, {"bufferView": 1, "byteOffset": 45588, "componentType": 5125, "count": 2616, "type": "SCALAR"}, {"bufferView": 4, "componentType": 5126, "count": 9, "max": [1.0, 1.0000001192092896, 1.0, 0.0, 1.882862079582992e-07, 1.0, 0.5830428600311279, 0.0, 1.0, 1.9045900501168944e-07, 1.0, 0.0, 1.2948360443115234, 0.16864506900310516, 0.0, 1.0], "min": [-0.17957904934883118, -0.5830429196357727, 0.0, 0.0, -1.0, -1.0000001192092896, -1.1144232985316194e-06, 0.0, -1.0000001192092896, -2.5704500217216264e-07, -8.24248047592846e-07, 0.0, -7.514992148571764e-07, -2.662752628326416, -1.4227700233459473, 1.0], "type": "MAT4"}, {"bufferView": 0, "componentType": 5123, "count": 1092, "type": "VEC4"}, {"bufferView": 3, "componentType": 5126, "count": 1092, "max": [1.0, 0.0, 0.0, 0.0], "min": [1.0, 0.0, 0.0, 0.0], "type": "VEC4"}, {"bufferView": 0, "byteOffset": 8736, "componentType": 5123, "count": 4122, "type": "VEC4"}, {"bufferView": 3, "byteOffset": 17472, "componentType": 5126, "count": 4122, "max": [1.0, 0.0, 0.0, 0.0], "min": [1.0, 0.0, 0.0, 0.0], "type": "VEC4"}, {"bufferView": 0, "byteOffset": 41712, "componentType": 5123, "count": 515, "type": "VEC4"}, {"bufferView": 3, "byteOffset": 83424, "componentType": 5126, "count": 515, "max": [1.0, 0.0, 0.0, 0.0], "min": [1.0, 0.0, 0.0, 0.0], "type": "VEC4"}, {"bufferView": 0, "byteOffset": 45832, "componentType": 5123, "count": 1459, "type": "VEC4"}, {"bufferView": 3, "byteOffset": 91664, "componentType": 5126, "count": 1459, "max": [1.0, 0.0, 0.0, 0.0], "min": [1.0, 0.0, 0.0, 0.0], "type": "VEC4"}, {"bufferView": 0, "byteOffset": 57504, "componentType": 5123, "count": 1019, "type": "VEC4"}, {"bufferView": 3, "byteOffset": 115008, "componentType": 5126, "count": 1019, "max": [1.0, 0.0, 0.0, 0.0], "min": [1.0, 0.0, 0.0, 0.0], "type": "VEC4"}, {"bufferView": 0, "byteOffset": 65656, "componentType": 5123, "count": 1048, "type": "VEC4"}, {"bufferView": 3, "byteOffset": 131312, "componentType": 5126, "count": 1048, "max": [1.0, 0.0, 0.0, 0.0], "min": [1.0, 0.0, 0.0, 0.0], "type": "VEC4"}, {"bufferView": 0, "byteOffset": 74040, "componentType": 5123, "count": 606, "type": "VEC4"}, {"bufferView": 3, "byteOffset": 148080, "componentType": 5126, "count": 606, "max": [1.0, 0.0, 0.0, 0.0], "min": [1.0, 0.0, 0.0, 0.0], "type": "VEC4"}, {"bufferView": 0, "byteOffset": 78888, "componentType": 5123, "count": 166, "type": "VEC4"}, {"bufferView": 3, "byteOffset": 157776, "componentType": 5126, "count": 166, "max": [1.0, 0.0, 0.0, 0.0], "min": [1.0, 0.0, 0.0, 0.0], "type": "VEC4"}, {"bufferView": 0, "byteOffset": 80216, "componentType": 5123, "count": 2227, "type": "VEC4"}, {"bufferView": 3, "byteOffset": 160432, "componentType": 5126, "count": 2227, "max": [1.0, 0.0, 0.0, 0.0], "min": [1.0, 0.0, 0.0, 0.0], "type": "VEC4"}], "asset": {"extras": {"author": "TastyTony (https://sketchfab.com/TastyTony)", "license": "CC-BY-4.0 (http://creativecommons.org/licenses/by/4.0/)", "source": "https://sketchfab.com/3d-models/low-poly-hk-mp5k-091b4f73c00b4605b754f5c0b3fcdd26", "title": "Low-Poly HK MP5K"}, "generator": "Sketchfab-12.67.0", "version": "2.0"}, "bufferViews": [{"buffer": 0, "byteLength": 98032, "byteStride": 8, "name": "shortBufferViews", "target": 34962}, {"buffer": 0, "byteLength": 56052, "byteOffset": 98032, "name": "floatBufferViews", "target": 34963}, {"buffer": 0, "byteLength": 294096, "byteOffset": 154084, "byteStride": 12, "name": "floatBufferViews", "target": 34962}, {"buffer": 0, "byteLength": 196064, "byteOffset": 448180, "byteStride": 16, "name": "floatBufferViews", "target": 34962}, {"buffer": 0, "byteLength": 576, "byteOffset": 644244, "name": "floatBufferViews"}], "buffers": [{"byteLength": 644820, "uri": "scene.bin"}], "materials": [{"doubleSided": true, "name": "Material.006", "pbrMetallicRoughness": {"baseColorFactor": [0.020742511621608114, 0.020742511621608114, 0.020742511621608114, 1.0]}}, {"doubleSided": true, "name": "Material", "pbrMetallicRoughness": {"baseColorFactor": [0.053573780633981286, 0.053573780633981286, 0.053573780633981286, 1.0]}}, {"doubleSided": true, "name": "Material.007", "pbrMetallicRoughness": {"baseColorFactor": [0.04011232605020126, 0.04011232605020126, 0.04011232605020126, 1.0]}}, {"doubleSided": true, "name": "Material.005", "pbrMetallicRoughness": {"baseColorFactor": [0.03709710925778361, 0.03709710925778361, 0.03709710925778361, 1.0]}}, {"doubleSided": true, "name": "Material.008", "pbrMetallicRoughness": {"baseColorFactor": [0.10286909763063108, 0.09980031962783695, 0.09820476838100625, 1.0]}}, {"doubleSided": true, "name": "Material.001"}, {"doubleSided": true, "name": "Material.002"}, {"doubleSided": true, "name": "Material.003"}, {"doubleSided": true, "name": "Material.004", "pbrMetallicRoughness": {"baseColorFactor": [0.02638308043037943, 0.02638308043037943, 0.02638308043037943, 1.0]}}], "meshes": [{"name": "Object_0", "primitives": [{"attributes": {"JOINTS_0": 28, "NORMAL": 1, "POSITION": 0, "WEIGHTS_0": 29}, "indices": 2, "material": 0, "mode": 4}]}, {"name": "Object_1", "primitives": [{"attributes": {"JOINTS_0": 30, "NORMAL": 4, "POSITION": 3, "WEIGHTS_0": 31}, "indices": 5, "material": 1, "mode": 4}]}, {"name": "Object_2", "primitives": [{"attributes": {"JOINTS_0": 32, "NORMAL": 7, "POSITION": 6, "WEIGHTS_0": 33}, "indices": 8, "material": 2, "mode": 4}]}, {"name": "Object_3", "primitives": [{"attributes": {"JOINTS_0": 34, "NORMAL": 10, "POSITION": 9, "WEIGHTS_0": 35}, "indices": 11, "material": 3, "mode": 4}]}, {"name": "Object_4", "primitives": [{"attributes": {"JOINTS_0": 36, "NORMAL": 13, "POSITION": 12, "WEIGHTS_0": 37}, "indices": 14, "material": 4, "mode": 4}]}, {"name": "Object_5", "primitives": [{"attributes": {"JOINTS_0": 38, "NORMAL": 16, "POSITION": 15, "WEIGHTS_0": 39}, "indices": 17, "material": 5, "mode": 4}]}, {"name": "Object_6", "primitives": [{"attributes": {"JOINTS_0": 40, "NORMAL": 19, "POSITION": 18, "WEIGHTS_0": 41}, "indices": 20, "material": 6, "mode": 4}]}, {"name": "Object_7", "primitives": [{"attributes": {"JOINTS_0": 42, "NORMAL": 22, "POSITION": 21, "WEIGHTS_0": 43}, "indices": 23, "material": 7, "mode": 4}]}, {"name": "Object_8", "primitives": [{"attributes": {"JOINTS_0": 44, "NORMAL": 25, "POSITION": 24, "WEIGHTS_0": 45}, "indices": 26, "material": 8, "mode": 4}]}], "nodes": [{"children": [1], "matrix": [1.0, 0.0, 0.0, 0.0, 0.0, 2.220446049250313e-16, -1.0, 0.0, 0.0, 1.0, 2.220446049250313e-16, 0.0, 0.0, 0.0, 0.0, 1.0], "name": "Sketchfab_model"}, {"children": [2], "name": "root"}, {"children": [3], "matrix": [1.0, 0.0, 0.0, 0.0, 0.0, 2.220446049250313e-16, 1.0, 0.0, 0.0, -1.0, 2.220446049250313e-16, 0.0, 0.0, 0.0, 0.0, 1.0], "name": "GLTF_SceneRootNode"}, {"children": [4], "matrix": [1.685873969314855e-07, -0.9999999999999857, -0.0, 0.0, 0.9999999999999857, 1.685873969314855e-07, 0.0, 0.0, 0.0, 0.0, 1.0, 0.0, 2.662752389907837, 0.774430513381958, 0.0, 1.0], "name": "Armature_9"}, {"children": [5, 7, 8, 9, 10, 11, 12, 13, 14, 15, 6], "name": "GLTF_created_0"}, {"children": [16], "name": "GLTF_created_0_rootJoint"}, {"name": "Cube_8"}, {"mesh": 0, "name": "Object_7", "skin": 0}, {"mesh": 1, "name": "Object_8", "skin": 0}, {"mesh": 2, "name": "Object_9", "skin": 0}, {"mesh": 3, "name": "Object_10", "skin": 0}, {"mesh": 4, "name": "Object_11", "skin": 0}, {"mesh": 5, "name": "Object_12", "skin": 0}, {"mesh": 6, "name": "Object_13", "skin": 0}, {"mesh": 7, "name": "Object_14", "skin": 0}, {"mesh": 8, "name": "Object_15", "skin": 0}, {"children": [17, 18, 19, 22, 23], "name": "bdy_7"}, {"name": "bolt_0", "translation": [-0.15992362797260284, -1.8110179901123047, -2.4856458935573755e-07]}, {"name": "charginghandle_1", "translation": [-0.5204060673713684, -0.11347174644470215, 2.7995270102110226e-08]}, {"children": [20, 21], "name": "mag_4", "rotation": [-0.4086741805076599, -0.4915888011455536, -0.4915888011455536, 0.5913259983062744], "scale": [1.0, 1.0, 0.9999999403953552], "translation": [0.5226234197616577, -1.237658143043518, -2.2623200379712216e-07]}, {"name": "bullet_2", "rotation": [0.40867409110069275, 0.4915888011455536, 0.49158868193626404, 0.5913260579109192], "scale": [0.9999998807907104, 0.9999999403953552, 0.9999999403953552], "translation": [0.020302647724747658, -0.5748817920684814, -0.10928550362586975]}, {"name": "bullets_3", "rotation": [0.40867412090301514, 0.4915888011455536, 0.4915887713432312, 0.5913260579109192], "scale": [0.9999999403953552, 0.9999998807907104, 0.9999999403953552], "translation": [0.030424902215600014, -0.3953692615032196, -0.16377146542072296]}, {"name": "release_5", "rotation": [-0.5000004768371582, -0.49999991059303284, -0.5000001788139343, 0.49999943375587463], "scale": [1.0, 0.9999999403953552, 1.0], "translation": [0.6057863235473633, -1.6123408079147339, -4.6671786435581453e-07]}, {"name": "selector_6", "rotation": [-0.6290950179100037, 0.32286110520362854, 0.629095196723938, 0.3228612542152405], "scale": [0.9999998807907104, 0.9999998211860657, 0.9999999403953552], "translation": [0.4066351354122162, -2.6798627376556396, -4.146749290612206e-07]}], "scene": 0, "scenes": [{"name": "Sketchfab_Scene", "nodes": [0]}], "skins": [{"inverseBindMatrices": 27, "joints": [5, 16, 17, 18, 19, 20, 21, 22, 23], "skeleton": 5}]}