{"accessors": [{"bufferView": 2, "componentType": 5126, "count": 1837, "max": [3.166621208190918, 1.3124234676361084, 0.10535252094268799], "min": [-4.580416679382324, -0.3459196090698242, -0.10535229742527008], "type": "VEC3"}, {"bufferView": 2, "byteOffset": 22044, "componentType": 5126, "count": 1837, "max": [1.0, 1.0, 1.0], "min": [-1.0, -1.0, -1.0], "type": "VEC3"}, {"bufferView": 1, "componentType": 5125, "count": 2112, "type": "SCALAR"}, {"bufferView": 2, "byteOffset": 44088, "componentType": 5126, "count": 609, "max": [2.3340554237365723, 1.2628223896026611, 0.13410575687885284], "min": [-0.669161856174469, -0.09904253482818604, -0.21276457607746124], "type": "VEC3"}, {"bufferView": 2, "byteOffset": 51396, "componentType": 5126, "count": 609, "max": [1.0, 1.0, 1.0], "min": [-1.0, -1.0, -1.0], "type": "VEC3"}, {"bufferView": 1, "byteOffset": 8448, "componentType": 5125, "count": 708, "type": "SCALAR"}, {"bufferView": 2, "byteOffset": 58704, "componentType": 5126, "count": 1789, "max": [2.3348896503448486, 0.957641065120697, 0.1878330409526825], "min": [-4.660618305206299, -0.34837019443511963, -0.18502040207386017], "type": "VEC3"}, {"bufferView": 2, "byteOffset": 80172, "componentType": 5126, "count": 1789, "max": [1.0, 1.0, 1.0], "min": [-1.0, -1.0, -1.0], "type": "VEC3"}, {"bufferView": 1, "byteOffset": 11280, "componentType": 5125, "count": 2124, "type": "SCALAR"}, {"bufferView": 2, "byteOffset": 101640, "componentType": 5126, "count": 2744, "max": [2.339707374572754, 1.305904507637024, 0.14279800653457642], "min": [-2.1592724323272705, -1.428378701210022, -0.18502043187618256], "type": "VEC3"}, {"bufferView": 2, "byteOffset": 134568, "componentType": 5126, "count": 2744, "max": [1.0, 1.0, 1.0], "min": [-1.0, -1.0, -1.0], "type": "VEC3"}, {"bufferView": 1, "byteOffset": 19776, "componentType": 5125, "count": 3432, "type": "SCALAR"}, {"bufferView": 2, "byteOffset": 167496, "componentType": 5126, "count": 1520, "max": [1.9965190887451172, 1.147607684135437, 0.16552971303462982], "min": [0.6749544739723206, 0.3704449534416199, -0.16552956402301788], "type": "VEC3"}, {"bufferView": 2, "byteOffset": 185736, "componentType": 5126, "count": 1520, "max": [1.0, 1.0, 1.0], "min": [-1.0, -1.0, -1.0], "type": "VEC3"}, {"bufferView": 1, "byteOffset": 33504, "componentType": 5125, "count": 1776, "type": "SCALAR"}, {"bufferView": 2, "byteOffset": 203976, "componentType": 5126, "count": 2553, "max": [0.8316988348960876, 1.3285698890686035, 0.2463853359222412], "min": [-2.0899946689605713, 0.46878767013549805, -0.19447655975818634], "type": "VEC3"}, {"bufferView": 2, "byteOffset": 234612, "componentType": 5126, "count": 2553, "max": [1.0, 1.0, 1.0], "min": [-1.0, -1.0, -1.0], "type": "VEC3"}, {"bufferView": 1, "byteOffset": 40608, "componentType": 5125, "count": 2826, "type": "SCALAR"}, {"bufferView": 2, "byteOffset": 265248, "componentType": 5126, "count": 1176, "max": [-0.09796972572803497, 0.6614118218421936, 0.09683092683553696], "min": [-0.5106885433197021, 0.44026434421539307, -0.10549346357584], "type": "VEC3"}, {"bufferView": 2, "byteOffset": 279360, "componentType": 5126, "count": 1176, "max": [1.0, 0.8713737726211548, 1.0], "min": [-1.0, -0.8713738322257996, -1.0], "type": "VEC3"}, {"bufferView": 1, "byteOffset": 51912, "componentType": 5125, "count": 1188, "type": "SCALAR"}, {"bufferView": 2, "byteOffset": 293472, "componentType": 5126, "count": 140, "max": [-0.49573394656181335, 0.6331565380096436, 0.07226144522428513], "min": [-0.5067586302757263, 0.4701133370399475, -0.08078531175851822], "type": "VEC3"}, {"bufferView": 2, "byteOffset": 295152, "componentType": 5126, "count": 140, "max": [0.05996336042881012, 0.8713736534118652, 1.0], "min": [-1.0, -0.87137371301651, -1.0], "type": "VEC3"}, {"bufferView": 1, "byteOffset": 56664, "componentType": 5125, "count": 144, "type": "SCALAR"}, {"bufferView": 2, "byteOffset": 296832, "componentType": 5126, "count": 468, "max": [0.06868061423301697, 0.6377339363098145, 0.06293316930532455], "min": [-0.10186219215393066, 0.46155738830566406, -0.06391624361276627], "type": "VEC3"}, {"bufferView": 2, "byteOffset": 302448, "componentType": 5126, "count": 468, "max": [1.0, 0.8711479306221008, 0.9997308254241943], "min": [-0.03678620606660843, -0.8711293339729309, -0.9997308254241943], "type": "VEC3"}, {"bufferView": 1, "byteOffset": 57240, "componentType": 5125, "count": 468, "type": "SCALAR"}, {"bufferView": 2, "byteOffset": 308064, "componentType": 5126, "count": 1574, "max": [0.6768085360527039, 0.6628913283348083, 0.11482518166303635], "min": [-0.5798762440681458, -1.4016581773757935, -0.1148410215973854], "type": "VEC3"}, {"bufferView": 2, "byteOffset": 326952, "componentType": 5126, "count": 1574, "max": [1.0, 1.0, 1.0], "min": [-1.0, -0.9870690703392029, -1.0], "type": "VEC3"}, {"bufferView": 1, "byteOffset": 59112, "componentType": 5125, "count": 1848, "type": "SCALAR"}, {"bufferView": 2, "byteOffset": 345840, "componentType": 5126, "count": 825, "max": [0.5899372696876526, 1.23943030834198, 0.19477763772010803], "min": [-2.2535393238067627, 0.38176965713500977, -0.19005176424980164], "type": "VEC3"}, {"bufferView": 2, "byteOffset": 355740, "componentType": 5126, "count": 825, "max": [1.0, 0.8864809274673462, 1.0], "min": [-1.0, -0.8864808678627014, -1.0], "type": "VEC3"}, {"bufferView": 1, "byteOffset": 66504, "componentType": 5125, "count": 1020, "type": "SCALAR"}, {"bufferView": 2, "byteOffset": 365640, "componentType": 5126, "count": 932, "max": [1.80488920211792, 1.0828717947006226, 0.4391533136367798], "min": [-0.5035485625267029, 0.6546409726142883, -0.1061340868473053], "type": "VEC3"}, {"bufferView": 2, "byteOffset": 376824, "componentType": 5126, "count": 932, "max": [1.0, 1.0, 1.0], "min": [-1.0, -1.0, -1.0], "type": "VEC3"}, {"bufferView": 1, "byteOffset": 70584, "componentType": 5125, "count": 996, "type": "SCALAR"}, {"bufferView": 2, "byteOffset": 388008, "componentType": 5126, "count": 393, "max": [-1.3564330339431763, 0.38539791107177734, 0.1233893409371376], "min": [-2.0836551189422607, -0.7105376720428467, -0.12338928878307343], "type": "VEC3"}, {"bufferView": 2, "byteOffset": 392724, "componentType": 5126, "count": 393, "max": [0.9999998807907104, 0.9992443919181824, 1.0], "min": [-0.9999992847442627, -0.9838952422142029, -1.0], "type": "VEC3"}, {"bufferView": 1, "byteOffset": 74568, "componentType": 5125, "count": 408, "type": "SCALAR"}, {"bufferView": 2, "byteOffset": 397440, "componentType": 5126, "count": 46, "max": [-0.6161949634552002, 0.2078620195388794, 0.09262166917324066], "min": [-0.6675575971603394, 0.14855360984802246, -0.09262163192033768], "type": "VEC3"}, {"bufferView": 2, "byteOffset": 397992, "componentType": 5126, "count": 46, "max": [1.0, 0.8660289645195007, 1.0], "min": [-1.0, -0.8660289645195007, -1.0], "type": "VEC3"}, {"bufferView": 1, "byteOffset": 76200, "componentType": 5125, "count": 60, "type": "SCALAR"}, {"bufferView": 4, "componentType": 5126, "count": 13, "max": [100.0, 1.0, 0.9998200535774231, 0.0, 1.0842015928936202e-23, 100.0, 0.01599855162203312, 0.0, 0.9999479651451111, 5.88005093504762e-07, 100.0, 0.0, 0.8403270244598389, 1.4884731769561768, 0.6406211853027344, 1.0], "min": [-0.9897002577781677, 0.0, -0.09106706827878952, 0.0, -1.0, -0.9998717904090881, -0.9958446621894836, 0.0, -0.9999998211860657, -4.61310690980099e-07, -5.3771348262898755e-08, 0.0, -0.006525466684252024, -0.7370473146438599, -1.8673132728963537e-07, 1.0], "type": "MAT4"}, {"bufferView": 0, "componentType": 5123, "count": 1837, "type": "VEC4"}, {"bufferView": 3, "componentType": 5126, "count": 1837, "max": [1.0, 0.0, 0.0, 0.0], "min": [1.0, 0.0, 0.0, 0.0], "type": "VEC4"}, {"bufferView": 0, "byteOffset": 14696, "componentType": 5123, "count": 609, "type": "VEC4"}, {"bufferView": 3, "byteOffset": 29392, "componentType": 5126, "count": 609, "max": [1.0, 0.0, 0.0, 0.0], "min": [1.0, 0.0, 0.0, 0.0], "type": "VEC4"}, {"bufferView": 0, "byteOffset": 19568, "componentType": 5123, "count": 1789, "type": "VEC4"}, {"bufferView": 3, "byteOffset": 39136, "componentType": 5126, "count": 1789, "max": [1.0, 0.0, 0.0, 0.0], "min": [1.0, 0.0, 0.0, 0.0], "type": "VEC4"}, {"bufferView": 0, "byteOffset": 33880, "componentType": 5123, "count": 2744, "type": "VEC4"}, {"bufferView": 3, "byteOffset": 67760, "componentType": 5126, "count": 2744, "max": [1.0, 0.0, 0.0, 0.0], "min": [1.0, 0.0, 0.0, 0.0], "type": "VEC4"}, {"bufferView": 0, "byteOffset": 55832, "componentType": 5123, "count": 1520, "type": "VEC4"}, {"bufferView": 3, "byteOffset": 111664, "componentType": 5126, "count": 1520, "max": [1.0, 0.0, 0.0, 0.0], "min": [1.0, 0.0, 0.0, 0.0], "type": "VEC4"}, {"bufferView": 0, "byteOffset": 67992, "componentType": 5123, "count": 2553, "type": "VEC4"}, {"bufferView": 3, "byteOffset": 135984, "componentType": 5126, "count": 2553, "max": [1.0, 0.0, 0.0, 0.0], "min": [1.0, 0.0, 0.0, 0.0], "type": "VEC4"}, {"bufferView": 0, "byteOffset": 88416, "componentType": 5123, "count": 1176, "type": "VEC4"}, {"bufferView": 3, "byteOffset": 176832, "componentType": 5126, "count": 1176, "max": [1.0, 0.0, 0.0, 0.0], "min": [1.0, 0.0, 0.0, 0.0], "type": "VEC4"}, {"bufferView": 0, "byteOffset": 97824, "componentType": 5123, "count": 140, "type": "VEC4"}, {"bufferView": 3, "byteOffset": 195648, "componentType": 5126, "count": 140, "max": [1.0, 0.0, 0.0, 0.0], "min": [1.0, 0.0, 0.0, 0.0], "type": "VEC4"}, {"bufferView": 0, "byteOffset": 98944, "componentType": 5123, "count": 468, "type": "VEC4"}, {"bufferView": 3, "byteOffset": 197888, "componentType": 5126, "count": 468, "max": [1.0, 0.0, 0.0, 0.0], "min": [1.0, 0.0, 0.0, 0.0], "type": "VEC4"}, {"bufferView": 0, "byteOffset": 102688, "componentType": 5123, "count": 1574, "type": "VEC4"}, {"bufferView": 3, "byteOffset": 205376, "componentType": 5126, "count": 1574, "max": [1.0, 0.0, 0.0, 0.0], "min": [1.0, 0.0, 0.0, 0.0], "type": "VEC4"}, {"bufferView": 0, "byteOffset": 115280, "componentType": 5123, "count": 825, "type": "VEC4"}, {"bufferView": 3, "byteOffset": 230560, "componentType": 5126, "count": 825, "max": [1.0, 0.0, 0.0, 0.0], "min": [1.0, 0.0, 0.0, 0.0], "type": "VEC4"}, {"bufferView": 0, "byteOffset": 121880, "componentType": 5123, "count": 932, "type": "VEC4"}, {"bufferView": 3, "byteOffset": 243760, "componentType": 5126, "count": 932, "max": [1.0, 0.0, 0.0, 0.0], "min": [1.0, 0.0, 0.0, 0.0], "type": "VEC4"}, {"bufferView": 0, "byteOffset": 129336, "componentType": 5123, "count": 393, "type": "VEC4"}, {"bufferView": 3, "byteOffset": 258672, "componentType": 5126, "count": 393, "max": [1.0, 0.0, 0.0, 0.0], "min": [1.0, 0.0, 0.0, 0.0], "type": "VEC4"}, {"bufferView": 0, "byteOffset": 132480, "componentType": 5123, "count": 46, "type": "VEC4"}, {"bufferView": 3, "byteOffset": 264960, "componentType": 5126, "count": 46, "max": [1.0, 0.0, 0.0, 0.0], "min": [1.0, 0.0, 0.0, 0.0], "type": "VEC4"}], "asset": {"extras": {"author": "TastyTony (https://sketchfab.com/TastyTony)", "license": "CC-BY-4.0 (http://creativecommons.org/licenses/by/4.0/)", "source": "https://sketchfab.com/3d-models/low-poly-aks-74u-4fc741a30b20477ea748f5d2837ac0b4", "title": "Low-Poly AKS-74U"}, "generator": "Sketchfab-15.10.0", "version": "2.0"}, "bufferViews": [{"buffer": 0, "byteLength": 132848, "byteStride": 8, "name": "shortBufferViews", "target": 34962}, {"buffer": 0, "byteLength": 76440, "byteOffset": 132848, "name": "floatBufferViews", "target": 34963}, {"buffer": 0, "byteLength": 398544, "byteOffset": 209288, "byteStride": 12, "name": "floatBufferViews", "target": 34962}, {"buffer": 0, "byteLength": 265696, "byteOffset": 607832, "byteStride": 16, "name": "floatBufferViews", "target": 34962}, {"buffer": 0, "byteLength": 832, "byteOffset": 873528, "name": "floatBufferViews"}], "buffers": [{"byteLength": 874360, "uri": "scene.bin"}], "extensionsUsed": ["KHR_materials_specular"], "materials": [{"doubleSided": true, "extensions": {"KHR_materials_specular": {"specularColorFactor": [1.0, 1.0, 1.0], "specularFactor": 0.0}}, "name": "Material.001", "pbrMetallicRoughness": {"baseColorFactor": [0.0989329268, 0.0989329268, 0.0989329268, 1.0], "metallicFactor": 0.0}}, {"doubleSided": true, "extensions": {"KHR_materials_specular": {"specularColorFactor": [1.0, 1.0, 1.0], "specularFactor": 0.0}}, "name": "Material.004", "pbrMetallicRoughness": {"baseColorFactor": [0.08917682928000001, 0.08917682928000001, 0.08917682928000001, 1.0], "metallicFactor": 0.0}}, {"doubleSided": true, "extensions": {"KHR_materials_specular": {"specularColorFactor": [1.0, 1.0, 1.0], "specularFactor": 0.0}}, "name": "Material.006", "pbrMetallicRoughness": {"baseColorFactor": [0.06966463416, 0.06966463416, 0.06966463416, 1.0], "metallicFactor": 0.0}}, {"doubleSided": true, "extensions": {"KHR_materials_specular": {"specularColorFactor": [1.0, 1.0, 1.0], "specularFactor": 0.0}}, "name": "Material", "pbrMetallicRoughness": {"baseColorFactor": [0.05990853656, 0.05990853656, 0.05990853656, 1.0], "metallicFactor": 0.0}}, {"doubleSided": true, "extensions": {"KHR_materials_specular": {"specularColorFactor": [1.0, 1.0, 1.0], "specularFactor": 0.0}}, "name": "Material.008", "pbrMetallicRoughness": {"baseColorFactor": [0.209968471, 0.1230410216, 0.066060818, 1.0], "metallicFactor": 0.0}}, {"doubleSided": true, "extensions": {"KHR_materials_specular": {"specularColorFactor": [1.0, 1.0, 1.0], "specularFactor": 0.0}}, "name": "material_0", "pbrMetallicRoughness": {"baseColorFactor": [0.053573780633981286, 0.053573780633981286, 0.053573780633981286, 1.0], "metallicFactor": 0.0}}, {"doubleSided": true, "extensions": {"KHR_materials_specular": {"specularColorFactor": [1.0, 1.0, 1.0], "specularFactor": 0.0}}, "name": "Material.016", "pbrMetallicRoughness": {"baseColorFactor": [0.0631596481, 0.0468641599, 0.0366100519, 1.0], "metallicFactor": 0.0}}, {"doubleSided": true, "extensions": {"KHR_materials_specular": {"specularColorFactor": [1.0, 1.0, 1.0], "specularFactor": 0.0}}, "name": "Material.015", "pbrMetallicRoughness": {"baseColorFactor": [0.08429878048, 0.08429878048, 0.08429878048, 1.0], "metallicFactor": 0.0}}, {"doubleSided": true, "extensions": {"KHR_materials_specular": {"specularColorFactor": [1.0, 1.0, 1.0], "specularFactor": 0.0}}, "name": "Material.014", "pbrMetallicRoughness": {"baseColorFactor": [0.1827273639, 0.103556553, 0.0528656762, 1.0], "metallicFactor": 0.0}}, {"doubleSided": true, "extensions": {"KHR_materials_specular": {"specularColorFactor": [1.0, 1.0, 1.0], "specularFactor": 0.0}}, "name": "Material.013", "pbrMetallicRoughness": {"baseColorFactor": [0.2482802702, 0.1185001124, 0.0760441308, 1.0], "metallicFactor": 0.0}}, {"doubleSided": true, "extensions": {"KHR_materials_specular": {"specularColorFactor": [1.0, 1.0, 1.0], "specularFactor": 0.0}}, "name": "Material.010", "pbrMetallicRoughness": {"baseColorFactor": [0.09405487808000002, 0.09405487808000002, 0.09405487808000002, 1.0], "metallicFactor": 0.0}}, {"doubleSided": true, "extensions": {"KHR_materials_specular": {"specularColorFactor": [1.0, 1.0, 1.0], "specularFactor": 0.0}}, "name": "Material.012", "pbrMetallicRoughness": {"baseColorFactor": [0.08429878048, 0.08429878048, 0.08429878048, 1.0], "metallicFactor": 0.0}}, {"doubleSided": true, "extensions": {"KHR_materials_specular": {"specularColorFactor": [1.0, 1.0, 1.0], "specularFactor": 0.0}}, "name": "Material.007", "pbrMetallicRoughness": {"baseColorFactor": [0.0851527775, 0.05930905, 0.05930905, 1.0], "metallicFactor": 0.0}}, {"doubleSided": true, "extensions": {"KHR_materials_specular": {"specularColorFactor": [1.0, 1.0, 1.0], "specularFactor": 0.0}}, "name": "Material.009", "pbrMetallicRoughness": {"baseColorFactor": [0.0989329268, 0.0989329268, 0.0989329268, 1.0], "metallicFactor": 0.0}}], "meshes": [{"name": "Cube.008_Material.001_0", "primitives": [{"attributes": {"JOINTS_0": 43, "NORMAL": 1, "POSITION": 0, "WEIGHTS_0": 44}, "indices": 2, "material": 0, "mode": 4}]}, {"name": "Cube.008_Material.004_0", "primitives": [{"attributes": {"JOINTS_0": 45, "NORMAL": 4, "POSITION": 3, "WEIGHTS_0": 46}, "indices": 5, "material": 1, "mode": 4}]}, {"name": "Cube.008_Material.006_0", "primitives": [{"attributes": {"JOINTS_0": 47, "NORMAL": 7, "POSITION": 6, "WEIGHTS_0": 48}, "indices": 8, "material": 2, "mode": 4}]}, {"name": "Cube.008_Material_0", "primitives": [{"attributes": {"JOINTS_0": 49, "NORMAL": 10, "POSITION": 9, "WEIGHTS_0": 50}, "indices": 11, "material": 3, "mode": 4}]}, {"name": "Cube.008_Material.008_0", "primitives": [{"attributes": {"JOINTS_0": 51, "NORMAL": 13, "POSITION": 12, "WEIGHTS_0": 52}, "indices": 14, "material": 4, "mode": 4}]}, {"name": "Cube.008_Material.005_0", "primitives": [{"attributes": {"JOINTS_0": 53, "NORMAL": 16, "POSITION": 15, "WEIGHTS_0": 54}, "indices": 17, "material": 5, "mode": 4}]}, {"name": "Cube.008_Material.016_0", "primitives": [{"attributes": {"JOINTS_0": 55, "NORMAL": 19, "POSITION": 18, "WEIGHTS_0": 56}, "indices": 20, "material": 6, "mode": 4}]}, {"name": "Cube.008_Material.015_0", "primitives": [{"attributes": {"JOINTS_0": 57, "NORMAL": 22, "POSITION": 21, "WEIGHTS_0": 58}, "indices": 23, "material": 7, "mode": 4}]}, {"name": "Cube.008_Material.014_0", "primitives": [{"attributes": {"JOINTS_0": 59, "NORMAL": 25, "POSITION": 24, "WEIGHTS_0": 60}, "indices": 26, "material": 8, "mode": 4}]}, {"name": "Cube.008_Material.013_0", "primitives": [{"attributes": {"JOINTS_0": 61, "NORMAL": 28, "POSITION": 27, "WEIGHTS_0": 62}, "indices": 29, "material": 9, "mode": 4}]}, {"name": "Cube.008_Material.010_0", "primitives": [{"attributes": {"JOINTS_0": 63, "NORMAL": 31, "POSITION": 30, "WEIGHTS_0": 64}, "indices": 32, "material": 10, "mode": 4}]}, {"name": "Cube.008_Material.012_0", "primitives": [{"attributes": {"JOINTS_0": 65, "NORMAL": 34, "POSITION": 33, "WEIGHTS_0": 66}, "indices": 35, "material": 11, "mode": 4}]}, {"name": "Cube.008_Material.007_0", "primitives": [{"attributes": {"JOINTS_0": 67, "NORMAL": 37, "POSITION": 36, "WEIGHTS_0": 68}, "indices": 38, "material": 12, "mode": 4}]}, {"name": "Cube.008_Material.009_0", "primitives": [{"attributes": {"JOINTS_0": 69, "NORMAL": 40, "POSITION": 39, "WEIGHTS_0": 70}, "indices": 41, "material": 13, "mode": 4}]}], "nodes": [{"children": [1], "matrix": [1.0, 0.0, 0.0, 0.0, 0.0, 2.220446049250313e-16, -1.0, 0.0, 0.0, 1.0, 2.220446049250313e-16, 0.0, 0.0, 0.0, 0.0, 1.0], "name": "Sketchfab_model"}, {"children": [2], "matrix": [1.0, 0.0, 0.0, 0.0, 0.0, 0.0, 1.0, 0.0, 0.0, -1.0, 0.0, 0.0, 0.0, 0.0, 0.0, 1.0], "name": "7614e5a350bf4a36a2e113df665e276a.fbx"}, {"children": [3, 6, 8], "name": "RootNode"}, {"children": [4], "matrix": [0.46971972071402357, 93.49157059739383, -35.48387789710278, 0.0, 0.00033833286723898917, 35.4842651624637, 93.4925954281228, 0.0, 99.99888918095202, -0.4392732117547676, 0.16636027850712481, 0.0, 5.085849761962891, 532.326904296875, 1266.4395751953125, 1.0], "name": "Lamp"}, {"children": [5], "matrix": [1.0, 0.0, 0.0, 0.0, 0.0, 2.220446049250313e-16, 1.0, 0.0, 0.0, -1.0, 2.220446049250313e-16, 0.0, 0.0, 0.0, 0.0, 1.0], "name": "Object_4"}, {"name": "Object_5"}, {"children": [7], "matrix": [1.9470721841536002e-05, 0.0, -100.00001525878717, 0.0, 5.024296971964058e-13, 100.00001525878906, 9.782667388797899e-20, 0.0, 99.99999999999811, -5.024296205317393e-13, 1.9470718870540082e-05, 0.0, -71.07661437988281, -4.229208946228027, 788.6583862304688, 1.0], "name": "Camera"}, {"name": "Object_7"}, {"children": [9], "matrix": [7.549789970973109e-06, -99.99999999999967, 2.980231184057658e-06, 0.0, -2.8212996699972237e-05, -2.980233304583635e-06, -99.99999999999596, 0.0, 99.99999999999572, 7.549789121652495e-06, -2.8212996916465727e-05, 0.0, 73.70471954345703, 68.85401916503906, 8.770251952228136e-06, 1.0], "name": "Armature"}, {"children": [10, 24, 25, 26, 27, 28, 29, 30, 31, 32, 33, 34, 35, 36, 37, 23], "name": "Object_9"}, {"children": [11], "name": "_rootJoint"}, {"children": [12, 14, 19, 21], "name": "body_00", "rotation": [0.7071068286895752, 1.1281869781330238e-23, -4.2630106427015896e-24, 0.7071067094802856]}, {"children": [13], "name": "bolt_01", "rotation": [2.6469779601696886e-23, 1.6543612251060553e-24, 6.617450422450558e-24, 1.0], "translation": [-0.1517869532108307, -1.164626121520996, -1.4604651710214966e-07]}, {"name": "bolt_end_07", "rotation": [1.9852334701272664e-23, 3.308722450212111e-24, 6.1136720154628415e-30, 1.0], "translation": [-1.1102230246251565e-16, 0.8517012596130371, 1.3234889800848443e-23]}, {"children": [15, 17], "name": "mag_02", "rotation": [-1.7606343760689924e-07, -1.3840111279250777e-08, -0.6545400619506836, 0.7560274600982666], "translation": [0.16005702316761017, -0.706148624420166, -1.3040140345310647e-07]}, {"children": [16], "name": "bullet_03", "rotation": [1.9940223694447923e-07, -1.1469087013438184e-08, 0.6686116456985474, 0.7436118125915527], "scale": [1.0000001192092896, 1.0000001192092896, 1.0], "translation": [0.4617097079753876, -0.15155810117721558, -2.2674736044336896e-07]}, {"name": "bullet_end_08", "rotation": [1.3234889800848443e-23, 6.617444900424222e-24, 4.372333615709333e-18, 1.0], "translation": [0.0, 0.49316126108169556, 0.0]}, {"children": [18], "name": "bullets_04", "rotation": [2.006438251100917e-07, -1.2849955766114363e-08, 0.6686116456985474, 0.7436118125915527], "scale": [1.0000001192092896, 1.0000001192092896, 1.0], "translation": [0.46189168095588684, -0.047691091895103455, -2.1286530227371259e-07]}, {"name": "bullets_end_09", "rotation": [6.617444900424222e-24, 1.3234889800848443e-23, -1.5636920970077397e-18, 1.0], "translation": [0.0, 0.49316132068634033, 6.617444900424222e-24]}, {"children": [20], "name": "magrelease_05", "rotation": [-0.49345093965530396, -0.5014112591743469, -0.4985028803348541, 0.5065450072288513], "scale": [1.0, 1.0000001192092896, 1.0000001192092896], "translation": [0.5019362568855286, -1.3807697296142578, -2.5964507699427486e-07]}, {"name": "magrelease_end_010", "rotation": [3.118204143577366e-19, 8.673617379884035e-19, -3.287546626530753e-20, 1.0], "translation": [8.673617379884035e-19, 0.30584022402763367, 0.0]}, {"children": [22], "name": "safety_06", "rotation": [0.03223066404461861, 0.7063716650009155, -0.032230645418167114, 0.7063720226287842], "scale": [1.0000001192092896, 1.000000238418579, 1.0000001192092896], "translation": [0.021498190239071846, -2.1707324981689453, -3.1153570034803124e-07]}, {"name": "safety_end_011", "rotation": [-6.243475304718079e-18, 5.293955920339377e-23, -6.617444900424221e-23, 1.0], "translation": [0.0, 0.9567797183990479, -1.1102230246251565e-16]}, {"matrix": [100.0000000000056, 6.821213778208503e-13, 3.410605131648481e-13, 0.0, 3.410605131648351e-13, 6.123233995739202e-15, -100.0000000000018, 0.0, -6.82121377820838e-13, 100.0000000000038, 6.123233995736998e-15, 0.0, -27.91008819221237, 123.39919925097064, 1.6082990619799352e-05, 1.0], "name": "Object_23"}, {"mesh": 0, "name": "Object_24", "skin": 0}, {"mesh": 1, "name": "Object_25", "skin": 0}, {"mesh": 2, "name": "Object_26", "skin": 0}, {"mesh": 3, "name": "Object_27", "skin": 0}, {"mesh": 4, "name": "Object_28", "skin": 0}, {"mesh": 5, "name": "Object_29", "skin": 0}, {"mesh": 6, "name": "Object_30", "skin": 0}, {"mesh": 7, "name": "Object_31", "skin": 0}, {"mesh": 8, "name": "Object_32", "skin": 0}, {"mesh": 9, "name": "Object_33", "skin": 0}, {"mesh": 10, "name": "Object_34", "skin": 0}, {"mesh": 11, "name": "Object_35", "skin": 0}, {"mesh": 12, "name": "Object_36", "skin": 0}, {"mesh": 13, "name": "Object_37", "skin": 0}], "scene": 0, "scenes": [{"name": "Sketchfab_Scene", "nodes": [0]}], "skins": [{"inverseBindMatrices": 42, "joints": [10, 11, 12, 13, 14, 15, 16, 17, 18, 19, 20, 21, 22], "skeleton": 10}]}