{"accessors": [{"bufferView": 2, "componentType": 5126, "count": 1839, "max": [0.08180999755859375, 1.0, 0.18622800707817078], "min": [-0.08180999755859375, -1.0, -0.18622800707817078], "type": "VEC3"}, {"bufferView": 2, "byteOffset": 22068, "componentType": 5126, "count": 1839, "max": [0.9999438524246216, 0.9783637523651123, 1.0], "min": [-0.9999438524246216, -1.0, -1.0], "type": "VEC3"}, {"bufferView": 3, "componentType": 5126, "count": 1839, "max": [1.0, 0.995838463306427, 1.0, 1.0], "min": [-1.0, -1.0, -0.9999997615814209, 1.0], "type": "VEC4"}, {"bufferView": 1, "componentType": 5126, "count": 1839, "max": [0.9841910004615784, 0.9973980188369751], "min": [0.00959187000989914, 0.005347589962184429], "type": "VEC2"}, {"bufferView": 0, "componentType": 5125, "count": 9978, "type": "SCALAR"}], "asset": {"extras": {"author": "Urpo (https://sketchfab.com/Urpo)", "license": "CC-BY-4.0 (http://creativecommons.org/licenses/by/4.0/)", "source": "https://sketchfab.com/3d-models/ka-bar-usmc-knife-73ddfa74144b49fd8bad8177646e5ed5", "title": "KA-BAR USMC Knife"}, "generator": "Sketchfab-15.31.0", "version": "2.0"}, "bufferViews": [{"buffer": 0, "byteLength": 39912, "name": "floatBufferViews", "target": 34963}, {"buffer": 0, "byteLength": 14712, "byteOffset": 39912, "byteStride": 8, "name": "floatBufferViews", "target": 34962}, {"buffer": 0, "byteLength": 44136, "byteOffset": 54624, "byteStride": 12, "name": "floatBufferViews", "target": 34962}, {"buffer": 0, "byteLength": 29424, "byteOffset": 98760, "byteStride": 16, "name": "floatBufferViews", "target": 34962}], "buffers": [{"byteLength": 128184, "uri": "scene.bin"}], "images": [{"uri": "textures/kabar_baseColor.png", "mimeType": "image/png"}, {"uri": "textures/kabar_metallicRoughness.jpg", "mimeType": "image/jpeg"}, {"uri": "textures/kabar_emissive.jpg", "mimeType": "image/jpeg"}, {"uri": "textures/kabar_normal.jpg", "mimeType": "image/jpeg"}], "materials": [{"alphaMode": "BLEND", "doubleSided": true, "emissiveFactor": [1.0, 1.0, 1.0], "emissiveTexture": {"index": 2}, "name": "kabar", "normalTexture": {"index": 3}, "occlusionTexture": {"index": 1}, "pbrMetallicRoughness": {"baseColorTexture": {"index": 0}, "metallicRoughnessTexture": {"index": 1}}}], "meshes": [{"name": "defaultMaterial", "primitives": [{"attributes": {"NORMAL": 1, "POSITION": 0, "TANGENT": 2, "TEXCOORD_0": 3}, "indices": 4, "material": 0, "mode": 4}]}], "nodes": [{"children": [1], "matrix": [0.8447205424308777, 0.5352076292037964, 1.7435111781067744e-16, 0.0, 0.5294939875602722, -0.8357027173042297, -0.1457296311855318, 0.0, -0.07799561321735382, 0.12310081720352195, -0.9893244504928589, 0.0, 0.0, 0.0, 0.0, 1.0], "name": "Sketchfab_model"}, {"children": [2], "matrix": [1.0, 0.0, 0.0, 0.0, 0.0, -4.371139006309477e-08, 0.999999999999999, 0.0, 0.0, -0.999999999999999, -4.371139006309477e-08, 0.0, 0.0, 0.0, 0.0, 1.0], "name": "Collada visual scene group"}, {"children": [3], "name": "kabar"}, {"mesh": 0, "name": "defaultMaterial"}], "samplers": [{"magFilter": 9729, "minFilter": 9987, "wrapS": 10497, "wrapT": 10497}], "scene": 0, "scenes": [{"name": "Sketchfab_Scene", "nodes": [0]}], "textures": [{"sampler": 0, "source": 0}, {"sampler": 0, "source": 1}, {"sampler": 0, "source": 2}, {"sampler": 0, "source": 3}]}