{"accessors": [{"bufferView": 1, "componentType": 5126, "count": 72, "max": [2.128880023956299, 3.316770076751709, 0.9503800272941589], "min": [-2.3530900478363037, -3.4462199211120605, -1.0496200323104858], "type": "VEC3"}, {"bufferView": 1, "byteOffset": 864, "componentType": 5126, "count": 72, "max": [1.0, 0.8660265803337097, 1.0], "min": [-1.0, -0.8660265803337097, -1.0], "type": "VEC3"}, {"bufferView": 0, "componentType": 5125, "count": 120, "type": "SCALAR"}, {"bufferView": 1, "byteOffset": 1728, "componentType": 5126, "count": 968, "max": [22.740089416503906, 1.8137600421905518, 1.6294300556182861], "min": [-2.4077799320220947, -1.8137600421905518, -14.912030220031738], "type": "VEC3"}, {"bufferView": 1, "byteOffset": 13344, "componentType": 5126, "count": 968, "max": [1.0, 1.0, 1.0], "min": [-1.0, -1.0, -1.0], "type": "VEC3"}, {"bufferView": 0, "byteOffset": 480, "componentType": 5125, "count": 1764, "type": "SCALAR"}, {"bufferView": 1, "byteOffset": 24960, "componentType": 5126, "count": 132, "max": [18.05851936340332, 1.0, 13.81725025177002], "min": [-11.382010459899902, -1.0, -1.0], "type": "VEC3"}, {"bufferView": 1, "byteOffset": 26544, "componentType": 5126, "count": 132, "max": [0.9999892711639404, 1.0, 1.0], "min": [-0.993281900882721, -1.0, -1.0], "type": "VEC3"}, {"bufferView": 0, "byteOffset": 7536, "componentType": 5125, "count": 252, "type": "SCALAR"}, {"bufferView": 1, "byteOffset": 28128, "componentType": 5126, "count": 72, "max": [2.967900037765503, 1.0, 1.0], "min": [-5.076449871063232, -1.0, -6.762119770050049], "type": "VEC3"}, {"bufferView": 1, "byteOffset": 28992, "componentType": 5126, "count": 72, "max": [0.9944447875022888, 1.0, 0.9996459484100342], "min": [-0.9203222990036011, -1.0, -0.9852431416511536], "type": "VEC3"}, {"bufferView": 0, "byteOffset": 8544, "componentType": 5125, "count": 132, "type": "SCALAR"}, {"bufferView": 1, "byteOffset": 29856, "componentType": 5126, "count": 144, "max": [10.887479782104492, 5.405109882354736, 1.0], "min": [-0.8660299777984619, -1.0, -1.0], "type": "VEC3"}, {"bufferView": 1, "byteOffset": 31584, "componentType": 5126, "count": 144, "max": [1.0, 0.8660265803337097, 1.0], "min": [-1.0, -0.8660265803337097, -1.0], "type": "VEC3"}, {"bufferView": 0, "byteOffset": 9072, "componentType": 5125, "count": 240, "type": "SCALAR"}, {"bufferView": 1, "byteOffset": 33312, "componentType": 5126, "count": 84, "max": [0.8660299777984619, 1.0, 1.405060052871704], "min": [-0.8660299777984619, -1.0, -15.252570152282715], "type": "VEC3"}, {"bufferView": 1, "byteOffset": 34320, "componentType": 5126, "count": 84, "max": [1.0, 0.8660265803337097, 1.0], "min": [-1.0, -0.8660265803337097, -0.9967877268791199], "type": "VEC3"}, {"bufferView": 0, "byteOffset": 10032, "componentType": 5125, "count": 144, "type": "SCALAR"}, {"bufferView": 1, "byteOffset": 35328, "componentType": 5126, "count": 592, "max": [4.369619846343994, 1.5471400022506714, 1.0], "min": [-2.3681800365448, -1.5471400022506714, -9.384389877319336], "type": "VEC3"}, {"bufferView": 1, "byteOffset": 42432, "componentType": 5126, "count": 592, "max": [0.9999918937683105, 1.0, 1.0], "min": [-0.9999918937683105, -1.0, -0.9999923706054688], "type": "VEC3"}, {"bufferView": 0, "byteOffset": 10608, "componentType": 5125, "count": 1164, "type": "SCALAR"}, {"bufferView": 1, "byteOffset": 49536, "componentType": 5126, "count": 36, "max": [0.8660299777984619, 1.0, 1.0], "min": [-0.8660299777984619, -1.0, -1.0], "type": "VEC3"}, {"bufferView": 1, "byteOffset": 49968, "componentType": 5126, "count": 36, "max": [1.0, 0.8660265803337097, 1.0], "min": [-1.0, -0.8660265803337097, -1.0], "type": "VEC3"}, {"bufferView": 0, "byteOffset": 15264, "componentType": 5125, "count": 60, "type": "SCALAR"}, {"bufferView": 1, "byteOffset": 50400, "componentType": 5126, "count": 36, "max": [0.8660299777984619, 1.0, 1.0], "min": [-0.8660299777984619, -1.0, -1.0], "type": "VEC3"}, {"bufferView": 1, "byteOffset": 50832, "componentType": 5126, "count": 36, "max": [1.0, 0.8660265803337097, 1.0], "min": [-1.0, -0.8660265803337097, -1.0], "type": "VEC3"}, {"bufferView": 0, "byteOffset": 15504, "componentType": 5125, "count": 60, "type": "SCALAR"}, {"bufferView": 1, "byteOffset": 51264, "componentType": 5126, "count": 780, "max": [15.047969818115234, 1.0, 1.0], "min": [-1.6625399589538574, -1.0, -2.40120005607605], "type": "VEC3"}, {"bufferView": 1, "byteOffset": 60624, "componentType": 5126, "count": 780, "max": [1.0, 1.0, 1.0], "min": [-1.0, -1.0, -1.0], "type": "VEC3"}, {"bufferView": 0, "byteOffset": 15744, "componentType": 5125, "count": 1473, "type": "SCALAR"}, {"bufferView": 1, "byteOffset": 69984, "componentType": 5126, "count": 36, "max": [0.8660299777984619, 1.0, 1.0], "min": [-0.8660299777984619, -1.0, -18.6697998046875], "type": "VEC3"}, {"bufferView": 1, "byteOffset": 70416, "componentType": 5126, "count": 36, "max": [1.0, 0.8660265803337097, 1.0], "min": [-1.0, -0.8660265803337097, -1.0], "type": "VEC3"}, {"bufferView": 0, "byteOffset": 21636, "componentType": 5125, "count": 60, "type": "SCALAR"}, {"bufferView": 1, "byteOffset": 70848, "componentType": 5126, "count": 24, "max": [4.050099849700928, 1.0, 1.0], "min": [-1.0, -1.0, -1.0], "type": "VEC3"}, {"bufferView": 1, "byteOffset": 71136, "componentType": 5126, "count": 24, "max": [1.0, 1.0, 0.9855215549468994], "min": [-0.9445005059242249, -1.0, -1.0], "type": "VEC3"}, {"bufferView": 0, "byteOffset": 21876, "componentType": 5125, "count": 36, "type": "SCALAR"}, {"bufferView": 1, "byteOffset": 71424, "componentType": 5126, "count": 80, "max": [1.0, 1.9975899457931519, 0.7318199872970581], "min": [-1.4547799825668335, -1.9975899457931519, -0.6076099872589111], "type": "VEC3"}, {"bufferView": 1, "byteOffset": 72384, "componentType": 5126, "count": 80, "max": [1.0, 1.0, 1.0], "min": [-0.9622380137443542, -1.0, -1.0], "type": "VEC3"}, {"bufferView": 0, "byteOffset": 22020, "componentType": 5125, "count": 156, "type": "SCALAR"}, {"bufferView": 1, "byteOffset": 73344, "componentType": 5126, "count": 76, "max": [0.8090900182723999, 1.0, 4.472549915313721], "min": [-2.1226999759674072, -1.0, -0.6692000031471252], "type": "VEC3"}, {"bufferView": 1, "byteOffset": 74256, "componentType": 5126, "count": 76, "max": [0.9999815225601196, 1.0, 0.9969954490661621], "min": [-0.9635106921195984, -1.0, -0.9840123057365417], "type": "VEC3"}, {"bufferView": 0, "byteOffset": 22644, "componentType": 5125, "count": 144, "type": "SCALAR"}, {"bufferView": 1, "byteOffset": 75168, "componentType": 5126, "count": 24, "max": [1.0, 1.0, 0.8731899857521057], "min": [-14.696410179138184, -1.0, -1.3085700273513794], "type": "VEC3"}, {"bufferView": 1, "byteOffset": 75456, "componentType": 5126, "count": 24, "max": [0.9723349809646606, 1.0, 1.0], "min": [-0.9723349809646606, -1.0, -1.0], "type": "VEC3"}, {"bufferView": 0, "byteOffset": 23220, "componentType": 5125, "count": 36, "type": "SCALAR"}, {"bufferView": 1, "byteOffset": 75744, "componentType": 5126, "count": 36, "max": [0.8660299777984619, 1.0, 1.0], "min": [-0.8660299777984619, -1.0, -1.0], "type": "VEC3"}, {"bufferView": 1, "byteOffset": 76176, "componentType": 5126, "count": 36, "max": [1.0, 0.8660265803337097, 1.0], "min": [-1.0, -0.8660265803337097, -1.0], "type": "VEC3"}, {"bufferView": 0, "byteOffset": 23364, "componentType": 5125, "count": 60, "type": "SCALAR"}, {"bufferView": 1, "byteOffset": 76608, "componentType": 5126, "count": 36, "max": [0.8660299777984619, 1.0, 1.0], "min": [-0.8660299777984619, -1.0, -1.0], "type": "VEC3"}, {"bufferView": 1, "byteOffset": 77040, "componentType": 5126, "count": 36, "max": [1.0, 0.8660265803337097, 1.0], "min": [-1.0, -0.8660265803337097, -1.0], "type": "VEC3"}, {"bufferView": 0, "byteOffset": 23604, "componentType": 5125, "count": 60, "type": "SCALAR"}, {"bufferView": 1, "byteOffset": 77472, "componentType": 5126, "count": 36, "max": [2.3284199237823486, 1.0, 1.0], "min": [-28.763940811157227, -1.0, -1.0], "type": "VEC3"}, {"bufferView": 1, "byteOffset": 77904, "componentType": 5126, "count": 36, "max": [1.0, 1.0, 1.0], "min": [-1.0, -1.0, -1.0], "type": "VEC3"}, {"bufferView": 0, "byteOffset": 23844, "componentType": 5125, "count": 60, "type": "SCALAR"}, {"bufferView": 1, "byteOffset": 78336, "componentType": 5126, "count": 44, "max": [4.920979976654053, 1.0, 1.0], "min": [-1.0, -1.0, -2.4395699501037598], "type": "VEC3"}, {"bufferView": 1, "byteOffset": 78864, "componentType": 5126, "count": 44, "max": [1.0, 1.0, 1.0], "min": [-1.0, -1.0, -1.0], "type": "VEC3"}, {"bufferView": 0, "byteOffset": 24084, "componentType": 5125, "count": 84, "type": "SCALAR"}, {"bufferView": 1, "byteOffset": 79392, "componentType": 5126, "count": 36, "max": [0.8660299777984619, 1.0, 1.0], "min": [-0.8660299777984619, -1.0, -1.0], "type": "VEC3"}, {"bufferView": 1, "byteOffset": 79824, "componentType": 5126, "count": 36, "max": [1.0, 0.8660265803337097, 1.0], "min": [-1.0, -0.8660265803337097, -1.0], "type": "VEC3"}, {"bufferView": 0, "byteOffset": 24420, "componentType": 5125, "count": 60, "type": "SCALAR"}, {"bufferView": 1, "byteOffset": 80256, "componentType": 5126, "count": 83, "max": [0.967199981212616, 0.78125, 1.0], "min": [-3.518239974975586, -0.26607999205589294, -1.0], "type": "VEC3"}, {"bufferView": 1, "byteOffset": 81252, "componentType": 5126, "count": 83, "max": [0.990053653717041, 1.0, 1.0], "min": [-0.9559470415115356, -1.0, -1.0], "type": "VEC3"}, {"bufferView": 0, "byteOffset": 24660, "componentType": 5125, "count": 174, "type": "SCALAR"}, {"bufferView": 1, "byteOffset": 82248, "componentType": 5126, "count": 36, "max": [0.8660299777984619, 1.0, 1.0], "min": [-0.8660299777984619, -1.0, -1.0], "type": "VEC3"}, {"bufferView": 1, "byteOffset": 82680, "componentType": 5126, "count": 36, "max": [1.0, 0.8660265803337097, 1.0], "min": [-1.0, -0.8660265803337097, -1.0], "type": "VEC3"}, {"bufferView": 0, "byteOffset": 25356, "componentType": 5125, "count": 60, "type": "SCALAR"}, {"bufferView": 1, "byteOffset": 83112, "componentType": 5126, "count": 36, "max": [1.0, 1.0, 1.0], "min": [-4.949560165405273, -1.0, -8.085519790649414], "type": "VEC3"}, {"bufferView": 1, "byteOffset": 83544, "componentType": 5126, "count": 36, "max": [1.0, 1.0, 1.0], "min": [-1.0, -1.0, -0.980928361415863], "type": "VEC3"}, {"bufferView": 0, "byteOffset": 25596, "componentType": 5125, "count": 60, "type": "SCALAR"}, {"bufferView": 1, "byteOffset": 83976, "componentType": 5126, "count": 64, "max": [2.9172399044036865, 1.0131299495697021, 1.0], "min": [-2.2743899822235107, -1.0, -2.7513699531555176], "type": "VEC3"}, {"bufferView": 1, "byteOffset": 84744, "componentType": 5126, "count": 64, "max": [1.0, 1.0, 1.0], "min": [-1.0, -1.0, -1.0], "type": "VEC3"}, {"bufferView": 0, "byteOffset": 25836, "componentType": 5125, "count": 108, "type": "SCALAR"}, {"bufferView": 1, "byteOffset": 85512, "componentType": 5126, "count": 48, "max": [2.059999942779541, 0.5657200217247009, 1.0], "min": [-2.059999942779541, -1.1425199508666992, -1.0], "type": "VEC3"}, {"bufferView": 1, "byteOffset": 86088, "componentType": 5126, "count": 48, "max": [1.0, 1.0, 1.0], "min": [-1.0, -1.0, -1.0], "type": "VEC3"}, {"bufferView": 0, "byteOffset": 26268, "componentType": 5125, "count": 96, "type": "SCALAR"}, {"bufferView": 1, "byteOffset": 86664, "componentType": 5126, "count": 36, "max": [0.8660299777984619, 1.0, 1.0], "min": [-0.8660299777984619, -1.0, -1.0], "type": "VEC3"}, {"bufferView": 1, "byteOffset": 87096, "componentType": 5126, "count": 36, "max": [1.0, 0.8660265803337097, 1.0], "min": [-1.0, -0.8660265803337097, -1.0], "type": "VEC3"}, {"bufferView": 0, "byteOffset": 26652, "componentType": 5125, "count": 60, "type": "SCALAR"}], "asset": {"extras": {"author": "TastyTony (https://sketchfab.com/TastyTony)", "license": "CC-BY-4.0 (http://creativecommons.org/licenses/by/4.0/)", "source": "https://sketchfab.com/3d-models/low-poly-sig-p226-0d90f858e9f74c418ce3aae61cef9f4e", "title": "Low-Poly Sig P226"}, "generator": "Sketchfab-12.67.0", "version": "2.0"}, "bufferViews": [{"buffer": 0, "byteLength": 26892, "name": "floatBufferViews", "target": 34963}, {"buffer": 0, "byteLength": 87528, "byteOffset": 26892, "byteStride": 12, "name": "floatBufferViews", "target": 34962}], "buffers": [{"byteLength": 114420, "uri": "scene.bin"}], "extensionsRequired": [], "extensionsUsed": [], "materials": [{"doubleSided": true, "name": "Root", "pbrMetallicRoughness": {"baseColorFactor": [1.0, 1.0, 1.0, 1.0], "metallicFactor": 0.0, "roughnessFactor": 0.6}}, {"doubleSided": true, "name": "Material.005", "pbrMetallicRoughness": {"baseColorFactor": [0.751714939, 0.751714939, 0.751714939, 1.0], "metallicFactor": 0.0, "roughnessFactor": 1.0}}, {"doubleSided": true, "name": "Material.002", "pbrMetallicRoughness": {"baseColorFactor": [0.04179320680803496, 0.04179320680803496, 0.04179320680803496, 1.0], "metallicFactor": 0.0, "roughnessFactor": 1.0}}, {"doubleSided": true, "name": "Material.004", "pbrMetallicRoughness": {"baseColorFactor": [0.048405236425947455, 0.04564147139356879, 0.04564147139356879, 1.0], "metallicFactor": 0.0, "roughnessFactor": 1.0}}, {"doubleSided": true, "name": "Material.006", "pbrMetallicRoughness": {"baseColorFactor": [0.1297637195, 0.1297637195, 0.1297637195, 1.0], "metallicFactor": 0.0, "roughnessFactor": 1.0}}, {"doubleSided": true, "name": "Material", "pbrMetallicRoughness": {"baseColorFactor": [0.033847895667208173, 0.033847895667208173, 0.033847895667208173, 1.0], "metallicFactor": 0.0, "roughnessFactor": 1.0}}, {"doubleSided": true, "name": "Material.001", "pbrMetallicRoughness": {"baseColorFactor": [0.030307307096508727, 0.030307307096508727, 0.030307307096508727, 1.0], "metallicFactor": 0.0, "roughnessFactor": 1.0}}, {"doubleSided": true, "name": "Material.003", "pbrMetallicRoughness": {"baseColorFactor": [0.014578209425493796, 0.014578209425493796, 0.014578209425493796, 1.0], "metallicFactor": 0.0, "roughnessFactor": 1.0}}], "meshes": [{"name": "Cylinder.010_0", "primitives": [{"attributes": {"NORMAL": 1, "POSITION": 0}, "indices": 2, "material": 1, "mode": 4}]}, {"name": "Cube_0", "primitives": [{"attributes": {"NORMAL": 4, "POSITION": 3}, "indices": 5, "material": 5, "mode": 4}]}, {"name": "Cube.001_0", "primitives": [{"attributes": {"NORMAL": 7, "POSITION": 6}, "indices": 8, "material": 5, "mode": 4}]}, {"name": "Cube.002_0", "primitives": [{"attributes": {"NORMAL": 10, "POSITION": 9}, "indices": 11, "material": 2, "mode": 4}]}, {"name": "Cylinder.001_0", "primitives": [{"attributes": {"NORMAL": 13, "POSITION": 12}, "indices": 14, "material": 2, "mode": 4}]}, {"name": "Cylinder.004_0", "primitives": [{"attributes": {"NORMAL": 16, "POSITION": 15}, "indices": 17, "material": 3, "mode": 4}]}, {"name": "Cube.003_0", "primitives": [{"attributes": {"NORMAL": 19, "POSITION": 18}, "indices": 20, "material": 7, "mode": 4}]}, {"name": "Cylinder.005_0", "primitives": [{"attributes": {"NORMAL": 22, "POSITION": 21}, "indices": 23, "material": 2, "mode": 4}]}, {"name": "Cylinder.006_0", "primitives": [{"attributes": {"NORMAL": 25, "POSITION": 24}, "indices": 26, "material": 2, "mode": 4}]}, {"name": "Cube.004_0", "primitives": [{"attributes": {"NORMAL": 28, "POSITION": 27}, "indices": 29, "material": 6, "mode": 4}]}, {"name": "Cylinder.007_0", "primitives": [{"attributes": {"NORMAL": 31, "POSITION": 30}, "indices": 32, "material": 3, "mode": 4}]}, {"name": "Cube.005_0", "primitives": [{"attributes": {"NORMAL": 34, "POSITION": 33}, "indices": 35, "material": 5, "mode": 4}]}, {"name": "Cube.006_0", "primitives": [{"attributes": {"NORMAL": 37, "POSITION": 36}, "indices": 38, "material": 5, "mode": 4}]}, {"name": "Cube.007_0", "primitives": [{"attributes": {"NORMAL": 40, "POSITION": 39}, "indices": 41, "material": 3, "mode": 4}]}, {"name": "Cube.008_0", "primitives": [{"attributes": {"NORMAL": 43, "POSITION": 42}, "indices": 44, "material": 5, "mode": 4}]}, {"name": "Cylinder_0", "primitives": [{"attributes": {"NORMAL": 46, "POSITION": 45}, "indices": 47, "material": 4, "mode": 4}]}, {"name": "Cylinder.002_0", "primitives": [{"attributes": {"NORMAL": 49, "POSITION": 48}, "indices": 50, "material": 0, "mode": 4}]}, {"name": "Cube.009_0", "primitives": [{"attributes": {"NORMAL": 52, "POSITION": 51}, "indices": 53, "material": 2, "mode": 4}]}, {"name": "Cube.010_0", "primitives": [{"attributes": {"NORMAL": 55, "POSITION": 54}, "indices": 56, "material": 3, "mode": 4}]}, {"name": "Cylinder.003_0", "primitives": [{"attributes": {"NORMAL": 58, "POSITION": 57}, "indices": 59, "material": 2, "mode": 4}]}, {"name": "Cube.011_0", "primitives": [{"attributes": {"NORMAL": 61, "POSITION": 60}, "indices": 62, "material": 2, "mode": 4}]}, {"name": "Cylinder.008_0", "primitives": [{"attributes": {"NORMAL": 64, "POSITION": 63}, "indices": 65, "material": 3, "mode": 4}]}, {"name": "Cube.012_0", "primitives": [{"attributes": {"NORMAL": 67, "POSITION": 66}, "indices": 68, "material": 2, "mode": 4}]}, {"name": "Cube.013_0", "primitives": [{"attributes": {"NORMAL": 70, "POSITION": 69}, "indices": 71, "material": 2, "mode": 4}]}, {"name": "Cube.014_0", "primitives": [{"attributes": {"NORMAL": 73, "POSITION": 72}, "indices": 74, "material": 2, "mode": 4}]}, {"name": "Cylinder.009_0", "primitives": [{"attributes": {"NORMAL": 76, "POSITION": 75}, "indices": 77, "material": 1, "mode": 4}]}], "nodes": [{"children": [1], "matrix": [0.036042701452970505, 0.0, 0.0, 0.0, 0.0, 8.003087404555688e-18, -0.036042701452970505, 0.0, 0.0, 0.036042701452970505, 8.003087404555688e-18, 0.0, 0.0, 0.0, 0.0, 1.0], "name": "Sketchfab_model"}, {"children": [2, 4, 6, 8, 10, 12, 14, 16, 18, 20, 22, 24, 26, 28, 30, 32, 34, 36, 38, 40, 42, 44, 46, 48, 50, 52, 54], "name": "Root"}, {"children": [3], "matrix": [0.4498500000000001, 0.23864000000000002, 0.8606300000000001, 0.0, -0.8930100000000001, 0.1341, 0.42959, 0.0, -0.012890000000000002, -0.9618000000000001, 0.27343, 0.0, 1.0965, -14.797899999999998, 6.36869, 1.0], "name": "Lamp"}, {"name": "Lamp"}, {"children": [5], "matrix": [0.01624, -0.026190000000000005, 0.04235000000000001, 0.0, 0.009370000000000003, 0.045350000000000015, 0.024450000000000006, 0.0, -0.048900000000000006, -0.0, 0.018750000000000003, 0.0, -2.41498, -0.0, 2.04436, 1.0], "name": "Cylinder.010"}, {"mesh": 0, "name": "Cylinder.010_0"}, {"children": [7], "matrix": [0.21857000000000001, 0.0, 0.0, 0.0, 0.0, 0.20239000000000001, 0.0, 0.0, 0.0, 0.0, 0.21857000000000001, 0.0, -2.7033000000000005, -0.0, 0.97386, 1.0], "name": "Cube"}, {"mesh": 1, "name": "Cube_0"}, {"children": [9], "matrix": [0.06545000000000001, 0.0, 0.0, 0.0, 0.0, 0.14196000000000003, 0.0, 0.0, 0.0, 0.0, 0.06545000000000001, 0.0, -0.3430200000000001, 0.0, -0.31384000000000006, 1.0], "name": "Cube.001"}, {"mesh": 2, "name": "Cube.001_0"}, {"children": [11], "matrix": [0.10428000000000001, 0.0, 0.0, 0.0, 0.0, 0.09195000000000002, 0.0, 0.0, 0.0, 0.0, 0.10428000000000001, 0.0, -0.2558, -0.0, 0.49779, 1.0], "name": "Cube.002"}, {"mesh": 3, "name": "Cube.002_0"}, {"children": [13], "matrix": [0.07381, 0.0, 0.0, 0.0, 0.0, 0.0, 0.07381, 0.0, 0.0, -0.3443500000000001, 0.0, 0.0, -0.32861000000000007, -0.0, 0.72946, 1.0], "name": "Cylinder.001"}, {"mesh": 4, "name": "Cylinder.001_0"}, {"children": [15], "matrix": [0.0, -0.11551000000000002, -0.20006000000000002, 0.0, -0.0, 0.20006000000000002, -0.11551000000000002, 0.0, 0.23101000000000002, 0.0, 0.0, 0.0, 3.01559, -0.0, 1.63249, 1.0], "name": "Cylinder.004"}, {"mesh": 5, "name": "Cylinder.004_0"}, {"children": [17], "matrix": [0.32953000000000005, 0.0, 0.0, 0.0, 0.0, 0.29055000000000003, 0.0, 0.0, 0.0, 0.0, 0.32953000000000005, 0.0, -2.24581, -0.0, 0.82156, 1.0], "name": "Cube.003"}, {"mesh": 6, "name": "Cube.003_0"}, {"children": [19], "matrix": [0.13919, 0.0, 0.0, 0.0, 0.0, 0.0, 0.13919, 0.0, 0.0, -0.46998000000000006, 0.0, 0.0, -2.35253, 0.0, -1.8935, 1.0], "name": "Cylinder.005"}, {"mesh": 7, "name": "Cylinder.005_0"}, {"children": [21], "matrix": [0.13919, 0.0, 0.0, 0.0, 0.0, 0.0, 0.13919, 0.0, 0.0, -0.46998000000000006, 0.0, 0.0, -1.83268, -0.0, 0.11789000000000002, 1.0], "name": "Cylinder.006"}, {"mesh": 8, "name": "Cylinder.006_0"}, {"children": [23], "matrix": [0.34782000000000013, 0.0, 0.0, 0.0, 0.0, 0.37299000000000004, 0.0, 0.0, 0.0, 0.0, 0.34782000000000013, 0.0, -2.2699200000000004, -0.0, 1.63503, 1.0], "name": "Cube.004"}, {"mesh": 9, "name": "Cube.004_0"}, {"children": [25], "matrix": [0.0, -0.06330000000000001, -0.10964000000000002, 0.0, -0.0, 0.10964000000000002, -0.06330000000000001, 0.0, 0.1266, 0.0, 0.0, 0.0, 2.8746699999999996, -0.0, 1.11249, 1.0], "name": "Cylinder.007"}, {"mesh": 10, "name": "Cylinder.007_0"}, {"children": [27], "matrix": [0.07566000000000002, 0.0, 0.0, 0.0, 0.0, 0.06442000000000002, 0.0, 0.0, 0.0, 0.0, 0.07566000000000002, 0.0, 2.5683000000000002, -0.0, 2.0362199999999997, 1.0], "name": "Cube.005"}, {"mesh": 11, "name": "Cube.005_0"}, {"children": [29], "matrix": [0.13888, 0.0, 0.0, 0.0, 0.0, 0.12276000000000002, 0.0, 0.0, 0.0, 0.0, 0.13888, 0.0, -2.30019, -0.0, 2.0154399999999995, 1.0], "name": "Cube.006"}, {"mesh": 12, "name": "Cube.006_0"}, {"children": [31], "matrix": [0.16874000000000006, 0.0, 0.0, 0.0, 0.0, 0.14205, 0.0, 0.0, 0.0, 0.0, 0.16874000000000006, 0.0, -2.69148, -0.0, 0.9974099999999999, 1.0], "name": "Cube.007"}, {"mesh": 13, "name": "Cube.007_0"}, {"children": [33], "matrix": [0.12237, 0.0, 0.0, 0.0, 0.0, 0.40594, 0.0, 0.0, 0.0, 0.0, 0.12237, 0.0, -0.83418, -0.0, 1.07345, 1.0], "name": "Cube.008"}, {"mesh": 14, "name": "Cube.008_0"}, {"children": [35], "matrix": [0.16687000000000002, 0.0, 0.0, 0.0, 0.0, 0.0, -0.16687000000000002, 0.0, 0.0, 0.16687000000000002, 0.0, 0.0, -1.16236, 0.28137000000000006, 0.04538000000000001, 1.0], "name": "Cylinder"}, {"mesh": 15, "name": "Cylinder_0"}, {"children": [37], "matrix": [0.0, 0.0, -0.08641000000000001, 0.0, -0.0, 0.08641000000000001, -0.0, 0.0, 0.08641000000000001, 0.0, 0.0, 0.0, -2.53012, -0.0, 1.64566, 1.0], "name": "Cylinder.002"}, {"mesh": 16, "name": "Cylinder.002_0"}, {"children": [39], "matrix": [0.046730000000000015, 0.0, 0.0, 0.0, 0.0, 0.3113800000000001, 0.0, 0.0, 0.0, 0.0, 0.046730000000000015, 0.0, -1.4838199999999997, 0.0, -2.2885900000000006, 1.0], "name": "Cube.009"}, {"mesh": 17, "name": "Cube.009_0"}, {"children": [41], "matrix": [0.17736000000000002, 0.0, 0.0, 0.0, 0.0, 0.32114000000000004, 0.0, 0.0, 0.0, 0.0, 0.17736000000000002, 0.0, -0.29272000000000004, -0.0, 1.7708700000000002, 1.0], "name": "Cube.010"}, {"mesh": 18, "name": "Cube.010_0"}, {"children": [43], "matrix": [0.12208000000000001, 0.0, 0.0, 0.0, 0.0, 0.0, 0.12208000000000001, 0.0, 0.0, -0.12208000000000001, 0.0, 0.0, -1.15171, -0.26154, 0.05174000000000001, 1.0], "name": "Cylinder.003"}, {"mesh": 19, "name": "Cylinder.003_0"}, {"children": [45], "matrix": [0.17201000000000002, 0.0, 0.0, 0.0, 0.0, 0.17201000000000002, 0.0, 0.0, 0.0, 0.0, 0.17201000000000002, 0.0, 0.40223, 0.3443700000000001, 0.97547, 1.0], "name": "Cube.011"}, {"mesh": 20, "name": "Cube.011_0"}, {"children": [47], "matrix": [0.08091000000000001, 0.0, 0.0, 0.0, 0.0, 0.0, 0.08091000000000001, 0.0, 0.0, -0.08091000000000001, 0.0, 0.0, 0.3990700000000001, 0.33476000000000006, 0.97844, 1.0], "name": "Cylinder.008"}, {"mesh": 21, "name": "Cylinder.008_0"}, {"children": [49], "matrix": [0.05512000000000001, 0.0, 0.0, 0.0, 0.0, 0.05512000000000001, 0.0, 0.0, 0.0, 0.0, 0.05512000000000001, 0.0, -1.04655, 0.3553200000000001, 0.92643, 1.0], "name": "Cube.012"}, {"mesh": 22, "name": "Cube.012_0"}, {"children": [51], "matrix": [0.06438, 0.0, 0.0, 0.0, 0.0, 0.06438, 0.0, 0.0, 0.0, 0.0, 0.06438, 0.0, -1.1195599999999999, 0.43028000000000005, 1.00708, 1.0], "name": "Cube.013"}, {"mesh": 23, "name": "Cube.013_0"}, {"children": [53], "matrix": [0.10589000000000001, 0.0, 0.0, 0.0, 0.0, 0.10589000000000001, 0.0, 0.0, 0.0, 0.0, 0.10589000000000001, 0.0, -1.69547, 0.4495100000000001, 1.08602, 1.0], "name": "Cube.014"}, {"mesh": 24, "name": "Cube.014_0"}, {"children": [55], "matrix": [0.013890000000000003, -0.026190000000000005, 0.04318000000000001, 0.0, 0.008020000000000001, 0.045350000000000015, 0.024930000000000004, 0.0, -0.04985000000000001, -0.0, 0.016040000000000002, 0.0, 2.5702399999999996, -0.0, 2.03838, 1.0], "name": "Cylinder.009"}, {"mesh": 25, "name": "Cylinder.009_0"}], "scene": 0, "scenes": [{"name": "Sketchfab_Scene", "nodes": [0]}]}