{"accessors": [{"bufferView": 3, "componentType": 5126, "count": 2108, "max": [0.6576293706893921, 0.058611154556274414, 0.11214806139469147], "min": [-2.2265210151672363, -0.46198853850364685, -0.11214807629585266], "type": "VEC3"}, {"bufferView": 3, "byteOffset": 25296, "componentType": 5126, "count": 2108, "max": [1.0, 1.0, 1.0], "min": [-1.0, -1.0, -1.0], "type": "VEC3"}, {"bufferView": 2, "componentType": 5126, "count": 2108, "max": [0.8750003576278687, 0.9880020022392273], "min": [-0.3712714910507202, 0.6249999403953552], "type": "VEC2"}, {"bufferView": 1, "componentType": 5125, "count": 2694, "type": "SCALAR"}, {"bufferView": 3, "byteOffset": 50592, "componentType": 5126, "count": 2482, "max": [-0.24776005744934082, 0.20280300080776215, 0.05187610536813736], "min": [-0.9375821948051453, -0.25937581062316895, -0.05187602341175079], "type": "VEC3"}, {"bufferView": 3, "byteOffset": 80376, "componentType": 5126, "count": 2482, "max": [1.0, 1.0, 1.0], "min": [-1.0, -1.0, -1.0], "type": "VEC3"}, {"bufferView": 2, "byteOffset": 16864, "componentType": 5126, "count": 2482, "max": [1.0, 1.0000001192092896], "min": [-8.940696716308594e-08, 0.0], "type": "VEC2"}, {"bufferView": 1, "byteOffset": 10776, "componentType": 5125, "count": 2709, "type": "SCALAR"}, {"bufferView": 3, "byteOffset": 110160, "componentType": 5126, "count": 2300, "max": [0.6502643823623657, 0.07669053971767426, 0.0640769749879837], "min": [-2.129815101623535, -0.2623215317726135, -0.06407704949378967], "type": "VEC3"}, {"bufferView": 3, "byteOffset": 137760, "componentType": 5126, "count": 2300, "max": [1.0, 1.0, 1.0], "min": [-1.0, -1.0, -1.0], "type": "VEC3"}, {"bufferView": 2, "byteOffset": 36720, "componentType": 5126, "count": 2300, "max": [1.0, 1.0], "min": [-8.940696716308594e-08, 0.0], "type": "VEC2"}, {"bufferView": 1, "byteOffset": 21612, "componentType": 5125, "count": 2733, "type": "SCALAR"}, {"bufferView": 3, "byteOffset": 165360, "componentType": 5126, "count": 965, "max": [-0.7436519265174866, 0.14059297740459442, 0.069523885846138], "min": [-2.3671419620513916, -0.44579872488975525, -0.06952380388975143], "type": "VEC3"}, {"bufferView": 3, "byteOffset": 176940, "componentType": 5126, "count": 965, "max": [1.0, 1.0, 1.0], "min": [-1.0, -1.0, -1.0], "type": "VEC3"}, {"bufferView": 2, "byteOffset": 55120, "componentType": 5126, "count": 965, "max": [1.0, 1.0], "min": [0.0, 0.0], "type": "VEC2"}, {"bufferView": 1, "byteOffset": 32544, "componentType": 5125, "count": 1020, "type": "SCALAR"}, {"bufferView": 3, "byteOffset": 188520, "componentType": 5126, "count": 198, "max": [-0.7476266026496887, -0.11510813236236572, 0.0646669939160347], "min": [-2.093693733215332, -0.18479184806346893, -0.0646669939160347], "type": "VEC3"}, {"bufferView": 3, "byteOffset": 190896, "componentType": 5126, "count": 198, "max": [1.0, 0.8660268783569336, 1.0], "min": [-1.0, -0.8660280108451843, -1.0], "type": "VEC3"}, {"bufferView": 2, "byteOffset": 62840, "componentType": 5126, "count": 198, "max": [1.0, 1.0], "min": [-8.940696716308594e-08, 0.01000000536441803], "type": "VEC2"}, {"bufferView": 1, "byteOffset": 36624, "componentType": 5125, "count": 228, "type": "SCALAR"}, {"bufferView": 3, "byteOffset": 193272, "componentType": 5126, "count": 1732, "max": [2.4467592239379883, 0.153994619846344, 0.06580974161624908], "min": [-1.0461100339889526, 0.020769797265529633, -0.05768802762031555], "type": "VEC3"}, {"bufferView": 3, "byteOffset": 214056, "componentType": 5126, "count": 1732, "max": [1.0, 1.0, 1.0], "min": [-1.0, -1.0, -1.0], "type": "VEC3"}, {"bufferView": 2, "byteOffset": 64424, "componentType": 5126, "count": 1732, "max": [1.0, 1.0], "min": [-8.94069742685133e-08, 0.0], "type": "VEC2"}, {"bufferView": 1, "byteOffset": 37536, "componentType": 5125, "count": 1887, "type": "SCALAR"}, {"bufferView": 3, "byteOffset": 234840, "componentType": 5126, "count": 1136, "max": [2.2491254806518555, 0.14540697634220123, 0.19156654179096222], "min": [-1.0226030349731445, -0.027326684445142746, -0.05024975538253784], "type": "VEC3"}, {"bufferView": 3, "byteOffset": 248472, "componentType": 5126, "count": 1136, "max": [1.0, 0.9945475459098816, 1.0], "min": [-1.0, -0.9763696193695068, -1.0], "type": "VEC3"}, {"bufferView": 2, "byteOffset": 78280, "componentType": 5126, "count": 1136, "max": [1.0, 1.0], "min": [-8.940696716308594e-08, 0.0], "type": "VEC2"}, {"bufferView": 1, "byteOffset": 45084, "componentType": 5125, "count": 1170, "type": "SCALAR"}, {"bufferView": 3, "byteOffset": 262104, "componentType": 5126, "count": 222, "max": [-1.4762755632400513, 0.08654871582984924, 0.060103606432676315], "min": [-2.053074598312378, -0.09328819066286087, -0.06010349839925766], "type": "VEC3"}, {"bufferView": 3, "byteOffset": 264768, "componentType": 5126, "count": 222, "max": [1.0, 0.957283616065979, 1.0], "min": [-1.0, -1.0, -1.0], "type": "VEC3"}, {"bufferView": 2, "byteOffset": 87368, "componentType": 5126, "count": 222, "max": [0.875, 1.0], "min": [0.125, 0.0], "type": "VEC2"}, {"bufferView": 1, "byteOffset": 49764, "componentType": 5125, "count": 276, "type": "SCALAR"}, {"bufferView": 3, "byteOffset": 267432, "componentType": 5126, "count": 342, "max": [-0.38936662673950195, 0.07089994847774506, 0.029939116910099983], "min": [-0.4892781376838684, -0.017858274281024933, -0.024965031072497368], "type": "VEC3"}, {"bufferView": 3, "byteOffset": 271536, "componentType": 5126, "count": 342, "max": [1.0, 0.8660261631011963, 1.0], "min": [-1.31731758301612e-06, -0.8660261631011963, -1.0], "type": "VEC3"}, {"bufferView": 2, "byteOffset": 89144, "componentType": 5126, "count": 342, "max": [1.0, 1.0], "min": [-8.940696716308594e-08, 0.01000000536441803], "type": "VEC2"}, {"bufferView": 1, "byteOffset": 50868, "componentType": 5125, "count": 360, "type": "SCALAR"}, {"bufferView": 3, "byteOffset": 275640, "componentType": 5126, "count": 1167, "max": [-0.48927807807922363, 0.08298647403717041, 0.04040643572807312], "min": [-0.741934061050415, -0.029944859445095062, -0.035432249307632446], "type": "VEC3"}, {"bufferView": 3, "byteOffset": 289644, "componentType": 5126, "count": 1167, "max": [1.0, 0.8660284876823425, 1.0], "min": [-1.0, -0.866032063961029, -1.0], "type": "VEC3"}, {"bufferView": 2, "byteOffset": 91880, "componentType": 5126, "count": 1167, "max": [1.0, 1.0], "min": [-8.940696716308594e-08, 0.5], "type": "VEC2"}, {"bufferView": 1, "byteOffset": 52308, "componentType": 5125, "count": 1296, "type": "SCALAR"}, {"bufferView": 3, "byteOffset": 303648, "componentType": 5126, "count": 126, "max": [-0.7392181158065796, 0.06752792000770569, 0.027018923312425613], "min": [-0.7419147491455078, -0.014486290514469147, -0.022044729441404343], "type": "VEC3"}, {"bufferView": 3, "byteOffset": 305160, "componentType": 5126, "count": 126, "max": [6.297209893091349e-06, 0.866026759147644, 1.0], "min": [-1.0, -0.8660266995429993, -1.0], "type": "VEC3"}, {"bufferView": 2, "byteOffset": 101216, "componentType": 5126, "count": 126, "max": [1.0, 0.5], "min": [-8.940696716308594e-08, 0.01000000536441803], "type": "VEC2"}, {"bufferView": 1, "byteOffset": 57492, "componentType": 5125, "count": 144, "type": "SCALAR"}, {"bufferView": 3, "byteOffset": 306672, "componentType": 5126, "count": 840, "max": [0.27401331067085266, 0.08813586831092834, 0.08828295022249222], "min": [-0.6712286472320557, -0.132162407040596, -0.1903591901063919], "type": "VEC3"}, {"bufferView": 3, "byteOffset": 316752, "componentType": 5126, "count": 840, "max": [1.0, 1.0, 1.0], "min": [-1.0, -1.0, -1.0], "type": "VEC3"}, {"bufferView": 1, "byteOffset": 58068, "componentType": 5125, "count": 1068, "type": "SCALAR"}, {"bufferView": 3, "byteOffset": 326832, "componentType": 5126, "count": 252, "max": [0.06075887009501457, 0.05825967341661453, 0.03865077346563339], "min": [-0.06051007658243179, -0.0825302004814148, -0.11602714657783508], "type": "VEC3"}, {"bufferView": 3, "byteOffset": 329856, "componentType": 5126, "count": 252, "max": [0.9238795638084412, 1.0, 0.9238795638084412], "min": [-0.9238796830177307, -1.0, -1.0], "type": "VEC3"}, {"bufferView": 1, "byteOffset": 62340, "componentType": 5125, "count": 252, "type": "SCALAR"}, {"bufferView": 3, "byteOffset": 332880, "componentType": 5126, "count": 216, "max": [0.15228301286697388, 0.0919787809252739, 0.04445447772741318], "min": [-0.38485127687454224, -0.09197867661714554, -0.17970268428325653], "type": "VEC3"}, {"bufferView": 3, "byteOffset": 335472, "componentType": 5126, "count": 216, "max": [1.0, 1.0, 1.0], "min": [-1.0, -1.0, -1.0], "type": "VEC3"}, {"bufferView": 1, "byteOffset": 63348, "componentType": 5125, "count": 264, "type": "SCALAR"}, {"bufferView": 3, "byteOffset": 338064, "componentType": 5126, "count": 604, "max": [0.21349230408668518, 0.07744844257831573, -0.01061857957392931], "min": [-0.22611840069293976, -0.07744845747947693, -0.1924583464860916], "type": "VEC3"}, {"bufferView": 3, "byteOffset": 345312, "componentType": 5126, "count": 604, "max": [1.0, 1.0, 1.0], "min": [-1.0, -1.0, -1.0], "type": "VEC3"}, {"bufferView": 1, "byteOffset": 64404, "componentType": 5125, "count": 720, "type": "SCALAR"}, {"bufferView": 3, "byteOffset": 352560, "componentType": 5126, "count": 2210, "max": [0.2226906567811966, 0.08081622421741486, 0.05999263375997543], "min": [-0.23421122133731842, -0.10387206077575684, -0.1982431411743164], "type": "VEC3"}, {"bufferView": 3, "byteOffset": 379080, "componentType": 5126, "count": 2210, "max": [1.0, 1.0, 1.0], "min": [-1.0, -1.0, -1.0], "type": "VEC3"}, {"bufferView": 1, "byteOffset": 67284, "componentType": 5125, "count": 2844, "type": "SCALAR"}, {"bufferView": 3, "byteOffset": 405600, "componentType": 5126, "count": 24, "max": [0.18402360379695892, -0.044380512088537216, -0.14770962297916412], "min": [-0.1984207034111023, -0.05427899584174156, -0.1964746117591858], "type": "VEC3"}, {"bufferView": 3, "byteOffset": 405888, "componentType": 5126, "count": 24, "max": [1.0, 1.0, 1.0], "min": [-1.0, -1.0, -1.0], "type": "VEC3"}, {"bufferView": 1, "byteOffset": 78660, "componentType": 5125, "count": 36, "type": "SCALAR"}, {"bufferView": 3, "byteOffset": 406176, "componentType": 5126, "count": 30, "max": [0.6388033628463745, 0.07200924307107925, 0.024484926834702492], "min": [-0.6185485124588013, -0.07200939953327179, -0.11953378468751907], "type": "VEC3"}, {"bufferView": 3, "byteOffset": 406536, "componentType": 5126, "count": 30, "max": [1.0, 3.4688707728491863e-06, 0.0], "min": [-1.0, -3.468869635980809e-06, 0.0], "type": "VEC3"}, {"bufferView": 1, "byteOffset": 78804, "componentType": 5125, "count": 36, "type": "SCALAR"}, {"bufferView": 3, "byteOffset": 406896, "componentType": 5126, "count": 897, "max": [0.6763692498207092, 0.09575521945953369, 0.04823092743754387], "min": [-0.6444273591041565, -0.09575536102056503, -0.14327973127365112], "type": "VEC3"}, {"bufferView": 3, "byteOffset": 417660, "componentType": 5126, "count": 897, "max": [1.0, 0.9238827228546143, 0.9238814115524292], "min": [-1.0, -0.9238825440406799, -0.9238814115524292], "type": "VEC3"}, {"bufferView": 1, "byteOffset": 78948, "componentType": 5125, "count": 960, "type": "SCALAR"}, {"bufferView": 5, "componentType": 5126, "count": 16, "max": [100.00000762939453, 1.0000001192092896, 1.0000001192092896, 0.0, 5.1698798263288754e-30, 100.00001525878906, 0.1877141296863556, 0.0, 0.0, 6.061255817257916e-07, 100.00001525878906, 0.0, 8.76206104294397e-06, 1.0294469594955444, 0.688086211681366, 1.0], "min": [-2.246953272333485e-06, -0.1877141147851944, -0.9822236895561218, 0.0, -1.0000001192092896, -0.9822238087654114, -1.000000238418579, 0.0, -1.0000001192092896, -5.916051577514736e-07, -1.2146012522862293e-05, 0.0, -0.03746512532234192, -0.3154207468032837, -0.8317778706550598, 1.0], "type": "MAT4"}, {"bufferView": 0, "componentType": 5123, "count": 2108, "type": "VEC4"}, {"bufferView": 4, "componentType": 5126, "count": 2108, "max": [1.0, 0.0, 0.0, 0.0], "min": [1.0, 0.0, 0.0, 0.0], "type": "VEC4"}, {"bufferView": 0, "byteOffset": 16864, "componentType": 5123, "count": 2482, "type": "VEC4"}, {"bufferView": 4, "byteOffset": 33728, "componentType": 5126, "count": 2482, "max": [1.0, 0.0, 0.0, 0.0], "min": [1.0, 0.0, 0.0, 0.0], "type": "VEC4"}, {"bufferView": 0, "byteOffset": 36720, "componentType": 5123, "count": 2300, "type": "VEC4"}, {"bufferView": 4, "byteOffset": 73440, "componentType": 5126, "count": 2300, "max": [1.0, 0.0, 0.0, 0.0], "min": [1.0, 0.0, 0.0, 0.0], "type": "VEC4"}, {"bufferView": 0, "byteOffset": 55120, "componentType": 5123, "count": 965, "type": "VEC4"}, {"bufferView": 4, "byteOffset": 110240, "componentType": 5126, "count": 965, "max": [1.0, 0.0, 0.0, 0.0], "min": [1.0, 0.0, 0.0, 0.0], "type": "VEC4"}, {"bufferView": 0, "byteOffset": 62840, "componentType": 5123, "count": 198, "type": "VEC4"}, {"bufferView": 4, "byteOffset": 125680, "componentType": 5126, "count": 198, "max": [1.0, 0.0, 0.0, 0.0], "min": [1.0, 0.0, 0.0, 0.0], "type": "VEC4"}, {"bufferView": 0, "byteOffset": 64424, "componentType": 5123, "count": 1732, "type": "VEC4"}, {"bufferView": 4, "byteOffset": 128848, "componentType": 5126, "count": 1732, "max": [1.0, 0.0, 0.0, 0.0], "min": [1.0, 0.0, 0.0, 0.0], "type": "VEC4"}, {"bufferView": 0, "byteOffset": 78280, "componentType": 5123, "count": 1136, "type": "VEC4"}, {"bufferView": 4, "byteOffset": 156560, "componentType": 5126, "count": 1136, "max": [1.0, 0.0, 0.0, 0.0], "min": [1.0, 0.0, 0.0, 0.0], "type": "VEC4"}, {"bufferView": 0, "byteOffset": 87368, "componentType": 5123, "count": 222, "type": "VEC4"}, {"bufferView": 4, "byteOffset": 174736, "componentType": 5126, "count": 222, "max": [1.0, 0.0, 0.0, 0.0], "min": [1.0, 0.0, 0.0, 0.0], "type": "VEC4"}, {"bufferView": 0, "byteOffset": 89144, "componentType": 5123, "count": 342, "type": "VEC4"}, {"bufferView": 4, "byteOffset": 178288, "componentType": 5126, "count": 342, "max": [1.0, 0.0, 0.0, 0.0], "min": [1.0, 0.0, 0.0, 0.0], "type": "VEC4"}, {"bufferView": 0, "byteOffset": 91880, "componentType": 5123, "count": 1167, "type": "VEC4"}, {"bufferView": 4, "byteOffset": 183760, "componentType": 5126, "count": 1167, "max": [1.0, 0.0, 0.0, 0.0], "min": [1.0, 0.0, 0.0, 0.0], "type": "VEC4"}, {"bufferView": 0, "byteOffset": 101216, "componentType": 5123, "count": 126, "type": "VEC4"}, {"bufferView": 4, "byteOffset": 202432, "componentType": 5126, "count": 126, "max": [1.0, 0.0, 0.0, 0.0], "min": [1.0, 0.0, 0.0, 0.0], "type": "VEC4"}], "asset": {"extras": {"author": "TastyTony (https://sketchfab.com/TastyTony)", "license": "CC-BY-4.0 (http://creativecommons.org/licenses/by/4.0/)", "source": "https://sketchfab.com/3d-models/low-poly-sako-trg-42-e1430b54583c41daa2695680347058bd", "title": "Low-Poly Sako TRG-42"}, "generator": "Sketchfab-15.10.0", "version": "2.0"}, "bufferViews": [{"buffer": 0, "byteLength": 102224, "byteStride": 8, "name": "shortBufferViews", "target": 34962}, {"buffer": 0, "byteLength": 82788, "byteOffset": 102224, "name": "floatBufferViews", "target": 34963}, {"buffer": 0, "byteLength": 102224, "byteOffset": 185012, "byteStride": 8, "name": "floatBufferViews", "target": 34962}, {"buffer": 0, "byteLength": 428424, "byteOffset": 287236, "byteStride": 12, "name": "floatBufferViews", "target": 34962}, {"buffer": 0, "byteLength": 204448, "byteOffset": 715660, "byteStride": 16, "name": "floatBufferViews", "target": 34962}, {"buffer": 0, "byteLength": 1024, "byteOffset": 920108, "name": "floatBufferViews"}], "buffers": [{"byteLength": 921132, "uri": "scene.bin"}], "extensionsUsed": ["KHR_materials_specular"], "materials": [{"doubleSided": true, "extensions": {"KHR_materials_specular": {"specularColorFactor": [1.0, 1.0, 1.0], "specularFactor": 0.0}}, "name": "Material.010", "pbrMetallicRoughness": {"baseColorFactor": [0.03388228836021933, 0.061168677160403105, 0.03060492454368733, 1.0], "metallicFactor": 0.0, "roughnessFactor": 0.9817747777482297}}, {"doubleSided": true, "extensions": {"KHR_materials_specular": {"specularColorFactor": [1.0, 1.0, 1.0], "specularFactor": 0.0}}, "name": "Material.005", "pbrMetallicRoughness": {"baseColorFactor": [0.020683714921200958, 0.020683714921200958, 0.020683714921200958, 1.0], "metallicFactor": 0.0, "roughnessFactor": 0.9937280305692311}}, {"doubleSided": true, "extensions": {"KHR_materials_specular": {"specularColorFactor": [1.0, 1.0, 1.0], "specularFactor": 0.0}}, "name": "Material.004", "pbrMetallicRoughness": {"baseColorFactor": [0.01995011024113967, 0.01995011024113967, 0.01995011024113967, 1.0], "metallicFactor": 0.0, "roughnessFactor": 0.9935799357870813}}, {"doubleSided": true, "extensions": {"KHR_materials_specular": {"specularColorFactor": [1.0, 1.0, 1.0], "specularFactor": 0.0}}, "name": "Material.008", "pbrMetallicRoughness": {"baseColorFactor": [0.01513267490758137, 0.01513267490758137, 0.01513267490758137, 1.0], "metallicFactor": 0.0, "roughnessFactor": 0.9960327905549996}}, {"doubleSided": true, "name": "Material.009", "pbrMetallicRoughness": {"baseColorFactor": [0.0637207, 0.0637207, 0.0637207, 1.0], "metallicFactor": 0.0, "roughnessFactor": 0.9857516183226129}}, {"doubleSided": true, "extensions": {"KHR_materials_specular": {"specularColorFactor": [1.0, 1.0, 1.0], "specularFactor": 0.0}}, "name": "material_0", "pbrMetallicRoughness": {"baseColorFactor": [0.016638419189178508, 0.016638419189178508, 0.016638419189178508, 1.0], "metallicFactor": 0.0, "roughnessFactor": 0.9954431394293329}}, {"doubleSided": true, "extensions": {"KHR_materials_specular": {"specularColorFactor": [1.0, 1.0, 1.0], "specularFactor": 0.0}}, "name": "Material.007", "pbrMetallicRoughness": {"baseColorFactor": [0.023043340331988803, 0.022374940614040367, 0.022115577946573754, 1.0], "metallicFactor": 0.0, "roughnessFactor": 0.9931956620670306}}, {"doubleSided": true, "extensions": {"KHR_materials_specular": {"specularColorFactor": [1.0, 1.0, 1.0], "specularFactor": 0.0}}, "name": "Material.003", "pbrMetallicRoughness": {"baseColorFactor": [0.0445772, 0.0760653, 0.040709, 1.0], "metallicFactor": 0.0, "roughnessFactor": 0.9850589951306599}}, {"doubleSided": true, "name": "Material.001", "pbrMetallicRoughness": {"baseColorFactor": [0.181367, 0.103865, 0.081373, 1.0], "metallicFactor": 0.0, "roughnessFactor": 0.973453847558619}}, {"doubleSided": true, "name": "Material", "pbrMetallicRoughness": {"baseColorFactor": [0.265703, 0.139091, 0.0748809, 1.0], "metallicFactor": 0.0, "roughnessFactor": 0.9639159579217186}}, {"doubleSided": true, "name": "Material.002", "pbrMetallicRoughness": {"baseColorFactor": [0.201897, 0.172769, 0.156613, 1.0], "metallicFactor": 0.0, "roughnessFactor": 0.9602437959424656}}, {"doubleSided": true, "extensions": {"KHR_materials_specular": {"specularColorFactor": [1.0, 1.0, 1.0], "specularFactor": 0.0}}, "name": "Material.026", "pbrMetallicRoughness": {"baseColorFactor": [0.014139134381343963, 0.014139134381343963, 0.014139134381343963, 1.0], "metallicFactor": 0.0}}, {"doubleSided": true, "extensions": {"KHR_materials_specular": {"specularColorFactor": [1.0, 1.0, 1.0], "specularFactor": 0.0}}, "name": "Material.024", "pbrMetallicRoughness": {"baseColorFactor": [0.028863290822882727, 0.028863290822882727, 0.028863290822882727, 1.0], "metallicFactor": 0.0}}, {"doubleSided": true, "extensions": {"KHR_materials_specular": {"specularColorFactor": [1.0, 1.0, 1.0], "specularFactor": 0.0}}, "name": "Material.023", "pbrMetallicRoughness": {"baseColorFactor": [0.020742511621608114, 0.020742511621608114, 0.020742511621608114, 1.0], "metallicFactor": 0.0}}, {"doubleSided": true, "extensions": {"KHR_materials_specular": {"specularColorFactor": [1.0, 1.0, 1.0], "specularFactor": 0.0}}, "name": "Material.022", "pbrMetallicRoughness": {"baseColorFactor": [0.05234494442101382, 0.05234494442101382, 0.05234494442101382, 1.0], "metallicFactor": 0.0}}, {"doubleSided": true, "extensions": {"KHR_materials_specular": {"specularColorFactor": [1.0, 1.0, 1.0], "specularFactor": 0.0}}, "name": "Material.021", "pbrMetallicRoughness": {"baseColorFactor": [0.021807634948988765, 0.021807634948988765, 0.021807634948988765, 1.0], "metallicFactor": 0.0}}, {"doubleSided": true, "extensions": {"KHR_materials_specular": {"specularColorFactor": [1.0, 1.0, 1.0], "specularFactor": 0.0}}, "name": "Material.020", "pbrMetallicRoughness": {"baseColorFactor": [0.06946597839106458, 0.06946597839106458, 0.06946597839106458, 1.0], "metallicFactor": 0.0}}, {"doubleSided": true, "extensions": {"KHR_materials_specular": {"specularColorFactor": [1.0, 1.0, 1.0], "specularFactor": 0.0}}, "name": "Material.019", "pbrMetallicRoughness": {"baseColorFactor": [0.38515757575531206, 0.6022807267927549, 0.7579697625090449, 1.0], "metallicFactor": 0.0}}, {"doubleSided": true, "extensions": {"KHR_materials_specular": {"specularColorFactor": [1.0, 1.0, 1.0], "specularFactor": 0.0}}, "name": "Material.018", "pbrMetallicRoughness": {"baseColorFactor": [0.019708368943048015, 0.019708368943048015, 0.019708368943048015, 1.0], "metallicFactor": 0.0}}], "meshes": [{"name": "Cube_Material.010_0", "primitives": [{"attributes": {"JOINTS_0": 69, "NORMAL": 1, "POSITION": 0, "TEXCOORD_0": 2, "WEIGHTS_0": 70}, "indices": 3, "material": 0, "mode": 4}]}, {"name": "Cube_Material.005_0", "primitives": [{"attributes": {"JOINTS_0": 71, "NORMAL": 5, "POSITION": 4, "TEXCOORD_0": 6, "WEIGHTS_0": 72}, "indices": 7, "material": 1, "mode": 4}]}, {"name": "Cube_Material.004_0", "primitives": [{"attributes": {"JOINTS_0": 73, "NORMAL": 9, "POSITION": 8, "TEXCOORD_0": 10, "WEIGHTS_0": 74}, "indices": 11, "material": 2, "mode": 4}]}, {"name": "Cube_Material.008_0", "primitives": [{"attributes": {"JOINTS_0": 75, "NORMAL": 13, "POSITION": 12, "TEXCOORD_0": 14, "WEIGHTS_0": 76}, "indices": 15, "material": 3, "mode": 4}]}, {"name": "Cube_Material.009_0", "primitives": [{"attributes": {"JOINTS_0": 77, "NORMAL": 17, "POSITION": 16, "TEXCOORD_0": 18, "WEIGHTS_0": 78}, "indices": 19, "material": 4, "mode": 4}]}, {"name": "Cube_Material.006_0", "primitives": [{"attributes": {"JOINTS_0": 79, "NORMAL": 21, "POSITION": 20, "TEXCOORD_0": 22, "WEIGHTS_0": 80}, "indices": 23, "material": 5, "mode": 4}]}, {"name": "Cube_Material.007_0", "primitives": [{"attributes": {"JOINTS_0": 81, "NORMAL": 25, "POSITION": 24, "TEXCOORD_0": 26, "WEIGHTS_0": 82}, "indices": 27, "material": 6, "mode": 4}]}, {"name": "Cube_Material.003_0", "primitives": [{"attributes": {"JOINTS_0": 83, "NORMAL": 29, "POSITION": 28, "TEXCOORD_0": 30, "WEIGHTS_0": 84}, "indices": 31, "material": 7, "mode": 4}]}, {"name": "Cube_Material.001_0", "primitives": [{"attributes": {"JOINTS_0": 85, "NORMAL": 33, "POSITION": 32, "TEXCOORD_0": 34, "WEIGHTS_0": 86}, "indices": 35, "material": 8, "mode": 4}]}, {"name": "Cube_Material_0", "primitives": [{"attributes": {"JOINTS_0": 87, "NORMAL": 37, "POSITION": 36, "TEXCOORD_0": 38, "WEIGHTS_0": 88}, "indices": 39, "material": 9, "mode": 4}]}, {"name": "Cube_Material.002_0", "primitives": [{"attributes": {"JOINTS_0": 89, "NORMAL": 41, "POSITION": 40, "TEXCOORD_0": 42, "WEIGHTS_0": 90}, "indices": 43, "material": 10, "mode": 4}]}, {"name": "Cylinder.000_Material.026_0", "primitives": [{"attributes": {"NORMAL": 45, "POSITION": 44}, "indices": 46, "material": 11, "mode": 4}]}, {"name": "Cylinder.000_Material.024_0", "primitives": [{"attributes": {"NORMAL": 48, "POSITION": 47}, "indices": 49, "material": 12, "mode": 4}]}, {"name": "Cylinder.000_Material.023_0", "primitives": [{"attributes": {"NORMAL": 51, "POSITION": 50}, "indices": 52, "material": 13, "mode": 4}]}, {"name": "Cylinder.000_Material.022_0", "primitives": [{"attributes": {"NORMAL": 54, "POSITION": 53}, "indices": 55, "material": 14, "mode": 4}]}, {"name": "Cylinder.000_Material.021_0", "primitives": [{"attributes": {"NORMAL": 57, "POSITION": 56}, "indices": 58, "material": 15, "mode": 4}]}, {"name": "Cylinder.000_Material.020_0", "primitives": [{"attributes": {"NORMAL": 60, "POSITION": 59}, "indices": 61, "material": 16, "mode": 4}]}, {"name": "Cylinder.000_Material.019_0", "primitives": [{"attributes": {"NORMAL": 63, "POSITION": 62}, "indices": 64, "material": 17, "mode": 4}]}, {"name": "Cylinder.000_Material.018_0", "primitives": [{"attributes": {"NORMAL": 66, "POSITION": 65}, "indices": 67, "material": 18, "mode": 4}]}], "nodes": [{"children": [1], "matrix": [1.0, 0.0, 0.0, 0.0, 0.0, 2.220446049250313e-16, -1.0, 0.0, 0.0, 1.0, 2.220446049250313e-16, 0.0, 0.0, 0.0, 0.0, 1.0], "name": "Sketchfab_model"}, {"children": [2], "matrix": [1.0, 0.0, 0.0, 0.0, 0.0, 0.0, 1.0, 0.0, 0.0, -1.0, 0.0, 0.0, 0.0, 0.0, 0.0, 1.0], "name": "4de3cb4740ea4bbd89e975b6e7c78b57.fbx"}, {"children": [3, 6, 8, 38], "name": "RootNode"}, {"children": [4], "matrix": [23.231172355222103, 21.84616370504412, -94.77900235945377, 0.0, 89.76030839044749, 32.71628095018631, 29.54201199243871, 0.0, 37.461963853455565, -91.93688754462688, -12.00880921357255, 0.0, 1395.951416015625, -349.0223388671875, 233.06117248535156, 1.0], "name": "Light"}, {"children": [5], "matrix": [1.0, 0.0, 0.0, 0.0, 0.0, 2.220446049250313e-16, 1.0, 0.0, 0.0, -1.0, 2.220446049250313e-16, 0.0, 0.0, 0.0, 0.0, 1.0], "name": "Object_4"}, {"name": "Object_5"}, {"children": [7], "matrix": [-50.87663292895197, 0.4151068476957803, -86.08949114587054, 0.0, 1.4461796868845944, 99.9888635770761, -0.3725273629557171, 0.0, 86.07833120042737, -1.4345376747186034, -50.87695475643479, 0.0, 1735.6142578125, -28.398746490478516, 2905.8291015625, 1.0], "name": "Camera"}, {"name": "Object_7"}, {"children": [9], "matrix": [100.0, 0.0, 0.0, 0.0, -0.0, -1.629206793918314e-05, -99.99999999999868, 0.0, 0.0, 99.99999999999868, -1.629206793918314e-05, 0.0, -84.18265533447266, -18.71730613708496, 2.9802322387695312e-06, 1.0], "name": "Armature"}, {"children": [10, 12, 13, 14, 15, 16, 17, 18, 19, 20, 21, 22, 11], "name": "Object_9"}, {"children": [23], "name": "_rootJoint"}, {"matrix": [100.00000429153867, 4.3117467205466105e-13, 9.761389186378495e-13, 0.0, 9.761389931113608e-13, 1.071937465420858e-12, -100.00001192093626, 0.0, -4.311747049507068e-13, 100.00001192093781, 1.0719374654208704e-12, 0.0, -108.86363160697634, -6.957450347058425, -9.347957636388635e-07, 1.0], "name": "Object_11"}, {"mesh": 0, "name": "Object_12", "skin": 0}, {"mesh": 1, "name": "Object_13", "skin": 0}, {"mesh": 2, "name": "Object_14", "skin": 0}, {"mesh": 3, "name": "Object_15", "skin": 0}, {"mesh": 4, "name": "Object_16", "skin": 0}, {"mesh": 5, "name": "Object_17", "skin": 0}, {"mesh": 6, "name": "Object_18", "skin": 0}, {"mesh": 7, "name": "Object_19", "skin": 0}, {"mesh": 8, "name": "Object_20", "skin": 0}, {"mesh": 9, "name": "Object_21", "skin": 0}, {"mesh": 10, "name": "Object_22", "skin": 0}, {"children": [24, 29, 31, 33], "name": "body_00", "rotation": [0.5000001192092896, 0.4999999701976776, -0.5, 0.5000001192092896], "scale": [1.0, 0.9999999403953552, 1.0], "translation": [0.7573131322860718, 1.032180563242946e-08, 0.14970791339874268]}, {"children": [25, 27], "name": "mag_01", "rotation": [-0.5000001192092896, 0.49999985098838806, 0.49999988079071045, 0.5000001192092896], "translation": [0.1702655553817749, -0.6035727858543396, -9.164313041765126e-08]}, {"children": [26], "name": "bullet_02", "rotation": [0.7071068286895752, 4.021343613658246e-08, -2.688772156034247e-07, 0.7071067094802856], "scale": [1.0, 1.0, 0.9999999403953552], "translation": [-3.7367186678238795e-08, 0.2660039961338043, 0.014449043199419975]}, {"name": "bullet_end_09", "rotation": [-3.2747698768513984e-24, -1.0587911840678754e-22, -5.293955920339377e-23, 1.0], "translation": [0.0, 0.22565577924251556, 0.0]}, {"children": [28], "name": "bullets_03", "rotation": [0.7071068286895752, 4.0213478769146604e-08, -2.6887727244684356e-07, 0.7071067094802856], "translation": [-3.1865617700077564e-08, 0.2193778157234192, 0.011928682215511799]}, {"name": "bullets_end_010", "rotation": [-1.3870699068682095e-23, -2.117582368135751e-22, -5.293955920339377e-23, 1.0], "translation": [0.0, 0.22565579414367676, 0.0]}, {"children": [30], "name": "magrelease_04", "rotation": [0.5434325933456421, 0.45242372155189514, -0.5434260368347168, 0.45241788029670715], "translation": [0.13950403034687042, -0.6698110103607178, -9.694157654394076e-08]}, {"name": "magrelease_end_011", "rotation": [4.977096114894814e-18, -1.4491696224630815e-39, -2.9116757561866574e-22, 1.0], "translation": [1.6940658945086007e-21, 0.06754410266876221, -1.1102230246251565e-16]}, {"children": [32], "name": "safety_05", "rotation": [0.41098859906196594, 0.5754019021987915, -0.4109894335269928, 0.575403094291687], "translation": [0.0638398677110672, -0.7550690770149231, -1.2013231298624305e-07]}, {"name": "safety_end_012", "rotation": [-1.6666891940833007e-17, 1.1029227849130624e-39, -6.617444900424221e-23, 1.0], "translation": [0.0, 0.08612746745347977, 0.0]}, {"children": [34, 36], "name": "boltmove_06", "rotation": [8.603592505096458e-08, 0.7071065902709961, -8.603586820754572e-08, 0.7071070671081543], "translation": [-0.13658857345581055, -0.900911271572113, -2.2832368529179803e-07]}, {"children": [35], "name": "boltrotate_07", "rotation": [-2.3237197410708177e-07, 1.1069877814406937e-07, -2.9965705481208027e-13, 1.0], "translation": [-1.644253160293374e-07, 0.23998132348060608, 5.4531646753730456e-08]}, {"name": "boltrotate_end_013", "rotation": [-8.435653797722129e-23, -1.0587911840678754e-22, 2.3161057151484775e-23, 1.0], "translation": [0.0, 0.2892654538154602, 1.3877787807814457e-17]}, {"children": [37], "name": "firingpin_08", "rotation": [-2.6316840262552432e-08, -9.53562846461864e-08, -4.836755453617447e-13, 1.0], "translation": [2.7953028336469288e-08, -0.04402216151356697, -1.9927210104242477e-08]}, {"name": "firingpin_end_014", "rotation": [2.2378627040363125e-24, 0.0, 1.0587911840678754e-22, 1.0], "translation": [-5.293955920339377e-23, 0.0289163738489151, 0.0]}, {"children": [39, 40, 41, 42, 43, 44, 45, 46], "matrix": [100.0, 0.0, 0.0, 0.0, -0.0, -1.629206793918314e-05, -99.99999999999868, 0.0, 0.0, 99.99999999999868, -1.629206793918314e-05, 0.0, -59.474666595458984, 38.12322998046875, 5.0381640903651714e-06, 1.0], "name": "Cylinder.000"}, {"mesh": 11, "name": "Cylinder.000_Material.026_0"}, {"mesh": 12, "name": "Cylinder.000_Material.024_0"}, {"mesh": 13, "name": "Cylinder.000_Material.023_0"}, {"mesh": 14, "name": "Cylinder.000_Material.022_0"}, {"mesh": 15, "name": "Cylinder.000_Material.021_0"}, {"mesh": 16, "name": "Cylinder.000_Material.020_0"}, {"mesh": 17, "name": "Cylinder.000_Material.019_0"}, {"mesh": 18, "name": "Cylinder.000_Material.018_0"}], "scene": 0, "scenes": [{"name": "Sketchfab_Scene", "nodes": [0]}], "skins": [{"inverseBindMatrices": 68, "joints": [10, 23, 24, 25, 26, 27, 28, 29, 30, 31, 32, 33, 34, 35, 36, 37], "skeleton": 10}]}