{"accessors": [{"bufferView": 3, "componentType": 5126, "count": 5130, "max": [2.199483871459961, 0.3041190207004547, 0.09445492923259735], "min": [-1.424031138420105, -0.2319583296775818, -0.23738430440425873], "type": "VEC3"}, {"bufferView": 3, "byteOffset": 61560, "componentType": 5126, "count": 5130, "max": [1.0, 1.0, 1.0], "min": [-1.0, -1.0, -1.0], "type": "VEC3"}, {"bufferView": 2, "componentType": 5126, "count": 5130, "max": [1.0, 1.0], "min": [-8.940696716308594e-08, 0.0], "type": "VEC2"}, {"bufferView": 1, "componentType": 5125, "count": 6156, "type": "SCALAR"}, {"bufferView": 3, "byteOffset": 123120, "componentType": 5126, "count": 834, "max": [0.29399678111076355, 0.38213050365448, 0.31710535287857056], "min": [-0.2015237957239151, -0.2117024064064026, -0.1488073468208313], "type": "VEC3"}, {"bufferView": 3, "byteOffset": 133128, "componentType": 5126, "count": 834, "max": [1.0, 0.9979985952377319, 1.0], "min": [-1.0, -0.9979982972145081, -1.0], "type": "VEC3"}, {"bufferView": 2, "byteOffset": 41040, "componentType": 5126, "count": 834, "max": [1.0, 1.0], "min": [-8.940696716308594e-08, 0.0], "type": "VEC2"}, {"bufferView": 1, "byteOffset": 24624, "componentType": 5125, "count": 882, "type": "SCALAR"}, {"bufferView": 3, "byteOffset": 143136, "componentType": 5126, "count": 1490, "max": [-0.014651552774012089, 0.23497414588928223, 0.0834575667977333], "min": [-0.9803126454353333, 0.08688824623823166, -0.1928545981645584], "type": "VEC3"}, {"bufferView": 3, "byteOffset": 161016, "componentType": 5126, "count": 1490, "max": [1.0, 1.0, 1.0], "min": [-1.0, -1.0, -1.0], "type": "VEC3"}, {"bufferView": 2, "byteOffset": 47712, "componentType": 5126, "count": 1490, "max": [1.0, 1.0], "min": [-8.940696716308594e-08, 0.0], "type": "VEC2"}, {"bufferView": 1, "byteOffset": 28152, "componentType": 5125, "count": 1743, "type": "SCALAR"}, {"bufferView": 3, "byteOffset": 178896, "componentType": 5126, "count": 54, "max": [-0.8037869334220886, 0.1960526704788208, -0.02391800656914711], "min": [-0.8398543000221252, 0.17946544289588928, -0.05515327304601669], "type": "VEC3"}, {"bufferView": 3, "byteOffset": 179544, "componentType": 5126, "count": 54, "max": [0.8660250902175903, 1.0, 1.0], "min": [-0.8660277724266052, -1.0, -1.0], "type": "VEC3"}, {"bufferView": 2, "byteOffset": 59632, "componentType": 5126, "count": 54, "max": [1.0, 1.0], "min": [-8.940696716308594e-08, 0.01000000536441803], "type": "VEC2"}, {"bufferView": 1, "byteOffset": 35124, "componentType": 5125, "count": 60, "type": "SCALAR"}, {"bufferView": 3, "byteOffset": 180192, "componentType": 5126, "count": 10837, "max": [1.3134759664535522, 0.4224872589111328, 0.35769760608673096], "min": [-2.402726888656616, -0.5961065292358398, -0.47946837544441223], "type": "VEC3"}, {"bufferView": 3, "byteOffset": 310236, "componentType": 5126, "count": 10837, "max": [1.0, 1.0, 1.0], "min": [-1.0, -1.0, -1.0], "type": "VEC3"}, {"bufferView": 2, "byteOffset": 60064, "componentType": 5126, "count": 10837, "max": [1.0, 1.113133430480957], "min": [-1.6052865982055664, 0.0], "type": "VEC2"}, {"bufferView": 1, "byteOffset": 35364, "componentType": 5125, "count": 12033, "type": "SCALAR"}, {"bufferView": 3, "byteOffset": 440280, "componentType": 5126, "count": 4922, "max": [2.5024771690368652, 0.274740993976593, 0.13637948036193848], "min": [-1.305451512336731, -0.5045880079269409, -0.2235075831413269], "type": "VEC3"}, {"bufferView": 3, "byteOffset": 499344, "componentType": 5126, "count": 4922, "max": [1.0, 1.0, 1.0], "min": [-1.0, -1.0, -1.0], "type": "VEC3"}, {"bufferView": 2, "byteOffset": 146760, "componentType": 5126, "count": 4922, "max": [1.0, 1.0], "min": [-8.940696716308594e-08, 0.0], "type": "VEC2"}, {"bufferView": 1, "byteOffset": 83496, "componentType": 5125, "count": 5490, "type": "SCALAR"}, {"bufferView": 3, "byteOffset": 558408, "componentType": 5126, "count": 1460, "max": [2.1842598915100098, 0.2839614450931549, 0.1336628496646881], "min": [-1.0290098190307617, -0.046221427619457245, -0.17037786543369293], "type": "VEC3"}, {"bufferView": 3, "byteOffset": 575928, "componentType": 5126, "count": 1460, "max": [1.0, 1.0, 1.0], "min": [-1.0, -1.0, -1.0], "type": "VEC3"}, {"bufferView": 2, "byteOffset": 186136, "componentType": 5126, "count": 1460, "max": [1.0, 1.0], "min": [-8.940696716308594e-08, 0.0], "type": "VEC2"}, {"bufferView": 1, "byteOffset": 105456, "componentType": 5125, "count": 1806, "type": "SCALAR"}, {"bufferView": 3, "byteOffset": 593448, "componentType": 5126, "count": 5151, "max": [2.1821022033691406, 0.30913957953453064, 0.17437832057476044], "min": [-1.4542748928070068, -0.16509464383125305, -0.09677605330944061], "type": "VEC3"}, {"bufferView": 3, "byteOffset": 655260, "componentType": 5126, "count": 5151, "max": [1.0, 1.0, 1.0], "min": [-1.0, -1.0, -1.0], "type": "VEC3"}, {"bufferView": 2, "byteOffset": 197816, "componentType": 5126, "count": 5151, "max": [1.0, 1.0], "min": [-8.940696716308594e-08, 0.0], "type": "VEC2"}, {"bufferView": 1, "byteOffset": 112680, "componentType": 5125, "count": 5508, "type": "SCALAR"}, {"bufferView": 3, "byteOffset": 717072, "componentType": 5126, "count": 2074, "max": [2.2573118209838867, 0.17457565665245056, 0.25043052434921265], "min": [-1.3530319929122925, -0.6019692420959473, -0.09278468787670135], "type": "VEC3"}, {"bufferView": 3, "byteOffset": 741960, "componentType": 5126, "count": 2074, "max": [1.0, 1.0, 1.0], "min": [-1.0, -1.0, -1.0], "type": "VEC3"}, {"bufferView": 2, "byteOffset": 239024, "componentType": 5126, "count": 2074, "max": [1.0, 1.0], "min": [-8.940696716308594e-08, 0.0], "type": "VEC2"}, {"bufferView": 1, "byteOffset": 134712, "componentType": 5125, "count": 2292, "type": "SCALAR"}, {"bufferView": 3, "byteOffset": 766848, "componentType": 5126, "count": 396, "max": [-0.0835576206445694, 0.1527063250541687, -0.19605273008346558], "min": [-0.3980918526649475, -0.2836775779724121, -0.41687384247779846], "type": "VEC3"}, {"bufferView": 3, "byteOffset": 771600, "componentType": 5126, "count": 396, "max": [1.0, 0.9914516806602478, 0.9998292922973633], "min": [-1.0, -0.9777137637138367, -0.9997382760047913], "type": "VEC3"}, {"bufferView": 2, "byteOffset": 255616, "componentType": 5126, "count": 396, "max": [0.875, 1.0], "min": [0.125, 0.0], "type": "VEC2"}, {"bufferView": 1, "byteOffset": 143880, "componentType": 5125, "count": 402, "type": "SCALAR"}, {"bufferView": 3, "byteOffset": 776352, "componentType": 5126, "count": 4271, "max": [-0.18449725210666656, 0.15772545337677002, 0.014520522207021713], "min": [-0.37188732624053955, -0.003590233623981476, -0.43265220522880554], "type": "VEC3"}, {"bufferView": 3, "byteOffset": 827604, "componentType": 5126, "count": 4271, "max": [1.0, 0.9923089146614075, 1.0], "min": [-1.0, -0.9923087358474731, -1.0], "type": "VEC3"}, {"bufferView": 2, "byteOffset": 258784, "componentType": 5126, "count": 4271, "max": [1.0, 1.0], "min": [-8.940696716308594e-08, 0.5], "type": "VEC2"}, {"bufferView": 1, "byteOffset": 145488, "componentType": 5125, "count": 4752, "type": "SCALAR"}, {"bufferView": 3, "byteOffset": 878856, "componentType": 5126, "count": 488, "max": [-0.36857864260673523, 0.14500564336776733, 0.003504851134493947], "min": [-0.37174808979034424, 0.009082384407520294, -0.42113006114959717], "type": "VEC3"}, {"bufferView": 3, "byteOffset": 884712, "componentType": 5126, "count": 488, "max": [7.95158848632127e-06, 0.9923084378242493, 1.0], "min": [-1.0, -0.9923087358474731, -1.0], "type": "VEC3"}, {"bufferView": 2, "byteOffset": 292952, "componentType": 5126, "count": 488, "max": [1.0, 0.5], "min": [-8.940696716308594e-08, 0.01000000536441803], "type": "VEC2"}, {"bufferView": 1, "byteOffset": 164496, "componentType": 5125, "count": 528, "type": "SCALAR"}, {"bufferView": 3, "byteOffset": 890568, "componentType": 5126, "count": 1688, "max": [-0.11277742683887482, 0.14928436279296875, 0.00721026910468936], "min": [-0.18449725210666656, 0.0048195794224739075, -0.4250059425830841], "type": "VEC3"}, {"bufferView": 3, "byteOffset": 910824, "componentType": 5126, "count": 1688, "max": [1.0, 0.9923084378242493, 1.0], "min": [-2.909442628151737e-06, -0.9923087358474731, -1.0], "type": "VEC3"}, {"bufferView": 2, "byteOffset": 296856, "componentType": 5126, "count": 1688, "max": [1.0, 1.0], "min": [-8.940696716308594e-08, 0.01000000536441803], "type": "VEC2"}, {"bufferView": 1, "byteOffset": 166608, "componentType": 5125, "count": 1716, "type": "SCALAR"}, {"bufferView": 3, "byteOffset": 931080, "componentType": 5126, "count": 1252, "max": [-0.07754935324192047, 0.09925156086683273, -0.20039372146129608], "min": [-0.40410009026527405, -0.49174579977989197, -0.748599112033844], "type": "VEC3"}, {"bufferView": 3, "byteOffset": 946104, "componentType": 5126, "count": 1252, "max": [1.0, 1.0, 1.0], "min": [-1.0, -1.0, -1.0], "type": "VEC3"}, {"bufferView": 2, "byteOffset": 310360, "componentType": 5126, "count": 1252, "max": [0.875, 1.0], "min": [0.125, 0.0], "type": "VEC2"}, {"bufferView": 1, "byteOffset": 173472, "componentType": 5125, "count": 1530, "type": "SCALAR"}, {"bufferView": 3, "byteOffset": 961128, "componentType": 5126, "count": 117, "max": [-2.330153465270996, 0.09765254706144333, 0.05877457186579704], "min": [-2.439143180847168, -0.3602762818336487, -0.05876260623335838], "type": "VEC3"}, {"bufferView": 3, "byteOffset": 962532, "componentType": 5126, "count": 117, "max": [0.13818153738975525, 0.9244017601013184, 0.9999907612800598], "min": [-1.0, -0.9904073476791382, -0.9999906420707703], "type": "VEC3"}, {"bufferView": 2, "byteOffset": 320376, "componentType": 5126, "count": 117, "max": [0.875, 1.0], "min": [0.125, 0.625], "type": "VEC2"}, {"bufferView": 1, "byteOffset": 179592, "componentType": 5125, "count": 117, "type": "SCALAR"}, {"bufferView": 3, "byteOffset": 963936, "componentType": 5126, "count": 1296, "max": [1.2967499494552612, 1.810799241065979, 1.1717557907104492], "min": [-2.2125425338745117, -3.812349796295166, -1.171756386756897], "type": "VEC3"}, {"bufferView": 3, "byteOffset": 979488, "componentType": 5126, "count": 1296, "max": [1.0, 1.0, 1.0], "min": [-1.0, -1.0, -1.0], "type": "VEC3"}, {"bufferView": 1, "byteOffset": 180060, "componentType": 5125, "count": 1362, "type": "SCALAR"}, {"bufferView": 3, "byteOffset": 995040, "componentType": 5126, "count": 202, "max": [1.0624183416366577, -1.6996132135391235, 0.9353707432746887], "min": [-2.035957098007202, -4.042760372161865, -0.9353712201118469], "type": "VEC3"}, {"bufferView": 3, "byteOffset": 997464, "componentType": 5126, "count": 202, "max": [0.8990166783332825, 1.0, 1.0], "min": [-0.9238800406455994, -1.0, -1.0], "type": "VEC3"}, {"bufferView": 1, "byteOffset": 185508, "componentType": 5125, "count": 204, "type": "SCALAR"}, {"bufferView": 3, "byteOffset": 999888, "componentType": 5126, "count": 1298, "max": [-0.8104972839355469, 0.6479427814483643, 0.7546191215515137], "min": [-2.075469732284546, -4.257758140563965, -0.7546204328536987], "type": "VEC3"}, {"bufferView": 3, "byteOffset": 1015464, "componentType": 5126, "count": 1298, "max": [1.0, 1.0, 1.0], "min": [-1.0, -1.0, -1.0], "type": "VEC3"}, {"bufferView": 1, "byteOffset": 186324, "componentType": 5125, "count": 1392, "type": "SCALAR"}, {"bufferView": 3, "byteOffset": 1031040, "componentType": 5126, "count": 172, "max": [-1.1574968099594116, 0.5419082641601562, 0.8170937895774841], "min": [-1.5001144409179688, -3.940429449081421, -0.8170951008796692], "type": "VEC3"}, {"bufferView": 3, "byteOffset": 1033104, "componentType": 5126, "count": 172, "max": [1.0, 1.0, 1.0], "min": [-0.8660286664962769, -1.0, -1.0], "type": "VEC3"}, {"bufferView": 1, "byteOffset": 191892, "componentType": 5125, "count": 186, "type": "SCALAR"}, {"bufferView": 3, "byteOffset": 1035168, "componentType": 5126, "count": 34, "max": [0.8460837602615356, 1.534250259399414, 0.7302870750427246], "min": [-0.7701051831245422, -2.9915733337402344, -0.7302868366241455], "type": "VEC3"}, {"bufferView": 3, "byteOffset": 1035576, "componentType": 5126, "count": 34, "max": [5.396326514528482e-07, 1.0, 3.9408726593137544e-07], "min": [-0.2975451648235321, -0.9612892270088196, -3.9408689644915285e-07], "type": "VEC3"}, {"bufferView": 1, "byteOffset": 192636, "componentType": 5125, "count": 36, "type": "SCALAR"}, {"bufferView": 5, "componentType": 5126, "count": 22, "max": [1.0, 2.542111396789551, 2.54211163520813, 0.0, 2.5421109199523926, 2.542111396789551, 2.542111396789551, 0.0, 0.24389232695102692, 2.542111396789551, 2.542111396789551, 0.0, 0.310819536447525, 2.1043314933776855, 3.024458408355713, 1.0], "min": [-1.7340665863230242e-06, -2.542112112045288, 0.0, 0.0, -2.542111396789551, -0.24389205873012543, -2.542111396789551, 0.0, -2.542111396789551, -2.542111396789551, -4.773720547746052e-07, 0.0, -0.6528354287147522, -1.3332304954528809, -0.6700156331062317, 1.0], "type": "MAT4"}, {"bufferView": 0, "componentType": 5123, "count": 5130, "type": "VEC4"}, {"bufferView": 4, "componentType": 5126, "count": 5130, "max": [1.0, 0.0, 0.0, 0.0], "min": [1.0, 0.0, 0.0, 0.0], "type": "VEC4"}, {"bufferView": 0, "byteOffset": 41040, "componentType": 5123, "count": 834, "type": "VEC4"}, {"bufferView": 4, "byteOffset": 82080, "componentType": 5126, "count": 834, "max": [1.0, 0.0, 0.0, 0.0], "min": [1.0, 0.0, 0.0, 0.0], "type": "VEC4"}, {"bufferView": 0, "byteOffset": 47712, "componentType": 5123, "count": 1490, "type": "VEC4"}, {"bufferView": 4, "byteOffset": 95424, "componentType": 5126, "count": 1490, "max": [1.0, 0.0, 0.0, 0.0], "min": [1.0, 0.0, 0.0, 0.0], "type": "VEC4"}, {"bufferView": 0, "byteOffset": 59632, "componentType": 5123, "count": 54, "type": "VEC4"}, {"bufferView": 4, "byteOffset": 119264, "componentType": 5126, "count": 54, "max": [1.0, 0.0, 0.0, 0.0], "min": [1.0, 0.0, 0.0, 0.0], "type": "VEC4"}, {"bufferView": 0, "byteOffset": 60064, "componentType": 5123, "count": 10837, "type": "VEC4"}, {"bufferView": 4, "byteOffset": 120128, "componentType": 5126, "count": 10837, "max": [1.0, 0.0, 0.0, 0.0], "min": [1.0, 0.0, 0.0, 0.0], "type": "VEC4"}, {"bufferView": 0, "byteOffset": 146760, "componentType": 5123, "count": 4922, "type": "VEC4"}, {"bufferView": 4, "byteOffset": 293520, "componentType": 5126, "count": 4922, "max": [1.0, 0.0, 0.0, 0.0], "min": [1.0, 0.0, 0.0, 0.0], "type": "VEC4"}, {"bufferView": 0, "byteOffset": 186136, "componentType": 5123, "count": 1460, "type": "VEC4"}, {"bufferView": 4, "byteOffset": 372272, "componentType": 5126, "count": 1460, "max": [1.0, 0.0, 0.0, 0.0], "min": [1.0, 0.0, 0.0, 0.0], "type": "VEC4"}, {"bufferView": 0, "byteOffset": 197816, "componentType": 5123, "count": 5151, "type": "VEC4"}, {"bufferView": 4, "byteOffset": 395632, "componentType": 5126, "count": 5151, "max": [1.0, 0.0, 0.0, 0.0], "min": [1.0, 0.0, 0.0, 0.0], "type": "VEC4"}, {"bufferView": 0, "byteOffset": 239024, "componentType": 5123, "count": 2074, "type": "VEC4"}, {"bufferView": 4, "byteOffset": 478048, "componentType": 5126, "count": 2074, "max": [1.0, 0.0, 0.0, 0.0], "min": [1.0, 0.0, 0.0, 0.0], "type": "VEC4"}, {"bufferView": 0, "byteOffset": 255616, "componentType": 5123, "count": 396, "type": "VEC4"}, {"bufferView": 4, "byteOffset": 511232, "componentType": 5126, "count": 396, "max": [1.0, 0.0, 0.0, 0.0], "min": [1.0, 0.0, 0.0, 0.0], "type": "VEC4"}, {"bufferView": 0, "byteOffset": 258784, "componentType": 5123, "count": 4271, "type": "VEC4"}, {"bufferView": 4, "byteOffset": 517568, "componentType": 5126, "count": 4271, "max": [1.0, 0.0, 0.0, 0.0], "min": [1.0, 0.0, 0.0, 0.0], "type": "VEC4"}, {"bufferView": 0, "byteOffset": 292952, "componentType": 5123, "count": 488, "type": "VEC4"}, {"bufferView": 4, "byteOffset": 585904, "componentType": 5126, "count": 488, "max": [1.0, 0.0, 0.0, 0.0], "min": [1.0, 0.0, 0.0, 0.0], "type": "VEC4"}, {"bufferView": 0, "byteOffset": 296856, "componentType": 5123, "count": 1688, "type": "VEC4"}, {"bufferView": 4, "byteOffset": 593712, "componentType": 5126, "count": 1688, "max": [1.0, 0.0, 0.0, 0.0], "min": [1.0, 0.0, 0.0, 0.0], "type": "VEC4"}, {"bufferView": 0, "byteOffset": 310360, "componentType": 5123, "count": 1252, "type": "VEC4"}, {"bufferView": 4, "byteOffset": 620720, "componentType": 5126, "count": 1252, "max": [1.0, 0.0, 0.0, 0.0], "min": [1.0, 0.0, 0.0, 0.0], "type": "VEC4"}, {"bufferView": 0, "byteOffset": 320376, "componentType": 5123, "count": 117, "type": "VEC4"}, {"bufferView": 4, "byteOffset": 640752, "componentType": 5126, "count": 117, "max": [1.0, 0.0, 0.0, 0.0], "min": [1.0, 0.0, 0.0, 0.0], "type": "VEC4"}], "asset": {"extras": {"author": "TastyTony (https://sketchfab.com/TastyTony)", "license": "CC-BY-4.0 (http://creativecommons.org/licenses/by/4.0/)", "source": "https://sketchfab.com/3d-models/low-poly-m240b-657a3b8ce0194aae9c7c9036c18c54b9", "title": "Low-Poly M240B"}, "generator": "Sketchfab-15.30.0", "version": "2.0"}, "bufferViews": [{"buffer": 0, "byteLength": 321312, "byteStride": 8, "name": "shortBufferViews", "target": 34962}, {"buffer": 0, "byteLength": 192780, "byteOffset": 321312, "name": "floatBufferViews", "target": 34963}, {"buffer": 0, "byteLength": 321312, "byteOffset": 514092, "byteStride": 8, "name": "floatBufferViews", "target": 34962}, {"buffer": 0, "byteLength": 1035984, "byteOffset": 835404, "byteStride": 12, "name": "floatBufferViews", "target": 34962}, {"buffer": 0, "byteLength": 642624, "byteOffset": 1871388, "byteStride": 16, "name": "floatBufferViews", "target": 34962}, {"buffer": 0, "byteLength": 1408, "byteOffset": 2514012, "name": "floatBufferViews"}], "buffers": [{"byteLength": 2515420, "uri": "scene.bin"}], "extensionsUsed": ["KHR_materials_specular"], "materials": [{"doubleSided": true, "extensions": {"KHR_materials_specular": {"specularColorFactor": [1.0, 1.0, 1.0], "specularFactor": 0.0}}, "name": "Material.003", "pbrMetallicRoughness": {"baseColorFactor": [0.0871404, 0.0847065, 0.0779637, 1.0], "metallicFactor": 0.0, "roughnessFactor": 0.5}}, {"doubleSided": true, "extensions": {"KHR_materials_specular": {"specularColorFactor": [1.0, 1.0, 1.0], "specularFactor": 0.0}}, "name": "Material.009", "pbrMetallicRoughness": {"baseColorFactor": [0.109128, 0.110689, 0.101416, 1.0], "metallicFactor": 0.0, "roughnessFactor": 0.5}}, {"doubleSided": true, "name": "Material.012", "pbrMetallicRoughness": {"baseColorFactor": [0.0800081, 0.0800081, 0.0800081, 1.0], "metallicFactor": 0.0, "roughnessFactor": 0.5}}, {"doubleSided": true, "name": "Material.014", "pbrMetallicRoughness": {"baseColorFactor": [0.114936, 0.0803925, 0.0458918, 1.0], "metallicFactor": 0.0, "roughnessFactor": 0.5}}, {"doubleSided": true, "extensions": {"KHR_materials_specular": {"specularColorFactor": [1.0, 1.0, 1.0], "specularFactor": 0.0}}, "name": "Material.005", "pbrMetallicRoughness": {"baseColorFactor": [0.0199093, 0.0199093, 0.0199093, 1.0], "metallicFactor": 0.0, "roughnessFactor": 0.5}}, {"doubleSided": true, "extensions": {"KHR_materials_specular": {"specularColorFactor": [1.0, 1.0, 1.0], "specularFactor": 0.0}}, "name": "Material.010", "pbrMetallicRoughness": {"baseColorFactor": [0.0347217, 0.03478, 0.0323918, 1.0], "metallicFactor": 0.0, "roughnessFactor": 0.5}}, {"doubleSided": true, "extensions": {"KHR_materials_specular": {"specularColorFactor": [1.0, 1.0, 1.0], "specularFactor": 0.0}}, "name": "Material.011", "pbrMetallicRoughness": {"baseColorFactor": [0.054987462057027224, 0.054987462057027224, 0.054987462057027224, 1.0], "metallicFactor": 0.0, "roughnessFactor": 0.5}}, {"doubleSided": true, "extensions": {"KHR_materials_specular": {"specularColorFactor": [1.0, 1.0, 1.0], "specularFactor": 0.0}}, "name": "Material.008", "pbrMetallicRoughness": {"baseColorFactor": [0.118178, 0.115465, 0.101116, 1.0], "metallicFactor": 0.0, "roughnessFactor": 0.5}}, {"doubleSided": true, "extensions": {"KHR_materials_specular": {"specularColorFactor": [1.0, 1.0, 1.0], "specularFactor": 0.0}}, "name": "Material.004", "pbrMetallicRoughness": {"baseColorFactor": [0.05729783433459911, 0.056986086999034236, 0.050492868817337846, 1.0], "metallicFactor": 0.0, "roughnessFactor": 0.5}}, {"doubleSided": true, "extensions": {"KHR_materials_specular": {"specularColorFactor": [1.0, 1.0, 1.0], "specularFactor": 0.0}}, "name": "Material.007", "pbrMetallicRoughness": {"baseColorFactor": [0.0394473, 0.0469619, 0.0392743, 1.0], "metallicFactor": 0.0, "roughnessFactor": 0.5}}, {"doubleSided": true, "extensions": {"KHR_materials_specular": {"specularColorFactor": [1.0, 1.0, 1.0], "specularFactor": 0.0}}, "name": "Material", "pbrMetallicRoughness": {"baseColorFactor": [0.21836699999999976, 0.15743600000000002, 0.07831870000000003, 1.0], "metallicFactor": 0.0, "roughnessFactor": 0.5}}, {"doubleSided": true, "extensions": {"KHR_materials_specular": {"specularColorFactor": [1.0, 1.0, 1.0], "specularFactor": 0.0}}, "name": "Material.002", "pbrMetallicRoughness": {"baseColorFactor": [0.190178, 0.163408, 0.147638, 1.0], "metallicFactor": 0.0, "roughnessFactor": 0.5}}, {"doubleSided": true, "extensions": {"KHR_materials_specular": {"specularColorFactor": [1.0, 1.0, 1.0], "specularFactor": 0.0}}, "name": "Material.001", "pbrMetallicRoughness": {"baseColorFactor": [0.12823899999999994, 0.08113679999999998, 0.060582300000000006, 1.0], "metallicFactor": 0.0, "roughnessFactor": 0.5}}, {"doubleSided": true, "extensions": {"KHR_materials_specular": {"specularColorFactor": [1.0, 1.0, 1.0], "specularFactor": 0.0}}, "name": "Material.006", "pbrMetallicRoughness": {"baseColorFactor": [0.0715062, 0.0765803, 0.0635432, 1.0], "metallicFactor": 0.0, "roughnessFactor": 0.5}}, {"doubleSided": true, "extensions": {"KHR_materials_specular": {"specularColorFactor": [1.0, 1.0, 1.0], "specularFactor": 0.0}}, "name": "Material.013", "pbrMetallicRoughness": {"baseColorFactor": [0.0114733, 0.0114733, 0.0114733, 1.0], "metallicFactor": 0.0, "roughnessFactor": 0.5}}, {"doubleSided": true, "extensions": {"KHR_materials_specular": {"specularColorFactor": [1.0, 1.0, 1.0], "specularFactor": 0.0}}, "name": "Material.019", "pbrMetallicRoughness": {"baseColorFactor": [0.022903998576993965, 0.022903998576993965, 0.022903998576993965, 1.0], "metallicFactor": 0.0, "roughnessFactor": 0.0}}, {"doubleSided": true, "name": "Material.018", "pbrMetallicRoughness": {"baseColorFactor": [0.0146694, 0.0146694, 0.0146694, 1.0], "metallicFactor": 0.0, "roughnessFactor": 0.0}}, {"doubleSided": true, "extensions": {"KHR_materials_specular": {"specularColorFactor": [1.0, 1.0, 1.0], "specularFactor": 0.0}}, "name": "Material.017", "pbrMetallicRoughness": {"baseColorFactor": [0.0203788, 0.0203788, 0.0203788, 1.0], "metallicFactor": 0.0, "roughnessFactor": 0.0}}, {"doubleSided": true, "name": "Material.016", "pbrMetallicRoughness": {"baseColorFactor": [0.0352179, 0.0352179, 0.0352179, 1.0], "metallicFactor": 0.0, "roughnessFactor": 0.0}}, {"doubleSided": true, "name": "Material.015", "pbrMetallicRoughness": {"baseColorFactor": [0.461507, 0.787399, 0.78739, 1.0], "metallicFactor": 0.0, "roughnessFactor": 0.0}}], "meshes": [{"name": "Object_0", "primitives": [{"attributes": {"JOINTS_0": 76, "NORMAL": 1, "POSITION": 0, "TEXCOORD_0": 2, "WEIGHTS_0": 77}, "indices": 3, "material": 0, "mode": 4}]}, {"name": "Object_1", "primitives": [{"attributes": {"JOINTS_0": 78, "NORMAL": 5, "POSITION": 4, "TEXCOORD_0": 6, "WEIGHTS_0": 79}, "indices": 7, "material": 1, "mode": 4}]}, {"name": "Object_2", "primitives": [{"attributes": {"JOINTS_0": 80, "NORMAL": 9, "POSITION": 8, "TEXCOORD_0": 10, "WEIGHTS_0": 81}, "indices": 11, "material": 2, "mode": 4}]}, {"name": "Object_3", "primitives": [{"attributes": {"JOINTS_0": 82, "NORMAL": 13, "POSITION": 12, "TEXCOORD_0": 14, "WEIGHTS_0": 83}, "indices": 15, "material": 3, "mode": 4}]}, {"name": "Object_4", "primitives": [{"attributes": {"JOINTS_0": 84, "NORMAL": 17, "POSITION": 16, "TEXCOORD_0": 18, "WEIGHTS_0": 85}, "indices": 19, "material": 4, "mode": 4}]}, {"name": "Object_5", "primitives": [{"attributes": {"JOINTS_0": 86, "NORMAL": 21, "POSITION": 20, "TEXCOORD_0": 22, "WEIGHTS_0": 87}, "indices": 23, "material": 5, "mode": 4}]}, {"name": "Object_6", "primitives": [{"attributes": {"JOINTS_0": 88, "NORMAL": 25, "POSITION": 24, "TEXCOORD_0": 26, "WEIGHTS_0": 89}, "indices": 27, "material": 6, "mode": 4}]}, {"name": "Object_7", "primitives": [{"attributes": {"JOINTS_0": 90, "NORMAL": 29, "POSITION": 28, "TEXCOORD_0": 30, "WEIGHTS_0": 91}, "indices": 31, "material": 7, "mode": 4}]}, {"name": "Object_8", "primitives": [{"attributes": {"JOINTS_0": 92, "NORMAL": 33, "POSITION": 32, "TEXCOORD_0": 34, "WEIGHTS_0": 93}, "indices": 35, "material": 8, "mode": 4}]}, {"name": "Object_9", "primitives": [{"attributes": {"JOINTS_0": 94, "NORMAL": 37, "POSITION": 36, "TEXCOORD_0": 38, "WEIGHTS_0": 95}, "indices": 39, "material": 9, "mode": 4}]}, {"name": "Object_10", "primitives": [{"attributes": {"JOINTS_0": 96, "NORMAL": 41, "POSITION": 40, "TEXCOORD_0": 42, "WEIGHTS_0": 97}, "indices": 43, "material": 10, "mode": 4}]}, {"name": "Object_11", "primitives": [{"attributes": {"JOINTS_0": 98, "NORMAL": 45, "POSITION": 44, "TEXCOORD_0": 46, "WEIGHTS_0": 99}, "indices": 47, "material": 11, "mode": 4}]}, {"name": "Object_12", "primitives": [{"attributes": {"JOINTS_0": 100, "NORMAL": 49, "POSITION": 48, "TEXCOORD_0": 50, "WEIGHTS_0": 101}, "indices": 51, "material": 12, "mode": 4}]}, {"name": "Object_13", "primitives": [{"attributes": {"JOINTS_0": 102, "NORMAL": 53, "POSITION": 52, "TEXCOORD_0": 54, "WEIGHTS_0": 103}, "indices": 55, "material": 13, "mode": 4}]}, {"name": "Object_14", "primitives": [{"attributes": {"JOINTS_0": 104, "NORMAL": 57, "POSITION": 56, "TEXCOORD_0": 58, "WEIGHTS_0": 105}, "indices": 59, "material": 14, "mode": 4}]}, {"name": "Object_15", "primitives": [{"attributes": {"NORMAL": 61, "POSITION": 60}, "indices": 62, "material": 15, "mode": 4}]}, {"name": "Object_16", "primitives": [{"attributes": {"NORMAL": 64, "POSITION": 63}, "indices": 65, "material": 16, "mode": 4}]}, {"name": "Object_17", "primitives": [{"attributes": {"NORMAL": 67, "POSITION": 66}, "indices": 68, "material": 17, "mode": 4}]}, {"name": "Object_18", "primitives": [{"attributes": {"NORMAL": 70, "POSITION": 69}, "indices": 71, "material": 18, "mode": 4}]}, {"name": "Object_19", "primitives": [{"attributes": {"NORMAL": 73, "POSITION": 72}, "indices": 74, "material": 19, "mode": 4}]}], "nodes": [{"children": [1], "matrix": [1.0, 0.0, 0.0, 0.0, 0.0, 2.220446049250313e-16, -1.0, 0.0, 0.0, 1.0, 2.220446049250313e-16, 0.0, 0.0, 0.0, 0.0, 1.0], "name": "Sketchfab_model"}, {"children": [2], "name": "root"}, {"children": [3, 43], "matrix": [1.0, 0.0, 0.0, 0.0, 0.0, 2.220446049250313e-16, 1.0, 0.0, 0.0, -1.0, 2.220446049250313e-16, 0.0, 0.0, 0.0, 0.0, 1.0], "name": "GLTF_SceneRootNode"}, {"children": [4], "matrix": [6.631786283936934e-08, -0.3933737874031011, -0.0, 0.0, 0.3933737874031011, 6.631786283936934e-08, 0.0, 0.0, 0.0, -0.0, 0.3933737874031067, 0.0, 0.5244579315185547, -0.08271653205156326, 0.0, 1.0], "name": "Armature_25"}, {"children": [5, 7, 8, 9, 10, 11, 12, 13, 14, 15, 16, 17, 18, 19, 20, 21, 6], "name": "GLTF_created_0"}, {"children": [22], "name": "GLTF_created_0_rootJoint"}, {"name": "Cube.026_24"}, {"mesh": 0, "name": "Object_7", "skin": 0}, {"mesh": 1, "name": "Object_8", "skin": 0}, {"mesh": 2, "name": "Object_9", "skin": 0}, {"mesh": 3, "name": "Object_10", "skin": 0}, {"mesh": 4, "name": "Object_11", "skin": 0}, {"mesh": 5, "name": "Object_12", "skin": 0}, {"mesh": 6, "name": "Object_13", "skin": 0}, {"mesh": 7, "name": "Object_14", "skin": 0}, {"mesh": 8, "name": "Object_15", "skin": 0}, {"mesh": 9, "name": "Object_16", "skin": 0}, {"mesh": 10, "name": "Object_17", "skin": 0}, {"mesh": 11, "name": "Object_18", "skin": 0}, {"mesh": 12, "name": "Object_19", "skin": 0}, {"mesh": 13, "name": "Object_20", "skin": 0}, {"mesh": 14, "name": "Object_21", "skin": 0}, {"children": [23, 24, 25, 26, 40, 41, 42], "name": "body_23"}, {"name": "topcover_3", "rotation": [-0.7071068286895752, -1.853405535712227e-07, 0.7071068286895752, 3.932262018224719e-07], "scale": [1.0, 0.9999997019767761, 1.0], "translation": [-0.7207626104354858, -1.3685619831085205, -1.3100883933248042e-08]}, {"name": "charginghandle_4", "rotation": [5.099142441622462e-08, 0.7071065902709961, -5.099145283793405e-08, 0.7071069478988647], "translation": [-0.027304118499159813, -3.0429868698120117, 0.31081944704055786]}, {"name": "carryhandle_5", "rotation": [-0.25909367203712463, 0.6579288244247437, 0.6579289436340332, 0.25909391045570374], "scale": [0.9999998211860657, 0.9999997019767761, 1.0], "translation": [-0.4195619821548462, -0.6632149815559387, -7.026658011000109e-08]}, {"children": [27, 28, 29], "name": "mag_19", "rotation": [-0.4999999403953552, 0.4999999403953552, 0.5000000596046448, 0.5000000596046448], "translation": [0.20700287818908691, -1.9461588859558105, -0.6373460292816162]}, {"name": "mag latch_6", "rotation": [1.6492339966895522e-28, -2.1855683485227928e-08, 8.470329472543003e-22, 1.0], "translation": [-0.10572084039449692, -0.10572071373462677, -2.227205584404146e-07]}, {"name": "bulletdoor_7", "rotation": [1.2628679257886688e-07, -1.7629139037467212e-08, 0.5822394490242004, 0.8130173683166504], "translation": [0.3996198773384094, 0.6456959843635559, 0.008358038030564785]}, {"children": [30], "name": "bullet_18", "rotation": [1.7313384148565092e-07, 7.2483041790860625e-09, 0.6861401200294495, 0.7274694442749023], "translation": [0.526377260684967, 0.459063321352005, -0.14462529122829437]}, {"children": [31], "name": "bullet.001_17", "rotation": [-2.6776476147460926e-08, 1.209560167581003e-07, 0.05790011212229729, 0.9983223676681519], "scale": [0.9999999403953552, 0.9999999403953552, 1.0], "translation": [-2.9093598641338758e-08, 0.11381623148918152, 2.3106201751943445e-07]}, {"children": [32], "name": "bullet.002_16", "rotation": [-7.054747953351426e-13, 6.179176961773614e-12, -0.11348831653594971, 0.9935393333435059], "scale": [0.9999999403953552, 1.0, 1.0], "translation": [2.2325728821215307e-08, 0.10880665481090546, -2.5006663406657026e-12]}, {"children": [33], "name": "bullet.003_15", "rotation": [3.7378653401913976e-15, -3.977520607122793e-15, -0.2538575530052185, 0.967241644859314], "scale": [1.000000238418579, 1.0, 1.0], "translation": [1.4635418210673379e-08, 0.1254197657108307, 7.549516567451064e-15]}, {"children": [34], "name": "bullet.004_14", "rotation": [8.58886061620381e-16, -2.069500966401334e-15, -0.10066694021224976, 0.9949201941490173], "translation": [-5.960464477539063e-08, 0.11271257698535919, 2.384185791015625e-07]}, {"children": [35], "name": "bullet.005_13", "rotation": [-5.116429461297901e-16, 1.3675673041105372e-15, 0.06540749222040176, 0.9978586435317993], "translation": [2.9802322387695312e-08, 0.12422072887420654, 2.384185791015625e-07]}, {"children": [36], "name": "bullet.006_12", "rotation": [-3.0235696555518977e-15, 3.9465636704830165e-15, 0.22825466096401215, 0.9736014604568481], "scale": [1.0000001192092896, 1.0, 1.0], "translation": [2.9802322387695312e-08, 0.11306476593017578, 7.105427357601002e-15]}, {"children": [37], "name": "bullet.007_11", "rotation": [-2.7765079325297107e-15, 1.6642106300958468e-15, 0.1462678462266922, 0.9892450571060181], "translation": [0.0, 0.11217880249023438, 1.1546319456101628e-14]}, {"children": [38], "name": "bullet.008_10", "rotation": [-1.0098945131217264e-15, 3.6307601415934594e-16, 0.048025842756032944, 0.9988461136817932], "translation": [0.0, 0.11861618608236313, 1.1546319456101628e-14]}, {"children": [39], "name": "bullet.009_9", "rotation": [6.957572568580962e-16, -2.3837264729101564e-16, -0.03289142623543739, 0.9994589686393738], "scale": [1.0000001192092896, 1.0000001192092896, 1.0], "translation": [-7.450580596923828e-09, 0.10411334037780762, 1.1102230246251565e-14]}, {"name": "bullet.010_8", "rotation": [-4.320195991566197e-16, 1.5405375993985125e-16, 0.02050524204969406, 0.9997897744178772], "scale": [0.9999999403953552, 0.9999999403953552, 1.0], "translation": [-3.943589632626754e-08, 0.12366728484630585, 1.1102230246251565e-14]}, {"name": "safety_20", "rotation": [-0.7071068286895752, 8.429370268459024e-08, -8.429370268459024e-08, 0.7071068286895752], "translation": [0.31396883726119995, -4.357688903808594, 0.22667187452316284]}, {"name": "bolt_21", "rotation": [5.099145283793405e-08, 0.7071065902709961, -5.0991495470498194e-08, 0.7071069478988647], "translation": [-0.3877040147781372, -3.4375619888305664, -0.0010278522968292236]}, {"name": "dustcover_22", "rotation": [-0.676144540309906, 0.206950381398201, 0.20694969594478607, 0.6761449575424194], "scale": [1.0, 1.0000001192092896, 1.0], "translation": [0.1877128779888153, -2.0222156047821045, -0.17164108157157898]}, {"children": [44, 45, 46, 47, 48], "matrix": [1.663570014230585e-08, 0.09867700934409954, 0.0, 0.0, -0.09867700934409954, 1.663570014230585e-08, 0.0, 0.0, 0.0, 0.0, 0.09867700934410095, 0.0, -0.9489206671714783, 0.4463956952095032, 0.0, 1.0], "name": "Cylinder.001_26"}, {"mesh": 15, "name": "Object_44"}, {"mesh": 16, "name": "Object_45"}, {"mesh": 17, "name": "Object_46"}, {"mesh": 18, "name": "Object_47"}, {"mesh": 19, "name": "Object_48"}], "scene": 0, "scenes": [{"name": "Sketchfab_Scene", "nodes": [0]}], "skins": [{"inverseBindMatrices": 75, "joints": [5, 22, 23, 24, 25, 26, 27, 28, 29, 30, 31, 32, 33, 34, 35, 36, 37, 38, 39, 40, 41, 42], "skeleton": 5}]}