{"accessors": [{"bufferView": 2, "componentType": 5126, "count": 246, "max": [0.06391529738903046, 0.11287999898195267, -0.6801379919052124], "min": [0.04912320151925087, 0.07122880220413208, -0.6949300169944763], "type": "VEC3"}, {"bufferView": 2, "byteOffset": 2952, "componentType": 5126, "count": 246, "max": [1.0, 1.0, 1.0], "min": [-1.0, -1.0, -1.0], "type": "VEC3"}, {"bufferView": 3, "componentType": 5126, "count": 246, "max": [1.0, 1.0, 1.0, 1.0], "min": [-1.0, -0.9989585280418396, -1.0, 1.0], "type": "VEC4"}, {"bufferView": 1, "componentType": 5126, "count": 246, "max": [0.9099149703979492, 0.9952600002288818], "min": [0.0018161999760195613, 0.004076339770108461], "type": "VEC2"}, {"bufferView": 0, "componentType": 5125, "count": 1014, "type": "SCALAR"}, {"bufferView": 2, "byteOffset": 5904, "componentType": 5126, "count": 24, "max": [0.058608099818229675, 0.1698250025510788, -0.7874889969825745], "min": [-0.06794880330562592, 0.16682299971580505, -0.80376797914505], "type": "VEC3"}, {"bufferView": 2, "byteOffset": 6192, "componentType": 5126, "count": 24, "max": [1.0, 0.9991484880447388, 0.9991489052772522], "min": [-1.0, -0.9991484880447388, -0.9991489052772522], "type": "VEC3"}, {"bufferView": 3, "byteOffset": 3936, "componentType": 5126, "count": 24, "max": [1.5772380734802027e-08, 0.999148964881897, 0.9991484880447388, 1.0], "min": [0.0, -0.999148964881897, -0.9991491436958313, 1.0], "type": "VEC4"}, {"bufferView": 1, "byteOffset": 1968, "componentType": 5126, "count": 24, "max": [0.09944099932909012, 0.9546269774436951], "min": [0.07841789722442627, 0.8801929950714111], "type": "VEC2"}, {"bufferView": 0, "byteOffset": 4056, "componentType": 5125, "count": 36, "type": "SCALAR"}, {"bufferView": 2, "byteOffset": 6480, "componentType": 5126, "count": 400, "max": [0.049001000821590424, 0.1798110008239746, -0.6772670149803162], "min": [-0.05834160000085831, 0.13674600422382355, -0.9781969785690308], "type": "VEC3"}, {"bufferView": 2, "byteOffset": 11280, "componentType": 5126, "count": 400, "max": [1.0, 0.9991486668586731, 0.9999346137046814], "min": [-1.0, -0.9991487860679626, -0.9991486668586731], "type": "VEC3"}, {"bufferView": 3, "byteOffset": 4320, "componentType": 5126, "count": 400, "max": [1.0, 1.0, 0.0553525947034359, 1.0], "min": [-1.0, -0.999151349067688, -0.999156653881073, 1.0], "type": "VEC4"}, {"bufferView": 1, "byteOffset": 2160, "componentType": 5126, "count": 400, "max": [0.8580219745635986, 0.9898620247840881], "min": [0.1799599975347519, 0.0038389998953789473], "type": "VEC2"}, {"bufferView": 0, "byteOffset": 4200, "componentType": 5125, "count": 1134, "type": "SCALAR"}, {"bufferView": 2, "byteOffset": 16080, "componentType": 5126, "count": 164, "max": [0.06400830298662186, -0.027030300348997116, -0.2830359935760498], "min": [-0.07330240309238434, -0.036354999989271164, -0.29236099123954773], "type": "VEC3"}, {"bufferView": 2, "byteOffset": 18048, "componentType": 5126, "count": 164, "max": [1.0, 0.9876903295516968, 0.9876881241798401], "min": [-1.0, -0.9876963496208191, -0.987697422504425], "type": "VEC3"}, {"bufferView": 3, "byteOffset": 10720, "componentType": 5126, "count": 164, "max": [0.9996461868286133, 0.9876881837844849, 0.9998883605003357, 1.0], "min": [-0.9996587634086609, -0.9876899123191833, -0.9999874234199524, 1.0], "type": "VEC4"}, {"bufferView": 1, "byteOffset": 5360, "componentType": 5126, "count": 164, "max": [0.7774620056152344, 0.9952279925346375], "min": [0.32247400283813477, 0.815322995185852], "type": "VEC2"}, {"bufferView": 0, "byteOffset": 8736, "componentType": 5125, "count": 480, "type": "SCALAR"}, {"bufferView": 2, "byteOffset": 20016, "componentType": 5126, "count": 161, "max": [-0.048078201711177826, 0.036702901124954224, -0.8763620257377625], "min": [-0.0518978014588356, 0.027292199432849884, -0.8857730031013489], "type": "VEC3"}, {"bufferView": 2, "byteOffset": 21948, "componentType": 5126, "count": 161, "max": [2.295250169481733e-06, 1.0, 1.0], "min": [-1.0, -1.0, -1.0], "type": "VEC3"}, {"bufferView": 3, "byteOffset": 13344, "componentType": 5126, "count": 161, "max": [0.9987601041793823, 0.999998927116394, 0.6385971903800964, 1.0], "min": [-0.9993269443511963, -0.11956542730331421, -0.627546489238739, 1.0], "type": "VEC4"}, {"bufferView": 1, "byteOffset": 6672, "componentType": 5126, "count": 161, "max": [0.0376690998673439, 0.9952449798583984], "min": [0.030319200828671455, 0.9878960251808167], "type": "VEC2"}, {"bufferView": 0, "byteOffset": 10656, "componentType": 5125, "count": 900, "type": "SCALAR"}, {"bufferView": 2, "byteOffset": 23880, "componentType": 5126, "count": 192, "max": [-0.06001750007271767, 0.1710599958896637, -0.7912219762802124], "min": [-0.06657169759273529, 0.15118999779224396, -0.7984820008277893], "type": "VEC3"}, {"bufferView": 2, "byteOffset": 26184, "componentType": 5126, "count": 192, "max": [0.9949944615364075, 0.9991285800933838, 0.9941173791885376], "min": [-0.9949944615364075, -0.9991165995597839, -0.9941211342811584], "type": "VEC3"}, {"bufferView": 3, "byteOffset": 15920, "componentType": 5126, "count": 192, "max": [0.48261159658432007, 0.999640166759491, 0.9973090887069702, 1.0], "min": [-0.6731030941009521, 0.027204645797610283, -0.25682130455970764, 1.0], "type": "VEC4"}, {"bufferView": 1, "byteOffset": 7960, "componentType": 5126, "count": 192, "max": [0.5954570174217224, 0.9919360280036926], "min": [0.0018161999760195613, 0.002205460099503398], "type": "VEC2"}, {"bufferView": 0, "byteOffset": 14256, "componentType": 5125, "count": 516, "type": "SCALAR"}, {"bufferView": 2, "byteOffset": 28488, "componentType": 5126, "count": 125, "max": [-0.001172450021840632, 0.003194499993696809, 0.29615598917007446], "min": [-0.008636870421469212, -0.07305210083723068, 0.27003100514411926], "type": "VEC3"}, {"bufferView": 2, "byteOffset": 29988, "componentType": 5126, "count": 125, "max": [1.0, 0.6997196078300476, 0.9992152452468872], "min": [-1.0, -0.9616411328315735, -0.9986363649368286], "type": "VEC3"}, {"bufferView": 3, "byteOffset": 18992, "componentType": 5126, "count": 125, "max": [1.0, 0.9087717533111572, 0.999853253364563, 1.0], "min": [-1.0, -0.9087706804275513, -0.999853253364563, 1.0], "type": "VEC4"}, {"bufferView": 1, "byteOffset": 9496, "componentType": 5126, "count": 125, "max": [0.9036629796028137, 0.06743109971284866], "min": [0.8871930241584778, 0.017108500003814697], "type": "VEC2"}, {"bufferView": 0, "byteOffset": 16320, "componentType": 5125, "count": 342, "type": "SCALAR"}, {"bufferView": 2, "byteOffset": 31488, "componentType": 5126, "count": 397, "max": [0.017618900164961815, -0.08873269706964493, -0.868927001953125], "min": [-0.023911699652671814, -0.11249399930238724, -0.892687976360321], "type": "VEC3"}, {"bufferView": 2, "byteOffset": 36252, "componentType": 5126, "count": 397, "max": [1.0, 0.9980908632278442, 0.9980894923210144], "min": [-1.0, -0.9980897903442383, -0.9980924725532532], "type": "VEC3"}, {"bufferView": 3, "byteOffset": 20992, "componentType": 5126, "count": 397, "max": [1.0, 1.0, 0.9999983310699463, 1.0], "min": [-0.9997457265853882, -0.3304366171360016, -0.5598480105400085, -1.0], "type": "VEC4"}, {"bufferView": 1, "byteOffset": 10496, "componentType": 5126, "count": 397, "max": [0.8394849896430969, 0.993552029132843], "min": [0.053477801382541656, 0.0024575600400567055], "type": "VEC2"}, {"bufferView": 0, "byteOffset": 17688, "componentType": 5125, "count": 1200, "type": "SCALAR"}, {"bufferView": 2, "byteOffset": 41016, "componentType": 5126, "count": 454, "max": [0.06447339802980423, 0.15949800610542297, -0.6728379726409912], "min": [-0.07381410151720047, 0.036512598395347595, -0.7025060057640076], "type": "VEC3"}, {"bufferView": 2, "byteOffset": 46464, "componentType": 5126, "count": 454, "max": [1.0, 1.0, 1.0], "min": [-1.0, -1.0, -1.0], "type": "VEC3"}, {"bufferView": 3, "byteOffset": 27344, "componentType": 5126, "count": 454, "max": [1.0, 0.9999989867210388, 1.0, 1.0], "min": [-1.0, -0.9999986886978149, -1.0, 1.0], "type": "VEC4"}, {"bufferView": 1, "byteOffset": 13672, "componentType": 5126, "count": 454, "max": [0.9094269871711731, 0.9892339706420898], "min": [0.08554369956254959, 0.07308240234851837], "type": "VEC2"}, {"bufferView": 0, "byteOffset": 22488, "componentType": 5125, "count": 1146, "type": "SCALAR"}, {"bufferView": 2, "byteOffset": 51912, "componentType": 5126, "count": 229, "max": [-0.05557850003242493, 0.14038699865341187, -0.6779580116271973], "min": [-0.07634609937667847, 0.10538899898529053, -0.6985329985618591], "type": "VEC3"}, {"bufferView": 2, "byteOffset": 54660, "componentType": 5126, "count": 229, "max": [1.0, 1.0, 1.0], "min": [-1.0, -1.0, -1.0], "type": "VEC3"}, {"bufferView": 3, "byteOffset": 34608, "componentType": 5126, "count": 229, "max": [1.0, 1.0, 1.0, 1.0], "min": [-1.0, -2.6036597773781978e-05, -1.0, 1.0], "type": "VEC4"}, {"bufferView": 1, "byteOffset": 17304, "componentType": 5126, "count": 229, "max": [0.9099159836769104, 0.9949809908866882], "min": [0.06594789773225784, 0.03706410154700279], "type": "VEC2"}, {"bufferView": 0, "byteOffset": 27072, "componentType": 5125, "count": 666, "type": "SCALAR"}, {"bufferView": 2, "byteOffset": 57408, "componentType": 5126, "count": 20, "max": [0.004735460039228201, 0.0027573800180107355, 0.33479300141334534], "min": [-0.01407609973102808, -0.05406549945473671, 0.32663699984550476], "type": "VEC3"}, {"bufferView": 2, "byteOffset": 57648, "componentType": 5126, "count": 20, "max": [1.0, 0.0, 1.0], "min": [-1.0, -1.0, -1.0], "type": "VEC3"}, {"bufferView": 3, "byteOffset": 38272, "componentType": 5126, "count": 20, "max": [1.0, 0.0, 1.0, 1.0], "min": [-1.0, 0.0, -1.0, 1.0], "type": "VEC4"}, {"bufferView": 1, "byteOffset": 19136, "componentType": 5126, "count": 20, "max": [0.3014020025730133, 0.9920439720153809], "min": [0.27081298828125, 0.9551820158958435], "type": "VEC2"}, {"bufferView": 0, "byteOffset": 29736, "componentType": 5125, "count": 30, "type": "SCALAR"}, {"bufferView": 2, "byteOffset": 57888, "componentType": 5126, "count": 161, "max": [0.04234899953007698, 0.036702901124954224, -0.8763620257377625], "min": [0.038529399782419205, 0.027292199432849884, -0.8857730031013489], "type": "VEC3"}, {"bufferView": 2, "byteOffset": 59820, "componentType": 5126, "count": 161, "max": [1.0, 1.0, 1.0], "min": [-0.0003259149088989943, -1.0, -1.0], "type": "VEC3"}, {"bufferView": 3, "byteOffset": 38592, "componentType": 5126, "count": 161, "max": [0.999161958694458, 0.5270967483520508, 1.7224003334703752e-09, 1.0], "min": [-0.9988111853599548, -0.5266563296318054, -0.9999950528144836, 1.0], "type": "VEC4"}, {"bufferView": 1, "byteOffset": 19296, "componentType": 5126, "count": 161, "max": [0.8820819854736328, 0.9952430129051208], "min": [0.8747230172157288, 0.987883985042572], "type": "VEC2"}, {"bufferView": 0, "byteOffset": 29856, "componentType": 5125, "count": 900, "type": "SCALAR"}, {"bufferView": 2, "byteOffset": 61752, "componentType": 5126, "count": 1369, "max": [0.07652880251407623, 0.1559540033340454, 0.19646500051021576], "min": [-0.06667789816856384, -0.11932499706745148, -0.24263399839401245], "type": "VEC3"}, {"bufferView": 2, "byteOffset": 78180, "componentType": 5126, "count": 1369, "max": [1.0, 0.9999920129776001, 1.0], "min": [-1.0, -1.0, -1.0], "type": "VEC3"}, {"bufferView": 3, "byteOffset": 41168, "componentType": 5126, "count": 1369, "max": [0.9999509453773499, 0.9999998211860657, 0.9972872138023376, 1.0], "min": [-0.9999951720237732, -0.9999999403953552, -0.9999990463256836, -1.0], "type": "VEC4"}, {"bufferView": 1, "byteOffset": 20584, "componentType": 5126, "count": 1369, "max": [0.9049800038337708, 0.9878090023994446], "min": [0.0018161999760195613, 0.4445509910583496], "type": "VEC2"}, {"bufferView": 0, "byteOffset": 33456, "componentType": 5125, "count": 6825, "type": "SCALAR"}, {"bufferView": 2, "byteOffset": 94608, "componentType": 5126, "count": 65, "max": [0.056328799575567245, 0.04420819878578186, -0.06458380073308945], "min": [0.05291350185871124, 0.028247199952602386, -0.08054479956626892], "type": "VEC3"}, {"bufferView": 2, "byteOffset": 95388, "componentType": 5126, "count": 65, "max": [1.0, 0.9995938539505005, 0.9995936155319214], "min": [0.0, -0.9995943307876587, -0.9995936155319214], "type": "VEC3"}, {"bufferView": 3, "byteOffset": 63072, "componentType": 5126, "count": 65, "max": [1.9195222193957306e-06, 1.0, 0.17414893209934235, 1.0], "min": [-1.0, 0.0, -0.11274925619363785, 1.0], "type": "VEC4"}, {"bufferView": 1, "byteOffset": 31536, "componentType": 5126, "count": 65, "max": [0.9087120294570923, 0.9926469922065735], "min": [0.008941940031945705, 0.9541509747505188], "type": "VEC2"}, {"bufferView": 0, "byteOffset": 60756, "componentType": 5125, "count": 192, "type": "SCALAR"}, {"bufferView": 2, "byteOffset": 96168, "componentType": 5126, "count": 230, "max": [0.017783500254154205, -0.016981400549411774, 0.34291699528694153], "min": [-0.027124200016260147, -0.08936639875173569, 0.1945910006761551], "type": "VEC3"}, {"bufferView": 2, "byteOffset": 98928, "componentType": 5126, "count": 230, "max": [1.0, 1.0, 1.0], "min": [-1.0, -1.0, -1.0], "type": "VEC3"}, {"bufferView": 3, "byteOffset": 64112, "componentType": 5126, "count": 230, "max": [1.0, 0.0009763202979229391, 4.586177601595409e-05, 1.0], "min": [-0.0002752120199147612, -0.0002996737021021545, -1.0, 1.0], "type": "VEC4"}, {"bufferView": 1, "byteOffset": 32056, "componentType": 5126, "count": 230, "max": [0.8451099991798401, 0.969756007194519], "min": [0.06951069831848145, 0.09469339996576309], "type": "VEC2"}, {"bufferView": 0, "byteOffset": 61524, "componentType": 5125, "count": 591, "type": "SCALAR"}, {"bufferView": 2, "byteOffset": 101688, "componentType": 5126, "count": 64, "max": [0.05620810016989708, 0.043568700551986694, -0.2004680037498474], "min": [0.05303430184721947, 0.028811700642108917, -0.2152249962091446], "type": "VEC3"}, {"bufferView": 2, "byteOffset": 102456, "componentType": 5126, "count": 64, "max": [1.0, 0.994499146938324, 0.9944977760314941], "min": [0.0, -0.994499146938324, -0.9944980144500732], "type": "VEC3"}, {"bufferView": 3, "byteOffset": 67792, "componentType": 5126, "count": 64, "max": [2.3271866211871384e-06, 0.9999998211860657, 0.03690674901008606, 1.0], "min": [-1.0, 0.0, -0.03317726403474808, 1.0], "type": "VEC4"}, {"bufferView": 1, "byteOffset": 33896, "componentType": 5126, "count": 64, "max": [0.683568000793457, 0.9958800077438354], "min": [0.026756299659609795, 0.9545519948005676], "type": "VEC2"}, {"bufferView": 0, "byteOffset": 63888, "componentType": 5125, "count": 186, "type": "SCALAR"}, {"bufferView": 2, "byteOffset": 103224, "componentType": 5126, "count": 84, "max": [0.053088098764419556, 0.03254510089755058, -0.2403009980916977], "min": [-0.06242850050330162, -0.0829714983701706, -1.0], "type": "VEC3"}, {"bufferView": 2, "byteOffset": 104232, "componentType": 5126, "count": 84, "max": [0.9998999834060669, 0.9999018907546997, 1.0], "min": [-0.9999037384986877, -0.9999018907546997, -0.9999992251396179], "type": "VEC3"}, {"bufferView": 3, "byteOffset": 68816, "componentType": 5126, "count": 84, "max": [1.0, 0.9998914003372192, 0.009432823397219181, 1.0], "min": [-1.0, -0.9999005794525146, -0.006083485204726458, 1.0], "type": "VEC4"}, {"bufferView": 1, "byteOffset": 34408, "componentType": 5126, "count": 84, "max": [0.8098829984664917, 0.9666640162467957], "min": [0.21915100514888763, 0.0037919499445706606], "type": "VEC2"}, {"bufferView": 0, "byteOffset": 64632, "componentType": 5125, "count": 240, "type": "SCALAR"}, {"bufferView": 2, "byteOffset": 105240, "componentType": 5126, "count": 63, "max": [0.056219201534986496, 0.0443807989358902, 0.14599500596523285], "min": [0.05302320048213005, 0.029446400701999664, 0.13106100261211395], "type": "VEC3"}, {"bufferView": 2, "byteOffset": 105996, "componentType": 5126, "count": 63, "max": [1.0, 0.9994973540306091, 0.9994974732398987], "min": [0.0, -0.9994973540306091, -0.9994973540306091], "type": "VEC3"}, {"bufferView": 3, "byteOffset": 70160, "componentType": 5126, "count": 63, "max": [1.0, 3.630384526331909e-05, 0.0, 1.0], "min": [-2.163607903948872e-10, -0.00023918818624224514, -1.0, 1.0], "type": "VEC4"}, {"bufferView": 1, "byteOffset": 35080, "componentType": 5126, "count": 63, "max": [0.4663270115852356, 0.9937729835510254], "min": [0.01784910075366497, 0.9538559913635254], "type": "VEC2"}, {"bufferView": 0, "byteOffset": 65592, "componentType": 5125, "count": 180, "type": "SCALAR"}, {"bufferView": 2, "byteOffset": 106752, "componentType": 5126, "count": 302, "max": [0.052852701395750046, 0.1504880040884018, -0.24225500226020813], "min": [-0.06219340115785599, 0.03544219955801964, -0.9999070167541504], "type": "VEC3"}, {"bufferView": 2, "byteOffset": 110376, "componentType": 5126, "count": 302, "max": [1.0, 1.0, 1.0], "min": [-1.0, -1.0, -1.0], "type": "VEC3"}, {"bufferView": 3, "byteOffset": 71168, "componentType": 5126, "count": 302, "max": [1.0, 1.0, 0.0032284629996865988, 1.0], "min": [-1.0, -1.0, -0.0032284532207995653, 1.0], "type": "VEC4"}, {"bufferView": 1, "byteOffset": 35584, "componentType": 5126, "count": 302, "max": [0.8666139841079712, 0.9870380163192749], "min": [0.29040899872779846, 0.003010320011526346], "type": "VEC2"}, {"bufferView": 0, "byteOffset": 66312, "componentType": 5125, "count": 720, "type": "SCALAR"}, {"bufferView": 2, "byteOffset": 114000, "componentType": 5126, "count": 958, "max": [0.05697770044207573, 0.19633600115776062, -0.8648030161857605], "min": [-0.0661884993314743, -0.1150050014257431, -0.9998440146446228], "type": "VEC3"}, {"bufferView": 2, "byteOffset": 125496, "componentType": 5126, "count": 958, "max": [1.0, 1.0, 1.0], "min": [-1.0, -1.0, -1.0], "type": "VEC3"}, {"bufferView": 3, "byteOffset": 76000, "componentType": 5126, "count": 958, "max": [0.999998152256012, 1.0, 1.0, 1.0], "min": [-1.0, -1.0, -1.0, 1.0], "type": "VEC4"}, {"bufferView": 1, "byteOffset": 38000, "componentType": 5126, "count": 958, "max": [0.8832330107688904, 0.9941440224647522], "min": [0.0018161999760195613, 0.0028597500640898943], "type": "VEC2"}, {"bufferView": 0, "byteOffset": 69192, "componentType": 5125, "count": 3132, "type": "SCALAR"}, {"bufferView": 2, "byteOffset": 136992, "componentType": 5126, "count": 750, "max": [0.06448519974946976, 0.037913400679826736, -0.28090301156044006], "min": [-0.07382579892873764, -0.10046099871397018, -0.6066380143165588], "type": "VEC3"}, {"bufferView": 2, "byteOffset": 145992, "componentType": 5126, "count": 750, "max": [1.0, 1.0, 1.0], "min": [-1.0, -1.0, -1.0], "type": "VEC3"}, {"bufferView": 3, "byteOffset": 91328, "componentType": 5126, "count": 750, "max": [1.0, 0.7623108625411987, 2.6112202249350958e-06, 1.0], "min": [-1.0, -0.7623100280761719, -1.0, 1.0], "type": "VEC4"}, {"bufferView": 1, "byteOffset": 45664, "componentType": 5126, "count": 750, "max": [0.5493379831314087, 0.9660040140151978], "min": [0.12117200344800949, 0.4752260148525238], "type": "VEC2"}, {"bufferView": 0, "byteOffset": 81720, "componentType": 5125, "count": 2772, "type": "SCALAR"}, {"bufferView": 2, "byteOffset": 154992, "componentType": 5126, "count": 40, "max": [0.004470710176974535, 0.14941200613975525, 0.3367229998111725], "min": [-0.013811400160193443, 0.12158499658107758, 0.2903900146484375], "type": "VEC3"}, {"bufferView": 2, "byteOffset": 155472, "componentType": 5126, "count": 40, "max": [1.0, 0.9920308589935303, 0.9840862154960632], "min": [-1.0, -0.22129593789577484, -0.9753177762031555], "type": "VEC3"}, {"bufferView": 3, "byteOffset": 103328, "componentType": 5126, "count": 40, "max": [8.418001584686863e-08, 0.988305389881134, 0.0978754311800003, 1.0], "min": [-0.9999864101409912, -0.9952150583267212, -0.15286125242710114, 1.0], "type": "VEC4"}, {"bufferView": 1, "byteOffset": 51664, "componentType": 5126, "count": 40, "max": [0.07789620012044907, 0.9854059815406799], "min": [0.03566350042819977, 0.9374459981918335], "type": "VEC2"}, {"bufferView": 0, "byteOffset": 92808, "componentType": 5125, "count": 78, "type": "SCALAR"}, {"bufferView": 2, "byteOffset": 155952, "componentType": 5126, "count": 112, "max": [0.055580899119377136, -0.040061600506305695, -0.2212429940700531], "min": [0.051049698144197464, -0.06112829968333244, -0.24231000244617462], "type": "VEC3"}, {"bufferView": 2, "byteOffset": 157296, "componentType": 5126, "count": 112, "max": [1.0, 0.9944342374801636, 0.994434118270874], "min": [-1.0, -0.9944342374801636, -0.9944331049919128], "type": "VEC3"}, {"bufferView": 3, "byteOffset": 103968, "componentType": 5126, "count": 112, "max": [2.3985301595530473e-05, 0.9999639391899109, 0.10866507142782211, 1.0], "min": [-1.0, -1.0, -0.11202181875705719, 1.0], "type": "VEC4"}, {"bufferView": 1, "byteOffset": 51984, "componentType": 5126, "count": 112, "max": [0.909358024597168, 0.990854024887085], "min": [0.0, 0.0], "type": "VEC2"}, {"bufferView": 0, "byteOffset": 93120, "componentType": 5125, "count": 360, "type": "SCALAR"}, {"bufferView": 2, "byteOffset": 158640, "componentType": 5126, "count": 124, "max": [0.06029079854488373, 0.1675110012292862, -0.7868630290031433], "min": [-0.06963139772415161, 0.15133699774742126, -0.8106439709663391], "type": "VEC3"}, {"bufferView": 2, "byteOffset": 160128, "componentType": 5126, "count": 124, "max": [1.0, 0.9991487860679626, 0.9991486072540283], "min": [-1.0, -0.9991487860679626, -0.9991486072540283], "type": "VEC3"}, {"bufferView": 3, "byteOffset": 105760, "componentType": 5126, "count": 124, "max": [0.0002296265447512269, 0.9991486072540283, 0.9991492033004761, 1.0], "min": [-4.702940614720319e-08, -0.9991504549980164, -0.9991491436958313, 1.0], "type": "VEC4"}, {"bufferView": 1, "byteOffset": 52880, "componentType": 5126, "count": 124, "max": [0.85732102394104, 0.975721001625061], "min": [0.5772190093994141, 0.05360089987516403], "type": "VEC2"}, {"bufferView": 0, "byteOffset": 94560, "componentType": 5125, "count": 261, "type": "SCALAR"}, {"bufferView": 2, "byteOffset": 161616, "componentType": 5126, "count": 63, "max": [-0.06703349947929382, 0.16676999628543854, -0.7894449830055237], "min": [-0.07652880251407623, 0.1553030014038086, -0.8009120225906372], "type": "VEC3"}, {"bufferView": 2, "byteOffset": 162372, "componentType": 5126, "count": 63, "max": [0.0, 0.9991475343704224, 0.9991486668586731], "min": [-1.0, -0.9991475343704224, -0.9991486668586731], "type": "VEC3"}, {"bufferView": 3, "byteOffset": 107744, "componentType": 5126, "count": 63, "max": [1.0, 2.092957220156677e-05, 1.3923745427746326e-05, 1.0], "min": [-2.957795857128076e-07, -0.08126526325941086, -0.9999992847442627, 1.0], "type": "VEC4"}, {"bufferView": 1, "byteOffset": 53872, "componentType": 5126, "count": 63, "max": [0.34144800901412964, 0.025856899097561836], "min": [0.06060359999537468, 0.0025037399027496576], "type": "VEC2"}, {"bufferView": 0, "byteOffset": 95604, "componentType": 5125, "count": 180, "type": "SCALAR"}, {"bufferView": 2, "byteOffset": 163128, "componentType": 5126, "count": 63, "max": [0.05617490038275719, 0.04513600096106529, 0.0397161990404129], "min": [0.05306750163435936, 0.03064659982919693, 0.02522679977118969], "type": "VEC3"}, {"bufferView": 2, "byteOffset": 163884, "componentType": 5126, "count": 63, "max": [1.0, 0.9973492622375488, 0.9973507523536682], "min": [0.0, -0.9973507523536682, -0.9973506331443787], "type": "VEC3"}, {"bufferView": 3, "byteOffset": 108752, "componentType": 5126, "count": 63, "max": [2.3536692879133625e-06, 1.0, 0.00022652740881312639, 1.0], "min": [-1.0, 0.0, -0.0002426303835818544, 1.0], "type": "VEC4"}, {"bufferView": 1, "byteOffset": 54376, "componentType": 5126, "count": 63, "max": [0.6976659893989563, 0.9957240223884583], "min": [0.1888670027256012, 0.9559410214424133], "type": "VEC2"}, {"bufferView": 0, "byteOffset": 96324, "componentType": 5125, "count": 180, "type": "SCALAR"}, {"bufferView": 2, "byteOffset": 164640, "componentType": 5126, "count": 192, "max": [0.057283900678157806, 0.17105700075626373, -0.7912110090255737], "min": [0.05080509930849075, 0.15119199454784393, -0.7984930276870728], "type": "VEC3"}, {"bufferView": 2, "byteOffset": 166944, "componentType": 5126, "count": 192, "max": [1.0, 0.9991575479507446, 0.9991491436958313], "min": [-1.0, -0.9991515278816223, -0.9991490244865417], "type": "VEC3"}, {"bufferView": 3, "byteOffset": 109760, "componentType": 5126, "count": 192, "max": [0.48985499143600464, 0.9996540546417236, 0.9991515874862671, 1.0], "min": [-0.9755610823631287, -0.033152151852846146, -0.8019665479660034, 1.0], "type": "VEC4"}, {"bufferView": 1, "byteOffset": 54880, "componentType": 5126, "count": 192, "max": [0.901868999004364, 0.9915770292282104], "min": [0.024974899366497993, 0.0020688900258392096], "type": "VEC2"}, {"bufferView": 0, "byteOffset": 97044, "componentType": 5125, "count": 516, "type": "SCALAR"}, {"bufferView": 2, "byteOffset": 169248, "componentType": 5126, "count": 65, "max": [-0.06141680106520653, 0.10390999913215637, -0.2199299931526184], "min": [-0.06615839898586273, 0.08181609958410263, -0.2420240044593811], "type": "VEC3"}, {"bufferView": 2, "byteOffset": 170028, "componentType": 5126, "count": 65, "max": [0.0, 0.9966405034065247, 0.9966391324996948], "min": [-1.0, -0.9966403841972351, -0.9966407418251038], "type": "VEC3"}, {"bufferView": 3, "byteOffset": 112832, "componentType": 5126, "count": 65, "max": [1.0, 0.43252426385879517, 0.9999501705169678, 1.0], "min": [-9.779500942386221e-07, -0.49202945828437805, 0.0, 1.0], "type": "VEC4"}, {"bufferView": 1, "byteOffset": 56416, "componentType": 5126, "count": 65, "max": [0.4543519914150238, 0.9891070127487183], "min": [0.0018161999760195613, 0.8868640065193176], "type": "VEC2"}, {"bufferView": 0, "byteOffset": 99108, "componentType": 5125, "count": 192, "type": "SCALAR"}, {"bufferView": 2, "byteOffset": 170808, "componentType": 5126, "count": 63, "max": [-0.06188419833779335, 0.0665023997426033, 0.15300199389457703], "min": [-0.06569100171327591, 0.04873200133442879, 0.13523200154304504], "type": "VEC3"}, {"bufferView": 2, "byteOffset": 171564, "componentType": 5126, "count": 63, "max": [0.0, 0.9984726309776306, 0.9984733462333679], "min": [-1.0, -0.9984742403030396, -0.99847412109375], "type": "VEC3"}, {"bufferView": 3, "byteOffset": 113872, "componentType": 5126, "count": 63, "max": [1.0, 0.9999762177467346, 0.13421431183815002, 1.0], "min": [-2.098305685649393e-06, 0.0, -0.13089093565940857, 1.0], "type": "VEC4"}, {"bufferView": 1, "byteOffset": 56936, "componentType": 5126, "count": 63, "max": [0.5872849822044373, 0.9945030212402344], "min": [0.0018161999760195613, 0.9313269853591919], "type": "VEC2"}, {"bufferView": 0, "byteOffset": 99876, "componentType": 5125, "count": 180, "type": "SCALAR"}, {"bufferView": 2, "byteOffset": 172320, "componentType": 5126, "count": 185, "max": [0.06544510275125504, 0.16801999509334564, -0.6725919842720032], "min": [-0.05873379856348038, 0.13553400337696075, -0.7050780057907104], "type": "VEC3"}, {"bufferView": 2, "byteOffset": 174540, "componentType": 5126, "count": 185, "max": [1.0, 0.9995185136795044, 0.9998958706855774], "min": [-1.0, -0.9999045133590698, -0.9999431371688843], "type": "VEC3"}, {"bufferView": 3, "byteOffset": 114880, "componentType": 5126, "count": 185, "max": [1.0, 1.0, 0.9990332126617432, 1.0], "min": [-6.092720923334127e-06, -0.9990376234054565, -0.999038577079773, 1.0], "type": "VEC4"}, {"bufferView": 1, "byteOffset": 57440, "componentType": 5126, "count": 185, "max": [0.7684360146522522, 0.9886659979820251], "min": [0.06951069831848145, 0.001992030069231987], "type": "VEC2"}, {"bufferView": 0, "byteOffset": 100596, "componentType": 5125, "count": 492, "type": "SCALAR"}, {"bufferView": 2, "byteOffset": 176760, "componentType": 5126, "count": 183, "max": [0.03481680154800415, -0.051607999950647354, 0.105444997549057], "min": [0.02739590033888817, -0.07571259886026382, 0.08134079724550247], "type": "VEC3"}, {"bufferView": 2, "byteOffset": 178956, "componentType": 5126, "count": 183, "max": [1.0, 0.9973656535148621, 0.9973663687705994], "min": [0.0, -0.9973663687705994, -0.9973666667938232], "type": "VEC3"}, {"bufferView": 3, "byteOffset": 117840, "componentType": 5126, "count": 183, "max": [1.0, 1.0, 0.3732949495315552, 1.0], "min": [-1.0, -0.22584673762321472, -0.37352919578552246, 1.0], "type": "VEC4"}, {"bufferView": 1, "byteOffset": 58920, "componentType": 5126, "count": 183, "max": [0.8491430282592773, 0.9850900173187256], "min": [0.03566350042819977, 0.002400730038061738], "type": "VEC2"}, {"bufferView": 0, "byteOffset": 102564, "componentType": 5125, "count": 492, "type": "SCALAR"}, {"bufferView": 2, "byteOffset": 181152, "componentType": 5126, "count": 63, "max": [-0.06202609837055206, 0.06804530322551727, -0.19825200736522675], "min": [-0.0655490979552269, 0.051722701638936996, -0.21457499265670776], "type": "VEC3"}, {"bufferView": 2, "byteOffset": 181908, "componentType": 5126, "count": 63, "max": [0.0, 0.9910004734992981, 0.9909998774528503], "min": [-1.0, -0.991000235080719, -0.9909996390342712], "type": "VEC3"}, {"bufferView": 3, "byteOffset": 120768, "componentType": 5126, "count": 63, "max": [1.0, 0.0017200377769768238, 1.0, 1.0], "min": [-4.964397248841124e-07, -0.0030311676673591137, 0.0, 1.0], "type": "VEC4"}, {"bufferView": 1, "byteOffset": 60384, "componentType": 5126, "count": 63, "max": [0.5881230235099792, 0.9941660165786743], "min": [0.2244960069656372, 0.9505239725112915], "type": "VEC2"}, {"bufferView": 0, "byteOffset": 104532, "componentType": 5125, "count": 180, "type": "SCALAR"}, {"bufferView": 2, "byteOffset": 182664, "componentType": 5126, "count": 63, "max": [-0.06191359832882881, 0.06735450029373169, -0.06110829859972], "min": [-0.06566169857978821, 0.049900300800800323, -0.07856249809265137], "type": "VEC3"}, {"bufferView": 2, "byteOffset": 183420, "componentType": 5126, "count": 63, "max": [0.0, 0.9960469007492065, 0.9960456490516663], "min": [-1.0, -0.9960442185401917, -0.9960466623306274], "type": "VEC3"}, {"bufferView": 3, "byteOffset": 121776, "componentType": 5126, "count": 63, "max": [1.0, 0.9999964833259583, 0.03454631194472313, 1.0], "min": [-1.8949084505948122e-06, 0.0, -0.03170541673898697, 1.0], "type": "VEC4"}, {"bufferView": 1, "byteOffset": 60888, "componentType": 5126, "count": 63, "max": [0.8187000155448914, 0.9941139817237854], "min": [0.37769898772239685, 0.002655110089108348], "type": "VEC2"}, {"bufferView": 0, "byteOffset": 105252, "componentType": 5125, "count": 180, "type": "SCALAR"}, {"bufferView": 2, "byteOffset": 184176, "componentType": 5126, "count": 146, "max": [0.002927140099927783, -0.029987800866365433, 0.34393298625946045], "min": [-0.01226780004799366, -0.04518270120024681, 0.32398900389671326], "type": "VEC3"}, {"bufferView": 2, "byteOffset": 185928, "componentType": 5126, "count": 146, "max": [1.0, 1.0, 1.0], "min": [-1.0, -1.0, -0.9999998807907104], "type": "VEC3"}, {"bufferView": 3, "byteOffset": 122784, "componentType": 5126, "count": 146, "max": [0.49271947145462036, 1.0, 1.0, 1.0], "min": [-0.0007519237697124481, 0.0, -0.1488279104232788, 1.0], "type": "VEC4"}, {"bufferView": 1, "byteOffset": 61392, "componentType": 5126, "count": 146, "max": [0.8943780064582825, 0.9948670268058777], "min": [0.16749000549316406, 0.002451679902151227], "type": "VEC2"}, {"bufferView": 0, "byteOffset": 105972, "componentType": 5125, "count": 360, "type": "SCALAR"}, {"bufferView": 2, "byteOffset": 187680, "componentType": 5126, "count": 83, "max": [0.05051640048623085, 0.04992879927158356, -0.2362769991159439], "min": [0.03622850030660629, 0.01352549996227026, -0.30007800459861755], "type": "VEC3"}, {"bufferView": 2, "byteOffset": 188676, "componentType": 5126, "count": 83, "max": [1.0, 1.0, 1.0], "min": [-1.0, -1.0, -1.0], "type": "VEC3"}, {"bufferView": 3, "byteOffset": 125120, "componentType": 5126, "count": 83, "max": [1.0, 1.0, 0.2777820825576782, 1.0], "min": [-1.0, -1.0, 0.0, 1.0], "type": "VEC4"}, {"bufferView": 1, "byteOffset": 62560, "componentType": 5126, "count": 83, "max": [0.6458629965782166, 0.9937199950218201], "min": [0.3616659939289093, 0.005886170081794262], "type": "VEC2"}, {"bufferView": 0, "byteOffset": 107412, "componentType": 5125, "count": 171, "type": "SCALAR"}, {"bufferView": 2, "byteOffset": 189672, "componentType": 5126, "count": 587, "max": [0.030897600576281548, 0.15473900735378265, 1.0], "min": [-0.04023829847574234, -0.19633600115776062, 0.19538499414920807], "type": "VEC3"}, {"bufferView": 2, "byteOffset": 196716, "componentType": 5126, "count": 587, "max": [1.0, 0.9952407479286194, 0.9999741315841675], "min": [-1.0, -0.9999282360076904, -0.999974250793457], "type": "VEC3"}, {"bufferView": 3, "byteOffset": 126448, "componentType": 5126, "count": 587, "max": [1.0, 0.9999760985374451, 0.7027570605278015, 1.0], "min": [-0.999995231628418, -0.9999356269836426, -0.5617810487747192, -1.0], "type": "VEC4"}, {"bufferView": 1, "byteOffset": 63224, "componentType": 5126, "count": 587, "max": [0.38100001215934753, 0.4720419943332672], "min": [0.0018161999760195613, 0.00404947018250823], "type": "VEC2"}, {"bufferView": 0, "byteOffset": 108096, "componentType": 5125, "count": 2424, "type": "SCALAR"}, {"bufferView": 2, "byteOffset": 203760, "componentType": 5126, "count": 166, "max": [0.05243920162320137, -0.016909899190068245, -0.9823259711265564], "min": [-0.06173330172896385, -0.03135399892926216, -0.9967700242996216], "type": "VEC3"}, {"bufferView": 2, "byteOffset": 205752, "componentType": 5126, "count": 166, "max": [1.0, 0.9876892566680908, 0.9877016544342041], "min": [-1.0, -0.9876892566680908, -0.9876884818077087], "type": "VEC3"}, {"bufferView": 3, "byteOffset": 135840, "componentType": 5126, "count": 166, "max": [0.9997405409812927, 0.9999879002571106, 0.987688422203064, 1.0], "min": [-0.9997045397758484, -0.9876884818077087, -0.9999961853027344, 1.0], "type": "VEC4"}, {"bufferView": 1, "byteOffset": 67920, "componentType": 5126, "count": 166, "max": [0.8013690114021301, 0.9951639771461487], "min": [0.008941940031945705, 0.8833039999008179], "type": "VEC2"}, {"bufferView": 0, "byteOffset": 117792, "componentType": 5125, "count": 492, "type": "SCALAR"}, {"bufferView": 2, "byteOffset": 207744, "componentType": 5126, "count": 63, "max": [-0.04126939922571182, -0.05977319926023483, 0.10795500129461288], "min": [-0.043490100651979446, -0.07010959833860397, 0.09761810302734375], "type": "VEC3"}, {"bufferView": 2, "byteOffset": 208500, "componentType": 5126, "count": 63, "max": [0.0, 0.9955469965934753, 0.9955443739891052], "min": [-1.0, -0.9955428838729858, -0.9955471158027649], "type": "VEC3"}, {"bufferView": 3, "byteOffset": 138496, "componentType": 5126, "count": 63, "max": [1.0, 0.9999988675117493, 0.018309317529201508, 1.0], "min": [-1.6588030575803714e-06, 0.0, -0.01835908181965351, 1.0], "type": "VEC4"}, {"bufferView": 1, "byteOffset": 69248, "componentType": 5126, "count": 63, "max": [0.3532699942588806, 0.02446739934384823], "min": [0.0730736032128334, 0.0022180399391800165], "type": "VEC2"}, {"bufferView": 0, "byteOffset": 119760, "componentType": 5125, "count": 180, "type": "SCALAR"}, {"bufferView": 2, "byteOffset": 209256, "componentType": 5126, "count": 84, "max": [-0.046431899070739746, 0.04992879927158356, -0.2362769991159439], "min": [-0.06071989983320236, 0.01352549996227026, -0.30007800459861755], "type": "VEC3"}, {"bufferView": 2, "byteOffset": 210264, "componentType": 5126, "count": 84, "max": [1.0, 1.0, 1.0], "min": [-1.0, -1.0, -1.0], "type": "VEC3"}, {"bufferView": 3, "byteOffset": 139504, "componentType": 5126, "count": 84, "max": [1.0, 1.0, 0.27256619930267334, 1.0], "min": [-1.0, -1.0, -0.2710343599319458, 1.0], "type": "VEC4"}, {"bufferView": 1, "byteOffset": 69752, "componentType": 5126, "count": 84, "max": [0.80690598487854, 0.9980080127716064], "min": [0.4721139967441559, 0.9485139846801758], "type": "VEC2"}, {"bufferView": 0, "byteOffset": 120480, "componentType": 5125, "count": 174, "type": "SCALAR"}, {"bufferView": 2, "byteOffset": 211272, "componentType": 5126, "count": 63, "max": [-0.06188419833779335, 0.06704510003328323, 0.045859500765800476], "min": [-0.06569100171327591, 0.04924770072102547, 0.02806209959089756], "type": "VEC3"}, {"bufferView": 2, "byteOffset": 212028, "componentType": 5126, "count": 63, "max": [0.0, 0.9999872446060181, 0.9999872446060181], "min": [-1.0, -0.9999873638153076, -0.9999872446060181], "type": "VEC3"}, {"bufferView": 3, "byteOffset": 140848, "componentType": 5126, "count": 63, "max": [1.0, 0.9999998211860657, 0.19434680044651031, 1.0], "min": [-1.5647982536393101e-06, 0.0, -0.1980469822883606, 1.0], "type": "VEC4"}, {"bufferView": 1, "byteOffset": 70424, "componentType": 5126, "count": 63, "max": [0.8972830176353455, 0.040457598865032196], "min": [0.30822300910949707, 0.0035339100286364555], "type": "VEC2"}, {"bufferView": 0, "byteOffset": 121176, "componentType": 5125, "count": 180, "type": "SCALAR"}], "asset": {"extras": {"author": "TatumWilbanks (https://sketchfab.com/TatumWilbanks)", "license": "CC-BY-4.0 (http://creativecommons.org/licenses/by/4.0/)", "source": "https://sketchfab.com/3d-models/china-lake-colored-8e81aded97d94eebb369eb935c62cb93", "title": "China Lake Colored"}, "generator": "Sketchfab-12.68.0", "version": "2.0"}, "bufferViews": [{"buffer": 0, "byteLength": 121896, "name": "floatBufferViews", "target": 34963}, {"buffer": 0, "byteLength": 70928, "byteOffset": 121896, "byteStride": 8, "name": "floatBufferViews", "target": 34962}, {"buffer": 0, "byteLength": 212784, "byteOffset": 192824, "byteStride": 12, "name": "floatBufferViews", "target": 34962}, {"buffer": 0, "byteLength": 141856, "byteOffset": 405608, "byteStride": 16, "name": "floatBufferViews", "target": 34962}], "buffers": [{"byteLength": 547464, "uri": "scene.bin"}], "images": [{"uri": "textures/Placeholder_baseColor.jpg", "mimeType": "image/jpeg"}, {"uri": "textures/Placeholder_metallicRoughness.jpg", "mimeType": "image/jpeg"}, {"uri": "textures/Placeholder_normal.jpg", "mimeType": "image/jpeg"}], "materials": [{"doubleSided": true, "name": "Placeholder", "normalTexture": {"index": 2}, "occlusionTexture": {"index": 1}, "pbrMetallicRoughness": {"baseColorTexture": {"index": 0}, "metallicRoughnessTexture": {"index": 1}}}], "meshes": [{"name": "defaultMaterial", "primitives": [{"attributes": {"NORMAL": 1, "POSITION": 0, "TANGENT": 2, "TEXCOORD_0": 3}, "indices": 4, "material": 0, "mode": 4}]}, {"name": "defaultMaterial", "primitives": [{"attributes": {"NORMAL": 6, "POSITION": 5, "TANGENT": 7, "TEXCOORD_0": 8}, "indices": 9, "material": 0, "mode": 4}]}, {"name": "defaultMaterial", "primitives": [{"attributes": {"NORMAL": 11, "POSITION": 10, "TANGENT": 12, "TEXCOORD_0": 13}, "indices": 14, "material": 0, "mode": 4}]}, {"name": "defaultMaterial", "primitives": [{"attributes": {"NORMAL": 16, "POSITION": 15, "TANGENT": 17, "TEXCOORD_0": 18}, "indices": 19, "material": 0, "mode": 4}]}, {"name": "defaultMaterial", "primitives": [{"attributes": {"NORMAL": 21, "POSITION": 20, "TANGENT": 22, "TEXCOORD_0": 23}, "indices": 24, "material": 0, "mode": 4}]}, {"name": "defaultMaterial", "primitives": [{"attributes": {"NORMAL": 26, "POSITION": 25, "TANGENT": 27, "TEXCOORD_0": 28}, "indices": 29, "material": 0, "mode": 4}]}, {"name": "defaultMaterial", "primitives": [{"attributes": {"NORMAL": 31, "POSITION": 30, "TANGENT": 32, "TEXCOORD_0": 33}, "indices": 34, "material": 0, "mode": 4}]}, {"name": "defaultMaterial", "primitives": [{"attributes": {"NORMAL": 36, "POSITION": 35, "TANGENT": 37, "TEXCOORD_0": 38}, "indices": 39, "material": 0, "mode": 4}]}, {"name": "defaultMaterial", "primitives": [{"attributes": {"NORMAL": 41, "POSITION": 40, "TANGENT": 42, "TEXCOORD_0": 43}, "indices": 44, "material": 0, "mode": 4}]}, {"name": "defaultMaterial", "primitives": [{"attributes": {"NORMAL": 46, "POSITION": 45, "TANGENT": 47, "TEXCOORD_0": 48}, "indices": 49, "material": 0, "mode": 4}]}, {"name": "defaultMaterial", "primitives": [{"attributes": {"NORMAL": 51, "POSITION": 50, "TANGENT": 52, "TEXCOORD_0": 53}, "indices": 54, "material": 0, "mode": 4}]}, {"name": "defaultMaterial", "primitives": [{"attributes": {"NORMAL": 56, "POSITION": 55, "TANGENT": 57, "TEXCOORD_0": 58}, "indices": 59, "material": 0, "mode": 4}]}, {"name": "defaultMaterial", "primitives": [{"attributes": {"NORMAL": 61, "POSITION": 60, "TANGENT": 62, "TEXCOORD_0": 63}, "indices": 64, "material": 0, "mode": 4}]}, {"name": "defaultMaterial", "primitives": [{"attributes": {"NORMAL": 66, "POSITION": 65, "TANGENT": 67, "TEXCOORD_0": 68}, "indices": 69, "material": 0, "mode": 4}]}, {"name": "defaultMaterial", "primitives": [{"attributes": {"NORMAL": 71, "POSITION": 70, "TANGENT": 72, "TEXCOORD_0": 73}, "indices": 74, "material": 0, "mode": 4}]}, {"name": "defaultMaterial", "primitives": [{"attributes": {"NORMAL": 76, "POSITION": 75, "TANGENT": 77, "TEXCOORD_0": 78}, "indices": 79, "material": 0, "mode": 4}]}, {"name": "defaultMaterial", "primitives": [{"attributes": {"NORMAL": 81, "POSITION": 80, "TANGENT": 82, "TEXCOORD_0": 83}, "indices": 84, "material": 0, "mode": 4}]}, {"name": "defaultMaterial", "primitives": [{"attributes": {"NORMAL": 86, "POSITION": 85, "TANGENT": 87, "TEXCOORD_0": 88}, "indices": 89, "material": 0, "mode": 4}]}, {"name": "defaultMaterial", "primitives": [{"attributes": {"NORMAL": 91, "POSITION": 90, "TANGENT": 92, "TEXCOORD_0": 93}, "indices": 94, "material": 0, "mode": 4}]}, {"name": "defaultMaterial", "primitives": [{"attributes": {"NORMAL": 96, "POSITION": 95, "TANGENT": 97, "TEXCOORD_0": 98}, "indices": 99, "material": 0, "mode": 4}]}, {"name": "defaultMaterial", "primitives": [{"attributes": {"NORMAL": 101, "POSITION": 100, "TANGENT": 102, "TEXCOORD_0": 103}, "indices": 104, "material": 0, "mode": 4}]}, {"name": "defaultMaterial", "primitives": [{"attributes": {"NORMAL": 106, "POSITION": 105, "TANGENT": 107, "TEXCOORD_0": 108}, "indices": 109, "material": 0, "mode": 4}]}, {"name": "defaultMaterial", "primitives": [{"attributes": {"NORMAL": 111, "POSITION": 110, "TANGENT": 112, "TEXCOORD_0": 113}, "indices": 114, "material": 0, "mode": 4}]}, {"name": "defaultMaterial", "primitives": [{"attributes": {"NORMAL": 116, "POSITION": 115, "TANGENT": 117, "TEXCOORD_0": 118}, "indices": 119, "material": 0, "mode": 4}]}, {"name": "defaultMaterial", "primitives": [{"attributes": {"NORMAL": 121, "POSITION": 120, "TANGENT": 122, "TEXCOORD_0": 123}, "indices": 124, "material": 0, "mode": 4}]}, {"name": "defaultMaterial", "primitives": [{"attributes": {"NORMAL": 126, "POSITION": 125, "TANGENT": 127, "TEXCOORD_0": 128}, "indices": 129, "material": 0, "mode": 4}]}, {"name": "defaultMaterial", "primitives": [{"attributes": {"NORMAL": 131, "POSITION": 130, "TANGENT": 132, "TEXCOORD_0": 133}, "indices": 134, "material": 0, "mode": 4}]}, {"name": "defaultMaterial", "primitives": [{"attributes": {"NORMAL": 136, "POSITION": 135, "TANGENT": 137, "TEXCOORD_0": 138}, "indices": 139, "material": 0, "mode": 4}]}, {"name": "defaultMaterial", "primitives": [{"attributes": {"NORMAL": 141, "POSITION": 140, "TANGENT": 142, "TEXCOORD_0": 143}, "indices": 144, "material": 0, "mode": 4}]}, {"name": "defaultMaterial", "primitives": [{"attributes": {"NORMAL": 146, "POSITION": 145, "TANGENT": 147, "TEXCOORD_0": 148}, "indices": 149, "material": 0, "mode": 4}]}, {"name": "defaultMaterial", "primitives": [{"attributes": {"NORMAL": 151, "POSITION": 150, "TANGENT": 152, "TEXCOORD_0": 153}, "indices": 154, "material": 0, "mode": 4}]}, {"name": "defaultMaterial", "primitives": [{"attributes": {"NORMAL": 156, "POSITION": 155, "TANGENT": 157, "TEXCOORD_0": 158}, "indices": 159, "material": 0, "mode": 4}]}, {"name": "defaultMaterial", "primitives": [{"attributes": {"NORMAL": 161, "POSITION": 160, "TANGENT": 162, "TEXCOORD_0": 163}, "indices": 164, "material": 0, "mode": 4}]}, {"name": "defaultMaterial", "primitives": [{"attributes": {"NORMAL": 166, "POSITION": 165, "TANGENT": 167, "TEXCOORD_0": 168}, "indices": 169, "material": 0, "mode": 4}]}, {"name": "defaultMaterial", "primitives": [{"attributes": {"NORMAL": 171, "POSITION": 170, "TANGENT": 172, "TEXCOORD_0": 173}, "indices": 174, "material": 0, "mode": 4}]}, {"name": "defaultMaterial", "primitives": [{"attributes": {"NORMAL": 176, "POSITION": 175, "TANGENT": 177, "TEXCOORD_0": 178}, "indices": 179, "material": 0, "mode": 4}]}, {"name": "defaultMaterial", "primitives": [{"attributes": {"NORMAL": 181, "POSITION": 180, "TANGENT": 182, "TEXCOORD_0": 183}, "indices": 184, "material": 0, "mode": 4}]}, {"name": "defaultMaterial", "primitives": [{"attributes": {"NORMAL": 186, "POSITION": 185, "TANGENT": 187, "TEXCOORD_0": 188}, "indices": 189, "material": 0, "mode": 4}]}, {"name": "defaultMaterial", "primitives": [{"attributes": {"NORMAL": 191, "POSITION": 190, "TANGENT": 192, "TEXCOORD_0": 193}, "indices": 194, "material": 0, "mode": 4}]}, {"name": "defaultMaterial", "primitives": [{"attributes": {"NORMAL": 196, "POSITION": 195, "TANGENT": 197, "TEXCOORD_0": 198}, "indices": 199, "material": 0, "mode": 4}]}], "nodes": [{"children": [1], "matrix": [1.0, 0.0, 0.0, 0.0, 0.0, 2.220446049250313e-16, -1.0, 0.0, 0.0, 1.0, 2.220446049250313e-16, 0.0, 0.0, 0.0, 0.0, 1.0], "name": "Sketchfab_model"}, {"children": [2, 4, 6, 8, 10, 12, 14, 16, 18, 20, 22, 24, 26, 28, 30, 32, 34, 36, 38, 40, 42, 44, 46, 48, 50, 52, 54, 56, 58, 60, 62, 64, 66, 68, 70, 72, 74, 76, 78, 80], "matrix": [1.0, 0.0, 0.0, 0.0, 0.0, -4.371139006309477e-08, 0.999999999999999, 0.0, 0.0, -0.999999999999999, -4.371139006309477e-08, 0.0, 0.0, 0.0, 0.0, 1.0], "name": "Collada visual scene group"}, {"children": [3], "name": "sightbolt_low"}, {"mesh": 0, "name": "defaultMaterial"}, {"children": [5], "name": "sightpiece2_low"}, {"mesh": 1, "name": "defaultMaterial"}, {"children": [7], "name": "sight_low"}, {"mesh": 2, "name": "defaultMaterial"}, {"children": [9], "name": "pumpbolt_low"}, {"mesh": 3, "name": "defaultMaterial"}, {"children": [11], "name": "barrelholderbolt1_low"}, {"mesh": 4, "name": "defaultMaterial"}, {"children": [13], "name": "sightbolt2_lolw"}, {"mesh": 5, "name": "defaultMaterial"}, {"children": [15], "name": "trigger_low"}, {"mesh": 6, "name": "defaultMaterial"}, {"children": [17], "name": "barrelholderbolt_low"}, {"mesh": 7, "name": "defaultMaterial"}, {"children": [19], "name": "sightholder_low"}, {"mesh": 8, "name": "defaultMaterial"}, {"children": [21], "name": "springlock_low"}, {"mesh": 9, "name": "defaultMaterial"}, {"children": [23], "name": "triggerguardpiece2_low"}, {"mesh": 10, "name": "defaultMaterial"}, {"children": [25], "name": "barrelholderbolt2_low"}, {"mesh": 11, "name": "defaultMaterial"}, {"children": [27], "name": "mainpiece_low"}, {"mesh": 12, "name": "defaultMaterial"}, {"children": [29], "name": "screw8_low"}, {"mesh": 13, "name": "defaultMaterial"}, {"children": [31], "name": "triggerguardpiece1_low"}, {"mesh": 14, "name": "defaultMaterial"}, {"children": [33], "name": "screw7_low"}, {"mesh": 15, "name": "defaultMaterial"}, {"children": [35], "name": "pumpslider_low"}, {"mesh": 16, "name": "defaultMaterial"}, {"children": [37], "name": "screw10_low"}, {"mesh": 17, "name": "defaultMaterial"}, {"children": [39], "name": "barrel_low"}, {"mesh": 18, "name": "defaultMaterial"}, {"children": [41], "name": "barrelholderandsight_low"}, {"mesh": 19, "name": "defaultMaterial"}, {"children": [43], "name": "pump_low"}, {"mesh": 20, "name": "defaultMaterial"}, {"children": [45], "name": "hammer_low"}, {"mesh": 21, "name": "defaultMaterial"}, {"children": [47], "name": "screw11_low"}, {"mesh": 22, "name": "defaultMaterial"}, {"children": [49], "name": "sightpiece1_low"}, {"mesh": 23, "name": "defaultMaterial"}, {"children": [51], "name": "sightadjuster2_low"}, {"mesh": 24, "name": "defaultMaterial"}, {"children": [53], "name": "screw9_low"}, {"mesh": 25, "name": "defaultMaterial"}, {"children": [55], "name": "sightbolt1_low"}, {"mesh": 26, "name": "defaultMaterial"}, {"children": [57], "name": "screw6_low"}, {"mesh": 27, "name": "defaultMaterial"}, {"children": [59], "name": "screw4_low"}, {"mesh": 28, "name": "defaultMaterial"}, {"children": [61], "name": "sightadjuster1_low"}, {"mesh": 29, "name": "defaultMaterial"}, {"children": [63], "name": "bigscrew1_low"}, {"mesh": 30, "name": "defaultMaterial"}, {"children": [65], "name": "screw5_low"}, {"mesh": 31, "name": "defaultMaterial"}, {"children": [67], "name": "screw3_low"}, {"mesh": 32, "name": "defaultMaterial"}, {"children": [69], "name": "triggerguardbolt_low"}, {"mesh": 33, "name": "defaultMaterial"}, {"children": [71], "name": "pumppiece2_low"}, {"mesh": 34, "name": "defaultMaterial"}, {"children": [73], "name": "stock_low"}, {"mesh": 35, "name": "defaultMaterial"}, {"children": [75], "name": "frontbolt1_low"}, {"mesh": 36, "name": "defaultMaterial"}, {"children": [77], "name": "screw2_low"}, {"mesh": 37, "name": "defaultMaterial"}, {"children": [79], "name": "pumppiece1_low"}, {"mesh": 38, "name": "defaultMaterial"}, {"children": [81], "name": "screw1_low"}, {"mesh": 39, "name": "defaultMaterial"}], "samplers": [{"magFilter": 9729, "minFilter": 9987, "wrapS": 10497, "wrapT": 10497}], "scene": 0, "scenes": [{"name": "Sketchfab_Scene", "nodes": [0]}], "textures": [{"sampler": 0, "source": 0}, {"sampler": 0, "source": 1}, {"sampler": 0, "source": 2}]}