{"accessors": [{"bufferView": 3, "componentType": 5126, "count": 3896, "max": [0.7439979314804077, 0.3957063555717468, 0.06656432151794434], "min": [-2.167907476425171, -0.209034264087677, -0.06656422466039658], "type": "VEC3"}, {"bufferView": 3, "byteOffset": 46752, "componentType": 5126, "count": 3896, "max": [1.0, 1.0, 1.0], "min": [-1.0, -1.0, -1.0], "type": "VEC3"}, {"bufferView": 2, "componentType": 5126, "count": 3896, "max": [1.0, 1.000000238418579], "min": [-8.940696716308594e-08, 0.0], "type": "VEC2"}, {"bufferView": 1, "componentType": 5125, "count": 4497, "type": "SCALAR"}, {"bufferView": 3, "byteOffset": 93504, "componentType": 5126, "count": 956, "max": [-0.8030675053596497, 0.37256038188934326, 0.08254299312829971], "min": [-2.375730037689209, -0.19256260991096497, -0.08254306018352509], "type": "VEC3"}, {"bufferView": 3, "byteOffset": 104976, "componentType": 5126, "count": 956, "max": [1.0, 1.0, 1.0], "min": [-1.0, -1.0, -1.0], "type": "VEC3"}, {"bufferView": 2, "byteOffset": 31168, "componentType": 5126, "count": 956, "max": [1.0, 1.0], "min": [0.0, 0.0], "type": "VEC2"}, {"bufferView": 1, "byteOffset": 17988, "componentType": 5125, "count": 1128, "type": "SCALAR"}, {"bufferView": 3, "byteOffset": 116448, "componentType": 5126, "count": 4064, "max": [2.2116427421569824, 0.44580233097076416, 0.09184608608484268], "min": [-2.2785160541534424, -0.16282349824905396, -0.09184616059064865], "type": "VEC3"}, {"bufferView": 3, "byteOffset": 165216, "componentType": 5126, "count": 4064, "max": [1.0, 1.0, 1.0], "min": [-1.0, -1.0, -1.0], "type": "VEC3"}, {"bufferView": 2, "byteOffset": 38816, "componentType": 5126, "count": 4064, "max": [1.0, 1.0], "min": [-8.940696716308594e-08, 0.0], "type": "VEC2"}, {"bufferView": 1, "byteOffset": 22500, "componentType": 5125, "count": 5298, "type": "SCALAR"}, {"bufferView": 3, "byteOffset": 213984, "componentType": 5126, "count": 756, "max": [2.3220643997192383, 0.4095754027366638, 0.04675035551190376], "min": [2.130237579345703, 0.28155994415283203, -0.046750351786613464], "type": "VEC3"}, {"bufferView": 3, "byteOffset": 223056, "componentType": 5126, "count": 756, "max": [1.0, 1.0, 1.0], "min": [-1.0, -1.0, -1.0], "type": "VEC3"}, {"bufferView": 2, "byteOffset": 71328, "componentType": 5126, "count": 756, "max": [1.0, 1.0], "min": [-8.940696716308594e-08, 0.0], "type": "VEC2"}, {"bufferView": 1, "byteOffset": 43692, "componentType": 5125, "count": 840, "type": "SCALAR"}, {"bufferView": 3, "byteOffset": 232128, "componentType": 5126, "count": 309, "max": [-0.909233570098877, 0.4095691740512848, 0.0518115758895874], "min": [-1.0509463548660278, 0.3139927387237549, -0.051811523735523224], "type": "VEC3"}, {"bufferView": 3, "byteOffset": 235836, "componentType": 5126, "count": 309, "max": [1.0, 1.0, 1.0], "min": [-1.0, -1.0, -1.0], "type": "VEC3"}, {"bufferView": 2, "byteOffset": 77376, "componentType": 5126, "count": 309, "max": [1.0, 1.0], "min": [-8.940696716308594e-08, 0.0], "type": "VEC2"}, {"bufferView": 1, "byteOffset": 47052, "componentType": 5125, "count": 384, "type": "SCALAR"}, {"bufferView": 3, "byteOffset": 239544, "componentType": 5126, "count": 64, "max": [-0.9173793792724609, 0.4101019501686096, 0.051941271871328354], "min": [-1.0222903490066528, 0.3844211995601654, -0.04422738775610924], "type": "VEC3"}, {"bufferView": 3, "byteOffset": 240312, "componentType": 5126, "count": 64, "max": [1.0, 1.0, 0.8255642056465149], "min": [-1.0, -1.0, -0.8255640268325806], "type": "VEC3"}, {"bufferView": 2, "byteOffset": 79848, "componentType": 5126, "count": 64, "max": [0.875, 1.0], "min": [0.125, 0.0], "type": "VEC2"}, {"bufferView": 1, "byteOffset": 48588, "componentType": 5125, "count": 90, "type": "SCALAR"}, {"bufferView": 3, "byteOffset": 241080, "componentType": 5126, "count": 1087, "max": [2.180729866027832, 0.39674657583236694, 0.19798724353313446], "min": [-0.969287633895874, 0.1644538938999176, -0.038853246718645096], "type": "VEC3"}, {"bufferView": 3, "byteOffset": 254124, "componentType": 5126, "count": 1087, "max": [1.0, 0.9435234665870667, 1.0], "min": [-1.0, -0.9435245394706726, -1.0], "type": "VEC3"}, {"bufferView": 2, "byteOffset": 80360, "componentType": 5126, "count": 1087, "max": [1.0, 1.0], "min": [-8.940696716308594e-08, 0.0], "type": "VEC2"}, {"bufferView": 1, "byteOffset": 48948, "componentType": 5125, "count": 1170, "type": "SCALAR"}, {"bufferView": 3, "byteOffset": 267168, "componentType": 5126, "count": 438, "max": [-0.750164270401001, 0.4114133417606354, 0.08254673331975937], "min": [-1.0710866451263428, 0.08782954514026642, -0.054716985672712326], "type": "VEC3"}, {"bufferView": 3, "byteOffset": 272424, "componentType": 5126, "count": 438, "max": [1.0, 1.0, 1.0], "min": [-1.0, -1.0, -1.0], "type": "VEC3"}, {"bufferView": 2, "byteOffset": 89056, "componentType": 5126, "count": 438, "max": [1.0, 1.0], "min": [-8.94069742685133e-08, 0.01000000536441803], "type": "VEC2"}, {"bufferView": 1, "byteOffset": 53628, "componentType": 5125, "count": 468, "type": "SCALAR"}, {"bufferView": 3, "byteOffset": 277680, "componentType": 5126, "count": 1268, "max": [-0.5272036790847778, 0.33307117223739624, 0.03292340412735939], "min": [-0.7244517803192139, 0.22066105902194977, -0.030221957713365555], "type": "VEC3"}, {"bufferView": 3, "byteOffset": 292896, "componentType": 5126, "count": 1268, "max": [1.0, 0.8660285472869873, 1.0], "min": [-1.0, -0.8660284876823425, -1.0], "type": "VEC3"}, {"bufferView": 2, "byteOffset": 92560, "componentType": 5126, "count": 1268, "max": [1.0, 1.0], "min": [-8.940696716308594e-08, 0.5], "type": "VEC2"}, {"bufferView": 1, "byteOffset": 55500, "componentType": 5125, "count": 1296, "type": "SCALAR"}, {"bufferView": 3, "byteOffset": 308112, "componentType": 5126, "count": 136, "max": [-0.7209689617156982, 0.319682240486145, 0.02132822573184967], "min": [-0.7243051528930664, 0.23405000567436218, -0.018626781180500984], "type": "VEC3"}, {"bufferView": 3, "byteOffset": 309744, "componentType": 5126, "count": 136, "max": [1.4353251572174486e-05, 0.8660281896591187, 1.0], "min": [-1.0, -0.8660281300544739, -1.0], "type": "VEC3"}, {"bufferView": 2, "byteOffset": 102704, "componentType": 5126, "count": 136, "max": [1.0, 0.5], "min": [-8.940696716308594e-08, 0.01000000536441803], "type": "VEC2"}, {"bufferView": 1, "byteOffset": 60684, "componentType": 5125, "count": 144, "type": "SCALAR"}, {"bufferView": 3, "byteOffset": 311376, "componentType": 5126, "count": 459, "max": [-0.45171093940734863, 0.3241860270500183, 0.025228578597307205], "min": [-0.5272036790847778, 0.22954623401165009, -0.022527219727635384], "type": "VEC3"}, {"bufferView": 3, "byteOffset": 316884, "componentType": 5126, "count": 459, "max": [1.0, 0.8660260438919067, 1.0], "min": [-3.1390659387398046e-06, -0.8660258650779724, -1.0], "type": "VEC3"}, {"bufferView": 2, "byteOffset": 103792, "componentType": 5126, "count": 459, "max": [1.0, 1.0], "min": [-8.940696716308594e-08, 0.01000000536441803], "type": "VEC2"}, {"bufferView": 1, "byteOffset": 61260, "componentType": 5125, "count": 468, "type": "SCALAR"}, {"bufferView": 3, "byteOffset": 322392, "componentType": 5126, "count": 840, "max": [-0.27171555161476135, 0.08908750116825104, 0.7133907079696655], "min": [-1.2271645069122314, -0.13358962535858154, 0.4317396879196167], "type": "VEC3"}, {"bufferView": 3, "byteOffset": 332472, "componentType": 5126, "count": 840, "max": [1.0, 1.0, 1.0], "min": [-1.0, -1.0, -1.0], "type": "VEC3"}, {"bufferView": 1, "byteOffset": 63132, "componentType": 5125, "count": 1068, "type": "SCALAR"}, {"bufferView": 3, "byteOffset": 342552, "componentType": 5126, "count": 250, "max": [-0.48727279901504517, 0.058888696134090424, 0.66322261095047], "min": [-0.6098512411117554, -0.08342146873474121, 0.5068743824958801], "type": "VEC3"}, {"bufferView": 3, "byteOffset": 345552, "componentType": 5126, "count": 250, "max": [0.923880398273468, 1.0, 0.9238802790641785], "min": [-0.9238818287849426, -1.0, -1.0], "type": "VEC3"}, {"bufferView": 1, "byteOffset": 67404, "componentType": 5125, "count": 252, "type": "SCALAR"}, {"bufferView": 3, "byteOffset": 348552, "componentType": 5126, "count": 201, "max": [-0.3947603404521942, 0.09297191351652145, 0.6690889596939087], "min": [-0.937694787979126, -0.09297197312116623, 0.44251126050949097], "type": "VEC3"}, {"bufferView": 3, "byteOffset": 350964, "componentType": 5126, "count": 201, "max": [1.0, 1.0, 1.0], "min": [-1.0, -1.0, -1.0], "type": "VEC3"}, {"bufferView": 1, "byteOffset": 68412, "componentType": 5125, "count": 264, "type": "SCALAR"}, {"bufferView": 3, "byteOffset": 353376, "componentType": 5126, "count": 545, "max": [-0.3328900933265686, 0.07828467339277267, 0.6134212017059326], "min": [-0.7772478461265564, -0.078284852206707, 0.42961788177490234], "type": "VEC3"}, {"bufferView": 3, "byteOffset": 359916, "componentType": 5126, "count": 545, "max": [1.0, 1.0, 1.0], "min": [-1.0, -1.0, -1.0], "type": "VEC3"}, {"bufferView": 1, "byteOffset": 69468, "componentType": 5125, "count": 720, "type": "SCALAR"}, {"bufferView": 3, "byteOffset": 366456, "componentType": 5126, "count": 2162, "max": [-0.3235924243927002, 0.08168882131576538, 0.6847949028015137], "min": [-0.7854280471801758, -0.1049937829375267, 0.42377060651779175], "type": "VEC3"}, {"bufferView": 3, "byteOffset": 392400, "componentType": 5126, "count": 2162, "max": [1.0, 1.0, 1.0], "min": [-1.0, -1.0, -1.0], "type": "VEC3"}, {"bufferView": 1, "byteOffset": 72348, "componentType": 5125, "count": 2844, "type": "SCALAR"}, {"bufferView": 3, "byteOffset": 418344, "componentType": 5126, "count": 24, "max": [-0.3626770079135895, -0.044859834015369415, 0.4748498201370239], "min": [-0.7492510676383972, -0.05486520379781723, 0.4255582392215729], "type": "VEC3"}, {"bufferView": 3, "byteOffset": 418632, "componentType": 5126, "count": 24, "max": [1.0, 1.0, 1.0], "min": [-1.0, -1.0, -1.0], "type": "VEC3"}, {"bufferView": 1, "byteOffset": 83724, "componentType": 5125, "count": 36, "type": "SCALAR"}, {"bufferView": 3, "byteOffset": 418920, "componentType": 5126, "count": 31, "max": [0.14485496282577515, 0.07278674095869064, 0.6489037871360779], "min": [-1.1739156246185303, -0.07278706133365631, 0.503329873085022], "type": "VEC3"}, {"bufferView": 3, "byteOffset": 419292, "componentType": 5126, "count": 31, "max": [1.0, 1.9137987692374736e-06, 0.0], "min": [-1.0, -3.827597538474947e-06, 0.0], "type": "VEC3"}, {"bufferView": 1, "byteOffset": 83868, "componentType": 5125, "count": 36, "type": "SCALAR"}, {"bufferView": 3, "byteOffset": 419664, "componentType": 5126, "count": 893, "max": [0.18282657861709595, 0.09678912907838821, 0.6729061603546143], "min": [-1.2000738382339478, -0.09678944200277328, 0.479327529668808], "type": "VEC3"}, {"bufferView": 3, "byteOffset": 430380, "componentType": 5126, "count": 893, "max": [1.0, 0.9238811731338501, 0.9238802194595337], "min": [-1.0, -0.9238811731338501, -0.923879861831665], "type": "VEC3"}, {"bufferView": 1, "byteOffset": 84012, "componentType": 5125, "count": 960, "type": "SCALAR"}, {"bufferView": 5, "componentType": 5126, "count": 16, "max": [100.0, 1.000000238418579, 1.3435892753932421e-07, 0.0, 3.9730008438709774e-07, 100.00000762939453, 0.032725635915994644, 0.0, 3.5716465340840386e-09, 0.6245315670967102, 100.0, 0.0, 0.6293992400169373, 1.0696824789047241, 0.3753548264503479, 1.0], "min": [-1.0000001192092896, -0.032725632190704346, -0.9994645118713379, 0.0, -1.000000238418579, -1.000000238418579, -1.000000238418579, 0.0, -1.0000001192092896, -4.6812141363261617e-07, -2.156431492039701e-06, 0.0, -0.49315857887268066, -0.07354065775871277, -0.7645044326782227, 1.0], "type": "MAT4"}, {"bufferView": 0, "componentType": 5123, "count": 3896, "type": "VEC4"}, {"bufferView": 4, "componentType": 5126, "count": 3896, "max": [1.0, 0.0, 0.0, 0.0], "min": [1.0, 0.0, 0.0, 0.0], "type": "VEC4"}, {"bufferView": 0, "byteOffset": 31168, "componentType": 5123, "count": 956, "type": "VEC4"}, {"bufferView": 4, "byteOffset": 62336, "componentType": 5126, "count": 956, "max": [1.0, 0.0, 0.0, 0.0], "min": [1.0, 0.0, 0.0, 0.0], "type": "VEC4"}, {"bufferView": 0, "byteOffset": 38816, "componentType": 5123, "count": 4064, "type": "VEC4"}, {"bufferView": 4, "byteOffset": 77632, "componentType": 5126, "count": 4064, "max": [1.0, 0.0, 0.0, 0.0], "min": [1.0, 0.0, 0.0, 0.0], "type": "VEC4"}, {"bufferView": 0, "byteOffset": 71328, "componentType": 5123, "count": 756, "type": "VEC4"}, {"bufferView": 4, "byteOffset": 142656, "componentType": 5126, "count": 756, "max": [1.0, 0.0, 0.0, 0.0], "min": [1.0, 0.0, 0.0, 0.0], "type": "VEC4"}, {"bufferView": 0, "byteOffset": 77376, "componentType": 5123, "count": 309, "type": "VEC4"}, {"bufferView": 4, "byteOffset": 154752, "componentType": 5126, "count": 309, "max": [1.0, 0.0, 0.0, 0.0], "min": [1.0, 0.0, 0.0, 0.0], "type": "VEC4"}, {"bufferView": 0, "byteOffset": 79848, "componentType": 5123, "count": 64, "type": "VEC4"}, {"bufferView": 4, "byteOffset": 159696, "componentType": 5126, "count": 64, "max": [1.0, 0.0, 0.0, 0.0], "min": [1.0, 0.0, 0.0, 0.0], "type": "VEC4"}, {"bufferView": 0, "byteOffset": 80360, "componentType": 5123, "count": 1087, "type": "VEC4"}, {"bufferView": 4, "byteOffset": 160720, "componentType": 5126, "count": 1087, "max": [1.0, 0.0, 0.0, 0.0], "min": [1.0, 0.0, 0.0, 0.0], "type": "VEC4"}, {"bufferView": 0, "byteOffset": 89056, "componentType": 5123, "count": 438, "type": "VEC4"}, {"bufferView": 4, "byteOffset": 178112, "componentType": 5126, "count": 438, "max": [1.0, 0.0, 0.0, 0.0], "min": [1.0, 0.0, 0.0, 0.0], "type": "VEC4"}, {"bufferView": 0, "byteOffset": 92560, "componentType": 5123, "count": 1268, "type": "VEC4"}, {"bufferView": 4, "byteOffset": 185120, "componentType": 5126, "count": 1268, "max": [1.0, 0.0, 0.0, 0.0], "min": [1.0, 0.0, 0.0, 0.0], "type": "VEC4"}, {"bufferView": 0, "byteOffset": 102704, "componentType": 5123, "count": 136, "type": "VEC4"}, {"bufferView": 4, "byteOffset": 205408, "componentType": 5126, "count": 136, "max": [1.0, 0.0, 0.0, 0.0], "min": [1.0, 0.0, 0.0, 0.0], "type": "VEC4"}, {"bufferView": 0, "byteOffset": 103792, "componentType": 5123, "count": 459, "type": "VEC4"}, {"bufferView": 4, "byteOffset": 207584, "componentType": 5126, "count": 459, "max": [1.0, 0.0, 0.0, 0.0], "min": [1.0, 0.0, 0.0, 0.0], "type": "VEC4"}], "asset": {"extras": {"author": "TastyTony (https://sketchfab.com/TastyTony)", "license": "CC-BY-4.0 (http://creativecommons.org/licenses/by/4.0/)", "source": "https://sketchfab.com/3d-models/low-poly-l118a1-5e2f001d6e6245bcacf2b1e2de8892f4", "title": "Low-Poly L118A1"}, "generator": "Sketchfab-12.67.0", "version": "2.0"}, "bufferViews": [{"buffer": 0, "byteLength": 107464, "byteStride": 8, "name": "shortBufferViews", "target": 34962}, {"buffer": 0, "byteLength": 87852, "byteOffset": 107464, "name": "floatBufferViews", "target": 34963}, {"buffer": 0, "byteLength": 107464, "byteOffset": 195316, "byteStride": 8, "name": "floatBufferViews", "target": 34962}, {"buffer": 0, "byteLength": 441096, "byteOffset": 302780, "byteStride": 12, "name": "floatBufferViews", "target": 34962}, {"buffer": 0, "byteLength": 214928, "byteOffset": 743876, "byteStride": 16, "name": "floatBufferViews", "target": 34962}, {"buffer": 0, "byteLength": 1024, "byteOffset": 958804, "name": "floatBufferViews"}], "buffers": [{"byteLength": 959828, "uri": "scene.bin"}], "materials": [{"doubleSided": true, "name": "Material.003", "pbrMetallicRoughness": {"baseColorFactor": [0.032437046835542147, 0.03858753884586705, 0.026516872252799296, 1.0], "metallicFactor": 0.0, "roughnessFactor": 0.9883852808495387}}, {"doubleSided": true, "name": "Material.008", "pbrMetallicRoughness": {"baseColorFactor": [0.0110876, 0.0110876, 0.0110876, 1.0], "metallicFactor": 0.0, "roughnessFactor": 0.9975207372692674}}, {"doubleSided": true, "name": "Material.004", "pbrMetallicRoughness": {"baseColorFactor": [0.019708368943048015, 0.019708368943048015, 0.019708368943048015, 1.0], "metallicFactor": 0.0, "roughnessFactor": 0.9961120144434424}}, {"doubleSided": true, "name": "Material.010", "pbrMetallicRoughness": {"baseColorFactor": [0.0146695, 0.0146695, 0.0146695, 1.0], "metallicFactor": 0.0, "roughnessFactor": 0.9967198000804067}}, {"doubleSided": true, "name": "Material.005", "pbrMetallicRoughness": {"baseColorFactor": [0.0214896, 0.0214896, 0.0214896, 1.0], "metallicFactor": 0.0, "roughnessFactor": 0.9951947793590721}}, {"doubleSided": true, "name": "material_0", "pbrMetallicRoughness": {"baseColorFactor": [0.0253939, 0.0253939, 0.0253939, 1.0], "metallicFactor": 0.0, "roughnessFactor": 0.9943217513386168}}, {"doubleSided": true, "name": "Material.009", "pbrMetallicRoughness": {"baseColorFactor": [0.021489, 0.0198286, 0.0198286, 1.0], "metallicFactor": 0.0, "roughnessFactor": 0.995487256817978}}, {"doubleSided": true, "name": "Material.007", "pbrMetallicRoughness": {"baseColorFactor": [0.0374099, 0.0374099, 0.0374099, 1.0], "metallicFactor": 0.0, "roughnessFactor": 0.9916348920568531}}, {"doubleSided": true, "name": "Material", "pbrMetallicRoughness": {"baseColorFactor": [0.218367, 0.157436, 0.0783187, 1.0], "metallicFactor": 0.0, "roughnessFactor": 0.9631769554420857}}, {"doubleSided": true, "name": "Material.002", "pbrMetallicRoughness": {"baseColorFactor": [0.190178, 0.163408, 0.147638, 1.0], "metallicFactor": 0.0, "roughnessFactor": 0.9624428439363008}}, {"doubleSided": true, "name": "Material.001", "pbrMetallicRoughness": {"baseColorFactor": [0.128239, 0.0811368, 0.0605823, 1.0], "metallicFactor": 0.0, "roughnessFactor": 0.9799499179536888}}, {"doubleSided": true, "name": "Material.026", "pbrMetallicRoughness": {"baseColorFactor": [0.0256887316150764, 0.0256887316150764, 0.0256887316150764, 1.0], "metallicFactor": 0.0}}, {"doubleSided": true, "name": "Material.024", "pbrMetallicRoughness": {"baseColorFactor": [0.03055287014574175, 0.03055287014574175, 0.03055287014574175, 1.0], "metallicFactor": 0.0, "roughnessFactor": 0.8211145618000169}}, {"doubleSided": true, "name": "Material.023", "pbrMetallicRoughness": {"baseColorFactor": [0.024031858959787163, 0.024031858959787163, 0.024031858959787163, 1.0], "metallicFactor": 0.0}}, {"doubleSided": true, "name": "Material.022", "pbrMetallicRoughness": {"baseColorFactor": [0.043265861743718964, 0.043265861743718964, 0.043265861743718964, 1.0], "metallicFactor": 0.0}}, {"doubleSided": true, "name": "Material.021", "pbrMetallicRoughness": {"baseColorFactor": [0.018704943955272953, 0.018704943955272953, 0.018704943955272953, 1.0], "metallicFactor": 0.0}}, {"doubleSided": true, "name": "Material.020", "pbrMetallicRoughness": {"baseColorFactor": [0.027606939338488443, 0.027606939338488443, 0.027606939338488443, 1.0], "metallicFactor": 0.0}}, {"doubleSided": true, "name": "Material.019", "pbrMetallicRoughness": {"baseColorFactor": [0.4398570577637919, 0.7060096544824478, 0.732532985489547, 1.0], "metallicFactor": 0.0}}, {"doubleSided": true, "name": "Material.018", "pbrMetallicRoughness": {"baseColorFactor": [0.021684699350910965, 0.021684699350910965, 0.021684699350910965, 1.0], "metallicFactor": 0.0}}], "meshes": [{"name": "Cube_Material.003_0", "primitives": [{"attributes": {"JOINTS_0": 69, "NORMAL": 1, "POSITION": 0, "TEXCOORD_0": 2, "WEIGHTS_0": 70}, "indices": 3, "material": 0, "mode": 4}]}, {"name": "Cube_Material.008_0", "primitives": [{"attributes": {"JOINTS_0": 71, "NORMAL": 5, "POSITION": 4, "TEXCOORD_0": 6, "WEIGHTS_0": 72}, "indices": 7, "material": 1, "mode": 4}]}, {"name": "Cube_Material.004_0", "primitives": [{"attributes": {"JOINTS_0": 73, "NORMAL": 9, "POSITION": 8, "TEXCOORD_0": 10, "WEIGHTS_0": 74}, "indices": 11, "material": 2, "mode": 4}]}, {"name": "Cube_Material.010_0", "primitives": [{"attributes": {"JOINTS_0": 75, "NORMAL": 13, "POSITION": 12, "TEXCOORD_0": 14, "WEIGHTS_0": 76}, "indices": 15, "material": 3, "mode": 4}]}, {"name": "Cube_Material.005_0", "primitives": [{"attributes": {"JOINTS_0": 77, "NORMAL": 17, "POSITION": 16, "TEXCOORD_0": 18, "WEIGHTS_0": 78}, "indices": 19, "material": 4, "mode": 4}]}, {"name": "Cube_Material.006_0", "primitives": [{"attributes": {"JOINTS_0": 79, "NORMAL": 21, "POSITION": 20, "TEXCOORD_0": 22, "WEIGHTS_0": 80}, "indices": 23, "material": 5, "mode": 4}]}, {"name": "Cube_Material.009_0", "primitives": [{"attributes": {"JOINTS_0": 81, "NORMAL": 25, "POSITION": 24, "TEXCOORD_0": 26, "WEIGHTS_0": 82}, "indices": 27, "material": 6, "mode": 4}]}, {"name": "Cube_Material.007_0", "primitives": [{"attributes": {"JOINTS_0": 83, "NORMAL": 29, "POSITION": 28, "TEXCOORD_0": 30, "WEIGHTS_0": 84}, "indices": 31, "material": 7, "mode": 4}]}, {"name": "Cube_Material_0", "primitives": [{"attributes": {"JOINTS_0": 85, "NORMAL": 33, "POSITION": 32, "TEXCOORD_0": 34, "WEIGHTS_0": 86}, "indices": 35, "material": 8, "mode": 4}]}, {"name": "Cube_Material.002_0", "primitives": [{"attributes": {"JOINTS_0": 87, "NORMAL": 37, "POSITION": 36, "TEXCOORD_0": 38, "WEIGHTS_0": 88}, "indices": 39, "material": 9, "mode": 4}]}, {"name": "Cube_Material.001_0", "primitives": [{"attributes": {"JOINTS_0": 89, "NORMAL": 41, "POSITION": 40, "TEXCOORD_0": 42, "WEIGHTS_0": 90}, "indices": 43, "material": 10, "mode": 4}]}, {"name": "Cylinder.000_Material.026_0", "primitives": [{"attributes": {"NORMAL": 45, "POSITION": 44}, "indices": 46, "material": 11, "mode": 4}]}, {"name": "Cylinder.000_Material.024_0", "primitives": [{"attributes": {"NORMAL": 48, "POSITION": 47}, "indices": 49, "material": 12, "mode": 4}]}, {"name": "Cylinder.000_Material.023_0", "primitives": [{"attributes": {"NORMAL": 51, "POSITION": 50}, "indices": 52, "material": 13, "mode": 4}]}, {"name": "Cylinder.000_Material.022_0", "primitives": [{"attributes": {"NORMAL": 54, "POSITION": 53}, "indices": 55, "material": 14, "mode": 4}]}, {"name": "Cylinder.000_Material.021_0", "primitives": [{"attributes": {"NORMAL": 57, "POSITION": 56}, "indices": 58, "material": 15, "mode": 4}]}, {"name": "Cylinder.000_Material.020_0", "primitives": [{"attributes": {"NORMAL": 60, "POSITION": 59}, "indices": 61, "material": 16, "mode": 4}]}, {"name": "Cylinder.000_Material.019_0", "primitives": [{"attributes": {"NORMAL": 63, "POSITION": 62}, "indices": 64, "material": 17, "mode": 4}]}, {"name": "Cylinder.000_Material.018_0", "primitives": [{"attributes": {"NORMAL": 66, "POSITION": 65}, "indices": 67, "material": 18, "mode": 4}]}], "nodes": [{"children": [1], "matrix": [1.0, 0.0, 0.0, 0.0, 0.0, 2.220446049250313e-16, -1.0, 0.0, 0.0, 1.0, 2.220446049250313e-16, 0.0, 0.0, 0.0, 0.0, 1.0], "name": "Sketchfab_model"}, {"children": [2], "matrix": [1.0, 0.0, 0.0, 0.0, 0.0, 0.0, 1.0, 0.0, 0.0, -1.0, 0.0, 0.0, 0.0, 0.0, 0.0, 1.0], "name": "03f557c4f6c14ae1b5f00b352e16c685.fbx"}, {"children": [3, 6, 8, 38], "name": "RootNode"}, {"children": [4], "matrix": [23.231172355222103, 21.84616370504412, -94.77900235945377, 0.0, 89.76030839044749, 32.71628095018631, 29.54201199243871, 0.0, 37.461963853455565, -91.93688754462688, -12.00880921357255, 0.0, 1395.951416015625, -349.0223388671875, 233.06117248535156, 1.0], "name": "Light"}, {"children": [5], "matrix": [1.0, 0.0, 0.0, 0.0, 0.0, 2.220446049250313e-16, 1.0, 0.0, 0.0, -1.0, 2.220446049250313e-16, 0.0, 0.0, 0.0, 0.0, 1.0], "name": "Object_4"}, {"name": "Object_5"}, {"children": [7], "matrix": [-50.87663292895197, 0.4151068476957803, -86.08949114587054, 0.0, 1.4461796868845944, 99.9888635770761, -0.3725273629557171, 0.0, 86.07833120042737, -1.4345376747186034, -50.87695475643479, 0.0, 1735.6142578125, -28.398746490478516, 2905.8291015625, 1.0], "name": "Camera"}, {"name": "Object_7"}, {"children": [9], "matrix": [100.0, 0.0, 0.0, 0.0, 0.0, -1.629206793918314e-05, -99.99999999999868, 0.0, 0.0, 99.99999999999868, -1.629206793918314e-05, 0.0, 7.354058265686035, 21.26174545288086, -1.6599008176854113e-06, 1.0], "name": "Armature"}, {"children": [10, 12, 13, 14, 15, 16, 17, 18, 19, 20, 21, 22, 11], "name": "Object_9"}, {"children": [23], "name": "_rootJoint"}, {"matrix": [99.99999666214569, 5.172393594456977e-13, 4.4278615638686323e-13, 0.0, 4.4278619016874547e-13, 6.123234258519806e-15, -100.00000429153532, 0.0, -5.172393594456884e-13, 99.99999666214389, 6.1232337913520256e-15, 0.0, 7.093200755647899e-07, 8.386151506556416e-08, -3.6393479545357866e-14, 1.0], "name": "Object_11"}, {"mesh": 0, "name": "Object_12", "skin": 0}, {"mesh": 1, "name": "Object_13", "skin": 0}, {"mesh": 2, "name": "Object_14", "skin": 0}, {"mesh": 3, "name": "Object_15", "skin": 0}, {"mesh": 4, "name": "Object_16", "skin": 0}, {"mesh": 5, "name": "Object_17", "skin": 0}, {"mesh": 6, "name": "Object_18", "skin": 0}, {"mesh": 7, "name": "Object_19", "skin": 0}, {"mesh": 8, "name": "Object_20", "skin": 0}, {"mesh": 9, "name": "Object_21", "skin": 0}, {"mesh": 10, "name": "Object_22", "skin": 0}, {"children": [24, 29, 31], "name": "body_00", "rotation": [0.5, 0.4999999701976776, -0.49999988079071045, 0.5000001192092896], "scale": [0.9999998807907104, 0.9999998211860657, 0.9999999403953552]}, {"children": [25, 27], "name": "mag_01", "rotation": [-3.884853327917881e-08, 1.511636611439826e-07, -0.7071068286895752, 0.7071067094802856], "translation": [0.018556734547019005, -0.5666992664337158, -1.0077533119101645e-07]}, {"children": [26], "name": "bullet_02", "rotation": [3.2602759603150844e-08, -1.4491794786408718e-07, 0.7071068286895752, 0.7071067094802856], "translation": [0.1840486228466034, -0.11682596802711487, -9.08168562574474e-09]}, {"name": "bullet_end_09", "rotation": [-0.0, -1.3234889800848443e-23, -5.650730570955701e-24, 1.0], "translation": [5.551115123125783e-17, 0.1754128336906433, -2.6469779601696886e-23]}, {"children": [28], "name": "bullets_03", "rotation": [4.011127785474855e-08, -1.5242643769397546e-07, 0.7071068286895752, 0.7071067094802856], "translation": [0.18597547709941864, -0.07058171927928925, -2.821200162372861e-09]}, {"name": "bullets_end_010", "rotation": [-0.0, -2.6469779601696886e-23, -6.625636432064036e-24, 1.0], "translation": [0.0, 0.1754128336906433, 0.0]}, {"children": [30], "name": "magrelease_04", "rotation": [0.5085068345069885, 0.4913470447063446, -0.5085059404373169, 0.49134570360183716], "scale": [1.0, 0.9999999403953552, 1.0], "translation": [0.11403720825910568, -0.8352270126342773, -8.321760702756364e-08]}, {"name": "magrelease_end_011", "rotation": [-1.2267217731132112e-18, 2.117582368135751e-22, -2.6469779601696886e-23, 1.0], "translation": [0.0, 0.08586962521076202, 1.1102230246251565e-16]}, {"children": [32, 34, 36], "name": "boltmove_05", "rotation": [8.605206147649369e-08, 0.7071066498756409, -8.605201884392955e-08, 0.7071069478988647], "translation": [-0.14846323430538177, -1.0840550661087036, -1.887715654902422e-07]}, {"children": [33], "name": "firingpin_06", "rotation": [-2.3432596307770837e-08, -1.2517173786363855e-07, 9.378342015736035e-15, 1.0], "translation": [9.105519893637393e-09, -0.059167854487895966, 0.0010755022522062063]}, {"name": "firingpin_end_012", "rotation": [1.9240405830761863e-23, -5.293955920339377e-23, -3.970466940254533e-23, 1.0], "translation": [-5.293955920339377e-23, 0.03974473476409912, -5.551115123125783e-17]}, {"children": [35], "name": "boltrotate_07", "rotation": [-5.643461875592948e-08, -4.824989332519181e-07, 1.4178619182328347e-14, 1.0], "translation": [-2.2520673326198448e-08, 0.2687537670135498, -0.0001824697246775031]}, {"name": "boltrotate_end_013", "rotation": [-2.3441714928900686e-23, 1.0587911840678754e-22, 2.2499312661442353e-22, 1.0], "translation": [1.0587911840678754e-22, 0.2321978211402893, 5.551115123125783e-17]}, {"children": [37], "name": "safety_08", "rotation": [7.892608522297451e-08, -2.508185161786969e-07, 0.3309081792831421, 0.9436629414558411], "translation": [-0.032694119960069656, 0.04360533133149147, -0.014274634420871735]}, {"name": "safety_end_014", "rotation": [-1.0587911840678754e-22, -5.293955920339377e-23, -2.7755575615628914e-17, 1.0], "translation": [-1.1102230246251565e-16, 0.05466603860259056, 0.0]}, {"children": [39, 40, 41, 42, 43, 44, 45, 46], "matrix": [100.0, 0.0, 0.0, 0.0, 0.0, -1.629206793918314e-05, -99.99999999999868, 0.0, 0.0, 99.99999999999868, -1.629206793918314e-05, 0.0, 0.0, 0.0, 0.0, 1.0], "name": "Cylinder.000"}, {"mesh": 11, "name": "Cylinder.000_Material.026_0"}, {"mesh": 12, "name": "Cylinder.000_Material.024_0"}, {"mesh": 13, "name": "Cylinder.000_Material.023_0"}, {"mesh": 14, "name": "Cylinder.000_Material.022_0"}, {"mesh": 15, "name": "Cylinder.000_Material.021_0"}, {"mesh": 16, "name": "Cylinder.000_Material.020_0"}, {"mesh": 17, "name": "Cylinder.000_Material.019_0"}, {"mesh": 18, "name": "Cylinder.000_Material.018_0"}], "scene": 0, "scenes": [{"name": "Sketchfab_Scene", "nodes": [0]}], "skins": [{"inverseBindMatrices": 68, "joints": [10, 23, 24, 25, 26, 27, 28, 29, 30, 31, 32, 33, 34, 35, 36, 37], "skeleton": 10}]}