{"accessors": [{"bufferView": 2, "componentType": 5126, "count": 1582, "max": [26.96055793762207, 9.817848205566406, 1.2707117795944214], "min": [-17.905872344970703, -14.219221115112305, -1.0883485078811646], "type": "VEC3"}, {"bufferView": 2, "byteOffset": 18984, "componentType": 5126, "count": 1582, "max": [1.0, 1.0, 1.0], "min": [-1.0, -1.0, -1.0], "type": "VEC3"}, {"bufferView": 1, "componentType": 5125, "count": 1632, "type": "SCALAR"}, {"bufferView": 2, "byteOffset": 37968, "componentType": 5126, "count": 458, "max": [5.395280838012695, 6.847114562988281, 0.7045976519584656], "min": [4.473758697509766, 4.813776969909668, -0.5538218021392822], "type": "VEC3"}, {"bufferView": 2, "byteOffset": 43464, "componentType": 5126, "count": 458, "max": [1.0, 0.8646580576896667, 0.9984209537506104], "min": [0.0561743825674057, -0.8646581768989563, -0.9984210133552551], "type": "VEC3"}, {"bufferView": 1, "byteOffset": 6528, "componentType": 5125, "count": 468, "type": "SCALAR"}, {"bufferView": 2, "byteOffset": 48960, "componentType": 5126, "count": 124, "max": [2.966280698776245, 6.601738452911377, 0.49209582805633545], "min": [2.884392499923706, 5.059153079986572, -0.3413192629814148], "type": "VEC3"}, {"bufferView": 2, "byteOffset": 50448, "componentType": 5126, "count": 124, "max": [1.2634033055292093e-06, 0.8660276532173157, 1.0], "min": [-1.0, -0.8660265207290649, -1.0], "type": "VEC3"}, {"bufferView": 1, "byteOffset": 8400, "componentType": 5125, "count": 144, "type": "SCALAR"}, {"bufferView": 2, "byteOffset": 51936, "componentType": 5126, "count": 915, "max": [4.47376012802124, 6.871157169342041, 0.7254193425178528], "min": [2.878605365753174, 4.789734363555908, -0.5746428370475769], "type": "VEC3"}, {"bufferView": 2, "byteOffset": 62916, "componentType": 5126, "count": 915, "max": [1.0, 0.8660276532173157, 1.0], "min": [-1.0, -0.8660276532173157, -1.0], "type": "VEC3"}, {"bufferView": 1, "byteOffset": 8976, "componentType": 5125, "count": 972, "type": "SCALAR"}, {"bufferView": 2, "byteOffset": 73896, "componentType": 5126, "count": 261, "max": [5.627615928649902, 8.492066383361816, 1.2936053276062012], "min": [-0.617163896560669, 5.904857158660889, -1.293604850769043], "type": "VEC3"}, {"bufferView": 2, "byteOffset": 77028, "componentType": 5126, "count": 261, "max": [1.0, 0.9238797426223755, 0.9238797426223755], "min": [-1.0, -0.9238798022270203, -0.9238798022270203], "type": "VEC3"}, {"bufferView": 1, "byteOffset": 12864, "componentType": 5125, "count": 276, "type": "SCALAR"}, {"bufferView": 2, "byteOffset": 80160, "componentType": 5126, "count": 3429, "max": [25.61281394958496, 9.42363166809082, 2.0753800868988037], "min": [-45.62256622314453, -5.7154011726379395, -2.0753798484802246], "type": "VEC3"}, {"bufferView": 2, "byteOffset": 121308, "componentType": 5126, "count": 3429, "max": [1.0, 1.0, 1.0], "min": [-1.0, -1.0, -1.0], "type": "VEC3"}, {"bufferView": 1, "byteOffset": 13968, "componentType": 5125, "count": 3474, "type": "SCALAR"}, {"bufferView": 2, "byteOffset": 162456, "componentType": 5126, "count": 169, "max": [6.178112030029297, 8.144489288330078, 1.259726881980896], "min": [3.340934991836548, 7.24990701675415, 0.18504679203033447], "type": "VEC3"}, {"bufferView": 2, "byteOffset": 164484, "componentType": 5126, "count": 169, "max": [1.0, 0.9328551888465881, 0.932855486869812], "min": [-1.0, -0.9328551888465881, -0.9328551888465881], "type": "VEC3"}, {"bufferView": 1, "byteOffset": 27864, "componentType": 5125, "count": 180, "type": "SCALAR"}, {"bufferView": 2, "byteOffset": 166512, "componentType": 5126, "count": 564, "max": [-0.5474668741226196, 8.53064250946045, 1.3321784734725952], "min": [-18.06577491760254, 5.866283416748047, -4.175532341003418], "type": "VEC3"}, {"bufferView": 2, "byteOffset": 173280, "componentType": 5126, "count": 564, "max": [1.0, 1.0, 1.0], "min": [-1.0, -1.0, -1.0], "type": "VEC3"}, {"bufferView": 1, "byteOffset": 28584, "componentType": 5125, "count": 576, "type": "SCALAR"}, {"bufferView": 2, "byteOffset": 180048, "componentType": 5126, "count": 2864, "max": [26.96055793762207, 10.201677322387695, 1.6993846893310547], "min": [-26.147815704345703, -6.6030378341674805, -1.6993823051452637], "type": "VEC3"}, {"bufferView": 2, "byteOffset": 214416, "componentType": 5126, "count": 2864, "max": [1.0, 1.0, 1.0], "min": [-1.0, -1.0, -1.0], "type": "VEC3"}, {"bufferView": 1, "byteOffset": 30888, "componentType": 5125, "count": 2961, "type": "SCALAR"}, {"bufferView": 2, "byteOffset": 248784, "componentType": 5126, "count": 238, "max": [24.99283790588379, 8.14750862121582, 1.8865442276000977], "min": [-22.997962951660156, -2.3308048248291016, -1.8865429162979126], "type": "VEC3"}, {"bufferView": 2, "byteOffset": 251640, "componentType": 5126, "count": 238, "max": [1.0, 0.8660280108451843, 1.0], "min": [-1.0, -0.8660277128219604, -1.0], "type": "VEC3"}, {"bufferView": 1, "byteOffset": 42732, "componentType": 5125, "count": 240, "type": "SCALAR"}, {"bufferView": 2, "byteOffset": 254496, "componentType": 5126, "count": 2119, "max": [21.382123947143555, 9.357471466064453, 1.9874582290649414], "min": [-43.48294448852539, -14.080487251281738, -1.9874577522277832], "type": "VEC3"}, {"bufferView": 2, "byteOffset": 279924, "componentType": 5126, "count": 2119, "max": [1.0, 1.0, 1.0], "min": [-1.0, -1.0, -1.0], "type": "VEC3"}, {"bufferView": 1, "byteOffset": 43692, "componentType": 5125, "count": 2184, "type": "SCALAR"}, {"bufferView": 2, "byteOffset": 305352, "componentType": 5126, "count": 684, "max": [-18.82459259033203, 4.4159979820251465, 1.0103622674942017], "min": [-25.91958999633789, -6.3645782470703125, -1.8779864311218262], "type": "VEC3"}, {"bufferView": 2, "byteOffset": 313560, "componentType": 5126, "count": 684, "max": [0.9993488788604736, 1.0, 1.0], "min": [-0.9996933341026306, -0.9819366335868835, -1.0], "type": "VEC3"}, {"bufferView": 1, "byteOffset": 52428, "componentType": 5125, "count": 684, "type": "SCALAR"}, {"bufferView": 2, "byteOffset": 321768, "componentType": 5126, "count": 1378, "max": [-0.8897161483764648, 6.738367080688477, 1.8066315650939941], "min": [-22.232425689697266, 1.7898014783859253, -1.806630253791809], "type": "VEC3"}, {"bufferView": 2, "byteOffset": 338304, "componentType": 5126, "count": 1378, "max": [1.0, 1.0, 1.0], "min": [-1.0, -1.0, -1.0], "type": "VEC3"}, {"bufferView": 1, "byteOffset": 55164, "componentType": 5125, "count": 1386, "type": "SCALAR"}, {"bufferView": 4, "componentType": 5126, "count": 14, "max": [16.37511444091797, 0.16375114023685455, 0.15966829657554626, 0.0, 8.876965977828603e-25, 16.37511444091797, 0.16079717874526978, 0.0, 0.16375112533569336, 3.873787335351153e-08, 16.37511444091797, 0.0, 1.0543274879455566, 1.7918752431869507, 6.90327262878418, 1.0], "min": [-0.16375114023685455, -0.16079717874526978, -0.030962923541665077, 0.0, -0.16375114023685455, -0.16375114023685455, -0.16375114023685455, 0.0, -0.16375114023685455, -4.400283160066465e-08, -3.539509307870503e-08, 0.0, -6.41837694104197e-09, -3.7018260955810547, -1.3596491813659668, 1.0], "type": "MAT4"}, {"bufferView": 0, "componentType": 5123, "count": 1582, "type": "VEC4"}, {"bufferView": 3, "componentType": 5126, "count": 1582, "max": [1.0, 0.0, 0.0, 0.0], "min": [1.0, 0.0, 0.0, 0.0], "type": "VEC4"}, {"bufferView": 0, "byteOffset": 12656, "componentType": 5123, "count": 458, "type": "VEC4"}, {"bufferView": 3, "byteOffset": 25312, "componentType": 5126, "count": 458, "max": [1.0, 0.0, 0.0, 0.0], "min": [1.0, 0.0, 0.0, 0.0], "type": "VEC4"}, {"bufferView": 0, "byteOffset": 16320, "componentType": 5123, "count": 124, "type": "VEC4"}, {"bufferView": 3, "byteOffset": 32640, "componentType": 5126, "count": 124, "max": [1.0, 0.0, 0.0, 0.0], "min": [1.0, 0.0, 0.0, 0.0], "type": "VEC4"}, {"bufferView": 0, "byteOffset": 17312, "componentType": 5123, "count": 915, "type": "VEC4"}, {"bufferView": 3, "byteOffset": 34624, "componentType": 5126, "count": 915, "max": [1.0, 0.0, 0.0, 0.0], "min": [1.0, 0.0, 0.0, 0.0], "type": "VEC4"}, {"bufferView": 0, "byteOffset": 24632, "componentType": 5123, "count": 261, "type": "VEC4"}, {"bufferView": 3, "byteOffset": 49264, "componentType": 5126, "count": 261, "max": [1.0, 0.0, 0.0, 0.0], "min": [1.0, 0.0, 0.0, 0.0], "type": "VEC4"}, {"bufferView": 0, "byteOffset": 26720, "componentType": 5123, "count": 3429, "type": "VEC4"}, {"bufferView": 3, "byteOffset": 53440, "componentType": 5126, "count": 3429, "max": [1.0, 0.0, 0.0, 0.0], "min": [1.0, 0.0, 0.0, 0.0], "type": "VEC4"}, {"bufferView": 0, "byteOffset": 54152, "componentType": 5123, "count": 169, "type": "VEC4"}, {"bufferView": 3, "byteOffset": 108304, "componentType": 5126, "count": 169, "max": [1.0, 0.0, 0.0, 0.0], "min": [1.0, 0.0, 0.0, 0.0], "type": "VEC4"}, {"bufferView": 0, "byteOffset": 55504, "componentType": 5123, "count": 564, "type": "VEC4"}, {"bufferView": 3, "byteOffset": 111008, "componentType": 5126, "count": 564, "max": [1.0, 0.0, 0.0, 0.0], "min": [1.0, 0.0, 0.0, 0.0], "type": "VEC4"}, {"bufferView": 0, "byteOffset": 60016, "componentType": 5123, "count": 2864, "type": "VEC4"}, {"bufferView": 3, "byteOffset": 120032, "componentType": 5126, "count": 2864, "max": [1.0, 0.0, 0.0, 0.0], "min": [1.0, 0.0, 0.0, 0.0], "type": "VEC4"}, {"bufferView": 0, "byteOffset": 82928, "componentType": 5123, "count": 238, "type": "VEC4"}, {"bufferView": 3, "byteOffset": 165856, "componentType": 5126, "count": 238, "max": [1.0, 0.0, 0.0, 0.0], "min": [1.0, 0.0, 0.0, 0.0], "type": "VEC4"}, {"bufferView": 0, "byteOffset": 84832, "componentType": 5123, "count": 2119, "type": "VEC4"}, {"bufferView": 3, "byteOffset": 169664, "componentType": 5126, "count": 2119, "max": [1.0, 0.0, 0.0, 0.0], "min": [1.0, 0.0, 0.0, 0.0], "type": "VEC4"}, {"bufferView": 0, "byteOffset": 101784, "componentType": 5123, "count": 684, "type": "VEC4"}, {"bufferView": 3, "byteOffset": 203568, "componentType": 5126, "count": 684, "max": [1.0, 0.0, 0.0, 0.0], "min": [1.0, 0.0, 0.0, 0.0], "type": "VEC4"}, {"bufferView": 0, "byteOffset": 107256, "componentType": 5123, "count": 1378, "type": "VEC4"}, {"bufferView": 3, "byteOffset": 214512, "componentType": 5126, "count": 1378, "max": [1.0, 0.0, 0.0, 0.0], "min": [1.0, 0.0, 0.0, 0.0], "type": "VEC4"}], "asset": {"extras": {"author": "TastyTony (https://sketchfab.com/TastyTony)", "license": "CC-BY-4.0 (http://creativecommons.org/licenses/by/4.0/)", "source": "https://sketchfab.com/3d-models/low-poly-mp40-2b0a107a709a4004bbff310dba4af14b", "title": "Low-Poly MP40"}, "generator": "Sketchfab-15.10.0", "version": "2.0"}, "bufferViews": [{"buffer": 0, "byteLength": 118280, "byteStride": 8, "name": "shortBufferViews", "target": 34962}, {"buffer": 0, "byteLength": 60708, "byteOffset": 118280, "name": "floatBufferViews", "target": 34963}, {"buffer": 0, "byteLength": 354840, "byteOffset": 178988, "byteStride": 12, "name": "floatBufferViews", "target": 34962}, {"buffer": 0, "byteLength": 236560, "byteOffset": 533828, "byteStride": 16, "name": "floatBufferViews", "target": 34962}, {"buffer": 0, "byteLength": 896, "byteOffset": 770388, "name": "floatBufferViews"}], "buffers": [{"byteLength": 771284, "uri": "scene.bin"}], "extensionsUsed": ["KHR_materials_specular"], "materials": [{"doubleSided": true, "extensions": {"KHR_materials_specular": {"specularColorFactor": [1.0, 1.0, 1.0], "specularFactor": 0.0}}, "name": "Material.003", "pbrMetallicRoughness": {"baseColorFactor": [0.045274390240000004, 0.045274390240000004, 0.045274390240000004, 1.0], "metallicFactor": 0.0}}, {"doubleSided": true, "name": "Material.012", "pbrMetallicRoughness": {"baseColorFactor": [0.8, 0.8, 0.8, 1.0], "metallicFactor": 0.0, "roughnessFactor": 0.9577051495}}, {"doubleSided": true, "name": "Material.011", "pbrMetallicRoughness": {"baseColorFactor": [0.8, 0.8, 0.8, 1.0], "metallicFactor": 0.0, "roughnessFactor": 0.9577051495}}, {"doubleSided": true, "name": "Material.010", "pbrMetallicRoughness": {"baseColorFactor": [0.8, 0.8, 0.8, 1.0], "metallicFactor": 0.0, "roughnessFactor": 0.9577051495}}, {"doubleSided": true, "extensions": {"KHR_materials_specular": {"specularColorFactor": [1.0, 1.0, 1.0], "specularFactor": 0.0}}, "name": "Material", "pbrMetallicRoughness": {"baseColorFactor": [0.0851392321801847, 0.07608467378577298, 0.07608467378577298, 1.0], "metallicFactor": 0.0}}, {"doubleSided": true, "extensions": {"KHR_materials_specular": {"specularColorFactor": [1.0, 1.0, 1.0], "specularFactor": 0.0}}, "name": "Material.002", "pbrMetallicRoughness": {"baseColorFactor": [0.03064024392, 0.03064024392, 0.03064024392, 1.0], "metallicFactor": 0.0}}, {"doubleSided": true, "extensions": {"KHR_materials_specular": {"specularColorFactor": [1.0, 1.0, 1.0], "specularFactor": 0.0}}, "name": "Material.006", "pbrMetallicRoughness": {"baseColorFactor": [0.11095858218203426, 0.0960606441285868, 0.0960606441285868, 1.0], "metallicFactor": 0.0}}, {"doubleSided": true, "extensions": {"KHR_materials_specular": {"specularColorFactor": [1.0, 1.0, 1.0], "specularFactor": 0.0}}, "name": "Material.009", "pbrMetallicRoughness": {"baseColorFactor": [0.06966463416, 0.06966463416, 0.06966463416, 1.0], "metallicFactor": 0.0}}, {"doubleSided": true, "extensions": {"KHR_materials_specular": {"specularColorFactor": [1.0, 1.0, 1.0], "specularFactor": 0.0}}, "name": "Material.001", "pbrMetallicRoughness": {"baseColorFactor": [0.035518292720000004, 0.035518292720000004, 0.035518292720000004, 1.0], "metallicFactor": 0.0}}, {"doubleSided": true, "extensions": {"KHR_materials_specular": {"specularColorFactor": [1.0, 1.0, 1.0], "specularFactor": 0.0}}, "name": "Material.007", "pbrMetallicRoughness": {"baseColorFactor": [0.048249646480191595, 0.048249646480191595, 0.048249646480191595, 1.0], "metallicFactor": 0.0}}, {"doubleSided": true, "extensions": {"KHR_materials_specular": {"specularColorFactor": [1.0, 1.0, 1.0], "specularFactor": 0.0}}, "name": "Material.004", "pbrMetallicRoughness": {"baseColorFactor": [0.05503048784, 0.05503048784, 0.05503048784, 1.0], "metallicFactor": 0.0}}, {"doubleSided": true, "extensions": {"KHR_materials_specular": {"specularColorFactor": [1.0, 1.0, 1.0], "specularFactor": 0.0}}, "name": "Material.013", "pbrMetallicRoughness": {"baseColorFactor": [0.0448950492, 0.0368628531, 0.0368628531, 1.0], "metallicFactor": 0.0}}, {"doubleSided": true, "extensions": {"KHR_materials_specular": {"specularColorFactor": [1.0, 1.0, 1.0], "specularFactor": 0.0}}, "name": "Material.005", "pbrMetallicRoughness": {"baseColorFactor": [0.0554175604, 0.0375353925, 0.0375353925, 1.0], "metallicFactor": 0.0}}], "meshes": [{"name": "Cylinder.001_Material.003_0", "primitives": [{"attributes": {"JOINTS_0": 40, "NORMAL": 1, "POSITION": 0, "WEIGHTS_0": 41}, "indices": 2, "material": 0, "mode": 4}]}, {"name": "Cylinder.001_Material.012_0", "primitives": [{"attributes": {"JOINTS_0": 42, "NORMAL": 4, "POSITION": 3, "WEIGHTS_0": 43}, "indices": 5, "material": 1, "mode": 4}]}, {"name": "Cylinder.001_Material.011_0", "primitives": [{"attributes": {"JOINTS_0": 44, "NORMAL": 7, "POSITION": 6, "WEIGHTS_0": 45}, "indices": 8, "material": 2, "mode": 4}]}, {"name": "Cylinder.001_Material.010_0", "primitives": [{"attributes": {"JOINTS_0": 46, "NORMAL": 10, "POSITION": 9, "WEIGHTS_0": 47}, "indices": 11, "material": 3, "mode": 4}]}, {"name": "Cylinder.001_Material_0", "primitives": [{"attributes": {"JOINTS_0": 48, "NORMAL": 13, "POSITION": 12, "WEIGHTS_0": 49}, "indices": 14, "material": 4, "mode": 4}]}, {"name": "Cylinder.001_Material.002_0", "primitives": [{"attributes": {"JOINTS_0": 50, "NORMAL": 16, "POSITION": 15, "WEIGHTS_0": 51}, "indices": 17, "material": 5, "mode": 4}]}, {"name": "Cylinder.001_Material.006_0", "primitives": [{"attributes": {"JOINTS_0": 52, "NORMAL": 19, "POSITION": 18, "WEIGHTS_0": 53}, "indices": 20, "material": 6, "mode": 4}]}, {"name": "Cylinder.001_Material.009_0", "primitives": [{"attributes": {"JOINTS_0": 54, "NORMAL": 22, "POSITION": 21, "WEIGHTS_0": 55}, "indices": 23, "material": 7, "mode": 4}]}, {"name": "Cylinder.001_Material.001_0", "primitives": [{"attributes": {"JOINTS_0": 56, "NORMAL": 25, "POSITION": 24, "WEIGHTS_0": 57}, "indices": 26, "material": 8, "mode": 4}]}, {"name": "Cylinder.001_Material.007_0", "primitives": [{"attributes": {"JOINTS_0": 58, "NORMAL": 28, "POSITION": 27, "WEIGHTS_0": 59}, "indices": 29, "material": 9, "mode": 4}]}, {"name": "Cylinder.001_Material.004_0", "primitives": [{"attributes": {"JOINTS_0": 60, "NORMAL": 31, "POSITION": 30, "WEIGHTS_0": 61}, "indices": 32, "material": 10, "mode": 4}]}, {"name": "Cylinder.001_Material.013_0", "primitives": [{"attributes": {"JOINTS_0": 62, "NORMAL": 34, "POSITION": 33, "WEIGHTS_0": 63}, "indices": 35, "material": 11, "mode": 4}]}, {"name": "Cylinder.001_Material.005_0", "primitives": [{"attributes": {"JOINTS_0": 64, "NORMAL": 37, "POSITION": 36, "WEIGHTS_0": 65}, "indices": 38, "material": 12, "mode": 4}]}], "nodes": [{"children": [1], "matrix": [0.1170014888048172, 0.0, 0.0, 0.0, 0.0, 2.597954935730611e-17, -0.1170014888048172, 0.0, 0.0, 0.1170014888048172, 2.597954935730611e-17, 0.0, 0.0, 0.0, 0.0, 1.0], "name": "Sketchfab_model"}, {"children": [2], "matrix": [1.0, 0.0, 0.0, 0.0, 0.0, 0.0, 1.0, 0.0, 0.0, -1.0, 0.0, 0.0, 0.0, 0.0, 0.0, 1.0], "name": "5d2571f42a6e4510af1fd8619a9d7d75.fbx"}, {"children": [3, 33, 36], "name": "RootNode"}, {"children": [4], "matrix": [7.549789970973109e-06, -99.99999999999967, 2.980231184057658e-06, 0.0, -2.8212996699972237e-05, -2.980233304583635e-06, -99.99999999999596, 0.0, 99.99999999999572, 7.549789121652495e-06, -2.8212996916465727e-05, 0.0, 132.03514099121094, 114.88411712646484, 1.341104507446289e-05, 1.0], "name": "Armature"}, {"children": [5, 20, 21, 22, 23, 24, 25, 26, 27, 28, 29, 30, 31, 32, 19], "name": "Object_4"}, {"children": [6], "name": "_rootJoint"}, {"children": [7, 12, 15, 17], "name": "body_00", "rotation": [0.7071068286895752, 1.1281869781330238e-23, -4.2630106427015896e-24, 0.7071067094802856], "translation": [0.15607213973999023, -3.751921440198203e-09, -0.016480088233947754]}, {"children": [8, 10], "name": "mag_01", "rotation": [-1.638454421026836e-07, 2.6166647515424302e-08, -0.7071067094802856, 0.7071068286895752], "translation": [0.5218709707260132, -0.5341833829879761, -1.525091022358538e-07]}, {"children": [9], "name": "bullet_02", "rotation": [1.2169860497124318e-07, 1.598020915594134e-08, 0.7071068286895752, 0.7071067094802856], "translation": [0.2992594838142395, -0.5834298133850098, -2.1706981101488054e-07]}, {"name": "bullet_end_08", "rotation": [-6.617444900424222e-24, -0.0, 6.600919211092927e-23, 1.0], "translation": [0.0, 0.40153229236602783, -1.3234889800848443e-23]}, {"children": [11], "name": "bullets_03", "rotation": [1.2169860497124318e-07, 1.5980219814082375e-08, 0.7071068286895752, 0.7071067094802856], "translation": [0.2992595136165619, -0.4374697208404541, -1.9745878887533763e-07]}, {"name": "bullets_end_011", "rotation": [1.3234889800848443e-23, -1.3234889800848443e-23, 3.953816610900214e-23, 1.0], "translation": [-1.1102230246251565e-16, 0.40153226256370544, -6.617444900424222e-24]}, {"children": [13], "name": "stock_04", "rotation": [0.7039108276367188, 0.06715518981218338, -0.7039105296134949, 0.06715521961450577], "scale": [1.0000001192092896, 1.0000001192092896, 0.9999999403953552], "translation": [0.3576066493988037, -5.196008682250977, -7.022332511041895e-07]}, {"children": [14], "name": "stockend_05", "rotation": [3.241386181684902e-08, 0.8373408317565918, -0.5466812252998352, 2.1136810346433776e-07], "scale": [1.0, 0.9999999403953552, 1.0], "translation": [8.526512829121202e-14, 3.2410426139831543, 1.192094316593284e-07]}, {"name": "stockend_end_09", "rotation": [-4.649543511107901e-17, -2.6469779601696886e-23, 1.3234889800848443e-23, 1.0], "translation": [-2.117582368135751e-22, 0.9154228568077087, 0.0]}, {"children": [16], "name": "bolthead+rotate_06", "rotation": [2.809904131595431e-08, 0.7071067094802856, -2.809903598688379e-08, 0.7071068286895752], "translation": [-0.18598806858062744, -2.1190075874328613, -6.240353513931041e-07]}, {"name": "bolthead+rotate_end_012", "rotation": [-5.42521732625836e-25, 2.6469779601696886e-23, 0.0, 1.0], "translation": [-2.6469779601696886e-23, 1.0000001192092896, -2.220446049250313e-16]}, {"children": [18], "name": "boltsegment2_07", "rotation": [3.210595522773474e-08, 0.7071067094802856, -3.210594812230738e-08, 0.7071068286895752], "translation": [-0.1859884262084961, -3.0957465171813965, -7.848591394576943e-07]}, {"name": "boltsegment2_end_010", "rotation": [2.400724615641001e-25, -1.3234889800848443e-23, 3.970466940254533e-23, 1.0], "translation": [-5.293955920339377e-23, 0.559535026550293, 0.0]}, {"matrix": [3.546242041104921e-06, 14.181265234948434, 8.187556266783968, 0.0, 9.502126179765607e-07, 8.187556266783815, -14.181265234948583, 0.0, -16.375114023686727, 3.546242043313844e-06, 9.502125569124725e-07, 0.0, 132.03513503174864, 114.8841080894145, 1.8551517372399228e-05, 1.0], "name": "Object_19"}, {"mesh": 0, "name": "Object_20", "skin": 0}, {"mesh": 1, "name": "Object_21", "skin": 0}, {"mesh": 2, "name": "Object_22", "skin": 0}, {"mesh": 3, "name": "Object_23", "skin": 0}, {"mesh": 4, "name": "Object_24", "skin": 0}, {"mesh": 5, "name": "Object_25", "skin": 0}, {"mesh": 6, "name": "Object_26", "skin": 0}, {"mesh": 7, "name": "Object_27", "skin": 0}, {"mesh": 8, "name": "Object_28", "skin": 0}, {"mesh": 9, "name": "Object_29", "skin": 0}, {"mesh": 10, "name": "Object_30", "skin": 0}, {"mesh": 11, "name": "Object_31", "skin": 0}, {"mesh": 12, "name": "Object_32", "skin": 0}, {"children": [34], "matrix": [0.4696982222377133, 84.82100004156383, -52.96392485011905, 0.0, 0.00034756002839642086, 52.96450771032142, 84.82193656644786, 0.0, 99.99888928190175, -0.398591179142372, 0.2484785282830962, 0.0, 5.085849761962891, 1468.3265380859375, 2250.285888671875, 1.0], "name": "Lamp"}, {"children": [35], "matrix": [1.0, 0.0, 0.0, 0.0, 0.0, 2.220446049250313e-16, 1.0, 0.0, 0.0, -1.0, 2.220446049250313e-16, 0.0, 0.0, 0.0, 0.0, 1.0], "name": "Object_34"}, {"name": "Object_35"}, {"children": [37], "matrix": [-65.15583280329096, -44.52713576570858, -61.41703047373549, 0.0, -32.40134137821245, 89.53957451233616, -30.542088974418615, 0.0, 68.59205472129975, -1.0718647115348782e-05, -72.7676336239627, 0.0, 748.1131591796875, 534.3665161132812, 650.7639770507812, 1.0], "name": "Camera"}, {"name": "Object_37"}], "scene": 0, "scenes": [{"name": "Sketchfab_Scene", "nodes": [0]}], "skins": [{"inverseBindMatrices": 39, "joints": [5, 6, 7, 8, 9, 10, 11, 12, 13, 14, 15, 16, 17, 18], "skeleton": 5}]}