{"accessors": [{"bufferView": 2, "componentType": 5126, "count": 2824, "max": [8.48634147644043, 5.695243835449219, 1.2308545112609863], "min": [-16.203004837036133, -1.0412259101867676, -0.9999997615814209], "type": "VEC3"}, {"bufferView": 2, "byteOffset": 33888, "componentType": 5126, "count": 2824, "max": [1.0, 1.0, 1.0], "min": [-1.0, -1.0, -1.0], "type": "VEC3"}, {"bufferView": 1, "componentType": 5125, "count": 3282, "type": "SCALAR"}, {"bufferView": 2, "byteOffset": 67776, "componentType": 5126, "count": 1133, "max": [-1.2740800380706787, 3.7765588760375977, 0.4765698313713074], "min": [-2.7537543773651123, 3.0433640480041504, -0.40487009286880493], "type": "VEC3"}, {"bufferView": 2, "byteOffset": 81372, "componentType": 5126, "count": 1133, "max": [1.0, 0.939918041229248, 1.0], "min": [-1.0, -0.9399192333221436, -1.0], "type": "VEC3"}, {"bufferView": 1, "byteOffset": 13128, "componentType": 5125, "count": 1188, "type": "SCALAR"}, {"bufferView": 2, "byteOffset": 94968, "componentType": 5126, "count": 137, "max": [-2.7187235355377197, 3.677457094192505, 0.3401513993740082], "min": [-2.750251054763794, 3.1424660682678223, -0.26845166087150574], "type": "VEC3"}, {"bufferView": 2, "byteOffset": 96612, "componentType": 5126, "count": 137, "max": [2.088549081236124e-06, 0.9399173855781555, 1.0], "min": [-1.0, -0.9399182796478271, -1.0], "type": "VEC3"}, {"bufferView": 1, "byteOffset": 17880, "componentType": 5125, "count": 144, "type": "SCALAR"}, {"bufferView": 2, "byteOffset": 98256, "componentType": 5126, "count": 348, "max": [-0.850773811340332, 3.7007830142974854, 0.37225979566574097], "min": [-1.2740802764892578, 3.119140386581421, -0.30056124925613403], "type": "VEC3"}, {"bufferView": 2, "byteOffset": 102432, "componentType": 5126, "count": 348, "max": [1.0, 0.9394457936286926, 0.9989251494407654], "min": [0.031668540090322495, -0.9394457936286926, -0.9989251494407654], "type": "VEC3"}, {"bufferView": 1, "byteOffset": 18456, "componentType": 5125, "count": 360, "type": "SCALAR"}, {"bufferView": 2, "byteOffset": 106608, "componentType": 5126, "count": 1582, "max": [15.520269393920898, 5.72971248626709, 0.8458632826805115], "min": [-7.455049514770508, 2.1352434158325195, -0.8458623290061951], "type": "VEC3"}, {"bufferView": 2, "byteOffset": 125592, "componentType": 5126, "count": 1582, "max": [1.0, 1.0, 1.0], "min": [-1.0, -1.0, -1.0], "type": "VEC3"}, {"bufferView": 1, "byteOffset": 19896, "componentType": 5125, "count": 1725, "type": "SCALAR"}, {"bufferView": 2, "byteOffset": 144576, "componentType": 5126, "count": 1299, "max": [9.693463325500488, 5.499870300292969, 1.3553321361541748], "min": [-8.382892608642578, 1.8121099472045898, -0.9033560156822205], "type": "VEC3"}, {"bufferView": 2, "byteOffset": 160164, "componentType": 5126, "count": 1299, "max": [1.0, 1.0, 1.0], "min": [-1.0, -1.0, -1.0], "type": "VEC3"}, {"bufferView": 1, "byteOffset": 26796, "componentType": 5125, "count": 1602, "type": "SCALAR"}, {"bufferView": 2, "byteOffset": 175752, "componentType": 5126, "count": 3200, "max": [10.496697425842285, 5.842120170593262, 1.1699992418289185], "min": [-15.234389305114746, 0.6780171394348145, -1.0598324537277222], "type": "VEC3"}, {"bufferView": 2, "byteOffset": 214152, "componentType": 5126, "count": 3200, "max": [1.0, 1.0, 1.0], "min": [-1.0, -1.0, -1.0], "type": "VEC3"}, {"bufferView": 1, "byteOffset": 33204, "componentType": 5125, "count": 3990, "type": "SCALAR"}, {"bufferView": 2, "byteOffset": 252552, "componentType": 5126, "count": 541, "max": [5.868467807769775, 4.91554594039917, 1.2003298997879028], "min": [-8.303773880004883, 2.6113157272338867, -0.688274621963501], "type": "VEC3"}, {"bufferView": 2, "byteOffset": 259044, "componentType": 5126, "count": 541, "max": [1.0, 1.0, 1.0], "min": [-1.0, -1.0, -1.0], "type": "VEC3"}, {"bufferView": 1, "byteOffset": 49164, "componentType": 5125, "count": 786, "type": "SCALAR"}, {"bufferView": 2, "byteOffset": 265536, "componentType": 5126, "count": 1674, "max": [14.225253105163574, 5.800052165985107, 1.3060699701309204], "min": [-8.464661598205566, 2.746476650238037, -0.5501137375831604], "type": "VEC3"}, {"bufferView": 2, "byteOffset": 285624, "componentType": 5126, "count": 1674, "max": [1.0, 1.0, 1.0], "min": [-1.0, -1.0, -1.0], "type": "VEC3"}, {"bufferView": 1, "byteOffset": 52308, "componentType": 5125, "count": 2148, "type": "SCALAR"}, {"bufferView": 2, "byteOffset": 305712, "componentType": 5126, "count": 1743, "max": [0.5389120578765869, 3.7771949768066406, 0.5808553695678711], "min": [-2.9723122119903564, -2.9615888595581055, -0.5808552503585815], "type": "VEC3"}, {"bufferView": 2, "byteOffset": 326628, "componentType": 5126, "count": 1743, "max": [0.9999998211860657, 1.0, 1.0], "min": [-1.0, -0.9792792201042175, -1.0], "type": "VEC3"}, {"bufferView": 1, "byteOffset": 60900, "componentType": 5125, "count": 1860, "type": "SCALAR"}, {"bufferView": 4, "componentType": 5126, "count": 15, "max": [27.69869613647461, 0.2769870162010193, 5.8011028869486836e-08, 0.0, 4.2471128836041316e-08, 17.426042556762695, 0.0007659726543352008, 0.0, 4.51381261257211e-08, 8.65555023210618e-08, 27.69869613647461, 0.0, 0.7483332753181458, 1.6539270877838135, 0.5154556035995483, 1.0], "min": [-0.2687384784221649, -0.0012175138108432293, -0.2769842743873596, 0.0, -0.1742604374885559, -0.1742587685585022, -0.17426042258739471, 0.0, -0.2769869863986969, -7.519634692698673e-08, -1.7489797983216704e-06, 0.0, -0.15900783240795135, -0.4840850234031677, -0.8734647035598755, 1.0], "type": "MAT4"}, {"bufferView": 0, "componentType": 5123, "count": 2824, "type": "VEC4"}, {"bufferView": 3, "componentType": 5126, "count": 2824, "max": [1.0, 0.0, 0.0, 0.0], "min": [1.0, 0.0, 0.0, 0.0], "type": "VEC4"}, {"bufferView": 0, "byteOffset": 22592, "componentType": 5123, "count": 1133, "type": "VEC4"}, {"bufferView": 3, "byteOffset": 45184, "componentType": 5126, "count": 1133, "max": [1.0, 0.0, 0.0, 0.0], "min": [1.0, 0.0, 0.0, 0.0], "type": "VEC4"}, {"bufferView": 0, "byteOffset": 31656, "componentType": 5123, "count": 137, "type": "VEC4"}, {"bufferView": 3, "byteOffset": 63312, "componentType": 5126, "count": 137, "max": [1.0, 0.0, 0.0, 0.0], "min": [1.0, 0.0, 0.0, 0.0], "type": "VEC4"}, {"bufferView": 0, "byteOffset": 32752, "componentType": 5123, "count": 348, "type": "VEC4"}, {"bufferView": 3, "byteOffset": 65504, "componentType": 5126, "count": 348, "max": [1.0, 0.0, 0.0, 0.0], "min": [1.0, 0.0, 0.0, 0.0], "type": "VEC4"}, {"bufferView": 0, "byteOffset": 35536, "componentType": 5123, "count": 1582, "type": "VEC4"}, {"bufferView": 3, "byteOffset": 71072, "componentType": 5126, "count": 1582, "max": [1.0, 0.0, 0.0, 0.0], "min": [1.0, 0.0, 0.0, 0.0], "type": "VEC4"}, {"bufferView": 0, "byteOffset": 48192, "componentType": 5123, "count": 1299, "type": "VEC4"}, {"bufferView": 3, "byteOffset": 96384, "componentType": 5126, "count": 1299, "max": [1.0, 0.0, 0.0, 0.0], "min": [1.0, 0.0, 0.0, 0.0], "type": "VEC4"}, {"bufferView": 0, "byteOffset": 58584, "componentType": 5123, "count": 3200, "type": "VEC4"}, {"bufferView": 3, "byteOffset": 117168, "componentType": 5126, "count": 3200, "max": [1.0, 0.0, 0.0, 0.0], "min": [1.0, 0.0, 0.0, 0.0], "type": "VEC4"}, {"bufferView": 0, "byteOffset": 84184, "componentType": 5123, "count": 541, "type": "VEC4"}, {"bufferView": 3, "byteOffset": 168368, "componentType": 5126, "count": 541, "max": [1.0, 0.0, 0.0, 0.0], "min": [1.0, 0.0, 0.0, 0.0], "type": "VEC4"}, {"bufferView": 0, "byteOffset": 88512, "componentType": 5123, "count": 1674, "type": "VEC4"}, {"bufferView": 3, "byteOffset": 177024, "componentType": 5126, "count": 1674, "max": [1.0, 0.0, 0.0, 0.0], "min": [1.0, 0.0, 0.0, 0.0], "type": "VEC4"}, {"bufferView": 0, "byteOffset": 101904, "componentType": 5123, "count": 1743, "type": "VEC4"}, {"bufferView": 3, "byteOffset": 203808, "componentType": 5126, "count": 1743, "max": [1.0, 0.0, 0.0, 0.0], "min": [1.0, 0.0, 0.0, 0.0], "type": "VEC4"}], "asset": {"extras": {"author": "TastyTony (https://sketchfab.com/TastyTony)", "license": "CC-BY-4.0 (http://creativecommons.org/licenses/by/4.0/)", "source": "https://sketchfab.com/3d-models/low-poly-imi-galil-4bc3146c48d34171ab0ea879757000b7", "title": "Low-Poly IMI Galil"}, "generator": "Sketchfab-15.25.0", "version": "2.0"}, "bufferViews": [{"buffer": 0, "byteLength": 115848, "byteStride": 8, "name": "shortBufferViews", "target": 34962}, {"buffer": 0, "byteLength": 68340, "byteOffset": 115848, "name": "floatBufferViews", "target": 34963}, {"buffer": 0, "byteLength": 347544, "byteOffset": 184188, "byteStride": 12, "name": "floatBufferViews", "target": 34962}, {"buffer": 0, "byteLength": 231696, "byteOffset": 531732, "byteStride": 16, "name": "floatBufferViews", "target": 34962}, {"buffer": 0, "byteLength": 960, "byteOffset": 763428, "name": "floatBufferViews"}], "buffers": [{"byteLength": 764388, "uri": "scene.bin"}], "extensionsUsed": ["KHR_materials_specular"], "materials": [{"doubleSided": true, "extensions": {"KHR_materials_specular": {"specularColorFactor": [1.0, 1.0, 1.0], "specularFactor": 0.0}}, "name": "Material.005", "pbrMetallicRoughness": {"baseColorFactor": [0.019006222230442703, 0.019006222230442703, 0.019006222230442703, 1.0], "metallicFactor": 0.0}}, {"doubleSided": true, "name": "Material.009", "pbrMetallicRoughness": {"baseColorFactor": [0.8, 0.8, 0.8, 1.0], "metallicFactor": 0.0, "roughnessFactor": 0.9577051495}}, {"doubleSided": true, "name": "Material.008", "pbrMetallicRoughness": {"baseColorFactor": [0.8, 0.8, 0.8, 1.0], "metallicFactor": 0.0, "roughnessFactor": 0.9577051495}}, {"doubleSided": true, "name": "Material.007", "pbrMetallicRoughness": {"baseColorFactor": [0.8, 0.8, 0.8, 1.0], "metallicFactor": 0.0, "roughnessFactor": 0.9577051495}}, {"doubleSided": true, "extensions": {"KHR_materials_specular": {"specularColorFactor": [1.0, 1.0, 1.0], "specularFactor": 0.0}}, "name": "Material.001", "pbrMetallicRoughness": {"baseColorFactor": [0.03985909774662207, 0.03985909774662207, 0.03985909774662207, 1.0], "metallicFactor": 0.0}}, {"doubleSided": true, "extensions": {"KHR_materials_specular": {"specularColorFactor": [1.0, 1.0, 1.0], "specularFactor": 0.0}}, "name": "Material.003", "pbrMetallicRoughness": {"baseColorFactor": [0.06518791730249957, 0.06518791730249957, 0.06518791730249957, 1.0], "metallicFactor": 0.0}}, {"doubleSided": true, "extensions": {"KHR_materials_specular": {"specularColorFactor": [1.0, 1.0, 1.0], "specularFactor": 0.0}}, "name": "Material", "pbrMetallicRoughness": {"baseColorFactor": [0.038359555392530074, 0.038359555392530074, 0.038359555392530074, 1.0], "metallicFactor": 0.0}}, {"doubleSided": true, "extensions": {"KHR_materials_specular": {"specularColorFactor": [1.0, 1.0, 1.0], "specularFactor": 0.0}}, "name": "Material.004", "pbrMetallicRoughness": {"baseColorFactor": [0.08917682926829268, 0.08917682926829268, 0.08917682926829268, 1.0], "metallicFactor": 0.0}}, {"doubleSided": true, "extensions": {"KHR_materials_specular": {"specularColorFactor": [1.0, 1.0, 1.0], "specularFactor": 0.0}}, "name": "Material.002", "pbrMetallicRoughness": {"baseColorFactor": [0.056433612965842865, 0.056433612965842865, 0.056433612965842865, 1.0], "metallicFactor": 0.0}}, {"doubleSided": true, "extensions": {"KHR_materials_specular": {"specularColorFactor": [1.0, 1.0, 1.0], "specularFactor": 0.0}}, "name": "Material.006", "pbrMetallicRoughness": {"baseColorFactor": [0.08429878048780488, 0.08429878048780488, 0.08429878048780488, 1.0], "metallicFactor": 0.0}}], "meshes": [{"name": "Cube.009_Material.005_0", "primitives": [{"attributes": {"JOINTS_0": 31, "NORMAL": 1, "POSITION": 0, "WEIGHTS_0": 32}, "indices": 2, "material": 0, "mode": 4}]}, {"name": "Cube.009_Material.009_0", "primitives": [{"attributes": {"JOINTS_0": 33, "NORMAL": 4, "POSITION": 3, "WEIGHTS_0": 34}, "indices": 5, "material": 1, "mode": 4}]}, {"name": "Cube.009_Material.008_0", "primitives": [{"attributes": {"JOINTS_0": 35, "NORMAL": 7, "POSITION": 6, "WEIGHTS_0": 36}, "indices": 8, "material": 2, "mode": 4}]}, {"name": "Cube.009_Material.007_0", "primitives": [{"attributes": {"JOINTS_0": 37, "NORMAL": 10, "POSITION": 9, "WEIGHTS_0": 38}, "indices": 11, "material": 3, "mode": 4}]}, {"name": "Cube.009_Material.001_0", "primitives": [{"attributes": {"JOINTS_0": 39, "NORMAL": 13, "POSITION": 12, "WEIGHTS_0": 40}, "indices": 14, "material": 4, "mode": 4}]}, {"name": "Cube.009_Material.003_0", "primitives": [{"attributes": {"JOINTS_0": 41, "NORMAL": 16, "POSITION": 15, "WEIGHTS_0": 42}, "indices": 17, "material": 5, "mode": 4}]}, {"name": "Cube.009_Material_0", "primitives": [{"attributes": {"JOINTS_0": 43, "NORMAL": 19, "POSITION": 18, "WEIGHTS_0": 44}, "indices": 20, "material": 6, "mode": 4}]}, {"name": "Cube.009_Material.004_0", "primitives": [{"attributes": {"JOINTS_0": 45, "NORMAL": 22, "POSITION": 21, "WEIGHTS_0": 46}, "indices": 23, "material": 7, "mode": 4}]}, {"name": "Cube.009_Material.002_0", "primitives": [{"attributes": {"JOINTS_0": 47, "NORMAL": 25, "POSITION": 24, "WEIGHTS_0": 48}, "indices": 26, "material": 8, "mode": 4}]}, {"name": "Cube.009_Material.006_0", "primitives": [{"attributes": {"JOINTS_0": 49, "NORMAL": 28, "POSITION": 27, "WEIGHTS_0": 50}, "indices": 29, "material": 9, "mode": 4}]}], "nodes": [{"children": [1], "matrix": [1.0, 0.0, 0.0, 0.0, 0.0, 2.220446049250313e-16, -1.0, 0.0, 0.0, 1.0, 2.220446049250313e-16, 0.0, 0.0, 0.0, 0.0, 1.0], "name": "Sketchfab_model"}, {"children": [2], "matrix": [1.0, 0.0, 0.0, 0.0, 0.0, 0.0, 1.0, 0.0, 0.0, -1.0, 0.0, 0.0, 0.0, 0.0, 0.0, 1.0], "name": "0609e4c346cf45949c40854c59f98ada.fbx"}, {"children": [3, 31, 34], "name": "RootNode"}, {"children": [4], "matrix": [7.549789970973109e-06, -99.99999999999967, 2.980231184057658e-06, 0.0, -2.8212996699972237e-05, -2.980233304583635e-06, -99.99999999999596, 0.0, 99.99999999999572, 7.549789121652495e-06, -2.8212996916465727e-05, 0.0, 48.40848922729492, 60.170352935791016, 8.452352631138638e-06, 1.0], "name": "Armature"}, {"children": [5, 21, 22, 23, 24, 25, 26, 27, 28, 29, 30, 20], "name": "Object_4"}, {"children": [6], "name": "_rootJoint"}, {"children": [7, 9, 14, 16, 18], "name": "body_00", "rotation": [0.7071068286895752, 1.1281869781330238e-23, -4.2630106427015896e-24, 0.7071067094802856]}, {"children": [8], "name": "bolt_01", "rotation": [-2.6469779601696886e-23, 3.308722450212111e-24, -1.862645149230957e-09, 1.0], "translation": [-0.14662981033325195, -1.2205922603607178, -1.5887883364484878e-07]}, {"name": "bolt_end_011", "rotation": [6.617444900424222e-24, -0.0, -4.9630801254440926e-24, 1.0], "translation": [0.0, 0.782932698726654, 1.6543612251060553e-23]}, {"children": [10, 12], "name": "mag_02", "rotation": [-8.071081936122937e-08, 4.2353342166734365e-08, -0.6155393123626709, 0.7881062030792236], "scale": [0.9999999403953552, 0.9999999403953552, 1.0], "translation": [0.18524742126464844, -0.7519446611404419, -1.625540164695849e-07]}, {"children": [11], "name": "bullet_03", "rotation": [8.071082646665673e-08, -4.2353342166734365e-08, 0.6155393123626709, 0.7881062030792236], "scale": [1.0, 1.0000001192092896, 1.0], "translation": [0.4020378589630127, -0.33030667901039124, -1.0553558382753181e-07]}, {"name": "bullet_end_010", "rotation": [6.617444900424222e-24, -0.0, -3.3444113064252145e-25, 1.0], "translation": [-1.1102230246251565e-16, 0.45468491315841675, 6.617444900424222e-24]}, {"children": [13], "name": "bullets_04", "rotation": [8.071081936122937e-08, -4.2353345719448043e-08, 0.6155392527580261, 0.7881062030792236], "scale": [0.9999999403953552, 0.9999999403953552, 1.0], "translation": [0.4215088188648224, -0.23278924822807312, -1.0139021355826117e-07]}, {"name": "bullets_end_08", "rotation": [-6.617444900424222e-24, -3.308722450212111e-24, -1.6960201806498718e-24, 1.0], "translation": [0.0, 0.45468491315841675, 1.3234889800848443e-23]}, {"children": [15], "name": "safety_05", "rotation": [0.02701682038605213, 0.7065904140472412, -0.027016814798116684, 0.7065905332565308], "translation": [-0.03173190355300903, -2.004924774169922, -2.9996323291925364e-07]}, {"name": "safety_end_012", "rotation": [3.700371377150349e-18, -4.897398002968803e-41, -1.3234889800848443e-23, 1.0], "translation": [0.0, 0.8052709698677063, 1.1102230246251565e-16]}, {"children": [17], "name": "selector_06", "rotation": [5.890003151876044e-08, 0.7071066498756409, -5.890001375519205e-08, 0.70710688829422], "scale": [1.0, 0.9999999403953552, 1.0], "translation": [0.25679710507392883, -2.138011932373047, -3.768606120502227e-07]}, {"name": "selector_end_09", "rotation": [-5.1344305748194116e-24, -0.0, 3.3087224502121107e-23, 1.0], "translation": [1.3234889800848443e-23, 0.179856538772583, 5.551115123125783e-17]}, {"children": [19], "name": "magrelease_07", "rotation": [0.49026766419410706, 0.5095496773719788, -0.4902645945549011, 0.5095462799072266], "scale": [0.9999999403953552, 0.9999998211860657, 0.9999998807907104], "translation": [0.35940128564834595, -1.3564929962158203, -2.8158009968137776e-07]}, {"name": "magrelease_end_013", "rotation": [9.993762482342634e-19, -2.6453712409523897e-41, -2.6469779601696886e-23, 1.0], "translation": [-8.470329472543003e-22, 0.23469612002372742, 0.0]}, {"matrix": [27.698695659639004, 3.036534760326461e-14, 1.9112857997660715e-14, 0.0, 1.2024446033314375e-14, 1.0670373436986228e-15, -17.426042258739788, 0.0, -3.036534760326406e-14, 27.698695659638503, 1.696055949006649e-15, 0.0, 60.835050009876525, 61.88878706652872, 9.544542511678866e-06, 1.0], "name": "Object_20"}, {"mesh": 0, "name": "Object_21", "skin": 0}, {"mesh": 1, "name": "Object_22", "skin": 0}, {"mesh": 2, "name": "Object_23", "skin": 0}, {"mesh": 3, "name": "Object_24", "skin": 0}, {"mesh": 4, "name": "Object_25", "skin": 0}, {"mesh": 5, "name": "Object_26", "skin": 0}, {"mesh": 6, "name": "Object_27", "skin": 0}, {"mesh": 7, "name": "Object_28", "skin": 0}, {"mesh": 8, "name": "Object_29", "skin": 0}, {"mesh": 9, "name": "Object_30", "skin": 0}, {"children": [32], "matrix": [0.4696982222377133, 84.82100004156383, -52.96392485011905, 0.0, 0.00034756002839642086, 52.96450771032142, 84.82193656644786, 0.0, 99.99888928190175, -0.398591179142372, 0.2484785282830962, 0.0, 5.085849761962891, 1468.3265380859375, 2250.285888671875, 1.0], "name": "Lamp"}, {"children": [33], "matrix": [1.0, 0.0, 0.0, 0.0, 0.0, 2.220446049250313e-16, 1.0, 0.0, 0.0, -1.0, 2.220446049250313e-16, 0.0, 0.0, 0.0, 0.0, 1.0], "name": "Object_32"}, {"name": "Object_33"}, {"children": [35], "matrix": [1.9470721841536002e-05, 0.0, -100.00001525878717, 0.0, 5.024296971964058e-13, 100.00001525878906, 9.782667388797899e-20, 0.0, 99.99999999999811, -5.024296205317393e-13, 1.9470718870540082e-05, 0.0, -4.4361419677734375, 4.218125343322754, 1075.3447265625, 1.0], "name": "Camera"}, {"name": "Object_35"}], "scene": 0, "scenes": [{"name": "Sketchfab_Scene", "nodes": [0]}], "skins": [{"inverseBindMatrices": 30, "joints": [5, 6, 7, 8, 9, 10, 11, 12, 13, 14, 15, 16, 17, 18, 19], "skeleton": 5}]}