{"accessors": [{"bufferView": 3, "componentType": 5126, "count": 3356, "max": [48.453792572021484, 9.349559783935547, 1.7526838779449463], "min": [-33.719932556152344, -4.692852973937988, -1.1021002531051636], "type": "VEC3"}, {"bufferView": 3, "byteOffset": 40272, "componentType": 5126, "count": 3356, "max": [1.0, 1.0, 1.0], "min": [-1.0, -1.0, -1.0], "type": "VEC3"}, {"bufferView": 2, "componentType": 5126, "count": 3356, "max": [1.0, 1.0], "min": [-8.940696716308594e-08, 0.0], "type": "VEC2"}, {"bufferView": 1, "componentType": 5125, "count": 3951, "type": "SCALAR"}, {"bufferView": 3, "byteOffset": 80544, "componentType": 5126, "count": 1994, "max": [17.368013381958008, 8.616506576538086, 1.2550806999206543], "min": [-33.14137268066406, -4.713157653808594, -1.2550784349441528], "type": "VEC3"}, {"bufferView": 3, "byteOffset": 104472, "componentType": 5126, "count": 1994, "max": [1.0, 1.0, 1.0], "min": [-1.0, -1.0, -1.0], "type": "VEC3"}, {"bufferView": 2, "byteOffset": 26848, "componentType": 5126, "count": 1994, "max": [0.875, 1.0], "min": [0.0, 0.0], "type": "VEC2"}, {"bufferView": 1, "byteOffset": 15804, "componentType": 5125, "count": 2253, "type": "SCALAR"}, {"bufferView": 3, "byteOffset": 128400, "componentType": 5126, "count": 529, "max": [48.24260330200195, 8.452350616455078, 1.3855679035186768], "min": [-15.127191543579102, 2.9734511375427246, -1.0614051818847656], "type": "VEC3"}, {"bufferView": 3, "byteOffset": 134748, "componentType": 5126, "count": 529, "max": [1.0, 0.8864797949790955, 1.0], "min": [-1.0, -0.886479914188385, -1.0], "type": "VEC3"}, {"bufferView": 2, "byteOffset": 42800, "componentType": 5126, "count": 529, "max": [0.0, 0.0], "min": [0.0, 0.0], "type": "VEC2"}, {"bufferView": 1, "byteOffset": 24816, "componentType": 5125, "count": 600, "type": "SCALAR"}, {"bufferView": 3, "byteOffset": 141096, "componentType": 5126, "count": 1727, "max": [49.84189987182617, 9.539285659790039, 1.4865846633911133], "min": [-17.826457977294922, 4.129391670227051, -1.1570227146148682], "type": "VEC3"}, {"bufferView": 3, "byteOffset": 161820, "componentType": 5126, "count": 1727, "max": [1.0, 0.9999743103981018, 1.0], "min": [-1.0, -0.995587170124054, -1.0], "type": "VEC3"}, {"bufferView": 2, "byteOffset": 47032, "componentType": 5126, "count": 1727, "max": [1.0, 1.0], "min": [-8.940696716308594e-08, 0.0], "type": "VEC2"}, {"bufferView": 1, "byteOffset": 27216, "componentType": 5125, "count": 1872, "type": "SCALAR"}, {"bufferView": 3, "byteOffset": 182544, "componentType": 5126, "count": 905, "max": [18.069387435913086, 7.990739345550537, 3.123957395553589], "min": [-3.8214893341064453, 4.735415935516357, -0.7549933195114136], "type": "VEC3"}, {"bufferView": 3, "byteOffset": 193404, "componentType": 5126, "count": 905, "max": [1.0, 1.0, 1.0], "min": [-1.0, -1.0, -1.0], "type": "VEC3"}, {"bufferView": 2, "byteOffset": 60848, "componentType": 5126, "count": 905, "max": [0.0, 0.0], "min": [0.0, 0.0], "type": "VEC2"}, {"bufferView": 1, "byteOffset": 34704, "componentType": 5125, "count": 996, "type": "SCALAR"}, {"bufferView": 3, "byteOffset": 204264, "componentType": 5126, "count": 1982, "max": [49.10076141357422, 9.15424919128418, 0.9067182540893555], "min": [-15.641186714172363, 0.41289520263671875, -0.7933715581893921], "type": "VEC3"}, {"bufferView": 3, "byteOffset": 228048, "componentType": 5126, "count": 1982, "max": [1.0, 1.0, 1.0], "min": [-1.0, -1.0, -1.0], "type": "VEC3"}, {"bufferView": 2, "byteOffset": 68088, "componentType": 5126, "count": 1982, "max": [0.0, 0.0], "min": [0.0, 0.0], "type": "VEC2"}, {"bufferView": 1, "byteOffset": 38688, "componentType": 5125, "count": 2040, "type": "SCALAR"}, {"bufferView": 3, "byteOffset": 251832, "componentType": 5126, "count": 2009, "max": [5.221635818481445, 9.350543975830078, 1.4961647987365723], "min": [-16.204837799072266, -0.24175262451171875, -1.288414478302002], "type": "VEC3"}, {"bufferView": 3, "byteOffset": 275940, "componentType": 5126, "count": 2009, "max": [1.0, 1.0, 1.0], "min": [-1.0, -1.0, -1.0], "type": "VEC3"}, {"bufferView": 2, "byteOffset": 83944, "componentType": 5126, "count": 2009, "max": [1.0, 1.0], "min": [-8.940696716308594e-08, 0.0], "type": "VEC2"}, {"bufferView": 1, "byteOffset": 46848, "componentType": 5125, "count": 2574, "type": "SCALAR"}, {"bufferView": 3, "byteOffset": 300048, "componentType": 5126, "count": 144, "max": [-3.4759883880615234, 4.695499420166016, 0.5076910257339478], "min": [-3.572817802429199, 3.449125289916992, -0.5261199474334717], "type": "VEC3"}, {"bufferView": 3, "byteOffset": 301776, "componentType": 5126, "count": 144, "max": [0.03749770671129227, 0.8566282987594604, 1.0], "min": [-0.999614417552948, -0.8566340804100037, -1.0], "type": "VEC3"}, {"bufferView": 2, "byteOffset": 100016, "componentType": 5126, "count": 144, "max": [0.0, 0.0], "min": [0.0, 0.0], "type": "VEC2"}, {"bufferView": 1, "byteOffset": 57144, "componentType": 5125, "count": 144, "type": "SCALAR"}, {"bufferView": 3, "byteOffset": 303504, "componentType": 5126, "count": 466, "max": [0.7129325866699219, 4.851019859313965, 0.5169824361801147], "min": [-0.5918216705322266, 3.4577183723449707, -0.5052278637886047], "type": "VEC3"}, {"bufferView": 3, "byteOffset": 309096, "componentType": 5126, "count": 466, "max": [0.9996140003204346, 0.8571086525917053, 0.9999538064002991], "min": [-0.007763965986669064, -0.8553930521011353, -0.9999292492866516], "type": "VEC3"}, {"bufferView": 2, "byteOffset": 101168, "componentType": 5126, "count": 466, "max": [0.0, 0.0], "min": [0.0, 0.0], "type": "VEC2"}, {"bufferView": 1, "byteOffset": 57720, "componentType": 5125, "count": 468, "type": "SCALAR"}, {"bufferView": 3, "byteOffset": 314688, "componentType": 5126, "count": 216, "max": [10.527862548828125, 9.127599716186523, 1.0091718435287476], "min": [-5.07463264465332, -13.060318946838379, -1.009169578552246], "type": "VEC3"}, {"bufferView": 3, "byteOffset": 317280, "componentType": 5126, "count": 216, "max": [1.0, 0.896181046962738, 1.0], "min": [-1.0, -0.8961400985717773, -1.0], "type": "VEC3"}, {"bufferView": 2, "byteOffset": 104896, "componentType": 5126, "count": 216, "max": [0.0, 0.0], "min": [0.0, 0.0], "type": "VEC2"}, {"bufferView": 1, "byteOffset": 59592, "componentType": 5125, "count": 246, "type": "SCALAR"}, {"bufferView": 3, "byteOffset": 319872, "componentType": 5126, "count": 5083, "max": [10.708158493041992, 9.12424087524414, 0.8948397040367126], "min": [-5.086825370788574, -13.17324161529541, -1.3069336414337158], "type": "VEC3"}, {"bufferView": 3, "byteOffset": 380868, "componentType": 5126, "count": 5083, "max": [1.0, 1.0, 1.0], "min": [-1.0, -1.0, -1.0], "type": "VEC3"}, {"bufferView": 2, "byteOffset": 106624, "componentType": 5126, "count": 5083, "max": [1.0, 1.0], "min": [-8.940696716308594e-08, 0.0], "type": "VEC2"}, {"bufferView": 1, "byteOffset": 60576, "componentType": 5125, "count": 5262, "type": "SCALAR"}, {"bufferView": 3, "byteOffset": 441864, "componentType": 5126, "count": 403, "max": [-10.311319351196289, 2.698652744293213, 0.8777408599853516], "min": [-15.83951187133789, -5.632419586181641, -0.8777406811714172], "type": "VEC3"}, {"bufferView": 3, "byteOffset": 446700, "componentType": 5126, "count": 403, "max": [1.0, 0.9992443919181824, 1.0], "min": [-0.9999993443489075, -0.9838948845863342, -1.0], "type": "VEC3"}, {"bufferView": 2, "byteOffset": 147288, "componentType": 5126, "count": 403, "max": [0.0, 0.0], "min": [0.0, 0.0], "type": "VEC2"}, {"bufferView": 1, "byteOffset": 81624, "componentType": 5125, "count": 408, "type": "SCALAR"}, {"bufferView": 5, "componentType": 5126, "count": 13, "max": [13.154792785644531, 0.1315479278564453, 0.1315242350101471, 0.0, 0.0, 14.057599067687988, 0.0022506832610815763, 0.0, 0.13154110312461853, 4.378696161211337e-08, 13.154792785644531, 0.0, 0.8403270244598389, 1.4808348417282104, 0.6406187415122986, 1.0], "min": [-0.13019302487373352, 0.0, -0.010116741061210632, 0.0, -0.14057599008083344, -0.14055795967578888, -0.14015966653823853, 0.0, -0.1315479427576065, -6.068449209806204e-08, -3.3774540941777786e-09, 0.0, -0.006525443866848946, -1.122316837310791, -2.3565149831483723e-07, 1.0], "type": "MAT4"}, {"bufferView": 0, "componentType": 5123, "count": 3356, "type": "VEC4"}, {"bufferView": 4, "componentType": 5126, "count": 3356, "max": [1.0, 0.0, 0.0, 0.0], "min": [1.0, 0.0, 0.0, 0.0], "type": "VEC4"}, {"bufferView": 0, "byteOffset": 26848, "componentType": 5123, "count": 1994, "type": "VEC4"}, {"bufferView": 4, "byteOffset": 53696, "componentType": 5126, "count": 1994, "max": [1.0, 0.0, 0.0, 0.0], "min": [1.0, 0.0, 0.0, 0.0], "type": "VEC4"}, {"bufferView": 0, "byteOffset": 42800, "componentType": 5123, "count": 529, "type": "VEC4"}, {"bufferView": 4, "byteOffset": 85600, "componentType": 5126, "count": 529, "max": [1.0, 0.0, 0.0, 0.0], "min": [1.0, 0.0, 0.0, 0.0], "type": "VEC4"}, {"bufferView": 0, "byteOffset": 47032, "componentType": 5123, "count": 1727, "type": "VEC4"}, {"bufferView": 4, "byteOffset": 94064, "componentType": 5126, "count": 1727, "max": [1.0, 0.0, 0.0, 0.0], "min": [1.0, 0.0, 0.0, 0.0], "type": "VEC4"}, {"bufferView": 0, "byteOffset": 60848, "componentType": 5123, "count": 905, "type": "VEC4"}, {"bufferView": 4, "byteOffset": 121696, "componentType": 5126, "count": 905, "max": [1.0, 0.0, 0.0, 0.0], "min": [1.0, 0.0, 0.0, 0.0], "type": "VEC4"}, {"bufferView": 0, "byteOffset": 68088, "componentType": 5123, "count": 1982, "type": "VEC4"}, {"bufferView": 4, "byteOffset": 136176, "componentType": 5126, "count": 1982, "max": [1.0, 0.0, 0.0, 0.0], "min": [1.0, 0.0, 0.0, 0.0], "type": "VEC4"}, {"bufferView": 0, "byteOffset": 83944, "componentType": 5123, "count": 2009, "type": "VEC4"}, {"bufferView": 4, "byteOffset": 167888, "componentType": 5126, "count": 2009, "max": [1.0, 0.0, 0.0, 0.0], "min": [1.0, 0.0, 0.0, 0.0], "type": "VEC4"}, {"bufferView": 0, "byteOffset": 100016, "componentType": 5123, "count": 144, "type": "VEC4"}, {"bufferView": 4, "byteOffset": 200032, "componentType": 5126, "count": 144, "max": [1.0, 0.0, 0.0, 0.0], "min": [1.0, 0.0, 0.0, 0.0], "type": "VEC4"}, {"bufferView": 0, "byteOffset": 101168, "componentType": 5123, "count": 466, "type": "VEC4"}, {"bufferView": 4, "byteOffset": 202336, "componentType": 5126, "count": 466, "max": [1.0, 0.0, 0.0, 0.0], "min": [1.0, 0.0, 0.0, 0.0], "type": "VEC4"}, {"bufferView": 0, "byteOffset": 104896, "componentType": 5123, "count": 216, "type": "VEC4"}, {"bufferView": 4, "byteOffset": 209792, "componentType": 5126, "count": 216, "max": [1.0, 0.0, 0.0, 0.0], "min": [1.0, 0.0, 0.0, 0.0], "type": "VEC4"}, {"bufferView": 0, "byteOffset": 106624, "componentType": 5123, "count": 5083, "type": "VEC4"}, {"bufferView": 4, "byteOffset": 213248, "componentType": 5126, "count": 5083, "max": [1.0, 0.0, 0.0, 0.0], "min": [1.0, 0.0, 0.0, 0.0], "type": "VEC4"}, {"bufferView": 0, "byteOffset": 147288, "componentType": 5123, "count": 403, "type": "VEC4"}, {"bufferView": 4, "byteOffset": 294576, "componentType": 5126, "count": 403, "max": [1.0, 0.0, 0.0, 0.0], "min": [1.0, 0.0, 0.0, 0.0], "type": "VEC4"}], "asset": {"extras": {"author": "TastyTony (https://sketchfab.com/TastyTony)", "license": "CC-BY-4.0 (http://creativecommons.org/licenses/by/4.0/)", "source": "https://sketchfab.com/3d-models/low-poly-rpk-acdc6fe399514c41aa4130f8044875fb", "title": "Low-Poly RPK"}, "generator": "Sketchfab-15.10.0", "version": "2.0"}, "bufferViews": [{"buffer": 0, "byteLength": 150512, "byteStride": 8, "name": "shortBufferViews", "target": 34962}, {"buffer": 0, "byteLength": 83256, "byteOffset": 150512, "name": "floatBufferViews", "target": 34963}, {"buffer": 0, "byteLength": 150512, "byteOffset": 233768, "byteStride": 8, "name": "floatBufferViews", "target": 34962}, {"buffer": 0, "byteLength": 451536, "byteOffset": 384280, "byteStride": 12, "name": "floatBufferViews", "target": 34962}, {"buffer": 0, "byteLength": 301024, "byteOffset": 835816, "byteStride": 16, "name": "floatBufferViews", "target": 34962}, {"buffer": 0, "byteLength": 832, "byteOffset": 1136840, "name": "floatBufferViews"}], "buffers": [{"byteLength": 1137672, "uri": "scene.bin"}], "extensionsUsed": ["KHR_materials_specular"], "materials": [{"doubleSided": true, "extensions": {"KHR_materials_specular": {"specularColorFactor": [1.0, 1.0, 1.0], "specularFactor": 0.0}}, "name": "Material.005", "pbrMetallicRoughness": {"baseColorFactor": [0.045274390240000004, 0.045274390240000004, 0.045274390240000004, 1.0], "metallicFactor": 0.0}}, {"doubleSided": true, "extensions": {"KHR_materials_specular": {"specularColorFactor": [1.0, 1.0, 1.0], "specularFactor": 0.0}}, "name": "Material.008", "pbrMetallicRoughness": {"baseColorFactor": [0.0925066477, 0.0540393261, 0.0456713071, 1.0], "metallicFactor": 0.0}}, {"doubleSided": true, "extensions": {"KHR_materials_specular": {"specularColorFactor": [1.0, 1.0, 1.0], "specularFactor": 0.0}}, "name": "Material.010", "pbrMetallicRoughness": {"baseColorFactor": [0.06478658536000001, 0.06478658536000001, 0.06478658536000001, 1.0], "metallicFactor": 0.0}}, {"doubleSided": true, "extensions": {"KHR_materials_specular": {"specularColorFactor": [1.0, 1.0, 1.0], "specularFactor": 0.0}}, "name": "Material.006", "pbrMetallicRoughness": {"baseColorFactor": [0.05990853656, 0.05990853656, 0.05990853656, 1.0], "metallicFactor": 0.0}}, {"doubleSided": true, "extensions": {"KHR_materials_specular": {"specularColorFactor": [1.0, 1.0, 1.0], "specularFactor": 0.0}}, "name": "Material.012", "pbrMetallicRoughness": {"baseColorFactor": [0.0693571372, 0.0681022715, 0.063319822, 1.0], "metallicFactor": 0.0}}, {"doubleSided": true, "extensions": {"KHR_materials_specular": {"specularColorFactor": [1.0, 1.0, 1.0], "specularFactor": 0.0}}, "name": "material_0", "pbrMetallicRoughness": {"baseColorFactor": [0.08405839398306064, 0.08405839398306064, 0.08405839398306064, 1.0], "metallicFactor": 0.0}}, {"doubleSided": true, "extensions": {"KHR_materials_specular": {"specularColorFactor": [1.0, 1.0, 1.0], "specularFactor": 0.0}}, "name": "Material", "pbrMetallicRoughness": {"baseColorFactor": [0.045274390240000004, 0.045274390240000004, 0.045274390240000004, 1.0], "metallicFactor": 0.0}}, {"doubleSided": true, "extensions": {"KHR_materials_specular": {"specularColorFactor": [1.0, 1.0, 1.0], "specularFactor": 0.0}}, "name": "Material.003", "pbrMetallicRoughness": {"baseColorFactor": [0.11198088885132926, 0.0931946748001211, 0.0931946748001211, 1.0], "metallicFactor": 0.0}}, {"doubleSided": true, "extensions": {"KHR_materials_specular": {"specularColorFactor": [1.0, 1.0, 1.0], "specularFactor": 0.0}}, "name": "Material.002", "pbrMetallicRoughness": {"baseColorFactor": [0.1138788422272192, 0.08148798336948244, 0.05219487966961739, 1.0], "metallicFactor": 0.0}}, {"doubleSided": true, "extensions": {"KHR_materials_specular": {"specularColorFactor": [1.0, 1.0, 1.0], "specularFactor": 0.0}}, "name": "Material.009", "pbrMetallicRoughness": {"baseColorFactor": [0.05503048784, 0.05503048784, 0.05503048784, 1.0], "metallicFactor": 0.0}}, {"doubleSided": true, "extensions": {"KHR_materials_specular": {"specularColorFactor": [1.0, 1.0, 1.0], "specularFactor": 0.0}}, "name": "Material.004", "pbrMetallicRoughness": {"baseColorFactor": [0.07454268296, 0.07454268296, 0.07454268296, 1.0], "metallicFactor": 0.0}}, {"doubleSided": true, "extensions": {"KHR_materials_specular": {"specularColorFactor": [1.0, 1.0, 1.0], "specularFactor": 0.0}}, "name": "Material.007", "pbrMetallicRoughness": {"baseColorFactor": [0.0631596481, 0.0416926266, 0.0416926266, 1.0], "metallicFactor": 0.0}}], "meshes": [{"name": "Cube_Material.005_0", "primitives": [{"attributes": {"JOINTS_0": 49, "NORMAL": 1, "POSITION": 0, "TEXCOORD_0": 2, "WEIGHTS_0": 50}, "indices": 3, "material": 0, "mode": 4}]}, {"name": "Cube_Material.008_0", "primitives": [{"attributes": {"JOINTS_0": 51, "NORMAL": 5, "POSITION": 4, "TEXCOORD_0": 6, "WEIGHTS_0": 52}, "indices": 7, "material": 1, "mode": 4}]}, {"name": "Cube_Material.010_0", "primitives": [{"attributes": {"JOINTS_0": 53, "NORMAL": 9, "POSITION": 8, "TEXCOORD_0": 10, "WEIGHTS_0": 54}, "indices": 11, "material": 2, "mode": 4}]}, {"name": "Cube_Material.006_0", "primitives": [{"attributes": {"JOINTS_0": 55, "NORMAL": 13, "POSITION": 12, "TEXCOORD_0": 14, "WEIGHTS_0": 56}, "indices": 15, "material": 3, "mode": 4}]}, {"name": "Cube_Material.012_0", "primitives": [{"attributes": {"JOINTS_0": 57, "NORMAL": 17, "POSITION": 16, "TEXCOORD_0": 18, "WEIGHTS_0": 58}, "indices": 19, "material": 4, "mode": 4}]}, {"name": "Cube_Material.001_0", "primitives": [{"attributes": {"JOINTS_0": 59, "NORMAL": 21, "POSITION": 20, "TEXCOORD_0": 22, "WEIGHTS_0": 60}, "indices": 23, "material": 5, "mode": 4}]}, {"name": "Cube_Material_0", "primitives": [{"attributes": {"JOINTS_0": 61, "NORMAL": 25, "POSITION": 24, "TEXCOORD_0": 26, "WEIGHTS_0": 62}, "indices": 27, "material": 6, "mode": 4}]}, {"name": "Cube_Material.003_0", "primitives": [{"attributes": {"JOINTS_0": 63, "NORMAL": 29, "POSITION": 28, "TEXCOORD_0": 30, "WEIGHTS_0": 64}, "indices": 31, "material": 7, "mode": 4}]}, {"name": "Cube_Material.002_0", "primitives": [{"attributes": {"JOINTS_0": 65, "NORMAL": 33, "POSITION": 32, "TEXCOORD_0": 34, "WEIGHTS_0": 66}, "indices": 35, "material": 8, "mode": 4}]}, {"name": "Cube_Material.009_0", "primitives": [{"attributes": {"JOINTS_0": 67, "NORMAL": 37, "POSITION": 36, "TEXCOORD_0": 38, "WEIGHTS_0": 68}, "indices": 39, "material": 9, "mode": 4}]}, {"name": "Cube_Material.004_0", "primitives": [{"attributes": {"JOINTS_0": 69, "NORMAL": 41, "POSITION": 40, "TEXCOORD_0": 42, "WEIGHTS_0": 70}, "indices": 43, "material": 10, "mode": 4}]}, {"name": "Cube_Material.007_0", "primitives": [{"attributes": {"JOINTS_0": 71, "NORMAL": 45, "POSITION": 44, "TEXCOORD_0": 46, "WEIGHTS_0": 72}, "indices": 47, "material": 11, "mode": 4}]}], "nodes": [{"children": [1], "matrix": [1.0, 0.0, 0.0, 0.0, 0.0, 2.220446049250313e-16, -1.0, 0.0, 0.0, 1.0, 2.220446049250313e-16, 0.0, 0.0, 0.0, 0.0, 1.0], "name": "Sketchfab_model"}, {"children": [2], "matrix": [1.0, 0.0, 0.0, 0.0, 0.0, 0.0, 1.0, 0.0, 0.0, -1.0, 0.0, 0.0, 0.0, 0.0, 0.0, 1.0], "name": "c4d5102ee12e4d3d9e382fa35749f167.fbx"}, {"children": [3, 6, 8], "name": "RootNode"}, {"children": [4], "matrix": [-30.788207570223275, 94.97016043903385, -5.72305643150339, 0.0, 93.6215921198667, 31.312432495701362, 15.95401473054428, 0.0, 16.943581567870485, -0.44606137806793705, -98.55311295387841, 0.0, 2235.187255859375, 400.37432861328125, 325.25653076171875, 1.0], "name": "Lamp"}, {"children": [5], "matrix": [1.0, 0.0, 0.0, 0.0, 0.0, 2.220446049250313e-16, 1.0, 0.0, 0.0, -1.0, 2.220446049250313e-16, 0.0, 0.0, 0.0, 0.0, 1.0], "name": "Object_4"}, {"name": "Object_5"}, {"children": [7], "matrix": [-55.63516378934983, -0.942952418571521, -83.08937337894524, 0.0, 3.563998144547747, 99.87448767402996, -3.519830494915972, 0.0, 83.01823829782688, -4.919564934497575, -55.53170257411975, 0.0, 1443.3216552734375, 9.126317977905273, 1872.8909912109375, 1.0], "name": "Camera"}, {"name": "Object_7"}, {"children": [9], "matrix": [7.549789970973109e-06, -99.99999999999967, 2.980231184057658e-06, 0.0, -2.8212996699972237e-05, -2.980233304583635e-06, -99.99999999999596, 0.0, 99.99999999999572, 7.549789121652495e-06, -2.8212996916465727e-05, 0.0, 73.70471954345703, 68.85401916503906, 8.770251952228136e-06, 1.0], "name": "Armature"}, {"children": [10, 24, 25, 26, 27, 28, 29, 30, 31, 32, 33, 34, 35, 23], "name": "Object_9"}, {"children": [11], "name": "_rootJoint"}, {"children": [12, 14, 19, 21], "name": "body_00", "rotation": [0.7071068286895752, 1.1281869781330238e-23, -4.2630106427015896e-24, 0.7071067094802856], "translation": [0.021168727427721024, -4.8920160367060816e-08, 0.38526949286460876]}, {"children": [13], "name": "bolt_01", "rotation": [2.6469779601696886e-23, 1.6543612251060553e-24, 6.617450422450558e-24, 1.0], "translation": [-0.1729556769132614, -1.5498957633972168, -1.949666597056421e-07]}, {"name": "bolt_end_07", "rotation": [1.9852334701272664e-23, 3.308722450212111e-24, 6.1136720154628415e-30, 1.0], "translation": [-1.1102230246251565e-16, 0.8517012596130371, -1.6543612251060553e-24]}, {"children": [15, 17], "name": "mag_02", "rotation": [-1.7606346602860867e-07, -1.3840112167429197e-08, -0.6545401215553284, 0.7560274004936218], "scale": [0.9999999403953552, 0.9999999403953552, 1.0], "translation": [0.13888829946517944, -1.0914180278778076, -1.793215602674536e-07]}, {"children": [16], "name": "bullet_03", "rotation": [1.9940227957704337e-07, -1.14690967834008e-08, 0.6686117053031921, 0.7436116933822632], "translation": [0.4617101550102234, -0.15155817568302155, -2.267474883410614e-07]}, {"name": "bullet_end_08", "rotation": [6.617444900424222e-24, 6.617444900424222e-24, 7.840227949653185e-18, 1.0], "translation": [0.0, 0.49316126108169556, 0.0]}, {"children": [18], "name": "bullets_04", "rotation": [2.0064386774265586e-07, -1.2849982411466954e-08, 0.6686117649078369, 0.7436116933822632], "translation": [0.4618920683860779, -0.04769117757678032, -2.1286543017140502e-07]}, {"name": "bullets_end_09", "rotation": [-1.3234889800848443e-23, 6.617444900424222e-24, -1.565725823941278e-18, 1.0], "translation": [1.1102230246251565e-16, 0.49316132068634033, -6.617444900424222e-24]}, {"children": [20], "name": "magrelease_05", "rotation": [-0.4934502840042114, -0.5014119744300842, -0.49850213527679443, 0.5065457820892334], "scale": [0.9999999403953552, 1.0, 1.0], "translation": [0.48076751828193665, -1.7660387754440308, -3.0678504003844864e-07]}, {"name": "magrelease_end_010", "rotation": [4.836152810321904e-20, 4.6596396925268115e-40, 9.634999775017666e-21, 1.0], "translation": [0.0, 0.30584022402763367, 0.0]}, {"children": [22], "name": "selector_06", "rotation": [0.027210377156734467, 0.7065829038619995, -0.02721036598086357, 0.7065832018852234], "scale": [0.9999999403953552, 1.0, 1.0000001192092896], "translation": [3.647804260253906e-05, -2.5560762882232666, -3.655752323084016e-07]}, {"name": "selector_end_011", "rotation": [4.548677045174639e-19, -2.6469779601696886e-23, -1.3234889800848443e-23, 1.0], "translation": [-1.3234889800848443e-23, 0.9734485745429993, -1.1102230246251565e-16]}, {"matrix": [13.154792785645268, 8.822461277915887e-14, -5.415980164347189e-14, 0.0, -5.787675916051527e-14, 8.607796814469411e-16, -14.057599008083598, 0.0, -8.822461277915726e-14, 13.15479278564503, 8.05498743919344e-16, 0.0, -226.2096462608763, 47.329462196378614, -1.071635008443022e-06, 1.0], "name": "Object_23"}, {"mesh": 0, "name": "Object_24", "skin": 0}, {"mesh": 1, "name": "Object_25", "skin": 0}, {"mesh": 2, "name": "Object_26", "skin": 0}, {"mesh": 3, "name": "Object_27", "skin": 0}, {"mesh": 4, "name": "Object_28", "skin": 0}, {"mesh": 5, "name": "Object_29", "skin": 0}, {"mesh": 6, "name": "Object_30", "skin": 0}, {"mesh": 7, "name": "Object_31", "skin": 0}, {"mesh": 8, "name": "Object_32", "skin": 0}, {"mesh": 9, "name": "Object_33", "skin": 0}, {"mesh": 10, "name": "Object_34", "skin": 0}, {"mesh": 11, "name": "Object_35", "skin": 0}], "scene": 0, "scenes": [{"name": "Sketchfab_Scene", "nodes": [0]}], "skins": [{"inverseBindMatrices": 48, "joints": [10, 11, 12, 13, 14, 15, 16, 17, 18, 19, 20, 21, 22], "skeleton": 10}]}