{"accessors": [{"bufferView": 3, "componentType": 5126, "count": 2935, "max": [0.6525155901908875, 0.1389082819223404, 0.018791653215885162], "min": [-0.29600563645362854, 0.0021661892533302307, -0.018791645765304565], "type": "VEC3"}, {"bufferView": 3, "byteOffset": 35220, "componentType": 5126, "count": 2935, "max": [1.0, 1.0, 1.0], "min": [-1.0, -1.0, -1.0], "type": "VEC3"}, {"bufferView": 2, "componentType": 5126, "count": 2935, "max": [1.0, 1.0000001192092896], "min": [-8.940696716308594e-08, 0.0], "type": "VEC2"}, {"bufferView": 1, "componentType": 5125, "count": 3333, "type": "SCALAR"}, {"bufferView": 3, "byteOffset": 70440, "componentType": 5126, "count": 2207, "max": [0.4163784980773926, 0.15537922084331512, 0.035175126045942307], "min": [-0.299474835395813, 0.008016049861907959, -0.021585790440440178], "type": "VEC3"}, {"bufferView": 3, "byteOffset": 96924, "componentType": 5126, "count": 2207, "max": [1.0, 1.0, 1.0], "min": [-1.0, -1.0, -1.0], "type": "VEC3"}, {"bufferView": 2, "byteOffset": 23480, "componentType": 5126, "count": 2207, "max": [1.0, 1.0], "min": [-8.940696716308594e-08, 0.0], "type": "VEC2"}, {"bufferView": 1, "byteOffset": 13332, "componentType": 5125, "count": 2388, "type": "SCALAR"}, {"bufferView": 3, "byteOffset": 123408, "componentType": 5126, "count": 481, "max": [0.02208668924868107, 0.10847905278205872, 0.022731715813279152], "min": [-0.11766655743122101, 0.0607316829264164, -0.05968819931149483], "type": "VEC3"}, {"bufferView": 3, "byteOffset": 129180, "componentType": 5126, "count": 481, "max": [1.0, 0.9238799214363098, 1.0], "min": [-1.0, -0.9238801002502441, -1.0], "type": "VEC3"}, {"bufferView": 2, "byteOffset": 41136, "componentType": 5126, "count": 481, "max": [1.0, 1.0], "min": [-8.940696716308594e-08, 0.01000000536441803], "type": "VEC2"}, {"bufferView": 1, "byteOffset": 22884, "componentType": 5125, "count": 540, "type": "SCALAR"}, {"bufferView": 3, "byteOffset": 134952, "componentType": 5126, "count": 3835, "max": [0.8148815631866455, 0.1619924008846283, 0.021806571632623672], "min": [-0.31559517979621887, 0.05782061070203781, -0.024890562519431114], "type": "VEC3"}, {"bufferView": 3, "byteOffset": 180972, "componentType": 5126, "count": 3835, "max": [1.0, 1.0, 1.0], "min": [-1.0, -1.0, -1.0], "type": "VEC3"}, {"bufferView": 2, "byteOffset": 44984, "componentType": 5126, "count": 3835, "max": [1.0, 1.0000001192092896], "min": [-8.940696716308594e-08, 0.0], "type": "VEC2"}, {"bufferView": 1, "byteOffset": 25044, "componentType": 5125, "count": 4320, "type": "SCALAR"}, {"bufferView": 3, "byteOffset": 226992, "componentType": 5126, "count": 1056, "max": [0.021432720124721527, 0.1461254358291626, 0.02177830971777439], "min": [-0.30275067687034607, 0.05287899449467659, -0.03177102655172348], "type": "VEC3"}, {"bufferView": 3, "byteOffset": 239664, "componentType": 5126, "count": 1056, "max": [1.0, 1.0, 1.0], "min": [-1.0, -1.0, -1.0], "type": "VEC3"}, {"bufferView": 2, "byteOffset": 75664, "componentType": 5126, "count": 1056, "max": [1.0, 1.0], "min": [-8.940696716308594e-08, 0.0], "type": "VEC2"}, {"bufferView": 1, "byteOffset": 42324, "componentType": 5125, "count": 1212, "type": "SCALAR"}, {"bufferView": 3, "byteOffset": 252336, "componentType": 5126, "count": 1802, "max": [0.014855587854981422, 0.08277227729558945, 0.016110070049762726], "min": [-0.0880284383893013, -0.09638108313083649, -0.016110070049762726], "type": "VEC3"}, {"bufferView": 3, "byteOffset": 273960, "componentType": 5126, "count": 1802, "max": [1.0, 1.0, 1.0], "min": [-1.0, -1.0, -1.0], "type": "VEC3"}, {"bufferView": 2, "byteOffset": 84112, "componentType": 5126, "count": 1802, "max": [0.875, 1.0], "min": [0.125, 0.0], "type": "VEC2"}, {"bufferView": 1, "byteOffset": 47172, "componentType": 5125, "count": 2664, "type": "SCALAR"}, {"bufferView": 3, "byteOffset": 295584, "componentType": 5126, "count": 1633, "max": [0.016252530738711357, 0.10279995203018188, 0.04300056770443916], "min": [-0.6159542798995972, -0.03853960335254669, -0.015187188051640987], "type": "VEC3"}, {"bufferView": 3, "byteOffset": 315180, "componentType": 5126, "count": 1633, "max": [1.0, 0.9941751956939697, 1.0], "min": [-1.0, -0.994175136089325, -1.0], "type": "VEC3"}, {"bufferView": 2, "byteOffset": 98528, "componentType": 5126, "count": 1633, "max": [1.0, 1.0], "min": [0.0, 0.625], "type": "VEC2"}, {"bufferView": 1, "byteOffset": 57828, "componentType": 5125, "count": 1650, "type": "SCALAR"}, {"bufferView": 3, "byteOffset": 334776, "componentType": 5126, "count": 1259, "max": [-0.01770058274269104, 0.08464252948760986, 0.011473247781395912], "min": [-0.0829833522439003, 0.0505712665617466, -0.010230078361928463], "type": "VEC3"}, {"bufferView": 3, "byteOffset": 349884, "componentType": 5126, "count": 1259, "max": [1.0, 0.8660280108451843, 1.0], "min": [-1.0, -0.8660280108451843, -1.0], "type": "VEC3"}, {"bufferView": 2, "byteOffset": 111592, "componentType": 5126, "count": 1259, "max": [1.0, 1.0], "min": [-8.940696716308594e-08, 0.5], "type": "VEC2"}, {"bufferView": 1, "byteOffset": 64428, "componentType": 5125, "count": 1296, "type": "SCALAR"}, {"bufferView": 3, "byteOffset": 364992, "componentType": 5126, "count": 134, "max": [-0.08183067291975021, 0.08021122217178345, 0.00763561949133873], "min": [-0.08293484151363373, 0.05500257760286331, -0.006392450537532568], "type": "VEC3"}, {"bufferView": 3, "byteOffset": 366600, "componentType": 5126, "count": 134, "max": [2.047378984570969e-06, 0.8660275340080261, 1.0], "min": [-1.0, -0.8660274147987366, -1.0], "type": "VEC3"}, {"bufferView": 2, "byteOffset": 121664, "componentType": 5126, "count": 134, "max": [1.0, 0.5], "min": [-8.940696716308594e-08, 0.01000000536441803], "type": "VEC2"}, {"bufferView": 1, "byteOffset": 69612, "componentType": 5125, "count": 144, "type": "SCALAR"}, {"bufferView": 3, "byteOffset": 368208, "componentType": 5126, "count": 452, "max": [0.007285049185156822, 0.08170183002948761, 0.008926508948206902], "min": [-0.01770058274269104, 0.05351197347044945, -0.007683370262384415], "type": "VEC3"}, {"bufferView": 3, "byteOffset": 373632, "componentType": 5126, "count": 452, "max": [1.0, 0.8660258054733276, 1.0], "min": [-2.9965187877678545e-06, -0.8660258054733276, -1.0], "type": "VEC3"}, {"bufferView": 2, "byteOffset": 122736, "componentType": 5126, "count": 452, "max": [1.0, 1.0], "min": [-8.940696716308594e-08, 0.01000000536441803], "type": "VEC2"}, {"bufferView": 1, "byteOffset": 70188, "componentType": 5125, "count": 468, "type": "SCALAR"}, {"bufferView": 3, "byteOffset": 379056, "componentType": 5126, "count": 166, "max": [0.01510978676378727, 0.13484281301498413, 0.0186662208288908], "min": [-0.25645309686660767, 0.10224255174398422, -0.0186662208288908], "type": "VEC3"}, {"bufferView": 3, "byteOffset": 381048, "componentType": 5126, "count": 166, "max": [1.0, 0.9553649425506592, 0.9999789595603943], "min": [-1.0, -0.9453620314598083, -0.9801748394966125], "type": "VEC3"}, {"bufferView": 2, "byteOffset": 126352, "componentType": 5126, "count": 166, "max": [0.875, 1.0], "min": [0.0, 0.0], "type": "VEC2"}, {"bufferView": 1, "byteOffset": 72060, "componentType": 5125, "count": 195, "type": "SCALAR"}, {"bufferView": 3, "byteOffset": 383040, "componentType": 5126, "count": 2664, "max": [0.4248586893081665, 0.1407734453678131, 0.025049464777112007], "min": [-0.6064837574958801, -0.07074041664600372, -0.025049464777112007], "type": "VEC3"}, {"bufferView": 3, "byteOffset": 415008, "componentType": 5126, "count": 2664, "max": [1.0, 1.0, 1.0], "min": [-1.0, -0.9992062449455261, -1.0], "type": "VEC3"}, {"bufferView": 2, "byteOffset": 127680, "componentType": 5126, "count": 2664, "max": [0.8750000596046448, 1.0], "min": [0.0, 0.0], "type": "VEC2"}, {"bufferView": 1, "byteOffset": 72840, "componentType": 5125, "count": 2760, "type": "SCALAR"}, {"bufferView": 3, "byteOffset": 446976, "componentType": 5126, "count": 487, "max": [0.024686673656105995, 0.13047124445438385, 0.015547048300504684], "min": [-0.0814918577671051, 0.08134346455335617, -0.015547051094472408], "type": "VEC3"}, {"bufferView": 3, "byteOffset": 452820, "componentType": 5126, "count": 487, "max": [1.0, 0.9803524613380432, 1.0], "min": [-1.0, -1.0, -1.0], "type": "VEC3"}, {"bufferView": 2, "byteOffset": 148992, "componentType": 5126, "count": 487, "max": [1.0, 1.0], "min": [-8.940696716308594e-08, 0.0], "type": "VEC2"}, {"bufferView": 1, "byteOffset": 83880, "componentType": 5125, "count": 582, "type": "SCALAR"}, {"bufferView": 5, "componentType": 5126, "count": 16, "max": [100.00000762939453, 5.991593360900879, 1.2573761978273978e-06, 0.0, 5.991593360900879, 100.00000762939453, 3.5343921354069607e-06, 0.0, 8.552192888204477e-21, 0.0, 100.00000762939453, 0.0, 0.7124813199043274, 0.5379010438919067, 0.152070552110672, 1.0], "min": [-5.991593360900879, -5.991593360900879, -1.7744245042194962e-06, 0.0, -5.991593360900879, -5.991593360900879, -1.4262091099226382e-06, 0.0, -3.534708866936853e-06, -1.6055507785495138e-06, 1.0, 0.0, -0.6003915667533875, -1.1484591960906982, -9.463774119922164e-08, 1.0], "type": "MAT4"}, {"bufferView": 0, "componentType": 5123, "count": 2935, "type": "VEC4"}, {"bufferView": 4, "componentType": 5126, "count": 2935, "max": [1.0, 0.0, 0.0, 0.0], "min": [1.0, 0.0, 0.0, 0.0], "type": "VEC4"}, {"bufferView": 0, "byteOffset": 23480, "componentType": 5123, "count": 2207, "type": "VEC4"}, {"bufferView": 4, "byteOffset": 46960, "componentType": 5126, "count": 2207, "max": [1.0, 0.0, 0.0, 0.0], "min": [1.0, 0.0, 0.0, 0.0], "type": "VEC4"}, {"bufferView": 0, "byteOffset": 41136, "componentType": 5123, "count": 481, "type": "VEC4"}, {"bufferView": 4, "byteOffset": 82272, "componentType": 5126, "count": 481, "max": [1.0, 0.0, 0.0, 0.0], "min": [1.0, 0.0, 0.0, 0.0], "type": "VEC4"}, {"bufferView": 0, "byteOffset": 44984, "componentType": 5123, "count": 3835, "type": "VEC4"}, {"bufferView": 4, "byteOffset": 89968, "componentType": 5126, "count": 3835, "max": [1.0, 0.0, 0.0, 0.0], "min": [1.0, 0.0, 0.0, 0.0], "type": "VEC4"}, {"bufferView": 0, "byteOffset": 75664, "componentType": 5123, "count": 1056, "type": "VEC4"}, {"bufferView": 4, "byteOffset": 151328, "componentType": 5126, "count": 1056, "max": [1.0, 0.0, 0.0, 0.0], "min": [1.0, 0.0, 0.0, 0.0], "type": "VEC4"}, {"bufferView": 0, "byteOffset": 84112, "componentType": 5123, "count": 1802, "type": "VEC4"}, {"bufferView": 4, "byteOffset": 168224, "componentType": 5126, "count": 1802, "max": [1.0, 0.0, 0.0, 0.0], "min": [1.0, 0.0, 0.0, 0.0], "type": "VEC4"}, {"bufferView": 0, "byteOffset": 98528, "componentType": 5123, "count": 1633, "type": "VEC4"}, {"bufferView": 4, "byteOffset": 197056, "componentType": 5126, "count": 1633, "max": [1.0, 0.0, 0.0, 0.0], "min": [1.0, 0.0, 0.0, 0.0], "type": "VEC4"}, {"bufferView": 0, "byteOffset": 111592, "componentType": 5123, "count": 1259, "type": "VEC4"}, {"bufferView": 4, "byteOffset": 223184, "componentType": 5126, "count": 1259, "max": [1.0, 0.0, 0.0, 0.0], "min": [1.0, 0.0, 0.0, 0.0], "type": "VEC4"}, {"bufferView": 0, "byteOffset": 121664, "componentType": 5123, "count": 134, "type": "VEC4"}, {"bufferView": 4, "byteOffset": 243328, "componentType": 5126, "count": 134, "max": [1.0, 0.0, 0.0, 0.0], "min": [1.0, 0.0, 0.0, 0.0], "type": "VEC4"}, {"bufferView": 0, "byteOffset": 122736, "componentType": 5123, "count": 452, "type": "VEC4"}, {"bufferView": 4, "byteOffset": 245472, "componentType": 5126, "count": 452, "max": [1.0, 0.0, 0.0, 0.0], "min": [1.0, 0.0, 0.0, 0.0], "type": "VEC4"}, {"bufferView": 0, "byteOffset": 126352, "componentType": 5123, "count": 166, "type": "VEC4"}, {"bufferView": 4, "byteOffset": 252704, "componentType": 5126, "count": 166, "max": [1.0, 0.0, 0.0, 0.0], "min": [1.0, 0.0, 0.0, 0.0], "type": "VEC4"}, {"bufferView": 0, "byteOffset": 127680, "componentType": 5123, "count": 2664, "type": "VEC4"}, {"bufferView": 4, "byteOffset": 255360, "componentType": 5126, "count": 2664, "max": [1.0, 0.0, 0.0, 0.0], "min": [1.0, 0.0, 0.0, 0.0], "type": "VEC4"}, {"bufferView": 0, "byteOffset": 148992, "componentType": 5123, "count": 487, "type": "VEC4"}, {"bufferView": 4, "byteOffset": 297984, "componentType": 5126, "count": 487, "max": [1.0, 0.0, 0.0, 0.0], "min": [1.0, 0.0, 0.0, 0.0], "type": "VEC4"}], "asset": {"extras": {"author": "TastyTony (https://sketchfab.com/TastyTony)", "license": "CC-BY-4.0 (http://creativecommons.org/licenses/by/4.0/)", "source": "https://sketchfab.com/3d-models/low-poly-fn-fal-c737946bdccf4441b558b97ede5d0e3b", "title": "Low-Poly FN FAL"}, "generator": "Sketchfab-12.67.0", "version": "2.0"}, "bufferViews": [{"buffer": 0, "byteLength": 152888, "byteStride": 8, "name": "shortBufferViews", "target": 34962}, {"buffer": 0, "byteLength": 86208, "byteOffset": 152888, "name": "floatBufferViews", "target": 34963}, {"buffer": 0, "byteLength": 152888, "byteOffset": 239096, "byteStride": 8, "name": "floatBufferViews", "target": 34962}, {"buffer": 0, "byteLength": 458664, "byteOffset": 391984, "byteStride": 12, "name": "floatBufferViews", "target": 34962}, {"buffer": 0, "byteLength": 305776, "byteOffset": 850648, "byteStride": 16, "name": "floatBufferViews", "target": 34962}, {"buffer": 0, "byteLength": 1024, "byteOffset": 1156424, "name": "floatBufferViews"}], "buffers": [{"byteLength": 1157448, "uri": "scene.bin"}], "materials": [{"doubleSided": true, "name": "Material.005", "pbrMetallicRoughness": {"baseColorFactor": [0.045274390240000004, 0.045274390240000004, 0.045274390240000004, 1.0], "metallicFactor": 0.0}}, {"doubleSided": true, "name": "Material.006", "pbrMetallicRoughness": {"baseColorFactor": [0.05636810093624169, 0.05636810093624169, 0.05636810093624169, 1.0], "metallicFactor": 0.0}}, {"doubleSided": true, "name": "Material.007", "pbrMetallicRoughness": {"baseColorFactor": [0.06478658536000001, 0.06478658536000001, 0.06478658536000001, 1.0], "metallicFactor": 0.0}}, {"doubleSided": true, "name": "Material.004", "pbrMetallicRoughness": {"baseColorFactor": [0.05672224232773127, 0.05672224232773127, 0.05672224232773127, 1.0], "metallicFactor": 0.0}}, {"doubleSided": true, "name": "Material.009", "pbrMetallicRoughness": {"baseColorFactor": [0.06833214001147643, 0.06833214001147643, 0.06833214001147643, 1.0], "metallicFactor": 0.0}}, {"doubleSided": true, "name": "material_0", "pbrMetallicRoughness": {"baseColorFactor": [0.0989329268, 0.0989329268, 0.0989329268, 1.0], "metallicFactor": 0.0}}, {"doubleSided": true, "name": "Material.010", "pbrMetallicRoughness": {"baseColorFactor": [0.026978950063599412, 0.026978950063599412, 0.026978950063599412, 1.0], "metallicFactor": 0.0}}, {"doubleSided": true, "name": "Material", "pbrMetallicRoughness": {"baseColorFactor": [0.10607361516277587, 0.08672239698934198, 0.08111130567890322, 1.0], "metallicFactor": 0.0}}, {"doubleSided": true, "name": "Material.002", "pbrMetallicRoughness": {"baseColorFactor": [0.8, 0.8, 0.8, 1.0], "metallicFactor": 0.0, "roughnessFactor": 0.9577051495}}, {"doubleSided": true, "name": "Material.001", "pbrMetallicRoughness": {"baseColorFactor": [0.8, 0.8, 0.8, 1.0], "metallicFactor": 0.0, "roughnessFactor": 0.9577051495}}, {"doubleSided": true, "name": "Material.008", "pbrMetallicRoughness": {"baseColorFactor": [0.06315964807290675, 0.06288238531621443, 0.060942010748770224, 1.0], "metallicFactor": 0.0}}, {"doubleSided": true, "name": "Material.003", "pbrMetallicRoughness": {"baseColorFactor": [0.10829235995947611, 0.08554466654392824, 0.07904066574001026, 1.0], "metallicFactor": 0.0, "roughnessFactor": 0.9577051495}}, {"doubleSided": true, "name": "Material.012", "pbrMetallicRoughness": {"baseColorFactor": [0.08278013630699911, 0.08170830831561617, 0.08128872771541082, 1.0], "metallicFactor": 0.0, "roughnessFactor": 0.9940164336618423}}], "meshes": [{"name": "Cube_Material.005_0", "primitives": [{"attributes": {"JOINTS_0": 53, "NORMAL": 1, "POSITION": 0, "TEXCOORD_0": 2, "WEIGHTS_0": 54}, "indices": 3, "material": 0, "mode": 4}]}, {"name": "Cube_Material.006_0", "primitives": [{"attributes": {"JOINTS_0": 55, "NORMAL": 5, "POSITION": 4, "TEXCOORD_0": 6, "WEIGHTS_0": 56}, "indices": 7, "material": 1, "mode": 4}]}, {"name": "Cube_Material.007_0", "primitives": [{"attributes": {"JOINTS_0": 57, "NORMAL": 9, "POSITION": 8, "TEXCOORD_0": 10, "WEIGHTS_0": 58}, "indices": 11, "material": 2, "mode": 4}]}, {"name": "Cube_Material.004_0", "primitives": [{"attributes": {"JOINTS_0": 59, "NORMAL": 13, "POSITION": 12, "TEXCOORD_0": 14, "WEIGHTS_0": 60}, "indices": 15, "material": 3, "mode": 4}]}, {"name": "Cube_Material.009_0", "primitives": [{"attributes": {"JOINTS_0": 61, "NORMAL": 17, "POSITION": 16, "TEXCOORD_0": 18, "WEIGHTS_0": 62}, "indices": 19, "material": 4, "mode": 4}]}, {"name": "Cube_Material.011_0", "primitives": [{"attributes": {"JOINTS_0": 63, "NORMAL": 21, "POSITION": 20, "TEXCOORD_0": 22, "WEIGHTS_0": 64}, "indices": 23, "material": 5, "mode": 4}]}, {"name": "Cube_Material.010_0", "primitives": [{"attributes": {"JOINTS_0": 65, "NORMAL": 25, "POSITION": 24, "TEXCOORD_0": 26, "WEIGHTS_0": 66}, "indices": 27, "material": 6, "mode": 4}]}, {"name": "Cube_Material_0", "primitives": [{"attributes": {"JOINTS_0": 67, "NORMAL": 29, "POSITION": 28, "TEXCOORD_0": 30, "WEIGHTS_0": 68}, "indices": 31, "material": 7, "mode": 4}]}, {"name": "Cube_Material.002_0", "primitives": [{"attributes": {"JOINTS_0": 69, "NORMAL": 33, "POSITION": 32, "TEXCOORD_0": 34, "WEIGHTS_0": 70}, "indices": 35, "material": 8, "mode": 4}]}, {"name": "Cube_Material.001_0", "primitives": [{"attributes": {"JOINTS_0": 71, "NORMAL": 37, "POSITION": 36, "TEXCOORD_0": 38, "WEIGHTS_0": 72}, "indices": 39, "material": 9, "mode": 4}]}, {"name": "Cube_Material.008_0", "primitives": [{"attributes": {"JOINTS_0": 73, "NORMAL": 41, "POSITION": 40, "TEXCOORD_0": 42, "WEIGHTS_0": 74}, "indices": 43, "material": 10, "mode": 4}]}, {"name": "Cube_Material.003_0", "primitives": [{"attributes": {"JOINTS_0": 75, "NORMAL": 45, "POSITION": 44, "TEXCOORD_0": 46, "WEIGHTS_0": 76}, "indices": 47, "material": 11, "mode": 4}]}, {"name": "Cube_Material.012_0", "primitives": [{"attributes": {"JOINTS_0": 77, "NORMAL": 49, "POSITION": 48, "TEXCOORD_0": 50, "WEIGHTS_0": 78}, "indices": 51, "material": 12, "mode": 4}]}], "nodes": [{"children": [1], "matrix": [1.0, 0.0, 0.0, 0.0, 0.0, 2.220446049250313e-16, -1.0, 0.0, 0.0, 1.0, 2.220446049250313e-16, 0.0, 0.0, 0.0, 0.0, 1.0], "name": "Sketchfab_model"}, {"children": [2], "matrix": [1.0, 0.0, 0.0, 0.0, 0.0, 0.0, 1.0, 0.0, 0.0, -1.0, 0.0, 0.0, 0.0, 0.0, 0.0, 1.0], "name": "c2157f2c682143da8335fcc7803a1dbf.fbx"}, {"children": [3, 6, 8], "name": "RootNode"}, {"children": [4], "matrix": [23.231172355222103, 21.84616370504412, -94.77900235945377, 0.0, 89.76030839044749, 32.71628095018631, 29.54201199243871, 0.0, 37.461963853455565, -91.93688754462688, -12.00880921357255, 0.0, 1395.951416015625, -349.0223388671875, 233.06117248535156, 1.0], "name": "Light"}, {"children": [5], "matrix": [1.0, 0.0, 0.0, 0.0, 0.0, 2.220446049250313e-16, 1.0, 0.0, 0.0, -1.0, 2.220446049250313e-16, 0.0, 0.0, 0.0, 0.0, 1.0], "name": "Object_4"}, {"name": "Object_5"}, {"children": [7], "matrix": [-50.87663292895197, 0.4151068476957803, -86.08949114587054, 0.0, 1.4461796868845944, 99.9888635770761, -0.3725273629557171, 0.0, 86.07833120042737, -1.4345376747186034, -50.87695475643479, 0.0, 1735.6142578125, -28.398746490478516, 2905.8291015625, 1.0], "name": "Camera"}, {"name": "Object_7"}, {"children": [9], "matrix": [1.2600638744976666e-06, -16.690052032470646, 4.974021353071408e-07, 0.0, -4.7087638291446085e-06, -4.974024892240298e-07, -16.690052032470028, 0.0, 16.69005203246999, 1.2600637327456143e-06, -4.708763865277485e-06, 0.0, 12.411993026733398, 8.21721363067627, -8.815221264057982e-08, 1.0], "name": "Armature"}, {"children": [10, 12, 13, 14, 15, 16, 17, 18, 19, 20, 21, 22, 23, 24, 11], "name": "Object_9"}, {"children": [25], "name": "_rootJoint"}, {"matrix": [100.00000495084728, -1.0233663697344116e-12, 5.201581353142527e-13, 0.0, 5.20158135314233e-13, 6.123234298883174e-15, -100.00000495084349, 0.0, 1.023366369734393e-12, 100.00000495084548, 6.1232342988886195e-15, 0.0, 3.226654423169835, 8.873310734048598, 1.5139412889563636e-13, 1.0], "name": "Object_11"}, {"mesh": 0, "name": "Object_12", "skin": 0}, {"mesh": 1, "name": "Object_13", "skin": 0}, {"mesh": 2, "name": "Object_14", "skin": 0}, {"mesh": 3, "name": "Object_15", "skin": 0}, {"mesh": 4, "name": "Object_16", "skin": 0}, {"mesh": 5, "name": "Object_17", "skin": 0}, {"mesh": 6, "name": "Object_18", "skin": 0}, {"mesh": 7, "name": "Object_19", "skin": 0}, {"mesh": 8, "name": "Object_20", "skin": 0}, {"mesh": 9, "name": "Object_21", "skin": 0}, {"mesh": 10, "name": "Object_22", "skin": 0}, {"mesh": 11, "name": "Object_23", "skin": 0}, {"mesh": 12, "name": "Object_24", "skin": 0}, {"children": [26, 29, 34, 36, 38], "name": "body_00", "rotation": [0.7071068286895752, 5.432820762093333e-24, -1.0112062422951664e-23, 0.7071067094802856]}, {"children": [27], "name": "charginghandle_01", "rotation": [7.105427357601002e-15, 4.70198132692485e-38, 6.617449633589653e-24, 1.0], "translation": [-0.09041459858417511, -1.2697839736938477, -0.15207065641880035]}, {"children": [28], "name": "bolt_02", "rotation": [0.0, 1.6543612251060553e-24, -7.020862056467005e-29, 1.0], "translation": [-0.12972486019134521, -0.011793375015258789, 0.15207049250602722]}, {"name": "bolt_end_09", "rotation": [-6.617444900424222e-24, 1.6543612251060553e-24, -6.941975965944904e-29, 1.0], "translation": [0.0, 0.5991374850273132, 0.0]}, {"children": [30, 32], "name": "mag_03", "rotation": [6.789565798470676e-09, 1.0841276321116311e-07, -0.7071068286895752, 0.7071067094802856], "translation": [0.10169529914855957, -0.6885443925857544, -1.462957612829996e-07]}, {"children": [31], "name": "bullet_04", "rotation": [-6.7895582489541084e-09, -1.0841276321116311e-07, 0.7071068286895752, 0.7071067094802856], "translation": [0.4925854206085205, -0.06931900978088379, 1.3420420330589877e-08]}, {"name": "bullet_end_010", "rotation": [0.0, 0.0, 1.0887164805124716e-23, 1.0], "translation": [-5.551115123125783e-17, 0.4027923345565796, 0.0]}, {"children": [33], "name": "bullets_05", "rotation": [-6.7895582489541084e-09, -1.0841276321116311e-07, 0.7071068286895752, 0.7071067094802856], "translation": [0.4948604106903076, 0.030777335166931152, 1.442213104496659e-08]}, {"name": "bullets_end_011", "rotation": [0.0, 0.0, 1.0887164805124716e-23, 1.0], "translation": [0.0, 0.40279239416122437, 2.6469779601696886e-23]}, {"children": [35], "name": "magrelease_06", "rotation": [5.546245773757619e-08, 2.396332376974897e-07, -0.7434921860694885, 0.6687446236610413], "scale": [1.0, 0.9999999403953552, 1.0], "translation": [0.18694095313549042, -1.3150217533111572, -2.854424394627131e-07]}, {"name": "magrelease_end_012", "rotation": [-2.6469779601696886e-23, -2.6469779601696886e-23, -1.4247034615813228e-17, 1.0], "translation": [-2.220446049250313e-16, 0.15582413971424103, -1.3234889800848443e-23]}, {"children": [37], "name": "boltrelease_07", "rotation": [-2.6692536181371906e-08, 2.6692532628658228e-08, 0.7071068286895752, 0.7071067094802856], "translation": [0.35740911960601807, -1.301068663597107, -0.10306228697299957]}, {"name": "boltrelease_end_013", "rotation": [-1.6543612251060553e-24, 1.3234889800848443e-23, -1.0523974033221867e-23, 1.0], "translation": [1.1102230246251565e-16, 0.1359347105026245, -1.3877787807814457e-17]}, {"children": [39], "name": "selector_08", "rotation": [-2.9505460474865686e-07, 1.4082841914841993e-07, 1.0, -0.00017924705753102899], "scale": [1.0, 1.0, 0.9999999403953552], "translation": [0.11917354166507721, -1.8922693729400635, -0.13616248965263367]}, {"name": "selector_end_014", "rotation": [-1.2751816025355835e-42, 5.293955920339377e-23, 2.408654624113517e-20, 1.0], "translation": [-5.551115123125783e-17, 0.15865637362003326, 0.0]}], "scene": 0, "scenes": [{"name": "Sketchfab_Scene", "nodes": [0]}], "skins": [{"inverseBindMatrices": 52, "joints": [10, 25, 26, 27, 28, 29, 30, 31, 32, 33, 34, 35, 36, 37, 38, 39], "skeleton": 10}]}