{"accessors": [{"bufferView": 2, "componentType": 5126, "count": 2519, "max": [34.270381927490234, 18.860258102416992, 16.0638484954834], "min": [-59.29609298706055, -27.88964080810547, -11.996262550354004], "type": "VEC3"}, {"bufferView": 2, "byteOffset": 30228, "componentType": 5126, "count": 2519, "max": [0.9427057504653931, -0.0, 0.943427324295044], "min": [0.0, -0.9419106841087341, 0.0], "type": "VEC3"}, {"bufferView": 1, "componentType": 5126, "count": 2519, "max": [0.9970700144767761, 0.9865260124206543], "min": [0.0, 0.004395000170916319], "type": "VEC2"}, {"bufferView": 0, "componentType": 5125, "count": 6669, "type": "SCALAR"}, {"bufferView": 2, "byteOffset": 60456, "componentType": 5126, "count": 230, "max": [-15.803094863891602, -3.4283978939056396, 20.251283645629883], "min": [-21.865400314331055, -15.442601203918457, 3.531959056854248], "type": "VEC3"}, {"bufferView": 2, "byteOffset": 63216, "componentType": 5126, "count": 230, "max": [0.9348787069320679, -0.0, 0.8548548817634583], "min": [0.0, -0.928866982460022, 0.0], "type": "VEC3"}, {"bufferView": 1, "byteOffset": 20152, "componentType": 5126, "count": 230, "max": [0.9980469942092896, 0.9977819919586182], "min": [0.0010460000485181808, 0.011718999594449997], "type": "VEC2"}, {"bufferView": 0, "byteOffset": 26676, "componentType": 5125, "count": 546, "type": "SCALAR"}, {"bufferView": 2, "byteOffset": 65976, "componentType": 5126, "count": 18, "max": [-5.067564010620117, -5.199047088623047, 9.8916654586792], "min": [-5.067564010620117, -24.982378005981445, -9.891666412353516], "type": "VEC3"}, {"bufferView": 2, "byteOffset": 66192, "componentType": 5126, "count": 18, "max": [0.0, -0.7071068286895752, 0.7071068286895752], "min": [0.0, -0.7071068286895752, 0.7071068286895752], "type": "VEC3"}, {"bufferView": 1, "byteOffset": 21992, "componentType": 5126, "count": 18, "max": [1.042968988418579, 1.5727540254592896], "min": [-0.4189450144767761, -0.49023398756980896], "type": "VEC2"}, {"bufferView": 0, "byteOffset": 28860, "componentType": 5125, "count": 24, "type": "SCALAR"}], "asset": {"extras": {"author": "TheShibeLord (https://sketchfab.com/TheShibeLord)", "license": "CC-BY-4.0 (http://creativecommons.org/licenses/by/4.0/)", "source": "https://sketchfab.com/3d-models/call-of-duty-zombies-classic-thundergun-no-rig-ede362de578c4ed9aac513604d05e857", "title": "Call of Duty Zombies: Classic Thundergun No Rig"}, "generator": "Sketchfab-14.32.1", "version": "2.0"}, "bufferViews": [{"buffer": 0, "byteLength": 28956, "name": "floatBufferViews", "target": 34963}, {"buffer": 0, "byteLength": 22136, "byteOffset": 28956, "byteStride": 8, "name": "floatBufferViews", "target": 34962}, {"buffer": 0, "byteLength": 66408, "byteOffset": 51092, "byteStride": 12, "name": "floatBufferViews", "target": 34962}], "buffers": [{"byteLength": 117500, "uri": "scene.bin"}], "images": [{"uri": "textures/mtl_t5_weapon_thundergun_baseColor.jpg", "mimeType": "image/jpeg"}, {"uri": "textures/mtl_t5_weapon_thundergun_box_baseColor.jpg", "mimeType": "image/jpeg"}], "materials": [{"doubleSided": true, "name": "mtl_t5_weapon_thundergun", "pbrMetallicRoughness": {"baseColorTexture": {"index": 0}, "metallicFactor": 0.19969512195121952}}, {"doubleSided": true, "name": "mtl_t5_weapon_thundergun_box", "pbrMetallicRoughness": {"baseColorTexture": {"index": 1}, "metallicFactor": 0.6509146341463414, "roughnessFactor": 0.7789634146341463}}, {"doubleSided": true, "name": "mtl_t5_weapon_thundergun_mesh", "pbrMetallicRoughness": {"metallicFactor": 0.0, "roughnessFactor": 0.6}}], "meshes": [{"name": "Object_0", "primitives": [{"attributes": {"NORMAL": 1, "POSITION": 0, "TEXCOORD_0": 2}, "indices": 3, "material": 0, "mode": 4}]}, {"name": "Object_1", "primitives": [{"attributes": {"NORMAL": 5, "POSITION": 4, "TEXCOORD_0": 6}, "indices": 7, "material": 1, "mode": 4}]}, {"name": "Object_2", "primitives": [{"attributes": {"NORMAL": 9, "POSITION": 8, "TEXCOORD_0": 10}, "indices": 11, "material": 2, "mode": 4}]}], "nodes": [{"children": [1], "matrix": [1.0, 0.0, 0.0, 0.0, 0.0, 2.220446049250313e-16, -1.0, 0.0, 0.0, 1.0, 2.220446049250313e-16, 0.0, 0.0, 0.0, 0.0, 1.0], "name": "Sketchfab_model"}, {"children": [2, 3, 4], "name": "8afa080fb42d41f6b6821a24fb1080ff.obj.cleaner.materialmerger.gles"}, {"mesh": 0, "name": "Object_2"}, {"mesh": 1, "name": "Object_3"}, {"mesh": 2, "name": "Object_4"}], "samplers": [{"magFilter": 9729, "minFilter": 9987, "wrapS": 10497, "wrapT": 10497}], "scene": 0, "scenes": [{"name": "Sketchfab_Scene", "nodes": [0]}], "textures": [{"sampler": 0, "source": 0}, {"sampler": 0, "source": 1}]}