{"accessors": [{"bufferView": 2, "componentType": 5126, "count": 3305, "max": [8.59144401550293, 2.575126886367798, 1.0000004768371582], "min": [-10.29130744934082, -7.830049514770508, -0.999999463558197], "type": "VEC3"}, {"bufferView": 2, "byteOffset": 39660, "componentType": 5126, "count": 3305, "max": [1.0, 1.0, 1.0], "min": [-1.0, -1.0, -1.0], "type": "VEC3"}, {"bufferView": 1, "componentType": 5125, "count": 3714, "type": "SCALAR"}, {"bufferView": 2, "byteOffset": 79320, "componentType": 5126, "count": 334, "max": [8.26269245147705, 2.581975221633911, 0.7717154622077942], "min": [-10.559219360351562, -6.347889423370361, -0.7717147469520569], "type": "VEC3"}, {"bufferView": 2, "byteOffset": 83328, "componentType": 5126, "count": 334, "max": [1.0, 1.0, 1.0], "min": [-1.0, -1.0, -1.0], "type": "VEC3"}, {"bufferView": 1, "byteOffset": 14856, "componentType": 5125, "count": 384, "type": "SCALAR"}, {"bufferView": 2, "byteOffset": 87336, "componentType": 5126, "count": 1571, "max": [10.579469680786133, 6.411064147949219, 0.8810020089149475], "min": [-2.2597904205322266, -1.0186573266983032, -0.8743709325790405], "type": "VEC3"}, {"bufferView": 2, "byteOffset": 106188, "componentType": 5126, "count": 1571, "max": [1.0, 1.0, 1.0], "min": [-1.0, -1.0, -1.0], "type": "VEC3"}, {"bufferView": 1, "byteOffset": 16392, "componentType": 5125, "count": 1710, "type": "SCALAR"}, {"bufferView": 2, "byteOffset": 125040, "componentType": 5126, "count": 44, "max": [8.366798400878906, 3.831277847290039, 0.10610511153936386], "min": [8.105440139770508, 3.344992160797119, -0.10610397160053253], "type": "VEC3"}, {"bufferView": 2, "byteOffset": 125568, "componentType": 5126, "count": 44, "max": [0.8515069484710693, 1.0, 1.0], "min": [-0.8514999747276306, -1.0, -1.0], "type": "VEC3"}, {"bufferView": 1, "byteOffset": 23232, "componentType": 5125, "count": 60, "type": "SCALAR"}, {"bufferView": 2, "byteOffset": 126096, "componentType": 5126, "count": 981, "max": [8.39022159576416, 0.9027447700500488, 0.7894293665885925], "min": [-9.70662784576416, -6.680651664733887, -0.7894286513328552], "type": "VEC3"}, {"bufferView": 2, "byteOffset": 137868, "componentType": 5126, "count": 981, "max": [1.0, 1.0, 1.0], "min": [-1.0, -1.0, -1.0], "type": "VEC3"}, {"bufferView": 1, "byteOffset": 23472, "componentType": 5125, "count": 1320, "type": "SCALAR"}, {"bufferView": 2, "byteOffset": 149640, "componentType": 5126, "count": 469, "max": [7.910943984985352, 5.2477498054504395, 1.0076889991760254], "min": [-4.177375316619873, -4.010303020477295, -1.0076881647109985], "type": "VEC3"}, {"bufferView": 2, "byteOffset": 155268, "componentType": 5126, "count": 469, "max": [1.0, 1.0, 1.0], "min": [-1.0, -1.0, -1.0], "type": "VEC3"}, {"bufferView": 1, "byteOffset": 28752, "componentType": 5125, "count": 612, "type": "SCALAR"}, {"bufferView": 2, "byteOffset": 160896, "componentType": 5126, "count": 4003, "max": [8.604019165039062, 6.322010517120361, 0.872933030128479], "min": [1.1256399154663086, -1.0291249752044678, -0.8729323744773865], "type": "VEC3"}, {"bufferView": 2, "byteOffset": 208932, "componentType": 5126, "count": 4003, "max": [1.0, 1.0, 1.0], "min": [-1.0, -1.0, -1.0], "type": "VEC3"}, {"bufferView": 1, "byteOffset": 31200, "componentType": 5125, "count": 4968, "type": "SCALAR"}, {"bufferView": 2, "byteOffset": 256968, "componentType": 5126, "count": 471, "max": [8.44569206237793, 1.0219197273254395, 0.7700515985488892], "min": [-9.762097358703613, -6.799825668334961, -0.7700507640838623], "type": "VEC3"}, {"bufferView": 2, "byteOffset": 262620, "componentType": 5126, "count": 471, "max": [1.0, 0.6813726425170898, 1.0], "min": [-1.0, -0.6813726425170898, -1.0], "type": "VEC3"}, {"bufferView": 1, "byteOffset": 51072, "componentType": 5125, "count": 600, "type": "SCALAR"}, {"bufferView": 2, "byteOffset": 268272, "componentType": 5126, "count": 818, "max": [7.343442916870117, 1.7239406108856201, 0.8932939767837524], "min": [-4.660556793212891, -4.4899702072143555, -0.8932933807373047], "type": "VEC3"}, {"bufferView": 2, "byteOffset": 278088, "componentType": 5126, "count": 818, "max": [0.9943015575408936, 1.0, 1.0], "min": [-1.0, -1.0, -1.0], "type": "VEC3"}, {"bufferView": 1, "byteOffset": 53472, "componentType": 5125, "count": 1128, "type": "SCALAR"}, {"bufferView": 2, "byteOffset": 287904, "componentType": 5126, "count": 50, "max": [6.186620712280273, -0.3400859832763672, 0.5674296021461487], "min": [2.6028709411621094, -1.244466781616211, -0.5674288272857666], "type": "VEC3"}, {"bufferView": 2, "byteOffset": 288504, "componentType": 5126, "count": 50, "max": [1.0, 1.0, 1.0], "min": [-1.0, -1.0, -1.0], "type": "VEC3"}, {"bufferView": 1, "byteOffset": 57984, "componentType": 5125, "count": 72, "type": "SCALAR"}, {"bufferView": 2, "byteOffset": 289104, "componentType": 5126, "count": 494, "max": [6.966828346252441, 2.449326515197754, 0.9192371964454651], "min": [-4.06696891784668, -0.2650289535522461, -0.9192362427711487], "type": "VEC3"}, {"bufferView": 2, "byteOffset": 295032, "componentType": 5126, "count": 494, "max": [1.0, 1.0, 1.0], "min": [-1.0, -1.0, -1.0], "type": "VEC3"}, {"bufferView": 1, "byteOffset": 58272, "componentType": 5125, "count": 630, "type": "SCALAR"}, {"bufferView": 2, "byteOffset": 300960, "componentType": 5126, "count": 136, "max": [-3.761279821395874, 0.48395395278930664, 0.15576684474945068], "min": [-3.776075601577759, -0.21239149570465088, -0.13996431231498718], "type": "VEC3"}, {"bufferView": 2, "byteOffset": 302592, "componentType": 5126, "count": 136, "max": [2.638980731717311e-05, 0.6575591564178467, 1.0], "min": [-1.0, -0.657558023929596, -1.0], "type": "VEC3"}, {"bufferView": 1, "byteOffset": 60792, "componentType": 5125, "count": 144, "type": "SCALAR"}, {"bufferView": 2, "byteOffset": 304224, "componentType": 5126, "count": 249, "max": [-2.588855504989624, 0.45468974113464355, 0.14299608767032623], "min": [-2.6752123832702637, -0.1831272840499878, -0.12719403207302094], "type": "VEC3"}, {"bufferView": 2, "byteOffset": 307212, "componentType": 5126, "count": 249, "max": [1.0, 0.6152200698852539, 0.9700500965118408], "min": [0.24290373921394348, -0.6152215600013733, -0.9700504541397095], "type": "VEC3"}, {"bufferView": 1, "byteOffset": 61368, "componentType": 5125, "count": 252, "type": "SCALAR"}, {"bufferView": 2, "byteOffset": 310200, "componentType": 5126, "count": 322, "max": [-2.6752123832702637, 0.548647403717041, 0.18399818241596222], "min": [-2.9126272201538086, -0.2770853042602539, -0.16819602251052856], "type": "VEC3"}, {"bufferView": 2, "byteOffset": 314064, "componentType": 5126, "count": 322, "max": [0.35301947593688965, 0.6540899276733398, 0.9976678490638733], "min": [0.06825586408376694, -0.6540888547897339, -0.9976679086685181], "type": "VEC3"}, {"bufferView": 1, "byteOffset": 62376, "componentType": 5125, "count": 324, "type": "SCALAR"}, {"bufferView": 2, "byteOffset": 317928, "componentType": 5126, "count": 1088, "max": [-2.9126272201538086, 0.6163743734359741, 0.2135535478591919], "min": [-3.7758991718292236, -0.344812273979187, -0.19775116443634033], "type": "VEC3"}, {"bufferView": 2, "byteOffset": 330984, "componentType": 5126, "count": 1088, "max": [1.0, 0.657556414604187, 1.0], "min": [-1.0, -0.657556414604187, -1.0], "type": "VEC3"}, {"bufferView": 1, "byteOffset": 63672, "componentType": 5125, "count": 1188, "type": "SCALAR"}, {"bufferView": 2, "byteOffset": 344040, "componentType": 5126, "count": 448, "max": [2.3788139820098877, 1.449241280555725, 3.211024284362793], "min": [-3.027378559112549, -1.449241280555725, -0.5914947986602783], "type": "VEC3"}, {"bufferView": 2, "byteOffset": 349416, "componentType": 5126, "count": 448, "max": [1.0, 1.0, 1.0], "min": [-1.0, -1.0, -1.0], "type": "VEC3"}, {"bufferView": 1, "byteOffset": 68424, "componentType": 5125, "count": 624, "type": "SCALAR"}, {"bufferView": 2, "byteOffset": 354792, "componentType": 5126, "count": 36, "max": [-1.0148309469223022, 1.1838047504425049, 1.5810141563415527], "min": [-2.958719253540039, -1.1838059425354004, 0.5521703958511353], "type": "VEC3"}, {"bufferView": 2, "byteOffset": 355224, "componentType": 5126, "count": 36, "max": [0.9045581817626953, 1.0, 1.0], "min": [-1.0, -1.0, -1.0], "type": "VEC3"}, {"bufferView": 1, "byteOffset": 70920, "componentType": 5125, "count": 48, "type": "SCALAR"}, {"bufferView": 2, "byteOffset": 355656, "componentType": 5126, "count": 36, "max": [-1.252968430519104, 0.1496422290802002, 1.4938806295394897], "min": [-1.6478265523910522, -0.14964327216148376, 1.0990225076675415], "type": "VEC3"}, {"bufferView": 2, "byteOffset": 356088, "componentType": 5126, "count": 36, "max": [0.9705073833465576, 1.0, 0.9705075025558472], "min": [-0.9705073833465576, -1.0, -0.9705075025558472], "type": "VEC3"}, {"bufferView": 1, "byteOffset": 71112, "componentType": 5125, "count": 36, "type": "SCALAR"}, {"bufferView": 2, "byteOffset": 356520, "componentType": 5126, "count": 78, "max": [0.960207462310791, 0.44432637095451355, 0.9194619655609131], "min": [-3.2129671573638916, -1.994083046913147, -0.5522987842559814], "type": "VEC3"}, {"bufferView": 2, "byteOffset": 357456, "componentType": 5126, "count": 78, "max": [1.0, 1.0, 1.0], "min": [-1.0, -1.0, -1.0], "type": "VEC3"}, {"bufferView": 1, "byteOffset": 71256, "componentType": 5125, "count": 96, "type": "SCALAR"}, {"bufferView": 2, "byteOffset": 358392, "componentType": 5126, "count": 156, "max": [1.906807541847229, 1.54339599609375, 1.1497527360916138], "min": [0.20438021421432495, -1.6112083196640015, -0.28100115060806274], "type": "VEC3"}, {"bufferView": 2, "byteOffset": 360264, "componentType": 5126, "count": 156, "max": [1.0, 1.0, 0.866025984287262], "min": [-1.0, -1.0, -0.8660260438919067], "type": "VEC3"}, {"bufferView": 1, "byteOffset": 71640, "componentType": 5125, "count": 168, "type": "SCALAR"}, {"bufferView": 4, "componentType": 5126, "count": 15, "max": [45.49736785888672, 0.45497366786003113, 1.7567897714343417e-07, 0.0, 2.007061548853871e-29, 48.52777099609375, 1.269517057125337e-14, 0.0, 0.18128176033496857, 1.296382521331907e-07, 24.453012466430664, 0.0, 0.4025103449821472, 3.085833787918091, 0.5152549743652344, 1.0], "min": [-3.358692168831112e-08, -0.45497366786003113, 0.0, 0.0, -0.4852777123451233, -6.5640115565202e-08, -0.4852777123451233, 0.0, -0.24453012645244598, -5.429243898902314e-08, -0.16410942375659943, 0.0, -0.4428691864013672, -2.8156721591949463, -0.8044838309288025, 1.0], "type": "MAT4"}, {"bufferView": 0, "componentType": 5123, "count": 3305, "type": "VEC4"}, {"bufferView": 3, "componentType": 5126, "count": 3305, "max": [1.0, 0.0, 0.0, 0.0], "min": [1.0, 0.0, 0.0, 0.0], "type": "VEC4"}, {"bufferView": 0, "byteOffset": 26440, "componentType": 5123, "count": 334, "type": "VEC4"}, {"bufferView": 3, "byteOffset": 52880, "componentType": 5126, "count": 334, "max": [1.0, 0.0, 0.0, 0.0], "min": [1.0, 0.0, 0.0, 0.0], "type": "VEC4"}, {"bufferView": 0, "byteOffset": 29112, "componentType": 5123, "count": 1571, "type": "VEC4"}, {"bufferView": 3, "byteOffset": 58224, "componentType": 5126, "count": 1571, "max": [1.0, 0.0, 0.0, 0.0], "min": [1.0, 0.0, 0.0, 0.0], "type": "VEC4"}, {"bufferView": 0, "byteOffset": 41680, "componentType": 5123, "count": 44, "type": "VEC4"}, {"bufferView": 3, "byteOffset": 83360, "componentType": 5126, "count": 44, "max": [1.0, 0.0, 0.0, 0.0], "min": [1.0, 0.0, 0.0, 0.0], "type": "VEC4"}, {"bufferView": 0, "byteOffset": 42032, "componentType": 5123, "count": 981, "type": "VEC4"}, {"bufferView": 3, "byteOffset": 84064, "componentType": 5126, "count": 981, "max": [1.0, 0.0, 0.0, 0.0], "min": [1.0, 0.0, 0.0, 0.0], "type": "VEC4"}, {"bufferView": 0, "byteOffset": 49880, "componentType": 5123, "count": 469, "type": "VEC4"}, {"bufferView": 3, "byteOffset": 99760, "componentType": 5126, "count": 469, "max": [1.0, 0.0, 0.0, 0.0], "min": [1.0, 0.0, 0.0, 0.0], "type": "VEC4"}, {"bufferView": 0, "byteOffset": 53632, "componentType": 5123, "count": 4003, "type": "VEC4"}, {"bufferView": 3, "byteOffset": 107264, "componentType": 5126, "count": 4003, "max": [1.0, 0.0, 0.0, 0.0], "min": [1.0, 0.0, 0.0, 0.0], "type": "VEC4"}, {"bufferView": 0, "byteOffset": 85656, "componentType": 5123, "count": 471, "type": "VEC4"}, {"bufferView": 3, "byteOffset": 171312, "componentType": 5126, "count": 471, "max": [1.0, 0.0, 0.0, 0.0], "min": [1.0, 0.0, 0.0, 0.0], "type": "VEC4"}, {"bufferView": 0, "byteOffset": 89424, "componentType": 5123, "count": 818, "type": "VEC4"}, {"bufferView": 3, "byteOffset": 178848, "componentType": 5126, "count": 818, "max": [1.0, 0.0, 0.0, 0.0], "min": [1.0, 0.0, 0.0, 0.0], "type": "VEC4"}, {"bufferView": 0, "byteOffset": 95968, "componentType": 5123, "count": 50, "type": "VEC4"}, {"bufferView": 3, "byteOffset": 191936, "componentType": 5126, "count": 50, "max": [1.0, 0.0, 0.0, 0.0], "min": [1.0, 0.0, 0.0, 0.0], "type": "VEC4"}, {"bufferView": 0, "byteOffset": 96368, "componentType": 5123, "count": 494, "type": "VEC4"}, {"bufferView": 3, "byteOffset": 192736, "componentType": 5126, "count": 494, "max": [1.0, 0.0, 0.0, 0.0], "min": [1.0, 0.0, 0.0, 0.0], "type": "VEC4"}, {"bufferView": 0, "byteOffset": 100320, "componentType": 5123, "count": 136, "type": "VEC4"}, {"bufferView": 3, "byteOffset": 200640, "componentType": 5126, "count": 136, "max": [1.0, 0.0, 0.0, 0.0], "min": [1.0, 0.0, 0.0, 0.0], "type": "VEC4"}, {"bufferView": 0, "byteOffset": 101408, "componentType": 5123, "count": 249, "type": "VEC4"}, {"bufferView": 3, "byteOffset": 202816, "componentType": 5126, "count": 249, "max": [1.0, 0.0, 0.0, 0.0], "min": [1.0, 0.0, 0.0, 0.0], "type": "VEC4"}, {"bufferView": 0, "byteOffset": 103400, "componentType": 5123, "count": 322, "type": "VEC4"}, {"bufferView": 3, "byteOffset": 206800, "componentType": 5126, "count": 322, "max": [1.0, 0.0, 0.0, 0.0], "min": [1.0, 0.0, 0.0, 0.0], "type": "VEC4"}, {"bufferView": 0, "byteOffset": 105976, "componentType": 5123, "count": 1088, "type": "VEC4"}, {"bufferView": 3, "byteOffset": 211952, "componentType": 5126, "count": 1088, "max": [1.0, 0.0, 0.0, 0.0], "min": [1.0, 0.0, 0.0, 0.0], "type": "VEC4"}], "asset": {"extras": {"author": "TastyTony (https://sketchfab.com/TastyTony)", "license": "CC-BY-4.0 (http://creativecommons.org/licenses/by/4.0/)", "source": "https://sketchfab.com/3d-models/low-poly-fn-p90-96b61ebbbf154843b621ebf7f48647fc", "title": "Low-Poly FN P90"}, "generator": "Sketchfab-15.10.0", "version": "2.0"}, "bufferViews": [{"buffer": 0, "byteLength": 114680, "byteStride": 8, "name": "shortBufferViews", "target": 34962}, {"buffer": 0, "byteLength": 72312, "byteOffset": 114680, "name": "floatBufferViews", "target": 34963}, {"buffer": 0, "byteLength": 362136, "byteOffset": 186992, "byteStride": 12, "name": "floatBufferViews", "target": 34962}, {"buffer": 0, "byteLength": 229360, "byteOffset": 549128, "byteStride": 16, "name": "floatBufferViews", "target": 34962}, {"buffer": 0, "byteLength": 960, "byteOffset": 778488, "name": "floatBufferViews"}], "buffers": [{"byteLength": 779448, "uri": "scene.bin"}], "extensionsUsed": ["KHR_materials_specular"], "materials": [{"doubleSided": true, "extensions": {"KHR_materials_specular": {"specularColorFactor": [1.0, 1.0, 1.0], "specularFactor": 0.0}}, "name": "Material", "pbrMetallicRoughness": {"baseColorFactor": [0.017297799558275026, 0.017297799558275026, 0.017297799558275026, 1.0], "metallicFactor": 0.0}}, {"doubleSided": true, "extensions": {"KHR_materials_specular": {"specularColorFactor": [1.0, 1.0, 1.0], "specularFactor": 0.0}}, "name": "Material.007", "pbrMetallicRoughness": {"baseColorFactor": [0.020065814288338417, 0.020065814288338417, 0.020065814288338417, 1.0], "metallicFactor": 0.0}}, {"doubleSided": true, "extensions": {"KHR_materials_specular": {"specularColorFactor": [1.0, 1.0, 1.0], "specularFactor": 0.0}}, "name": "Material.014", "pbrMetallicRoughness": {"baseColorFactor": [0.026584336565420225, 0.026584336565420225, 0.026584336565420225, 1.0], "metallicFactor": 0.0}}, {"doubleSided": true, "name": "Material.008", "pbrMetallicRoughness": {"baseColorFactor": [0.8, 0.8, 0.8, 1.0], "metallicFactor": 0.0, "roughnessFactor": 0.9577051495}}, {"doubleSided": true, "extensions": {"KHR_materials_specular": {"specularColorFactor": [1.0, 1.0, 1.0], "specularFactor": 0.0}}, "name": "Material.011", "pbrMetallicRoughness": {"baseColorFactor": [0.03896542476228474, 0.03896542476228474, 0.03896542476228474, 1.0], "metallicFactor": 0.0}}, {"doubleSided": true, "extensions": {"KHR_materials_specular": {"specularColorFactor": [1.0, 1.0, 1.0], "specularFactor": 0.0}}, "name": "sights", "pbrMetallicRoughness": {"baseColorFactor": [0.022485904080935027, 0.022485904080935027, 0.022485904080935027, 1.0], "metallicFactor": 0.0}}, {"doubleSided": true, "extensions": {"KHR_materials_specular": {"specularColorFactor": [1.0, 1.0, 1.0], "specularFactor": 0.0}}, "name": "Material.005", "pbrMetallicRoughness": {"baseColorFactor": [0.0213253863706936, 0.0213253863706936, 0.0213253863706936, 1.0], "metallicFactor": 0.0}}, {"doubleSided": true, "extensions": {"KHR_materials_specular": {"specularColorFactor": [1.0, 1.0, 1.0], "specularFactor": 0.0}}, "name": "Material.010", "pbrMetallicRoughness": {"baseColorFactor": [0.033538006038179774, 0.033538006038179774, 0.033538006038179774, 1.0], "metallicFactor": 0.0}}, {"doubleSided": true, "extensions": {"KHR_materials_specular": {"specularColorFactor": [1.0, 1.0, 1.0], "specularFactor": 0.0}}, "name": "Material.012", "pbrMetallicRoughness": {"baseColorFactor": [0.012082092365566838, 0.012082092365566838, 0.012082092365566838, 1.0], "metallicFactor": 0.0}}, {"doubleSided": true, "extensions": {"KHR_materials_specular": {"specularColorFactor": [1.0, 1.0, 1.0], "specularFactor": 0.0}}, "name": "Material.013", "pbrMetallicRoughness": {"baseColorFactor": [0.022124465752629486, 0.021400333947189012, 0.02016256168330088, 1.0], "metallicFactor": 0.0}}, {"doubleSided": true, "extensions": {"KHR_materials_specular": {"specularColorFactor": [1.0, 1.0, 1.0], "specularFactor": 0.0}}, "name": "Material.006", "pbrMetallicRoughness": {"baseColorFactor": [0.04011232605020126, 0.03852487607060999, 0.028347918844827215, 1.0], "metallicFactor": 0.0}}, {"doubleSided": true, "name": "Material.003", "pbrMetallicRoughness": {"baseColorFactor": [0.8, 0.8, 0.8, 1.0], "metallicFactor": 0.0, "roughnessFactor": 0.9577051495}}, {"doubleSided": true, "name": "Material.004", "pbrMetallicRoughness": {"baseColorFactor": [0.8, 0.8, 0.8, 1.0], "metallicFactor": 0.0, "roughnessFactor": 0.9577051495}}, {"doubleSided": true, "name": "Material.002", "pbrMetallicRoughness": {"baseColorFactor": [0.8, 0.8, 0.8, 1.0], "metallicFactor": 0.0, "roughnessFactor": 0.9577051495}}, {"doubleSided": true, "name": "Material.001", "pbrMetallicRoughness": {"baseColorFactor": [0.8, 0.8, 0.8, 1.0], "metallicFactor": 0.0, "roughnessFactor": 0.9577051495}}, {"doubleSided": true, "extensions": {"KHR_materials_specular": {"specularColorFactor": [1.0, 1.0, 1.0], "specularFactor": 0.0}}, "name": "Material.020", "pbrMetallicRoughness": {"baseColorFactor": [0.016712155273156476, 0.016712155273156476, 0.016712155273156476, 1.0], "metallicFactor": 0.0}}, {"doubleSided": true, "extensions": {"KHR_materials_specular": {"specularColorFactor": [1.0, 1.0, 1.0], "specularFactor": 0.0}}, "name": "Material.019", "pbrMetallicRoughness": {"baseColorFactor": [0.025762195119999998, 0.025762195119999998, 0.025762195119999998, 1.0], "metallicFactor": 0.0}}, {"doubleSided": true, "extensions": {"KHR_materials_specular": {"specularColorFactor": [1.0, 1.0, 1.0], "specularFactor": 0.0}}, "name": "Material.018", "pbrMetallicRoughness": {"baseColorFactor": [0.15259146344000002, 0.15259146344000002, 0.15259146344000002, 1.0], "metallicFactor": 0.0}}, {"doubleSided": true, "extensions": {"KHR_materials_specular": {"specularColorFactor": [1.0, 1.0, 1.0], "specularFactor": 0.0}}, "name": "Material.017", "pbrMetallicRoughness": {"baseColorFactor": [0.015020979951490664, 0.015020979951490664, 0.015020979951490664, 1.0], "metallicFactor": 0.0}}, {"doubleSided": true, "extensions": {"KHR_materials_specular": {"specularColorFactor": [1.0, 1.0, 1.0], "specularFactor": 0.0}}, "name": "Material.016", "pbrMetallicRoughness": {"baseColorFactor": [0.037220958524168034, 0.037220958524168034, 0.037220958524168034, 1.0], "metallicFactor": 0.0}}], "meshes": [{"name": "Cylinder_Material_0", "primitives": [{"attributes": {"JOINTS_0": 61, "NORMAL": 1, "POSITION": 0, "WEIGHTS_0": 62}, "indices": 2, "material": 0, "mode": 4}]}, {"name": "Cylinder_Material.007_0", "primitives": [{"attributes": {"JOINTS_0": 63, "NORMAL": 4, "POSITION": 3, "WEIGHTS_0": 64}, "indices": 5, "material": 1, "mode": 4}]}, {"name": "Cylinder_Material.014_0", "primitives": [{"attributes": {"JOINTS_0": 65, "NORMAL": 7, "POSITION": 6, "WEIGHTS_0": 66}, "indices": 8, "material": 2, "mode": 4}]}, {"name": "Cylinder_Material.008_0", "primitives": [{"attributes": {"JOINTS_0": 67, "NORMAL": 10, "POSITION": 9, "WEIGHTS_0": 68}, "indices": 11, "material": 3, "mode": 4}]}, {"name": "Cylinder_Material.011_0", "primitives": [{"attributes": {"JOINTS_0": 69, "NORMAL": 13, "POSITION": 12, "WEIGHTS_0": 70}, "indices": 14, "material": 4, "mode": 4}]}, {"name": "Cylinder_sights_0", "primitives": [{"attributes": {"JOINTS_0": 71, "NORMAL": 16, "POSITION": 15, "WEIGHTS_0": 72}, "indices": 17, "material": 5, "mode": 4}]}, {"name": "Cylinder_Material.005_0", "primitives": [{"attributes": {"JOINTS_0": 73, "NORMAL": 19, "POSITION": 18, "WEIGHTS_0": 74}, "indices": 20, "material": 6, "mode": 4}]}, {"name": "Cylinder_Material.010_0", "primitives": [{"attributes": {"JOINTS_0": 75, "NORMAL": 22, "POSITION": 21, "WEIGHTS_0": 76}, "indices": 23, "material": 7, "mode": 4}]}, {"name": "Cylinder_Material.012_0", "primitives": [{"attributes": {"JOINTS_0": 77, "NORMAL": 25, "POSITION": 24, "WEIGHTS_0": 78}, "indices": 26, "material": 8, "mode": 4}]}, {"name": "Cylinder_Material.013_0", "primitives": [{"attributes": {"JOINTS_0": 79, "NORMAL": 28, "POSITION": 27, "WEIGHTS_0": 80}, "indices": 29, "material": 9, "mode": 4}]}, {"name": "Cylinder_Material.006_0", "primitives": [{"attributes": {"JOINTS_0": 81, "NORMAL": 31, "POSITION": 30, "WEIGHTS_0": 82}, "indices": 32, "material": 10, "mode": 4}]}, {"name": "Cylinder_Material.003_0", "primitives": [{"attributes": {"JOINTS_0": 83, "NORMAL": 34, "POSITION": 33, "WEIGHTS_0": 84}, "indices": 35, "material": 11, "mode": 4}]}, {"name": "Cylinder_Material.004_0", "primitives": [{"attributes": {"JOINTS_0": 85, "NORMAL": 37, "POSITION": 36, "WEIGHTS_0": 86}, "indices": 38, "material": 12, "mode": 4}]}, {"name": "Cylinder_Material.002_0", "primitives": [{"attributes": {"JOINTS_0": 87, "NORMAL": 40, "POSITION": 39, "WEIGHTS_0": 88}, "indices": 41, "material": 13, "mode": 4}]}, {"name": "Cylinder_Material.001_0", "primitives": [{"attributes": {"JOINTS_0": 89, "NORMAL": 43, "POSITION": 42, "WEIGHTS_0": 90}, "indices": 44, "material": 14, "mode": 4}]}, {"name": "Cube.016_Material.020_0", "primitives": [{"attributes": {"NORMAL": 46, "POSITION": 45}, "indices": 47, "material": 15, "mode": 4}]}, {"name": "Cube.016_Material.019_0", "primitives": [{"attributes": {"NORMAL": 49, "POSITION": 48}, "indices": 50, "material": 16, "mode": 4}]}, {"name": "Cube.016_Material.018_0", "primitives": [{"attributes": {"NORMAL": 52, "POSITION": 51}, "indices": 53, "material": 17, "mode": 4}]}, {"name": "Cube.016_Material.017_0", "primitives": [{"attributes": {"NORMAL": 55, "POSITION": 54}, "indices": 56, "material": 18, "mode": 4}]}, {"name": "Cube.016_Material.016_0", "primitives": [{"attributes": {"NORMAL": 58, "POSITION": 57}, "indices": 59, "material": 19, "mode": 4}]}], "nodes": [{"children": [1], "matrix": [0.08280900120735168, 0.0, 0.0, 0.0, 0.0, 1.8387291957322845e-17, -0.08280900120735168, 0.0, 0.0, 0.08280900120735168, 1.8387291957322845e-17, 0.0, 0.0, 0.0, 0.0, 1.0], "name": "Sketchfab_model"}, {"children": [2], "matrix": [1.0, 0.0, 0.0, 0.0, 0.0, 0.0, 1.0, 0.0, 0.0, -1.0, 0.0, 0.0, 0.0, 0.0, 0.0, 1.0], "name": "ec83c5c0e93c4e1abbf134e01809a9ce.fbx"}, {"children": [3, 36], "name": "RootNode"}, {"children": [4], "matrix": [7.549789970973109e-06, -99.99999999999967, 2.980231184057658e-06, 0.0, -2.8212996699972237e-05, -2.980233304583635e-06, -99.99999999999596, 0.0, 99.99999999999572, 7.549789121652495e-06, -2.8212996916465727e-05, 0.0, 232.2794189453125, -6.373193264007568, 0.0, 1.0], "name": "Armature"}, {"children": [5, 21, 22, 23, 24, 25, 26, 27, 28, 29, 30, 31, 32, 33, 34, 35, 20], "name": "Object_4"}, {"children": [6], "name": "_rootJoint"}, {"children": [7, 9, 14, 16, 18], "name": "body_00", "rotation": [0.7071068286895752, 1.1281869781330238e-23, -4.2630106427015896e-24, 0.7071067094802856], "translation": [0.3791368007659912, 3.4173865959274963e-09, 0.4928778111934662]}, {"children": [8], "name": "charginghandle_01", "rotation": [1.9877791242684146e-23, 5.848338984317317e-17, -4.3527847992663737e-10, 1.0], "translation": [-0.4549643099308014, -1.53550386428833, -8.692394715126284e-08]}, {"name": "charginghandle_end_011", "rotation": [-1.3234889800848443e-23, -1.6543612251060553e-24, 7.790139489715905e-24, 1.0], "translation": [0.0, 1.0, -1.3234889800848443e-23]}, {"children": [10, 12], "name": "mag_02", "rotation": [0.9140901565551758, -7.98009125446697e-08, 0.4055110812187195, -1.9507480431002477e-07], "translation": [-1.042626142501831, 0.270161896944046, 2.0407432543834148e-07]}, {"children": [11], "name": "bullets_03", "rotation": [0.3596198856830597, -7.735651053053516e-08, 0.9330989122390747, 8.979657906138527e-08], "translation": [0.1839597225189209, 4.759984493255615, 0.20320898294448853]}, {"name": "bullets_end_010", "rotation": [-9.72956428039353e-24, 5.293955920339377e-23, 3.970466940254533e-23, 1.0], "translation": [0.0, 0.4426751136779785, 0.0]}, {"children": [13], "name": "bullet_04", "rotation": [0.3596198856830597, -1.0801170446939068e-07, 0.9330989122390747, 1.0161120655993727e-07], "translation": [0.26917344331741333, 4.7573394775390625, 0.29733940958976746]}, {"name": "bullet_end_013", "rotation": [8.851309657392874e-24, 2.6469779601696886e-23, 2.6469779601696886e-23, 1.0], "translation": [0.0, 0.4426751136779785, 0.0]}, {"children": [15], "name": "selector_05", "rotation": [-6.7216518573332e-08, 0.7071066498756409, 6.721649015162257e-08, 0.7071069478988647], "translation": [0.3616143465042114, -1.294722557067871, -2.1973112040996057e-07]}, {"name": "selector_end_09", "rotation": [3.4192702620261624e-23, -2.6469779601696886e-23, 1.401298464324817e-45, 1.0], "translation": [5.293955920339377e-23, 0.31137704849243164, 2.220446049250313e-16]}, {"children": [17], "name": "magrelease_06", "rotation": [5.711606121394652e-08, 0.7071067094802856, -5.7116050555805487e-08, 0.7071068286895752], "translation": [-0.9581246376037598, -5.395207405090332, -9.047525395544653e-07]}, {"name": "magrelease_end_012", "rotation": [1.575617129546894e-24, -1.3234889800848443e-23, -1.3234889800848443e-23, 1.0], "translation": [1.0587911840678754e-22, 0.7369685173034668, 0.0]}, {"children": [19], "name": "bolt_07", "rotation": [4.2454640691858e-08, 0.7071067094802856, -4.2454633586430646e-08, 0.7071068286895752], "translation": [-0.4249633550643921, -4.803993225097656, -5.696619496120547e-07]}, {"name": "bolt_end_08", "rotation": [-4.415128268777168e-24, 2.6469779601696886e-23, 2.6469779601696886e-23, 1.0], "translation": [0.0, 1.0, 3.469446951953614e-18]}, {"matrix": [45.49736678600568, -7.921637200337614e-08, -1.9799014316056185e-13, 0.0, -2.1117750438041088e-13, 2.971469353290441e-15, -48.5277712345132, 0.0, 4.257562762741793e-08, 24.453012645245526, 1.4973151832754843e-15, 0.0, -139.73210181221714, 45.78635810404256, 1.3066709105757131e-05, 1.0], "name": "Object_20"}, {"mesh": 0, "name": "Object_21", "skin": 0}, {"mesh": 1, "name": "Object_22", "skin": 0}, {"mesh": 2, "name": "Object_23", "skin": 0}, {"mesh": 3, "name": "Object_24", "skin": 0}, {"mesh": 4, "name": "Object_25", "skin": 0}, {"mesh": 5, "name": "Object_26", "skin": 0}, {"mesh": 6, "name": "Object_27", "skin": 0}, {"mesh": 7, "name": "Object_28", "skin": 0}, {"mesh": 8, "name": "Object_29", "skin": 0}, {"mesh": 9, "name": "Object_30", "skin": 0}, {"mesh": 10, "name": "Object_31", "skin": 0}, {"mesh": 11, "name": "Object_32", "skin": 0}, {"mesh": 12, "name": "Object_33", "skin": 0}, {"mesh": 13, "name": "Object_34", "skin": 0}, {"mesh": 14, "name": "Object_35", "skin": 0}, {"children": [37, 38, 39, 40, 41], "matrix": [15.134101867675781, 0.0, 0.0, 0.0, 0.0, -2.684951988083389e-06, -16.480117797851346, 0.0, 0.0, 15.13410186767558, -2.465658158266923e-06, 0.0, 280.1959228515625, 174.69888305664062, 1.8308481230633333e-05, 1.0], "name": "Cube.016"}, {"mesh": 15, "name": "Cube.016_Material.020_0"}, {"mesh": 16, "name": "Cube.016_Material.019_0"}, {"mesh": 17, "name": "Cube.016_Material.018_0"}, {"mesh": 18, "name": "Cube.016_Material.017_0"}, {"mesh": 19, "name": "Cube.016_Material.016_0"}], "scene": 0, "scenes": [{"name": "Sketchfab_Scene", "nodes": [0]}], "skins": [{"inverseBindMatrices": 60, "joints": [5, 6, 7, 8, 9, 10, 11, 12, 13, 14, 15, 16, 17, 18, 19], "skeleton": 5}]}