{"accessors": [{"bufferView": 2, "componentType": 5126, "count": 7969, "max": [1.1894207000732422, 1.3756225109100342, 1.2586772441864014], "min": [-1.1356837749481201, -13.30610466003418, -20.527339935302734], "type": "VEC3"}, {"bufferView": 2, "byteOffset": 95628, "componentType": 5126, "count": 7969, "max": [1.0, 1.0, 1.0], "min": [-1.0, -1.0, -1.0], "type": "VEC3"}, {"bufferView": 1, "componentType": 5126, "count": 7969, "max": [0.9970837235450745, 1.0], "min": [-1.1514404540946543e-08, 0.0], "type": "VEC2"}, {"bufferView": 1, "byteOffset": 63752, "componentType": 5126, "count": 7969, "max": [0.875, 1.0], "min": [0.0, 0.0], "type": "VEC2"}, {"bufferView": 0, "componentType": 5125, "count": 15261, "type": "SCALAR"}], "asset": {"extras": {"author": "Friendly (https://sketchfab.com/Friendly1)", "license": "CC-BY-4.0 (http://creativecommons.org/licenses/by/4.0/)", "source": "https://sketchfab.com/3d-models/glock-17-ccf58223a7804de8b15d1d35b7d0b587", "title": "glock 17"}, "generator": "Sketchfab-0.6.0", "version": "2.0"}, "bufferViews": [{"buffer": 0, "byteLength": 61044, "name": "floatBufferViews", "target": 34963}, {"buffer": 0, "byteLength": 127504, "byteOffset": 61044, "byteStride": 8, "name": "floatBufferViews", "target": 34962}, {"buffer": 0, "byteLength": 191256, "byteOffset": 188548, "byteStride": 12, "name": "floatBufferViews", "target": 34962}], "buffers": [{"byteLength": 379804, "uri": "scene.bin"}], "extensionsUsed": ["KHR_materials_specular"], "materials": [{"doubleSided": true, "extensions": {"KHR_materials_specular": {"specularColorFactor": [1.0, 1.0, 1.0], "specularFactor": 1.0}}, "name": ".025", "pbrMetallicRoughness": {"baseColorFactor": [0.03236706275273815, 0.031036731372670254, 0.031036731372670254, 1.0], "metallicFactor": 0.9249551998634662, "roughnessFactor": 0.20571491265497188}}], "meshes": [{"name": "Object_0", "primitives": [{"attributes": {"NORMAL": 1, "POSITION": 0, "TEXCOORD_0": 2, "TEXCOORD_1": 3}, "indices": 4, "material": 0, "mode": 4}]}], "nodes": [{"children": [1], "matrix": [0.23089510202407837, 0.0, 0.0, 0.0, 0.0, 5.126901170806128e-17, -0.23089510202407837, 0.0, 0.0, 0.23089510202407837, 5.126901170806128e-17, 0.0, 0.0, 0.0, 0.0, 1.0], "name": "Sketchfab_model"}, {"children": [2], "name": "root"}, {"children": [3], "matrix": [1.0, 0.0, 0.0, 0.0, 0.0, 2.220446049250313e-16, 1.0, 0.0, 0.0, -1.0, 2.220446049250313e-16, 0.0, 0.0, 0.0, 0.0, 1.0], "name": "GLTF_SceneRootNode"}, {"children": [4], "matrix": [0.5, 0.0, 0.0, 0.0, 0.0, 0.3474031090736389, 0.0, 0.0, 0.0, 0.0, 0.3474031090736389, 0.0, 13.770999908447266, 3.660900115966797, 5.179699897766113, 1.0], "name": "slide.002_0"}, {"mesh": 0, "name": "Object_4"}], "scene": 0, "scenes": [{"name": "Sketchfab_Scene", "nodes": [0]}]}