{"accessors": [{"bufferView": 2, "componentType": 5126, "count": 3913, "max": [188.8634490966797, 15.778003692626953, -49.845577239990234], "min": [-9.692687034606934, -1.338989496231079, -99.08165740966797], "type": "VEC3"}, {"bufferView": 2, "byteOffset": 46956, "componentType": 5126, "count": 3913, "max": [0.48938125371932983, 1.0, 0.9999613761901855], "min": [-0.4034965932369232, -1.0, -0.9962232112884521], "type": "VEC3"}, {"bufferView": 3, "componentType": 5126, "count": 3913, "max": [0.9758917689323425, 0.9998165965080261, 0.9992825984954834, 1.0], "min": [-0.9999765157699585, -0.999065637588501, -0.9999575018882751, -1.0], "type": "VEC4"}, {"bufferView": 1, "componentType": 5126, "count": 3913, "max": [0.932556688785553, 0.9497466087341309], "min": [0.07109592854976654, 0.004063821863383055], "type": "VEC2"}, {"bufferView": 1, "byteOffset": 31304, "componentType": 5126, "count": 3913, "max": [0.932556688785553, 0.9497466087341309], "min": [0.07109592854976654, 0.004063821863383055], "type": "VEC2"}, {"bufferView": 1, "byteOffset": 62608, "componentType": 5126, "count": 3913, "max": [0.932556688785553, 0.9497466087341309], "min": [0.07109592854976654, 0.004063821863383055], "type": "VEC2"}, {"bufferView": 0, "componentType": 5125, "count": 19488, "type": "SCALAR"}, {"bufferView": 2, "byteOffset": 93912, "componentType": 5126, "count": 6975, "max": [227.67138671875, 14.447501182556152, -23.3909912109375], "min": [-29.00316047668457, 0.0, -103.0303955078125], "type": "VEC3"}, {"bufferView": 2, "byteOffset": 177612, "componentType": 5126, "count": 6975, "max": [1.0, 1.0, 1.0], "min": [-1.0, -1.0, -1.0], "type": "VEC3"}, {"bufferView": 3, "byteOffset": 62608, "componentType": 5126, "count": 6975, "max": [1.0, 1.0, 1.0, 1.0], "min": [-1.0, -1.0, -1.0, -1.0], "type": "VEC4"}, {"bufferView": 1, "byteOffset": 93912, "componentType": 5126, "count": 6975, "max": [0.9000298380851746, 0.9000301361083984], "min": [0.0029808836989104748, 0.002980982419103384], "type": "VEC2"}, {"bufferView": 1, "byteOffset": 149712, "componentType": 5126, "count": 6975, "max": [0.9000298380851746, 0.9000301361083984], "min": [0.0029808836989104748, 0.002980982419103384], "type": "VEC2"}, {"bufferView": 1, "byteOffset": 205512, "componentType": 5126, "count": 6975, "max": [0.9000298380851746, 0.9000301361083984], "min": [0.0029808836989104748, 0.002980982419103384], "type": "VEC2"}, {"bufferView": 0, "byteOffset": 77952, "componentType": 5125, "count": 20823, "type": "SCALAR"}, {"bufferView": 2, "byteOffset": 261312, "componentType": 5126, "count": 3267, "max": [23.801332473754883, 9.173023223876953, -35.22361373901367], "min": [-230.91014099121094, 5.077280044555664, -99.22821044921875], "type": "VEC3"}, {"bufferView": 2, "byteOffset": 300516, "componentType": 5126, "count": 3267, "max": [1.0, 0.9999997615814209, 1.0], "min": [-1.0, -0.9999999403953552, -1.0], "type": "VEC3"}, {"bufferView": 3, "byteOffset": 174208, "componentType": 5126, "count": 3267, "max": [0.9999972581863403, 1.0, 0.9999976754188538, 1.0], "min": [-0.9999938011169434, -1.0, -0.9952200651168823, 1.0], "type": "VEC4"}, {"bufferView": 1, "byteOffset": 261312, "componentType": 5126, "count": 3267, "max": [0.9948704838752747, 0.9970189332962036], "min": [0.003947932738810778, 0.0034314903896301985], "type": "VEC2"}, {"bufferView": 1, "byteOffset": 287448, "componentType": 5126, "count": 3267, "max": [0.9948704838752747, 0.9970189332962036], "min": [0.003947932738810778, 0.0034314903896301985], "type": "VEC2"}, {"bufferView": 1, "byteOffset": 313584, "componentType": 5126, "count": 3267, "max": [0.9948704838752747, 0.9970189332962036], "min": [0.003947932738810778, 0.0034314903896301985], "type": "VEC2"}, {"bufferView": 0, "byteOffset": 161244, "componentType": 5125, "count": 9996, "type": "SCALAR"}, {"bufferView": 2, "byteOffset": 339720, "componentType": 5126, "count": 5287, "max": [219.622802734375, 16.800331115722656, -4.9296674728393555], "min": [-31.991130828857422, -2.4054877758026123, -91.15937042236328], "type": "VEC3"}, {"bufferView": 2, "byteOffset": 403164, "componentType": 5126, "count": 5287, "max": [1.0, 1.0, 1.0], "min": [-1.0, -1.0, -1.0], "type": "VEC3"}, {"bufferView": 3, "byteOffset": 226480, "componentType": 5126, "count": 5287, "max": [1.0, 1.0, 1.0, 1.0], "min": [-1.0, -1.0, -1.0, -1.0], "type": "VEC4"}, {"bufferView": 1, "byteOffset": 339720, "componentType": 5126, "count": 5287, "max": [0.6102443933486938, 0.6274343729019165], "min": [0.018035786226391792, 0.003357113106176257], "type": "VEC2"}, {"bufferView": 1, "byteOffset": 382016, "componentType": 5126, "count": 5287, "max": [0.6102443933486938, 0.6274343729019165], "min": [0.018035786226391792, 0.003357113106176257], "type": "VEC2"}, {"bufferView": 1, "byteOffset": 424312, "componentType": 5126, "count": 5287, "max": [0.6102443933486938, 0.6274343729019165], "min": [0.018035786226391792, 0.003357113106176257], "type": "VEC2"}, {"bufferView": 0, "byteOffset": 201228, "componentType": 5125, "count": 25914, "type": "SCALAR"}], "asset": {"extras": {"author": "DjJaba (https://sketchfab.com/djjaba)", "license": "CC-BY-4.0 (http://creativecommons.org/licenses/by/4.0/)", "source": "https://sketchfab.com/3d-models/butterfly-knife-vanilla-514edc772445441083b3cd611fd4e65c", "title": "Butterfly Knife - Vanilla"}, "generator": "Sketchfab-16.64.0", "version": "2.0"}, "bufferViews": [{"buffer": 0, "byteLength": 304884, "name": "floatBufferViews", "target": 34963}, {"buffer": 0, "byteLength": 466608, "byteOffset": 304884, "byteStride": 8, "name": "floatBufferViews", "target": 34962}, {"buffer": 0, "byteLength": 466608, "byteOffset": 771492, "byteStride": 12, "name": "floatBufferViews", "target": 34962}, {"buffer": 0, "byteLength": 311072, "byteOffset": 1238100, "byteStride": 16, "name": "floatBufferViews", "target": 34962}], "buffers": [{"byteLength": 1549172, "uri": "scene.bin"}], "images": [{"uri": "textures/Tires_baseColor.jpg", "mimeType": "image/jpeg"}, {"uri": "textures/Tires_metallicRoughness.jpg", "mimeType": "image/jpeg"}, {"uri": "textures/Tires_normal.jpg", "mimeType": "image/jpeg"}, {"uri": "textures/Handles_baseColor.jpg", "mimeType": "image/jpeg"}, {"uri": "textures/Handles_metallicRoughness.jpg", "mimeType": "image/jpeg"}, {"uri": "textures/Handles_normal.jpg", "mimeType": "image/jpeg"}, {"uri": "textures/Blade_baseColor.jpg", "mimeType": "image/jpeg"}, {"uri": "textures/Blade_metallicRoughness.jpg", "mimeType": "image/jpeg"}, {"uri": "textures/Blade_normal.jpg", "mimeType": "image/jpeg"}, {"uri": "textures/Plugs_baseColor.jpg", "mimeType": "image/jpeg"}, {"uri": "textures/Plugs_metallicRoughness.jpg", "mimeType": "image/jpeg"}, {"uri": "textures/Plugs_normal.jpg", "mimeType": "image/jpeg"}], "materials": [{"doubleSided": true, "name": "Tires", "normalTexture": {"index": 2}, "occlusionTexture": {"index": 1}, "pbrMetallicRoughness": {"baseColorTexture": {"index": 0}, "metallicRoughnessTexture": {"index": 1}}}, {"doubleSided": true, "name": "Handles", "normalTexture": {"index": 5, "texCoord": 1}, "occlusionTexture": {"index": 4}, "pbrMetallicRoughness": {"baseColorTexture": {"index": 3}, "metallicRoughnessTexture": {"index": 4}}}, {"doubleSided": true, "name": "Blade", "normalTexture": {"index": 8}, "occlusionTexture": {"index": 7}, "pbrMetallicRoughness": {"baseColorTexture": {"index": 6}, "metallicRoughnessTexture": {"index": 7}}}, {"doubleSided": true, "name": "Plugs", "normalTexture": {"index": 11}, "occlusionTexture": {"index": 10}, "pbrMetallicRoughness": {"baseColorTexture": {"index": 9}, "metallicRoughnessTexture": {"index": 10}}}], "meshes": [{"name": "Batterfly-Knife_Tires_0", "primitives": [{"attributes": {"NORMAL": 1, "POSITION": 0, "TANGENT": 2, "TEXCOORD_0": 3, "TEXCOORD_1": 4, "TEXCOORD_2": 5}, "indices": 6, "material": 0, "mode": 4}]}, {"name": "Batterfly-Knife_Handles_0", "primitives": [{"attributes": {"NORMAL": 8, "POSITION": 7, "TANGENT": 9, "TEXCOORD_0": 10, "TEXCOORD_1": 11, "TEXCOORD_2": 12}, "indices": 13, "material": 1, "mode": 4}]}, {"name": "Batterfly-Knife_Blade_0", "primitives": [{"attributes": {"NORMAL": 15, "POSITION": 14, "TANGENT": 16, "TEXCOORD_0": 17, "TEXCOORD_1": 18, "TEXCOORD_2": 19}, "indices": 20, "material": 2, "mode": 4}]}, {"name": "Batterfly-Knife_Plugs_0", "primitives": [{"attributes": {"NORMAL": 22, "POSITION": 21, "TANGENT": 23, "TEXCOORD_0": 24, "TEXCOORD_1": 25, "TEXCOORD_2": 26}, "indices": 27, "material": 3, "mode": 4}]}], "nodes": [{"children": [1], "matrix": [1.0, 0.0, 0.0, 0.0, 0.0, 2.220446049250313e-16, -1.0, 0.0, 0.0, 1.0, 2.220446049250313e-16, 0.0, 0.0, 0.0, 0.0, 1.0], "name": "Sketchfab_model"}, {"children": [2], "matrix": [0.009999999776482582, 0.0, 0.0, 0.0, 0.0, 0.0, 0.009999999776482582, 0.0, 0.0, -0.009999999776482582, 0.0, 0.0, 0.0, 0.0, 0.0, 1.0], "name": "Butterfly Knife-Vanilla.fbx"}, {"children": [3], "name": "RootNode"}, {"children": [4, 5, 6, 7], "name": "Batterfly-Knife"}, {"mesh": 0, "name": "Batterfly-Knife_Tires_0"}, {"mesh": 1, "name": "Batterfly-Knife_Handles_0"}, {"mesh": 2, "name": "Batterfly-Knife_Blade_0"}, {"mesh": 3, "name": "Batterfly-Knife_Plugs_0"}], "samplers": [{"magFilter": 9729, "minFilter": 9987, "wrapS": 10497, "wrapT": 10497}], "scene": 0, "scenes": [{"name": "Sketchfab_Scene", "nodes": [0]}], "textures": [{"sampler": 0, "source": 0}, {"sampler": 0, "source": 1}, {"sampler": 0, "source": 2}, {"sampler": 0, "source": 3}, {"sampler": 0, "source": 4}, {"sampler": 0, "source": 5}, {"sampler": 0, "source": 6}, {"sampler": 0, "source": 7}, {"sampler": 0, "source": 8}, {"sampler": 0, "source": 9}, {"sampler": 0, "source": 10}, {"sampler": 0, "source": 11}]}