{"accessors": [{"bufferView": 1, "componentType": 5126, "count": 228, "max": [-204.2036590576172, -10.529709815979004, 0.7119500041007996], "min": [-229.323486328125, -22.355560302734375, -0.7119500041007996], "type": "VEC3"}, {"bufferView": 1, "byteOffset": 2736, "componentType": 5126, "count": 228, "max": [1.0, 1.0, 1.0], "min": [-1.0, -0.9988300204277039, -1.0], "type": "VEC3"}, {"bufferView": 0, "componentType": 5125, "count": 420, "type": "SCALAR"}, {"bufferView": 1, "byteOffset": 5472, "componentType": 5126, "count": 112, "max": [13.020959854125977, 4.1985602378845215, 1.2306599617004395], "min": [0.528689980506897, -18.589820861816406, -4.406040191650391], "type": "VEC3"}, {"bufferView": 1, "byteOffset": 6816, "componentType": 5126, "count": 112, "max": [1.0, 1.0, 0.9970489144325256], "min": [-1.0, -1.0, -0.8113723397254944], "type": "VEC3"}, {"bufferView": 0, "byteOffset": 1680, "componentType": 5125, "count": 204, "type": "SCALAR"}, {"bufferView": 1, "byteOffset": 8160, "componentType": 5126, "count": 100, "max": [12.686149597167969, 6.159599781036377, 1.6570700407028198], "min": [0.8545100092887878, -20.550870895385742, -5.223259925842285], "type": "VEC3"}, {"bufferView": 1, "byteOffset": 9360, "componentType": 5126, "count": 100, "max": [1.0, 1.0, 0.9958069920539856], "min": [-1.0, -0.6415938138961792, -0.9937958121299744], "type": "VEC3"}, {"bufferView": 0, "byteOffset": 2496, "componentType": 5125, "count": 186, "type": "SCALAR"}, {"bufferView": 1, "byteOffset": 10560, "componentType": 5126, "count": 167, "max": [0.9562600255012512, 0.5305600166320801, 0.9663199782371521], "min": [-4.635769844055176, -0.5305600166320801, -1.0293999910354614], "type": "VEC3"}, {"bufferView": 1, "byteOffset": 12564, "componentType": 5126, "count": 167, "max": [1.0, 1.0, 1.0], "min": [-1.0, -1.0, -1.0], "type": "VEC3"}, {"bufferView": 0, "byteOffset": 3240, "componentType": 5125, "count": 384, "type": "SCALAR"}, {"bufferView": 1, "byteOffset": 14568, "componentType": 5126, "count": 72, "max": [2.104720115661621, 2.1855599880218506, 1.0], "min": [-0.9363300204277039, -2.1855499744415283, -20.65530014038086], "type": "VEC3"}, {"bufferView": 1, "byteOffset": 15432, "componentType": 5126, "count": 72, "max": [0.9984290599822998, 1.0, 0.885468602180481], "min": [-0.9983022809028625, -1.0, -0.7448996305465698], "type": "VEC3"}, {"bufferView": 0, "byteOffset": 4776, "componentType": 5125, "count": 96, "type": "SCALAR"}, {"bufferView": 1, "byteOffset": 16296, "componentType": 5126, "count": 78, "max": [0.8660299777984619, 1.0, 2.4660799503326416], "min": [-0.8660299777984619, -1.0, -38.79423904418945], "type": "VEC3"}, {"bufferView": 1, "byteOffset": 17232, "componentType": 5126, "count": 78, "max": [1.0, 0.8660265803337097, 1.0], "min": [-1.0, -0.8660265803337097, 0.0], "type": "VEC3"}, {"bufferView": 0, "byteOffset": 5160, "componentType": 5125, "count": 156, "type": "SCALAR"}, {"bufferView": 1, "byteOffset": 18168, "componentType": 5126, "count": 132, "max": [0.8660299777984619, 1.0, 32.96628189086914], "min": [-0.8660299777984619, -1.0, -2.2306900024414062], "type": "VEC3"}, {"bufferView": 1, "byteOffset": 19752, "componentType": 5126, "count": 132, "max": [1.0, 0.8660265803337097, 1.0], "min": [-1.0, -0.8660265803337097, -1.0], "type": "VEC3"}, {"bufferView": 0, "byteOffset": 5784, "componentType": 5125, "count": 216, "type": "SCALAR"}, {"bufferView": 1, "byteOffset": 21336, "componentType": 5126, "count": 24, "max": [18.782949447631836, 0.6490200161933899, 1.0], "min": [-1.0, -0.6490200161933899, -1.0], "type": "VEC3"}, {"bufferView": 1, "byteOffset": 21624, "componentType": 5126, "count": 24, "max": [0.8047174215316772, 1.0, 1.0], "min": [-1.0, -1.0, -0.9999648928642273], "type": "VEC3"}, {"bufferView": 0, "byteOffset": 6648, "componentType": 5125, "count": 36, "type": "SCALAR"}, {"bufferView": 1, "byteOffset": 21912, "componentType": 5126, "count": 78, "max": [1.1017999649047852, 1.2722400426864624, -38.79423904418945], "min": [-1.1017800569534302, -1.2722300291061401, -40.23215103149414], "type": "VEC3"}, {"bufferView": 1, "byteOffset": 22848, "componentType": 5126, "count": 78, "max": [1.0, 0.8660265803337097, 0.9295405149459839], "min": [-1.0, -0.8660265803337097, -1.0], "type": "VEC3"}, {"bufferView": 0, "byteOffset": 6792, "componentType": 5125, "count": 120, "type": "SCALAR"}, {"bufferView": 1, "byteOffset": 23784, "componentType": 5126, "count": 88, "max": [0.8168299794197083, 0.26478999853134155, 0.7202200293540955], "min": [-1.0, -0.26478999853134155, -1.1098999977111816], "type": "VEC3"}, {"bufferView": 1, "byteOffset": 24840, "componentType": 5126, "count": 88, "max": [1.0, 1.0, 0.9136597514152527], "min": [-1.0, -1.0, -1.0], "type": "VEC3"}, {"bufferView": 0, "byteOffset": 7272, "componentType": 5125, "count": 204, "type": "SCALAR"}, {"bufferView": 1, "byteOffset": 25896, "componentType": 5126, "count": 70, "max": [1.731850028038025, 1.0, 1.0], "min": [-0.8660299777984619, -1.3220399618148804, -1.0], "type": "VEC3"}, {"bufferView": 1, "byteOffset": 26736, "componentType": 5126, "count": 70, "max": [0.9963759183883667, 0.8660265803337097, 1.0], "min": [-1.0, -0.9339784383773804, -1.0], "type": "VEC3"}, {"bufferView": 0, "byteOffset": 8088, "componentType": 5125, "count": 132, "type": "SCALAR"}, {"bufferView": 1, "byteOffset": 27576, "componentType": 5126, "count": 36, "max": [0.8660299777984619, 1.0, 1.0], "min": [-0.8660299777984619, -1.0, -1.0], "type": "VEC3"}, {"bufferView": 1, "byteOffset": 28008, "componentType": 5126, "count": 36, "max": [1.0, 0.8660265803337097, 1.0], "min": [-1.0, -0.8660265803337097, -1.0], "type": "VEC3"}, {"bufferView": 0, "byteOffset": 8616, "componentType": 5125, "count": 60, "type": "SCALAR"}, {"bufferView": 1, "byteOffset": 28440, "componentType": 5126, "count": 36, "max": [0.8660299777984619, 1.0, 2.684190034866333], "min": [-0.8660299777984619, -1.0, -1.8811399936676025], "type": "VEC3"}, {"bufferView": 1, "byteOffset": 28872, "componentType": 5126, "count": 36, "max": [1.0, 0.8660265803337097, 1.0], "min": [-1.0, -0.8660265803337097, -1.0], "type": "VEC3"}, {"bufferView": 0, "byteOffset": 8856, "componentType": 5125, "count": 60, "type": "SCALAR"}, {"bufferView": 1, "byteOffset": 29304, "componentType": 5126, "count": 36, "max": [0.8660299777984619, 1.0, 1.0], "min": [-0.8660299777984619, -1.0, -1.0], "type": "VEC3"}, {"bufferView": 1, "byteOffset": 29736, "componentType": 5126, "count": 36, "max": [1.0, 0.8660265803337097, 1.0], "min": [-1.0, -0.8660265803337097, -1.0], "type": "VEC3"}, {"bufferView": 0, "byteOffset": 9096, "componentType": 5125, "count": 60, "type": "SCALAR"}, {"bufferView": 1, "byteOffset": 30168, "componentType": 5126, "count": 60, "max": [7.769839763641357, 1.0, 1.6661900281906128], "min": [-0.6685500144958496, -1.0, -9.631509780883789], "type": "VEC3"}, {"bufferView": 1, "byteOffset": 30888, "componentType": 5126, "count": 60, "max": [0.9957005977630615, 1.0, 0.9974820017814636], "min": [-0.9929779767990112, -1.0, -0.9047149419784546], "type": "VEC3"}, {"bufferView": 0, "byteOffset": 9336, "componentType": 5125, "count": 108, "type": "SCALAR"}, {"bufferView": 1, "byteOffset": 31608, "componentType": 5126, "count": 60, "max": [0.8660299777984619, 1.0, 1.0], "min": [-0.8660299777984619, -1.0, -1.0], "type": "VEC3"}, {"bufferView": 1, "byteOffset": 32328, "componentType": 5126, "count": 60, "max": [1.0, 0.8660265803337097, 1.0], "min": [-1.0, -0.8660265803337097, -1.0], "type": "VEC3"}, {"bufferView": 0, "byteOffset": 9768, "componentType": 5125, "count": 96, "type": "SCALAR"}, {"bufferView": 1, "byteOffset": 33048, "componentType": 5126, "count": 125, "max": [1.0, 1.0, 1.816499948501587], "min": [-12.842180252075195, -1.0, -1.3229800462722778], "type": "VEC3"}, {"bufferView": 1, "byteOffset": 34548, "componentType": 5126, "count": 125, "max": [1.0, 1.0, 1.0], "min": [-1.0, -1.0, -1.0], "type": "VEC3"}, {"bufferView": 0, "byteOffset": 10152, "componentType": 5125, "count": 330, "type": "SCALAR"}, {"bufferView": 1, "byteOffset": 36048, "componentType": 5126, "count": 34, "max": [13.432299613952637, 0.6607099771499634, 1.0], "min": [-1.0, -0.6607099771499634, -0.33695998787879944], "type": "VEC3"}, {"bufferView": 1, "byteOffset": 36456, "componentType": 5126, "count": 34, "max": [1.0, 1.0, 1.0], "min": [-1.0, -1.0, -0.8101465702056885], "type": "VEC3"}, {"bufferView": 0, "byteOffset": 11472, "componentType": 5125, "count": 60, "type": "SCALAR"}, {"bufferView": 1, "byteOffset": 36864, "componentType": 5126, "count": 88, "max": [1.0, 2.6264400482177734, 0.4853599965572357], "min": [-24.01818084716797, -2.6264400482177734, -1.0], "type": "VEC3"}, {"bufferView": 1, "byteOffset": 37920, "componentType": 5126, "count": 88, "max": [1.0, 1.0, 1.0], "min": [-0.9887979626655579, -1.0, -1.0], "type": "VEC3"}, {"bufferView": 0, "byteOffset": 11712, "componentType": 5125, "count": 186, "type": "SCALAR"}, {"bufferView": 1, "byteOffset": 38976, "componentType": 5126, "count": 76, "max": [1.0, 6.919229984283447, 3.4957098960876465], "min": [-1.8579000234603882, -6.919229984283447, -1.0], "type": "VEC3"}, {"bufferView": 1, "byteOffset": 39888, "componentType": 5126, "count": 76, "max": [0.9822762608528137, 1.0, 1.0], "min": [-0.9822762608528137, -1.0, -1.0], "type": "VEC3"}, {"bufferView": 0, "byteOffset": 12456, "componentType": 5125, "count": 156, "type": "SCALAR"}, {"bufferView": 1, "byteOffset": 40800, "componentType": 5126, "count": 36, "max": [0.4626399874687195, 0.5342100262641907, -0.34606000781059265], "min": [-0.4626399874687195, -0.5342100262641907, -0.7436599731445312], "type": "VEC3"}, {"bufferView": 1, "byteOffset": 41232, "componentType": 5126, "count": 36, "max": [1.0, 0.8660265803337097, 1.0], "min": [-1.0, -0.8660265803337097, -1.0], "type": "VEC3"}, {"bufferView": 0, "byteOffset": 13080, "componentType": 5125, "count": 60, "type": "SCALAR"}, {"bufferView": 1, "byteOffset": 41664, "componentType": 5126, "count": 24, "max": [9.645870208740234, -2.6396799087524414, 16.93691062927246], "min": [-17.990150451660156, -5.421410083770752, 8.683899879455566], "type": "VEC3"}, {"bufferView": 1, "byteOffset": 41952, "componentType": 5126, "count": 24, "max": [1.0, 0.9762493968009949, 0.9762493968009949], "min": [-1.0, -0.9762493968009949, -0.9762493968009949], "type": "VEC3"}, {"bufferView": 0, "byteOffset": 13320, "componentType": 5125, "count": 36, "type": "SCALAR"}, {"bufferView": 1, "byteOffset": 42240, "componentType": 5126, "count": 36, "max": [0.8660299777984619, 1.0, 1.0], "min": [-0.8660299777984619, -1.0, -1.0], "type": "VEC3"}, {"bufferView": 1, "byteOffset": 42672, "componentType": 5126, "count": 36, "max": [1.0, 0.8660265803337097, 1.0], "min": [-1.0, -0.8660265803337097, -1.0], "type": "VEC3"}, {"bufferView": 0, "byteOffset": 13464, "componentType": 5125, "count": 60, "type": "SCALAR"}, {"bufferView": 1, "byteOffset": 43104, "componentType": 5126, "count": 36, "max": [0.8660299777984619, 1.0, 1.0], "min": [-0.8660299777984619, -1.0, -1.0], "type": "VEC3"}, {"bufferView": 1, "byteOffset": 43536, "componentType": 5126, "count": 36, "max": [1.0, 0.8660265803337097, 1.0], "min": [-1.0, -0.8660265803337097, -1.0], "type": "VEC3"}, {"bufferView": 0, "byteOffset": 13704, "componentType": 5125, "count": 60, "type": "SCALAR"}, {"bufferView": 1, "byteOffset": 43968, "componentType": 5126, "count": 24, "max": [1.0, 1.0, 1.0], "min": [-8.504730224609375, -1.0, -1.0], "type": "VEC3"}, {"bufferView": 1, "byteOffset": 44256, "componentType": 5126, "count": 24, "max": [1.0, 1.0, 1.0], "min": [-1.0, -1.0, -1.0], "type": "VEC3"}, {"bufferView": 0, "byteOffset": 13944, "componentType": 5125, "count": 36, "type": "SCALAR"}, {"bufferView": 1, "byteOffset": 44544, "componentType": 5126, "count": 68, "max": [30.270740509033203, 7.803890228271484, 0.33037999272346497], "min": [-1.7258299589157104, -7.803890228271484, -1.6696200370788574], "type": "VEC3"}, {"bufferView": 1, "byteOffset": 45360, "componentType": 5126, "count": 68, "max": [1.0, 1.0, 1.0], "min": [-1.0, -1.0, -1.0], "type": "VEC3"}, {"bufferView": 0, "byteOffset": 14088, "componentType": 5125, "count": 120, "type": "SCALAR"}, {"bufferView": 1, "byteOffset": 46176, "componentType": 5126, "count": 369, "max": [-4.1862897872924805, 0.5305600166320801, 0.805899977684021], "min": [-15.44752025604248, -0.5305600166320801, -4.833779811859131], "type": "VEC3"}, {"bufferView": 1, "byteOffset": 50604, "componentType": 5126, "count": 369, "max": [0.9423211216926575, 1.0, 1.0], "min": [-0.9994246363639832, -1.0, -0.9982885718345642], "type": "VEC3"}, {"bufferView": 0, "byteOffset": 14568, "componentType": 5125, "count": 642, "type": "SCALAR"}, {"bufferView": 1, "byteOffset": 55032, "componentType": 5126, "count": 66, "max": [12.404669761657715, 1.0, 1.3526699542999268], "min": [-1.0, -1.0, -1.0], "type": "VEC3"}, {"bufferView": 1, "byteOffset": 55824, "componentType": 5126, "count": 66, "max": [1.0, 1.0, 1.0], "min": [-1.0, -1.0, -1.0], "type": "VEC3"}, {"bufferView": 0, "byteOffset": 17136, "componentType": 5125, "count": 144, "type": "SCALAR"}], "asset": {"extras": {"author": "TastyTony (https://sketchfab.com/TastyTony)", "license": "CC-BY-4.0 (http://creativecommons.org/licenses/by/4.0/)", "source": "https://sketchfab.com/3d-models/low-poly-ithaca-m37-74da1e6054cc40e3b61bed4b4d8eef61", "title": "Low-Poly Ithaca M37"}, "generator": "Sketchfab-15.10.0", "version": "2.0"}, "bufferViews": [{"buffer": 0, "byteLength": 17712, "name": "floatBufferViews", "target": 34963}, {"buffer": 0, "byteLength": 56616, "byteOffset": 17712, "byteStride": 12, "name": "floatBufferViews", "target": 34962}], "buffers": [{"byteLength": 74328, "uri": "scene.bin"}], "extensionsRequired": [], "extensionsUsed": [], "materials": [{"doubleSided": true, "name": "Material.003", "pbrMetallicRoughness": {"baseColorFactor": [0.0611686772, 0.0611686772, 0.0611686772, 1.0], "metallicFactor": 0.0, "roughnessFactor": 1.0}}, {"doubleSided": true, "name": "Material.001", "pbrMetallicRoughness": {"baseColorFactor": [0.0736778947, 0.0525614603, 0.0395686359, 1.0], "metallicFactor": 0.0, "roughnessFactor": 1.0}}, {"doubleSided": true, "name": "Material.005", "pbrMetallicRoughness": {"baseColorFactor": [0.06084846673295134, 0.06084846673295134, 0.06084846673295134, 1.0], "metallicFactor": 0.0, "roughnessFactor": 1.0}}, {"doubleSided": true, "name": "Material.002", "pbrMetallicRoughness": {"baseColorFactor": [0.0517662898, 0.0517662898, 0.0517662898, 1.0], "metallicFactor": 0.0, "roughnessFactor": 1.0}}, {"doubleSided": true, "name": "Material", "pbrMetallicRoughness": {"baseColorFactor": [0.0432658617, 0.0432658617, 0.0432658617, 1.0], "metallicFactor": 0.0, "roughnessFactor": 1.0}}, {"doubleSided": true, "name": "Material.004", "pbrMetallicRoughness": {"baseColorFactor": [0.0976076635, 0.0976076635, 0.0976076635, 1.0], "metallicFactor": 0.0, "roughnessFactor": 1.0}}], "meshes": [{"name": "Cylinder.006_0", "primitives": [{"attributes": {"NORMAL": 1, "POSITION": 0}, "indices": 2, "material": 3, "mode": 4}]}, {"name": "Cube.010_0", "primitives": [{"attributes": {"NORMAL": 4, "POSITION": 3}, "indices": 5, "material": 4, "mode": 4}]}, {"name": "Cube.010_1", "primitives": [{"attributes": {"NORMAL": 7, "POSITION": 6}, "indices": 8, "material": 1, "mode": 4}]}, {"name": "Cube_0", "primitives": [{"attributes": {"NORMAL": 10, "POSITION": 9}, "indices": 11, "material": 4, "mode": 4}]}, {"name": "Cube.001_0", "primitives": [{"attributes": {"NORMAL": 13, "POSITION": 12}, "indices": 14, "material": 4, "mode": 4}]}, {"name": "Cylinder_0", "primitives": [{"attributes": {"NORMAL": 16, "POSITION": 15}, "indices": 17, "material": 3, "mode": 4}]}, {"name": "Cylinder.001_0", "primitives": [{"attributes": {"NORMAL": 19, "POSITION": 18}, "indices": 20, "material": 3, "mode": 4}]}, {"name": "Cube.003_0", "primitives": [{"attributes": {"NORMAL": 22, "POSITION": 21}, "indices": 23, "material": 5, "mode": 4}]}, {"name": "Cylinder.003_0", "primitives": [{"attributes": {"NORMAL": 25, "POSITION": 24}, "indices": 26, "material": 0, "mode": 4}]}, {"name": "Cube.004_0", "primitives": [{"attributes": {"NORMAL": 28, "POSITION": 27}, "indices": 29, "material": 3, "mode": 4}]}, {"name": "Cylinder.004_0", "primitives": [{"attributes": {"NORMAL": 31, "POSITION": 30}, "indices": 32, "material": 0, "mode": 4}]}, {"name": "Cylinder.005_0", "primitives": [{"attributes": {"NORMAL": 34, "POSITION": 33}, "indices": 35, "material": 2, "mode": 4}]}, {"name": "Cylinder.007_0", "primitives": [{"attributes": {"NORMAL": 37, "POSITION": 36}, "indices": 38, "material": 5, "mode": 4}]}, {"name": "Cylinder.008_0", "primitives": [{"attributes": {"NORMAL": 40, "POSITION": 39}, "indices": 41, "material": 2, "mode": 4}]}, {"name": "Cube.005_0", "primitives": [{"attributes": {"NORMAL": 43, "POSITION": 42}, "indices": 44, "material": 2, "mode": 4}]}, {"name": "Cylinder.010_0", "primitives": [{"attributes": {"NORMAL": 46, "POSITION": 45}, "indices": 47, "material": 2, "mode": 4}]}, {"name": "Cube.006_0", "primitives": [{"attributes": {"NORMAL": 49, "POSITION": 48}, "indices": 50, "material": 4, "mode": 4}]}, {"name": "Cube.007_0", "primitives": [{"attributes": {"NORMAL": 52, "POSITION": 51}, "indices": 53, "material": 4, "mode": 4}]}, {"name": "Cube.008_0", "primitives": [{"attributes": {"NORMAL": 55, "POSITION": 54}, "indices": 56, "material": 0, "mode": 4}]}, {"name": "Cube.009_0", "primitives": [{"attributes": {"NORMAL": 58, "POSITION": 57}, "indices": 59, "material": 3, "mode": 4}]}, {"name": "Cylinder.012_0", "primitives": [{"attributes": {"NORMAL": 61, "POSITION": 60}, "indices": 62, "material": 2, "mode": 4}]}, {"name": "Cube.011_0", "primitives": [{"attributes": {"NORMAL": 64, "POSITION": 63}, "indices": 65, "material": 2, "mode": 4}]}, {"name": "Cylinder.009_0", "primitives": [{"attributes": {"NORMAL": 67, "POSITION": 66}, "indices": 68, "material": 2, "mode": 4}]}, {"name": "Cylinder.013_0", "primitives": [{"attributes": {"NORMAL": 70, "POSITION": 69}, "indices": 71, "material": 2, "mode": 4}]}, {"name": "Cube.012_0", "primitives": [{"attributes": {"NORMAL": 73, "POSITION": 72}, "indices": 74, "material": 0, "mode": 4}]}, {"name": "Cube.013_0", "primitives": [{"attributes": {"NORMAL": 76, "POSITION": 75}, "indices": 77, "material": 0, "mode": 4}]}, {"name": "Cube.002_0", "primitives": [{"attributes": {"NORMAL": 79, "POSITION": 78}, "indices": 80, "material": 1, "mode": 4}]}, {"name": "Cube.014_0", "primitives": [{"attributes": {"NORMAL": 82, "POSITION": 81}, "indices": 83, "material": 0, "mode": 4}]}], "nodes": [{"children": [1], "matrix": [0.14239263534545898, 0.0, 0.0, 0.0, 0.0, 3.161751645951649e-17, -0.14239263534545898, 0.0, 0.0, 0.14239263534545898, 3.161751645951649e-17, 0.0, 0.0, 0.0, 0.0, 1.0], "name": "Sketchfab_model"}, {"children": [2, 4, 7, 9, 11, 13, 15, 17, 19, 21, 23, 25, 27, 29, 31, 33, 35, 37, 39, 41, 43, 45, 47, 49, 51, 53, 55, 57], "name": "Root"}, {"children": [3], "matrix": [0.022740000000000003, 0.0, 0.0, 0.0, 0.0, 0.0, 0.022740000000000003, 0.0, 0.0, -0.07369000000000002, 0.0, 0.0, 3.66223, -0.0, 0.4043800000000001, 1.0], "name": "Cylinder.006"}, {"mesh": 0, "name": "Cylinder.006_0"}, {"children": [5, 6], "matrix": [0.10326000000000002, 0.0, 0.0, 0.0, 0.0, 0.013460000000000001, 0.0, 0.0, 0.0, 0.0, 0.04983000000000001, 0.0, 0.6424500000000001, 0.09687000000000003, 0.33859000000000006, 1.0], "name": "Cube.010"}, {"mesh": 1, "name": "Cube.010_0"}, {"mesh": 2, "name": "Cube.010_1"}, {"children": [8], "matrix": [0.25911, 0.0, 0.0, 0.0, 0.0, 0.23081000000000002, 0.0, 0.0, 0.0, 0.0, 0.25911, 0.0, -0.41633000000000003, -0.0, 0.40367000000000003, 1.0], "name": "Cube"}, {"mesh": 3, "name": "Cube_0"}, {"children": [10], "matrix": [-0.014480000000000002, 0.6158500000000001, 0.78773, 0.0, -0.98973, -0.12087, 0.07631, 0.0, 0.14221000000000003, -0.7785299999999999, 0.61128, 0.0, 0.009330000000000003, -12.746139999999999, 8.02751, 1.0], "name": "Lamp"}, {"name": "Lamp"}, {"children": [12], "matrix": [0.045100000000000015, 0.0, 0.0, 0.0, 0.0, 0.045100000000000015, 0.0, 0.0, 0.0, 0.0, 0.045100000000000015, 0.0, -4.44508, 0.0, 0.09464000000000003, 1.0], "name": "Cube.001"}, {"mesh": 4, "name": "Cube.001_0"}, {"children": [14], "matrix": [0.0, -0.049460000000000004, 0.08566000000000003, 0.0, 0.0, 0.08566000000000003, 0.049460000000000004, 0.0, -0.09892000000000004, -0.0, 0.0, 0.0, -0.09143000000000003, -0.0, 0.27083, 1.0], "name": "Cylinder"}, {"mesh": 5, "name": "Cylinder_0"}, {"children": [16], "matrix": [0.0, -0.06339000000000002, -0.10979000000000003, 0.0, -0.0, 0.10979000000000003, -0.06339000000000002, 0.0, 0.12678, 0.0, 0.0, 0.0, -0.04279000000000001, -0.0, 0.51003, 1.0], "name": "Cylinder.001"}, {"mesh": 6, "name": "Cylinder.001_0"}, {"children": [18], "matrix": [0.044460000000000006, 0.0, 0.0, 0.0, 0.0, 0.044460000000000006, 0.0, 0.0, 0.0, 0.0, 0.044460000000000006, 0.0, -0.14835, -0.0, 0.3863800000000001, 1.0], "name": "Cube.003"}, {"mesh": 7, "name": "Cube.003_0"}, {"children": [20], "matrix": [0.0, -0.049460000000000004, 0.08566000000000003, 0.0, 0.0, 0.08566000000000003, 0.049460000000000004, 0.0, -0.09892000000000004, -0.0, 0.0, 0.0, -0.09143000000000003, -0.0, 0.27083, 1.0], "name": "Cylinder.003"}, {"mesh": 8, "name": "Cylinder.003_0"}, {"children": [22], "matrix": [0.11364000000000002, 0.0, 0.0, 0.0, 0.0, 0.11364000000000002, 0.0, 0.0, 0.0, 0.0, 0.11364000000000002, 0.0, 3.99008, -0.0, 0.36097000000000007, 1.0], "name": "Cube.004"}, {"mesh": 9, "name": "Cube.004_0"}, {"children": [24], "matrix": [0.0, 0.055790000000000006, 0.09663000000000004, 0.0, 0.0, 0.09663000000000004, -0.055790000000000006, 0.0, -0.054930000000000014, 0.0, 0.0, 0.0, 3.66407, -0.0, 0.27099, 1.0], "name": "Cylinder.004"}, {"mesh": 10, "name": "Cylinder.004_0"}, {"children": [26], "matrix": [0.022740000000000003, 0.0, 0.0, 0.0, 0.0, 0.0, 0.022740000000000003, 0.0, 0.0, -0.07369000000000002, 0.0, 0.0, 3.66223, -0.0, 0.4043800000000001, 1.0], "name": "Cylinder.005"}, {"mesh": 11, "name": "Cylinder.005_0"}, {"children": [28], "matrix": [0.030000000000000006, 0.0, 0.0, 0.0, 0.0, 0.0, 0.030000000000000006, 0.0, 0.0, -0.030000000000000006, 0.0, 0.0, -1.47475, -0.0, 0.10412000000000002, 1.0], "name": "Cylinder.007"}, {"mesh": 12, "name": "Cylinder.007_0"}, {"children": [30], "matrix": [0.03560000000000001, 0.0, 0.0, 0.0, 0.0, 0.0, 0.03560000000000001, 0.0, 0.0, -0.12866999999999998, 0.0, 0.0, -1.4238899999999997, 0.0, 0.26281000000000004, 1.0], "name": "Cylinder.008"}, {"mesh": 13, "name": "Cylinder.008_0"}, {"children": [32], "matrix": [0.016910000000000005, 0.0, 0.0, 0.0, 0.0, 0.01814, 0.0, 0.0, 0.0, 0.0, 0.016910000000000005, 0.0, -1.41905, -0.0, 0.12089000000000001, 1.0], "name": "Cube.005"}, {"mesh": 14, "name": "Cube.005_0"}, {"children": [34], "matrix": [0.021800000000000003, 0.0, 0.0, 0.0, 0.0, 0.0, 0.021800000000000003, 0.0, 0.0, -0.1268, 0.0, 0.0, -0.7835099999999999, 0.0, 0.24045000000000002, 1.0], "name": "Cylinder.010"}, {"mesh": 15, "name": "Cylinder.010_0"}, {"children": [36], "matrix": [0.03810000000000001, 0.0, 0.0, 0.0, 0.0, 0.013980000000000003, 0.0, 0.0, 0.0, 0.0, 0.03810000000000001, 0.0, 4.04075, -0.0, 0.6433000000000001, 1.0], "name": "Cube.006"}, {"mesh": 16, "name": "Cube.006_0"}, {"children": [38], "matrix": [0.06556000000000002, 0.0, 0.0, 0.0, 0.0, 0.06556000000000002, 0.0, 0.0, 0.0, 0.0, 0.06556000000000002, 0.0, -0.08429000000000003, -0.0, 0.59086, 1.0], "name": "Cube.007"}, {"mesh": 17, "name": "Cube.007_0"}, {"children": [40], "matrix": [0.021220000000000003, 0.0, -0.0010600000000000002, 0.0, -0.0, 0.021250000000000005, 0.0, 0.0, 0.0010600000000000002, 0.0, 0.021220000000000003, 0.0, 0.5817400000000001, -0.0, 0.6613200000000001, 1.0], "name": "Cube.008"}, {"mesh": 18, "name": "Cube.008_0"}, {"children": [42], "matrix": [0.012170000000000002, 0.0, 0.0, 0.0, 0.0, 0.012170000000000002, 0.0, 0.0, 0.0, 0.0, 0.012170000000000002, 0.0, 0.12415000000000001, -0.0, 0.6968000000000002, 1.0], "name": "Cube.009"}, {"mesh": 19, "name": "Cube.009_0"}, {"children": [44], "matrix": [0.07294, 0.0, 0.0, 0.0, 0.0, 0.07294, 0.0, 0.0, 0.0, 0.0, 0.07294, 0.0, 0.4868700000000001, -0.0, 0.71086, 1.0], "name": "Cylinder.012"}, {"mesh": 20, "name": "Cylinder.012_0"}, {"children": [46], "matrix": [0.01874, 0.0, 0.0, 0.0, 0.0, 0.01874, 0.0, 0.0, 0.0, 0.0, 0.01874, 0.0, -0.49846000000000007, -0.0, 0.027660000000000007, 1.0], "name": "Cube.011"}, {"mesh": 21, "name": "Cube.011_0"}, {"children": [48], "matrix": [0.04606000000000001, 0.0, 0.0, 0.0, 0.0, 0.0, 0.04606000000000001, 0.0, 0.0, -0.12933, 0.0, 0.0, -1.4310899999999998, -0.0, 0.45552000000000004, 1.0], "name": "Cylinder.009"}, {"mesh": 22, "name": "Cylinder.009_0"}, {"children": [50], "matrix": [0.021480000000000006, 0.0, 0.0, 0.0, 0.0, 0.0, 0.021480000000000006, 0.0, 0.0, -0.12664, 0.0, 0.0, -1.48074, -0.0, 0.44559000000000004, 1.0], "name": "Cylinder.013"}, {"mesh": 23, "name": "Cylinder.013_0"}, {"children": [52], "matrix": [0.10326000000000002, 0.0, 0.0, 0.0, 0.0, 0.013460000000000001, 0.0, 0.0, 0.0, 0.0, 0.04983000000000001, 0.0, 0.6424500000000001, 0.09687000000000003, 0.33859000000000006, 1.0], "name": "Cube.012"}, {"mesh": 24, "name": "Cube.012_0"}, {"children": [54], "matrix": [0.03815000000000001, 0.0, 0.0, 0.0, 0.0, 0.008270000000000003, 0.0, 0.0, 0.0, 0.0, 0.03815000000000001, 0.0, 0.77281, -0.0, 0.3765800000000001, 1.0], "name": "Cube.013"}, {"mesh": 25, "name": "Cube.013_0"}, {"children": [56], "matrix": [0.25911, 0.0, 0.0, 0.0, 0.0, 0.23081000000000002, 0.0, 0.0, 0.0, 0.0, 0.25911, 0.0, -0.41633000000000003, -0.0, 0.40367000000000003, 1.0], "name": "Cube.002"}, {"mesh": 26, "name": "Cube.002_0"}, {"children": [58], "matrix": [0.016220000000000002, 0.0, 0.0, 0.0, 0.0, 0.01827, 0.0, 0.0, 0.0, 0.0, 0.016220000000000002, 0.0, 0.05032000000000001, -0.0, 0.6704100000000001, 1.0], "name": "Cube.014"}, {"mesh": 27, "name": "Cube.014_0"}], "scene": 0, "scenes": [{"name": "Sketchfab_Scene", "nodes": [0]}]}