{"accessors": [{"bufferView": 1, "componentType": 5126, "count": 1982, "max": [28.153478622436523, 1.0, 1.7214562892913818], "min": [-0.9999706149101257, -1.0, -3.836351156234741], "type": "VEC3"}, {"bufferView": 1, "byteOffset": 23784, "componentType": 5126, "count": 1982, "max": [1.0000085830688477, 1.0, 1.0000085830688477], "min": [-1.0000085830688477, -1.0, -1.0000085830688477], "type": "VEC3"}, {"bufferView": 0, "componentType": 5125, "count": 3489, "type": "SCALAR"}, {"bufferView": 1, "byteOffset": 47568, "componentType": 5126, "count": 534, "max": [6.35242223739624, 0.49296998977661133, -0.4151880443096161], "min": [3.126765489578247, -0.535319983959198, -4.216632843017578], "type": "VEC3"}, {"bufferView": 1, "byteOffset": 53976, "componentType": 5126, "count": 534, "max": [1.0000048875808716, 1.0, 0.6729000210762024], "min": [-1.0000048875808716, -1.0, -0.6729000210762024], "type": "VEC3"}, {"bufferView": 0, "byteOffset": 13956, "componentType": 5125, "count": 972, "type": "SCALAR"}, {"bufferView": 1, "byteOffset": 60384, "componentType": 5126, "count": 306, "max": [7.882049083709717, 0.47481998801231384, -0.455096960067749], "min": [5.774548530578613, -0.5171700119972229, -4.176721572875977], "type": "VEC3"}, {"bufferView": 1, "byteOffset": 64056, "componentType": 5126, "count": 306, "max": [1.0000048875808716, 0.9995636940002441, 0.6722609996795654], "min": [0.029540253803133965, -0.9995636940002441, -0.6722609996795654], "type": "VEC3"}, {"bufferView": 0, "byteOffset": 17844, "componentType": 5125, "count": 468, "type": "SCALAR"}, {"bufferView": 1, "byteOffset": 67728, "componentType": 5126, "count": 90, "max": [3.850179672241211, 0.28957000374794006, -0.8623901605606079], "min": [3.136375665664673, -0.33191999793052673, -3.7694203853607178], "type": "VEC3"}, {"bufferView": 1, "byteOffset": 68808, "componentType": 5126, "count": 90, "max": [3.347885524362937e-07, 1.0, 0.6729000210762024], "min": [-1.0000048875808716, -1.0, -0.6729000210762024], "type": "VEC3"}, {"bufferView": 0, "byteOffset": 19716, "componentType": 5125, "count": 144, "type": "SCALAR"}, {"bufferView": 1, "byteOffset": 69888, "componentType": 5126, "count": 1407, "max": [28.07809829711914, 1.5148799419403076, 2.7948555946350098], "min": [-2.402772903442383, -1.5148799419403076, -20.44229507446289], "type": "VEC3"}, {"bufferView": 1, "byteOffset": 86772, "componentType": 5126, "count": 1407, "max": [1.0, 1.0, 1.0], "min": [-1.0, -1.0, -1.0], "type": "VEC3"}, {"bufferView": 0, "byteOffset": 20292, "componentType": 5125, "count": 3465, "type": "SCALAR"}, {"bufferView": 1, "byteOffset": 103656, "componentType": 5126, "count": 318, "max": [28.054550170898438, 1.2471699714660645, 0.7151877284049988], "min": [-1.0655567646026611, -1.2471699714660645, -19.034936904907227], "type": "VEC3"}, {"bufferView": 1, "byteOffset": 107472, "componentType": 5126, "count": 318, "max": [1.0000085830688477, 1.0, 1.0000085830688477], "min": [-1.0000085830688477, -1.0, -1.0000085830688477], "type": "VEC3"}, {"bufferView": 0, "byteOffset": 34152, "componentType": 5125, "count": 546, "type": "SCALAR"}, {"bufferView": 1, "byteOffset": 111288, "componentType": 5126, "count": 126, "max": [29.331253051757812, 0.7505900263786316, 1.4537420272827148], "min": [8.66357707977295, -0.7505900263786316, -1.6019041538238525], "type": "VEC3"}, {"bufferView": 1, "byteOffset": 112800, "componentType": 5126, "count": 126, "max": [1.0000085830688477, 1.0, 1.0000085830688477], "min": [-1.0000085830688477, -1.0, -1.0000085830688477], "type": "VEC3"}, {"bufferView": 0, "byteOffset": 36336, "componentType": 5125, "count": 228, "type": "SCALAR"}, {"bufferView": 1, "byteOffset": 114312, "componentType": 5126, "count": 278, "max": [6.313973903656006, 1.1789400577545166, -4.448496341705322], "min": [-4.002284526824951, -1.1789400577545166, -18.69696807861328], "type": "VEC3"}, {"bufferView": 1, "byteOffset": 117648, "componentType": 5126, "count": 278, "max": [0.9999927282333374, 1.0, 1.000008225440979], "min": [-0.9993538856506348, -1.0, -1.0000085830688477], "type": "VEC3"}, {"bufferView": 0, "byteOffset": 37248, "componentType": 5125, "count": 612, "type": "SCALAR"}, {"bufferView": 1, "byteOffset": 120984, "componentType": 5126, "count": 1514, "max": [27.82107925415039, 1.051650047302246, -0.9752267599105835], "min": [-4.099165439605713, -1.051650047302246, -18.816970825195312], "type": "VEC3"}, {"bufferView": 1, "byteOffset": 139152, "componentType": 5126, "count": 1514, "max": [1.0000085830688477, 1.0, 1.0000085830688477], "min": [-1.0000085830688477, -1.0, -1.0000085830688477], "type": "VEC3"}, {"bufferView": 0, "byteOffset": 39696, "componentType": 5125, "count": 2844, "type": "SCALAR"}, {"bufferView": 1, "byteOffset": 157320, "componentType": 5126, "count": 230, "max": [27.822996139526367, 0.3980399966239929, 2.737185001373291], "min": [-0.14464327692985535, -0.3980399966239929, 1.8271572589874268], "type": "VEC3"}, {"bufferView": 1, "byteOffset": 160080, "componentType": 5126, "count": 230, "max": [1.0000085830688477, 1.0, 0.6757492423057556], "min": [-1.0000085830688477, -1.0, -0.6764452457427979], "type": "VEC3"}, {"bufferView": 0, "byteOffset": 51072, "componentType": 5125, "count": 324, "type": "SCALAR"}, {"bufferView": 2, "componentType": 5126, "count": 1, "max": [1.0, 0.0, 0.0, 0.0, 0.0, 1.0, 0.0, 0.0, 0.0, 0.0, 1.0, 0.0, 0.0, 0.0, 0.0, 1.0], "min": [1.0, 0.0, 0.0, 0.0, 0.0, 1.0, 0.0, 0.0, 0.0, 0.0, 1.0, 0.0, 0.0, 0.0, 0.0, 1.0], "type": "MAT4"}], "asset": {"extras": {"author": "TastyTony (https://sketchfab.com/TastyTony)", "license": "CC-BY-4.0 (http://creativecommons.org/licenses/by/4.0/)", "source": "https://sketchfab.com/3d-models/low-poly-cz-75-sp-01-7cf2a3a662d344ee989e343ccaee56e9", "title": "Low-Poly CZ-75 SP-01"}, "generator": "Sketchfab-15.10.0", "version": "2.0"}, "bufferViews": [{"buffer": 0, "byteLength": 52368, "name": "floatBufferViews", "target": 34963}, {"buffer": 0, "byteLength": 162840, "byteOffset": 52368, "byteStride": 12, "name": "floatBufferViews", "target": 34962}, {"buffer": 0, "byteLength": 64, "byteOffset": 215208, "name": "floatBufferViews"}], "buffers": [{"byteLength": 215272, "uri": "scene.bin"}], "extensionsRequired": [], "extensionsUsed": ["KHR_materials_emissive_strength"], "materials": [{"doubleSided": true, "name": "Material.001", "pbrMetallicRoughness": {"baseColorFactor": [0.046035096943725505, 0.046035096943725505, 0.046035096943725505, 1.0], "metallicFactor": 0.0, "roughnessFactor": 1.0}}, {"doubleSided": true, "name": "Material.009", "pbrMetallicRoughness": {"baseColorFactor": [1.0, 1.0, 1.0, 1.0], "metallicFactor": 0.0, "roughnessFactor": 0.0}}, {"doubleSided": true, "name": "Material.008", "pbrMetallicRoughness": {"baseColorFactor": [1.0, 1.0, 1.0, 1.0], "metallicFactor": 0.0, "roughnessFactor": 0.0}}, {"doubleSided": true, "name": "Material.007", "pbrMetallicRoughness": {"baseColorFactor": [1.0, 1.0, 1.0, 1.0], "metallicFactor": 0.0, "roughnessFactor": 0.0}}, {"doubleSided": true, "name": "Material.002", "pbrMetallicRoughness": {"baseColorFactor": [0.05360734868682957, 0.05360734868682957, 0.05360734868682957, 1.0], "metallicFactor": 0.0, "roughnessFactor": 1.0}}, {"doubleSided": true, "name": "Material.005", "pbrMetallicRoughness": {"baseColorFactor": [0.0815053071511626, 0.0815053071511626, 0.0815053071511626, 1.0], "metallicFactor": 0.0, "roughnessFactor": 1.0}}, {"doubleSided": true, "name": "Material.006", "pbrMetallicRoughness": {"baseColorFactor": [0.08993937490301743, 0.08993937490301743, 0.08993937490301743, 1.0], "metallicFactor": 0.0, "roughnessFactor": 1.0}}, {"doubleSided": true, "name": "Material.004", "pbrMetallicRoughness": {"baseColorFactor": [0.0554175604, 0.0448877629, 0.0448877629, 1.0], "metallicFactor": 0.0, "roughnessFactor": 0.9834222561}}, {"doubleSided": true, "name": "Material", "pbrMetallicRoughness": {"baseColorFactor": [0.03701347946984728, 0.03701347946984728, 0.03701347946984728, 1.0], "metallicFactor": 0.0, "roughnessFactor": 1.0}}, {"doubleSided": true, "emissiveFactor": [0.08232293337318615, 0.1902856685580007, 0.07199655660248325], "extensions": {"KHR_materials_emissive_strength": {"emissiveStrength": 8.919588414634147}}, "name": "Material.003", "pbrMetallicRoughness": {"baseColorFactor": [0.200072465, 0.4039523292, 0.0879632278, 1.0], "metallicFactor": 0.0, "roughnessFactor": 1.0}}], "meshes": [{"name": "Cube.006_0", "primitives": [{"attributes": {"NORMAL": 1, "POSITION": 0}, "indices": 2, "material": 0, "mode": 4}]}, {"name": "Cube.006_1", "primitives": [{"attributes": {"NORMAL": 4, "POSITION": 3}, "indices": 5, "material": 1, "mode": 4}]}, {"name": "Cube.006_2", "primitives": [{"attributes": {"NORMAL": 7, "POSITION": 6}, "indices": 8, "material": 2, "mode": 4}]}, {"name": "Cube.006_3", "primitives": [{"attributes": {"NORMAL": 10, "POSITION": 9}, "indices": 11, "material": 3, "mode": 4}]}, {"name": "Cube.006_4", "primitives": [{"attributes": {"NORMAL": 13, "POSITION": 12}, "indices": 14, "material": 4, "mode": 4}]}, {"name": "Cube.006_5", "primitives": [{"attributes": {"NORMAL": 16, "POSITION": 15}, "indices": 17, "material": 5, "mode": 4}]}, {"name": "Cube.006_6", "primitives": [{"attributes": {"NORMAL": 19, "POSITION": 18}, "indices": 20, "material": 6, "mode": 4}]}, {"name": "Cube.006_7", "primitives": [{"attributes": {"NORMAL": 22, "POSITION": 21}, "indices": 23, "material": 7, "mode": 4}]}, {"name": "Cube.006_8", "primitives": [{"attributes": {"NORMAL": 25, "POSITION": 24}, "indices": 26, "material": 8, "mode": 4}]}, {"name": "Cube.006_9", "primitives": [{"attributes": {"NORMAL": 28, "POSITION": 27}, "indices": 29, "material": 9, "mode": 4}]}], "nodes": [{"children": [1], "matrix": [0.3913216292858124, 0.0, 0.0, 0.0, 0.0, 8.689085657338777e-17, -0.3913216292858124, 0.0, 0.0, 0.3913216292858124, 8.689085657338777e-17, 0.0, 0.0, 0.0, 0.0, 1.0], "name": "Sketchfab_model"}, {"children": [2, 4], "name": "Root"}, {"children": [3], "matrix": [0.87848, -0.043310000000000015, -0.4758200000000001, 0.0, 0.47156000000000003, 0.23882, 0.8488800000000001, 0.0, 0.07688, -0.9701, 0.23022, 0.0, 1.9889599999999998, -38.04896, 8.374830000000001, 1.0], "name": "Lamp"}, {"name": "Lamp"}, {"children": [5, 6], "matrix": [0.0, 0.0, -1.0, 0.0, -0.0, 1.0, -0.0, 0.0, 1.0, 0.0, 0.0, 0.0, -0.27824, 0.0, -0.79132, 1.0], "name": "Armature"}, {"name": "Armature_rootJoint"}, {"children": [7, 8, 9, 10, 11, 12, 13, 14, 15, 16], "matrix": [0.0, -0.0, 0.20715, 0.0, 0.0, 0.39443000000000006, 0.0, 0.0, -0.20715, -0.0, 0.0, 0.0, -2.62162, 0.0, -2.36636, 1.0], "name": "Cube.006"}, {"mesh": 0, "name": "Cube.006_0"}, {"mesh": 1, "name": "Cube.006_1"}, {"mesh": 2, "name": "Cube.006_2"}, {"mesh": 3, "name": "Cube.006_3"}, {"mesh": 4, "name": "Cube.006_4"}, {"mesh": 5, "name": "Cube.006_5"}, {"mesh": 6, "name": "Cube.006_6"}, {"mesh": 7, "name": "Cube.006_7"}, {"mesh": 8, "name": "Cube.006_8"}, {"mesh": 9, "name": "Cube.006_9"}], "scene": 0, "scenes": [{"name": "Sketchfab_Scene", "nodes": [0]}], "skins": [{"inverseBindMatrices": 30, "joints": [5], "skeleton": 5}]}