{"accessors": [{"bufferView": 3, "componentType": 5126, "count": 4578, "max": [32.0535888671875, 21.586036682128906, 24.72209930419922], "min": [-32.0535888671875, -11.448592185974121, -45.01544189453125], "type": "VEC3"}, {"bufferView": 3, "byteOffset": 54936, "componentType": 5126, "count": 4578, "max": [0.999910831451416, 0.9994438290596008, 0.9990682601928711], "min": [-0.9999108910560608, -0.999374270439148, -0.999149739742279], "type": "VEC3"}, {"bufferView": 4, "componentType": 5126, "count": 4578, "max": [0.9999356865882874, 0.9995623230934143, 0.9991497993469238, 1.0], "min": [-0.9999357461929321, -0.9996785521507263, -0.9991675019264221, -1.0], "type": "VEC4"}, {"bufferView": 2, "componentType": 5126, "count": 4578, "max": [0.9859278202056885, 0.9960330128669739], "min": [0.003966981079429388, 0.009023666381835938], "type": "VEC2"}, {"bufferView": 1, "componentType": 5125, "count": 22656, "type": "SCALAR"}, {"bufferView": 3, "byteOffset": 109872, "componentType": 5126, "count": 1113, "max": [1.0827155113220215, 30.840694427490234, 6.310873031616211], "min": [-1.0827155113220215, -11.432271957397461, -3.7680249214172363], "type": "VEC3"}, {"bufferView": 3, "byteOffset": 123228, "componentType": 5126, "count": 1113, "max": [1.0, 1.0, 1.0], "min": [-1.0, -1.0, -1.0], "type": "VEC3"}, {"bufferView": 4, "byteOffset": 73248, "componentType": 5126, "count": 1113, "max": [1.0, 1.0, 1.0, 1.0], "min": [-1.0, -0.8717159032821655, -0.9901999831199646, -1.0], "type": "VEC4"}, {"bufferView": 2, "byteOffset": 36624, "componentType": 5126, "count": 1113, "max": [0.9933902621269226, 0.9973734021186829], "min": [0.0026223864406347275, 0.002621769905090332], "type": "VEC2"}, {"bufferView": 2, "byteOffset": 45528, "componentType": 5126, "count": 1113, "max": [0.9933902621269226, 0.9973734021186829], "min": [0.0026223864406347275, 0.002621769905090332], "type": "VEC2"}, {"bufferView": 2, "byteOffset": 54432, "componentType": 5126, "count": 1113, "max": [0.9933902621269226, 0.9973734021186829], "min": [0.0026223864406347275, 0.002621769905090332], "type": "VEC2"}, {"bufferView": 1, "byteOffset": 90624, "componentType": 5125, "count": 4968, "type": "SCALAR"}, {"bufferView": 5, "componentType": 5126, "count": 50, "max": [1.0, 0.82325679063797, 0.989981472492218, 0.0, 0.8594661951065063, 1.0, 0.6253894567489624, 0.0, 0.6010922193527222, 0.8836162090301514, 1.0, 0.0, 24.98717498779297, 8.177143096923828, 13.586137771606445, 1.0], "min": [-0.9998274445533752, -0.82325679063797, -0.989981472492218, 0.0, -0.8594661951065063, -0.5712948441505432, -0.6028426289558411, 0.0, -0.6010922193527222, -0.519698441028595, -0.9432644844055176, 0.0, -24.98717498779297, -27.09673500061035, -47.666839599609375, 1.0], "type": "MAT4"}, {"bufferView": 0, "componentType": 5123, "count": 4578, "type": "VEC4"}, {"bufferView": 4, "byteOffset": 91056, "componentType": 5126, "count": 4578, "max": [1.0, 0.49994659423828125, 0.31274136900901794, 0.1750137358903885], "min": [0.3291119933128357, 0.0, 0.0, 0.0], "type": "VEC4"}, {"bufferView": 6, "componentType": 5126, "count": 30, "max": [5.099999904632568], "min": [0.0], "type": "SCALAR"}, {"bufferView": 7, "componentType": 5126, "count": 30, "max": [-0.43206271529197693, -0.28294920921325684, -9.111376762390137], "min": [-9.33368968963623, -4.357788562774658, -13.551704406738281], "type": "VEC3"}, {"bufferView": 6, "byteOffset": 120, "componentType": 5126, "count": 140, "max": [5.099999904632568], "min": [0.0], "type": "SCALAR"}, {"bufferView": 8, "componentType": 5126, "count": 140, "max": [0.9801915287971497, 0.9677671790122986, 0.2502220571041107, 0.1805770993232727], "min": [-0.3617702126502991, -0.5857817530632019, -0.13089706003665924, 0.00896607805043459], "type": "VEC4"}, {"bufferView": 6, "byteOffset": 680, "componentType": 5126, "count": 107, "max": [5.099999904632568], "min": [0.0], "type": "SCALAR"}, {"bufferView": 7, "byteOffset": 360, "componentType": 5126, "count": 107, "max": [29.83724021911621, 8.496123313903809, 6.846189498901367], "min": [-21.394817352294922, -39.06513595581055, -15.883147239685059], "type": "VEC3"}, {"bufferView": 6, "byteOffset": 1108, "componentType": 5126, "count": 141, "max": [5.099999904632568], "min": [0.0], "type": "SCALAR"}, {"bufferView": 8, "byteOffset": 2240, "componentType": 5126, "count": 141, "max": [0.7915987968444824, 0.9772519469261169, 0.550183892250061, 0.5790872573852539], "min": [-0.5485277771949768, -0.8209989666938782, -0.5462552309036255, -0.4945865571498871], "type": "VEC4"}, {"bufferView": 6, "byteOffset": 1672, "componentType": 5126, "count": 154, "max": [5.099999904632568], "min": [0.0], "type": "SCALAR"}, {"bufferView": 7, "byteOffset": 1644, "componentType": 5126, "count": 154, "max": [62.259220123291016, -9.604580879211426, -5.2286810874938965], "min": [33.615936279296875, -40.86027145385742, -28.845848083496094], "type": "VEC3"}, {"bufferView": 6, "byteOffset": 2288, "componentType": 5126, "count": 154, "max": [5.099999904632568], "min": [0.0], "type": "SCALAR"}, {"bufferView": 8, "byteOffset": 4496, "componentType": 5126, "count": 154, "max": [-0.253081738948822, 0.965768575668335, 0.36273688077926636, 0.165501669049263], "min": [-0.5543701648712158, 0.7469704747200012, -0.07405422627925873, -0.40888339281082153], "type": "VEC4"}, {"bufferView": 6, "byteOffset": 2904, "componentType": 5126, "count": 67, "max": [4.566666603088379], "min": [0.0], "type": "SCALAR"}, {"bufferView": 7, "byteOffset": 3492, "componentType": 5126, "count": 67, "max": [-13.764089584350586, -0.7406754493713379, -9.393543243408203], "min": [-33.83283996582031, -20.28689956665039, -29.32680320739746], "type": "VEC3"}, {"bufferView": 6, "byteOffset": 3172, "componentType": 5126, "count": 154, "max": [5.099999904632568], "min": [0.0], "type": "SCALAR"}, {"bufferView": 7, "byteOffset": 4296, "componentType": 5126, "count": 154, "max": [-7.105427357601002e-15, 2.1316282072803006e-14, -3.037506341934204], "min": [-1.7763568394002505e-14, 0.0, -3.037506341934204], "type": "VEC3"}, {"bufferView": 6, "byteOffset": 3788, "componentType": 5126, "count": 154, "max": [5.099999904632568], "min": [0.0], "type": "SCALAR"}, {"bufferView": 8, "byteOffset": 6960, "componentType": 5126, "count": 154, "max": [-0.002971737878397107, -0.023120129480957985, -6.931577809154987e-05, 0.9997236728668213], "min": [-0.13017509877681732, -0.02331855334341526, -0.0030363339465111494, 0.991216778755188], "type": "VEC4"}, {"bufferView": 6, "byteOffset": 4404, "componentType": 5126, "count": 154, "max": [5.099999904632568], "min": [0.0], "type": "SCALAR"}, {"bufferView": 7, "byteOffset": 6144, "componentType": 5126, "count": 154, "max": [2.1316282072803006e-14, 1.4210854715202004e-14, -5.012237548828125], "min": [1.0658141036401503e-14, -1.4210854715202004e-14, -5.012237548828125], "type": "VEC3"}, {"bufferView": 6, "byteOffset": 5020, "componentType": 5126, "count": 154, "max": [5.099999904632568], "min": [0.0], "type": "SCALAR"}, {"bufferView": 8, "byteOffset": 9424, "componentType": 5126, "count": 154, "max": [-0.22769488394260406, -0.015354465693235397, -0.0036470910999923944, 0.9736008048057556], "min": [-0.2842760682106018, -0.015594600699841976, -0.004553377162665129, 0.9586086869239807], "type": "VEC4"}, {"bufferView": 6, "byteOffset": 5636, "componentType": 5126, "count": 153, "max": [5.099999904632568], "min": [0.0], "type": "SCALAR"}, {"bufferView": 7, "byteOffset": 7992, "componentType": 5126, "count": 153, "max": [2.1316282072803006e-14, 1.7763568394002505e-14, -2.2330517768859863], "min": [-7.105427357601002e-15, 1.0658141036401503e-14, -2.2330517768859863], "type": "VEC3"}, {"bufferView": 6, "byteOffset": 6248, "componentType": 5126, "count": 154, "max": [5.099999904632568], "min": [0.0], "type": "SCALAR"}, {"bufferView": 8, "byteOffset": 11888, "componentType": 5126, "count": 154, "max": [0.08052320033311844, 0.03975962847471237, 0.004722359590232372, 0.9992089867591858], "min": [-0.11867878586053848, 0.03947819769382477, -0.003204107051715255, 0.9921363592147827], "type": "VEC4"}, {"bufferView": 6, "byteOffset": 6864, "componentType": 5126, "count": 154, "max": [5.099999904632568], "min": [0.0], "type": "SCALAR"}, {"bufferView": 7, "byteOffset": 9828, "componentType": 5126, "count": 154, "max": [1.4210854715202004e-14, 7.105427357601002e-15, -3.295424699783325], "min": [-1.4210854715202004e-14, -3.552713678800501e-15, -3.295424699783325], "type": "VEC3"}, {"bufferView": 6, "byteOffset": 7480, "componentType": 5126, "count": 154, "max": [5.099999904632568], "min": [0.0], "type": "SCALAR"}, {"bufferView": 8, "byteOffset": 14352, "componentType": 5126, "count": 154, "max": [-0.06693138182163239, 0.013643106445670128, 0.00181519181933254, 0.9976638555526733], "min": [-0.13273745775222778, 0.013552756048738956, 0.0009152902639470994, 0.9910569190979004], "type": "VEC4"}, {"bufferView": 6, "byteOffset": 8096, "componentType": 5126, "count": 154, "max": [5.099999904632568], "min": [0.0], "type": "SCALAR"}, {"bufferView": 8, "byteOffset": 16816, "componentType": 5126, "count": 154, "max": [0.584152102470398, 0.7874640822410583, 0.13355088233947754, 0.21040929853916168], "min": [0.5727308988571167, 0.7809426188468933, 0.08722133189439774, 0.1762358397245407], "type": "VEC4"}, {"bufferView": 6, "byteOffset": 8712, "componentType": 5126, "count": 154, "max": [5.099999904632568], "min": [0.0], "type": "SCALAR"}, {"bufferView": 8, "byteOffset": 19280, "componentType": 5126, "count": 154, "max": [0.6345227956771851, 0.7201400995254517, 0.28996598720550537, 0.25353822112083435], "min": [0.6102110147476196, 0.6923009753227234, 0.2115635871887207, 0.18444499373435974], "type": "VEC4"}, {"bufferView": 6, "byteOffset": 9328, "componentType": 5126, "count": 154, "max": [5.099999904632568], "min": [0.0], "type": "SCALAR"}, {"bufferView": 7, "byteOffset": 11676, "componentType": 5126, "count": 154, "max": [0.0, 2.842170943040401e-14, -25.331451416015625], "min": [-1.4210854715202004e-14, 0.0, -25.331451416015625], "type": "VEC3"}, {"bufferView": 6, "byteOffset": 9944, "componentType": 5126, "count": 154, "max": [5.099999904632568], "min": [0.0], "type": "SCALAR"}, {"bufferView": 8, "byteOffset": 21744, "componentType": 5126, "count": 154, "max": [0.02643810212612152, 0.19652250409126282, -0.0009695844491943717, 0.9971247315406799], "min": [-0.2831873297691345, -0.029700299724936485, -0.12405310571193695, 0.9447897672653198], "type": "VEC4"}, {"bufferView": 6, "byteOffset": 10560, "componentType": 5126, "count": 151, "max": [5.099999904632568], "min": [0.0], "type": "SCALAR"}, {"bufferView": 7, "byteOffset": 13524, "componentType": 5126, "count": 151, "max": [3.552713678800501e-14, -4.263256414560601e-14, -29.602209091186523], "min": [7.105427357601002e-15, -5.1514348342607263e-14, -29.602209091186523], "type": "VEC3"}, {"bufferView": 6, "byteOffset": 11164, "componentType": 5126, "count": 154, "max": [5.099999904632568], "min": [0.0], "type": "SCALAR"}, {"bufferView": 8, "byteOffset": 24208, "componentType": 5126, "count": 154, "max": [0.4574369192123413, -0.24458470940589905, -0.15053455531597137, 0.8894540667533875], "min": [0.1678684651851654, -0.49490389227867126, -0.5389038920402527, 0.642772376537323], "type": "VEC4"}, {"bufferView": 6, "byteOffset": 11780, "componentType": 5126, "count": 59, "max": [5.099999904632568], "min": [0.0], "type": "SCALAR"}, {"bufferView": 7, "byteOffset": 15336, "componentType": 5126, "count": 59, "max": [18.765888214111328, -3.364762306213379, -2.8009281158447266], "min": [15.341069221496582, -8.228535652160645, -6.737767696380615], "type": "VEC3"}, {"bufferView": 6, "byteOffset": 12016, "componentType": 5126, "count": 154, "max": [5.099999904632568], "min": [0.0], "type": "SCALAR"}, {"bufferView": 8, "byteOffset": 26672, "componentType": 5126, "count": 154, "max": [0.08031978458166122, 0.9455645680427551, 0.4234592914581299, 0.6589639782905579], "min": [-0.2760820686817169, -0.8507511615753174, -0.18448926508426666, -0.49357128143310547], "type": "VEC4"}, {"bufferView": 6, "byteOffset": 12632, "componentType": 5126, "count": 131, "max": [4.400000095367432], "min": [0.0], "type": "SCALAR"}, {"bufferView": 7, "byteOffset": 16044, "componentType": 5126, "count": 131, "max": [1.5987211554602254e-14, 1.3322676295501878e-14, -3.037506341934204], "min": [1.2434497875801753e-14, 8.881784197001252e-15, -3.037506341934204], "type": "VEC3"}, {"bufferView": 6, "byteOffset": 13156, "componentType": 5126, "count": 133, "max": [4.400000095367432], "min": [0.0], "type": "SCALAR"}, {"bufferView": 8, "byteOffset": 29136, "componentType": 5126, "count": 133, "max": [0.030218591913580894, 0.06608422100543976, 0.06693323701620102, 0.9965238571166992], "min": [-0.2499975562095642, 0.04930981621146202, 0.05044196546077728, 0.9646707773208618], "type": "VEC4"}, {"bufferView": 6, "byteOffset": 13688, "componentType": 5126, "count": 127, "max": [4.400000095367432], "min": [0.0], "type": "SCALAR"}, {"bufferView": 7, "byteOffset": 17616, "componentType": 5126, "count": 127, "max": [-1.2434497875801753e-14, -3.552713678800501e-15, -5.012237548828125], "min": [-1.7763568394002505e-14, -1.0658141036401503e-14, -5.012237548828125], "type": "VEC3"}, {"bufferView": 6, "byteOffset": 14196, "componentType": 5126, "count": 133, "max": [4.400000095367432], "min": [0.0], "type": "SCALAR"}, {"bufferView": 8, "byteOffset": 31264, "componentType": 5126, "count": 133, "max": [-0.17798425257205963, -0.029322408139705658, 0.059495583176612854, 0.9822028279304504], "min": [-0.32764574885368347, -0.04943822696805, 0.03398702293634415, 0.9424694776535034], "type": "VEC4"}, {"bufferView": 6, "byteOffset": 14728, "componentType": 5126, "count": 132, "max": [4.400000095367432], "min": [0.0], "type": "SCALAR"}, {"bufferView": 8, "byteOffset": 33392, "componentType": 5126, "count": 132, "max": [0.36976540088653564, 0.25259724259376526, 0.33444544672966003, 0.8846297860145569], "min": [0.3489118218421936, 0.18041937053203583, 0.22361361980438232, 0.8292251825332642], "type": "VEC4"}, {"bufferView": 6, "byteOffset": 15256, "componentType": 5126, "count": 129, "max": [4.400000095367432], "min": [0.0], "type": "SCALAR"}, {"bufferView": 7, "byteOffset": 19140, "componentType": 5126, "count": 129, "max": [1.2119262038368106e-08, 4.433076128407265e-11, -2.2330517768859863], "min": [1.211925138022707e-08, 4.432010314303625e-11, -2.2330517768859863], "type": "VEC3"}, {"bufferView": 6, "byteOffset": 15772, "componentType": 5126, "count": 133, "max": [4.400000095367432], "min": [0.0], "type": "SCALAR"}, {"bufferView": 8, "byteOffset": 35504, "componentType": 5126, "count": 133, "max": [-0.009862164966762066, -0.026815636083483696, -0.00039242635830305517, 0.9991605877876282], "min": [-0.46085289120674133, -0.039757706224918365, -0.01833784580230713, 0.8865854740142822], "type": "VEC4"}, {"bufferView": 6, "byteOffset": 16304, "componentType": 5126, "count": 131, "max": [4.400000095367432], "min": [0.0], "type": "SCALAR"}, {"bufferView": 7, "byteOffset": 20688, "componentType": 5126, "count": 131, "max": [3.552713678800501e-15, 1.4210854715202004e-14, -3.0677490234375], "min": [-1.7763568394002505e-15, -3.552713678800501e-15, -3.0677490234375], "type": "VEC3"}, {"bufferView": 6, "byteOffset": 16828, "componentType": 5126, "count": 133, "max": [4.400000095367432], "min": [0.0], "type": "SCALAR"}, {"bufferView": 8, "byteOffset": 37632, "componentType": 5126, "count": 133, "max": [-0.1704486459493637, 0.000656071410048753, 0.0003077935252804309, 0.9853663444519043], "min": [-0.4622918665409088, 0.0005903986166231334, 0.00011347966210450977, 0.8867275714874268], "type": "VEC4"}, {"bufferView": 6, "byteOffset": 17360, "componentType": 5126, "count": 133, "max": [4.400000095367432], "min": [0.0], "type": "SCALAR"}, {"bufferView": 8, "byteOffset": 39760, "componentType": 5126, "count": 133, "max": [-0.07250174880027771, 0.34246230125427246, -0.33177846670150757, 0.8717970848083496], "min": [-0.5602549910545349, 0.06717168539762497, -0.49547603726387024, 0.6603831052780151], "type": "VEC4"}, {"bufferView": 6, "byteOffset": 17892, "componentType": 5126, "count": 129, "max": [4.400000095367432], "min": [0.0], "type": "SCALAR"}, {"bufferView": 7, "byteOffset": 22260, "componentType": 5126, "count": 129, "max": [2.3092638912203256e-14, 1.4210854715202004e-14, -2.7107412815093994], "min": [1.7763568394002505e-14, -1.7763568394002505e-15, -2.7107412815093994], "type": "VEC3"}, {"bufferView": 6, "byteOffset": 18408, "componentType": 5126, "count": 133, "max": [4.400000095367432], "min": [0.0], "type": "SCALAR"}, {"bufferView": 8, "byteOffset": 41888, "componentType": 5126, "count": 133, "max": [-0.1470649689435959, 0.06240424886345863, 0.07586381584405899, 0.9876207113265991], "min": [-0.5553852915763855, 0.025648226961493492, 0.04816038906574249, 0.8266114592552185], "type": "VEC4"}, {"bufferView": 6, "byteOffset": 18940, "componentType": 5126, "count": 133, "max": [4.400000095367432], "min": [0.0], "type": "SCALAR"}, {"bufferView": 7, "byteOffset": 23808, "componentType": 5126, "count": 133, "max": [-7.105427357601002e-15, -1.7763568394002505e-14, -3.295424699783325], "min": [-1.0658141036401503e-14, -3.197442310920451e-14, -3.295424699783325], "type": "VEC3"}, {"bufferView": 6, "byteOffset": 19472, "componentType": 5126, "count": 133, "max": [4.400000095367432], "min": [0.0], "type": "SCALAR"}, {"bufferView": 8, "byteOffset": 44016, "componentType": 5126, "count": 133, "max": [-0.02255583554506302, -0.012518726289272308, -0.0003084522613789886, 0.999652087688446], "min": [-0.4022161066532135, -0.013670295476913452, -0.00550032639876008, 0.9154426455497742], "type": "VEC4"}, {"bufferView": 6, "byteOffset": 20004, "componentType": 5126, "count": 133, "max": [4.400000095367432], "min": [0.0], "type": "SCALAR"}, {"bufferView": 8, "byteOffset": 46144, "componentType": 5126, "count": 133, "max": [-0.15679043531417847, 0.33817777037620544, -0.4212602972984314, 0.8267964124679565], "min": [-0.48881152272224426, 0.13053718209266663, -0.5241988897323608, 0.6850100755691528], "type": "VEC4"}, {"bufferView": 6, "byteOffset": 20536, "componentType": 5126, "count": 127, "max": [4.400000095367432], "min": [0.0], "type": "SCALAR"}, {"bufferView": 7, "byteOffset": 25404, "componentType": 5126, "count": 127, "max": [-4.667384700951516e-09, -1.1068337357755809e-09, -2.509448766708374], "min": [-4.667390030022034e-09, -1.1068550520576537e-09, -2.509448766708374], "type": "VEC3"}, {"bufferView": 6, "byteOffset": 21044, "componentType": 5126, "count": 133, "max": [4.400000095367432], "min": [0.0], "type": "SCALAR"}, {"bufferView": 8, "byteOffset": 48272, "componentType": 5126, "count": 133, "max": [-0.09943617135286331, 0.04695318639278412, 0.05343393608927727, 0.9931816458702087], "min": [-0.46299758553504944, 0.029110930860042572, 0.03870439529418945, 0.8842684030532837], "type": "VEC4"}, {"bufferView": 6, "byteOffset": 21576, "componentType": 5126, "count": 128, "max": [4.400000095367432], "min": [0.0], "type": "SCALAR"}, {"bufferView": 7, "byteOffset": 26928, "componentType": 5126, "count": 128, "max": [-1.7763568394002505e-15, -7.105427357601002e-15, -2.9420864582061768], "min": [-7.993605777301127e-15, -1.7763568394002505e-14, -2.9420864582061768], "type": "VEC3"}, {"bufferView": 6, "byteOffset": 22088, "componentType": 5126, "count": 133, "max": [4.400000095367432], "min": [0.0], "type": "SCALAR"}, {"bufferView": 8, "byteOffset": 50400, "componentType": 5126, "count": 133, "max": [-0.26261794567108154, -0.01146738138049841, 0.023439962416887283, 0.9646138548851013], "min": [-0.5701054334640503, -0.020503109320998192, 0.015395410358905792, 0.8212211728096008], "type": "VEC4"}, {"bufferView": 6, "byteOffset": 22620, "componentType": 5126, "count": 133, "max": [4.400000095367432], "min": [0.0], "type": "SCALAR"}, {"bufferView": 8, "byteOffset": 52528, "componentType": 5126, "count": 133, "max": [-0.4583778977394104, 0.7514283657073975, 0.4095405340194702, -0.24052171409130096], "min": [-0.5889095067977905, 0.6930010318756104, 0.17518645524978638, -0.3767171800136566], "type": "VEC4"}, {"bufferView": 6, "byteOffset": 23152, "componentType": 5126, "count": 133, "max": [4.400000095367432], "min": [0.0], "type": "SCALAR"}, {"bufferView": 7, "byteOffset": 28464, "componentType": 5126, "count": 133, "max": [3.2380675918375346e-10, 9.680434231995605e-11, -1.8977560997009277], "min": [3.2379965375639586e-10, 9.679013146524085e-11, -1.8977560997009277], "type": "VEC3"}, {"bufferView": 6, "byteOffset": 23684, "componentType": 5126, "count": 133, "max": [4.400000095367432], "min": [0.0], "type": "SCALAR"}, {"bufferView": 8, "byteOffset": 54656, "componentType": 5126, "count": 133, "max": [-0.2125796228647232, -0.0034373716916888952, -0.014662908390164375, 0.9770041704177856], "min": [-0.4641064405441284, -0.007598735857754946, -0.01653691753745079, 0.8856254816055298], "type": "VEC4"}, {"bufferView": 6, "byteOffset": 24216, "componentType": 5126, "count": 133, "max": [4.400000095367432], "min": [0.0], "type": "SCALAR"}, {"bufferView": 7, "byteOffset": 30060, "componentType": 5126, "count": 133, "max": [3.552713678800501e-15, 1.7763568394002505e-14, -1.9251525402069092], "min": [-3.552713678800501e-15, 7.105427357601002e-15, -1.9251525402069092], "type": "VEC3"}, {"bufferView": 6, "byteOffset": 24748, "componentType": 5126, "count": 133, "max": [4.400000095367432], "min": [0.0], "type": "SCALAR"}, {"bufferView": 8, "byteOffset": 56784, "componentType": 5126, "count": 133, "max": [-0.277259886264801, 0.02409585379064083, 0.10955996811389923, 0.9588667154312134], "min": [-0.6678770184516907, -0.03783924877643585, 0.05586609989404678, 0.741780698299408], "type": "VEC4"}, {"bufferView": 6, "byteOffset": 25280, "componentType": 5126, "count": 132, "max": [4.400000095367432], "min": [0.0], "type": "SCALAR"}, {"bufferView": 8, "byteOffset": 58912, "componentType": 5126, "count": 132, "max": [-0.5756622552871704, 0.7419548034667969, 0.37037330865859985, -0.09798688441514969], "min": [-0.6534811854362488, 0.6528280973434448, 0.11341951042413712, -0.32442575693130493], "type": "VEC4"}, {"bufferView": 6, "byteOffset": 25808, "componentType": 5126, "count": 133, "max": [4.400000095367432], "min": [0.0], "type": "SCALAR"}, {"bufferView": 8, "byteOffset": 61024, "componentType": 5126, "count": 133, "max": [-0.08663753420114517, 0.9823419451713562, -0.09982097148895264, 0.20757749676704407], "min": [-0.09526558220386505, 0.9684378504753113, -0.10739503055810928, 0.12635105848312378], "type": "VEC4"}, {"bufferView": 6, "byteOffset": 26340, "componentType": 5126, "count": 153, "max": [5.099999904632568], "min": [0.0], "type": "SCALAR"}, {"bufferView": 7, "byteOffset": 31656, "componentType": 5126, "count": 153, "max": [3.197442310920451e-14, 2.4868995751603507e-14, -25.331451416015625], "min": [2.1760371282653068e-14, 1.0658141036401503e-14, -25.331451416015625], "type": "VEC3"}, {"bufferView": 6, "byteOffset": 26952, "componentType": 5126, "count": 154, "max": [5.099999904632568], "min": [0.0], "type": "SCALAR"}, {"bufferView": 8, "byteOffset": 63152, "componentType": 5126, "count": 154, "max": [0.328522264957428, 0.28134986758232117, 0.21798105537891388, 0.9982168078422546], "min": [-0.3642083704471588, -0.21722452342510223, -0.15950851142406464, 0.9156984686851501], "type": "VEC4"}, {"bufferView": 6, "byteOffset": 27568, "componentType": 5126, "count": 147, "max": [5.099999904632568], "min": [0.0], "type": "SCALAR"}, {"bufferView": 7, "byteOffset": 33492, "componentType": 5126, "count": 147, "max": [-3.552713678800501e-15, -2.3092638912203256e-14, -29.602209091186523], "min": [-1.7763568394002505e-14, -3.197442310920451e-14, -29.602209091186523], "type": "VEC3"}, {"bufferView": 6, "byteOffset": 28156, "componentType": 5126, "count": 154, "max": [5.099999904632568], "min": [0.0], "type": "SCALAR"}, {"bufferView": 8, "byteOffset": 65616, "componentType": 5126, "count": 154, "max": [0.5064043998718262, 0.5916329622268677, 0.776862382888794, 0.9276726245880127], "min": [-0.18815429508686066, 0.11043164879083633, -0.5117048621177673, 0.36937278509140015], "type": "VEC4"}, {"bufferView": 6, "byteOffset": 28772, "componentType": 5126, "count": 108, "max": [5.099999904632568], "min": [0.0], "type": "SCALAR"}, {"bufferView": 7, "byteOffset": 35256, "componentType": 5126, "count": 108, "max": [-8.528191566467285, 4.107468128204346, 14.488438606262207], "min": [-28.23801612854004, -9.126299858093262, -0.20331716537475586], "type": "VEC3"}, {"bufferView": 6, "byteOffset": 29204, "componentType": 5126, "count": 148, "max": [5.099999904632568], "min": [0.0], "type": "SCALAR"}, {"bufferView": 8, "byteOffset": 68080, "componentType": 5126, "count": 148, "max": [0.4294714629650116, 0.9991239309310913, 0.4083540141582489, 0.28362947702407837], "min": [-0.5314116477966309, 0.8053106069564819, -0.031011860817670822, -0.2786078155040741], "type": "VEC4"}], "animations": [{"channels": [{"sampler": 0, "target": {"node": 58, "path": "translation"}}, {"sampler": 1, "target": {"node": 58, "path": "rotation"}}, {"sampler": 2, "target": {"node": 57, "path": "translation"}}, {"sampler": 3, "target": {"node": 57, "path": "rotation"}}, {"sampler": 4, "target": {"node": 60, "path": "translation"}}, {"sampler": 5, "target": {"node": 60, "path": "rotation"}}, {"sampler": 6, "target": {"node": 62, "path": "translation"}}, {"sampler": 7, "target": {"node": 14, "path": "translation"}}, {"sampler": 8, "target": {"node": 14, "path": "rotation"}}, {"sampler": 9, "target": {"node": 13, "path": "translation"}}, {"sampler": 10, "target": {"node": 13, "path": "rotation"}}, {"sampler": 11, "target": {"node": 18, "path": "translation"}}, {"sampler": 12, "target": {"node": 18, "path": "rotation"}}, {"sampler": 13, "target": {"node": 21, "path": "translation"}}, {"sampler": 14, "target": {"node": 21, "path": "rotation"}}, {"sampler": 15, "target": {"node": 25, "path": "rotation"}}, {"sampler": 16, "target": {"node": 29, "path": "rotation"}}, {"sampler": 17, "target": {"node": 11, "path": "translation"}}, {"sampler": 18, "target": {"node": 11, "path": "rotation"}}, {"sampler": 19, "target": {"node": 10, "path": "translation"}}, {"sampler": 20, "target": {"node": 10, "path": "rotation"}}, {"sampler": 21, "target": {"node": 9, "path": "translation"}}, {"sampler": 22, "target": {"node": 9, "path": "rotation"}}, {"sampler": 23, "target": {"node": 38, "path": "translation"}}, {"sampler": 24, "target": {"node": 38, "path": "rotation"}}, {"sampler": 25, "target": {"node": 37, "path": "translation"}}, {"sampler": 26, "target": {"node": 37, "path": "rotation"}}, {"sampler": 27, "target": {"node": 36, "path": "rotation"}}, {"sampler": 28, "target": {"node": 42, "path": "translation"}}, {"sampler": 29, "target": {"node": 42, "path": "rotation"}}, {"sampler": 30, "target": {"node": 41, "path": "translation"}}, {"sampler": 31, "target": {"node": 41, "path": "rotation"}}, {"sampler": 32, "target": {"node": 40, "path": "rotation"}}, {"sampler": 33, "target": {"node": 46, "path": "translation"}}, {"sampler": 34, "target": {"node": 46, "path": "rotation"}}, {"sampler": 35, "target": {"node": 45, "path": "translation"}}, {"sampler": 36, "target": {"node": 45, "path": "rotation"}}, {"sampler": 37, "target": {"node": 44, "path": "rotation"}}, {"sampler": 38, "target": {"node": 51, "path": "translation"}}, {"sampler": 39, "target": {"node": 51, "path": "rotation"}}, {"sampler": 40, "target": {"node": 50, "path": "translation"}}, {"sampler": 41, "target": {"node": 50, "path": "rotation"}}, {"sampler": 42, "target": {"node": 49, "path": "rotation"}}, {"sampler": 43, "target": {"node": 55, "path": "translation"}}, {"sampler": 44, "target": {"node": 55, "path": "rotation"}}, {"sampler": 45, "target": {"node": 54, "path": "translation"}}, {"sampler": 46, "target": {"node": 54, "path": "rotation"}}, {"sampler": 47, "target": {"node": 53, "path": "rotation"}}, {"sampler": 48, "target": {"node": 48, "path": "rotation"}}, {"sampler": 49, "target": {"node": 35, "path": "translation"}}, {"sampler": 50, "target": {"node": 35, "path": "rotation"}}, {"sampler": 51, "target": {"node": 34, "path": "translation"}}, {"sampler": 52, "target": {"node": 34, "path": "rotation"}}, {"sampler": 53, "target": {"node": 33, "path": "translation"}}, {"sampler": 54, "target": {"node": 33, "path": "rotation"}}], "name": "allanims", "samplers": [{"input": 15, "interpolation": "LINEAR", "output": 16}, {"input": 17, "interpolation": "LINEAR", "output": 18}, {"input": 19, "interpolation": "LINEAR", "output": 20}, {"input": 21, "interpolation": "LINEAR", "output": 22}, {"input": 23, "interpolation": "LINEAR", "output": 24}, {"input": 25, "interpolation": "LINEAR", "output": 26}, {"input": 27, "interpolation": "LINEAR", "output": 28}, {"input": 29, "interpolation": "LINEAR", "output": 30}, {"input": 31, "interpolation": "LINEAR", "output": 32}, {"input": 33, "interpolation": "LINEAR", "output": 34}, {"input": 35, "interpolation": "LINEAR", "output": 36}, {"input": 37, "interpolation": "LINEAR", "output": 38}, {"input": 39, "interpolation": "LINEAR", "output": 40}, {"input": 41, "interpolation": "LINEAR", "output": 42}, {"input": 43, "interpolation": "LINEAR", "output": 44}, {"input": 45, "interpolation": "LINEAR", "output": 46}, {"input": 47, "interpolation": "LINEAR", "output": 48}, {"input": 49, "interpolation": "LINEAR", "output": 50}, {"input": 51, "interpolation": "LINEAR", "output": 52}, {"input": 53, "interpolation": "LINEAR", "output": 54}, {"input": 55, "interpolation": "LINEAR", "output": 56}, {"input": 57, "interpolation": "LINEAR", "output": 58}, {"input": 59, "interpolation": "LINEAR", "output": 60}, {"input": 61, "interpolation": "LINEAR", "output": 62}, {"input": 63, "interpolation": "LINEAR", "output": 64}, {"input": 65, "interpolation": "LINEAR", "output": 66}, {"input": 67, "interpolation": "LINEAR", "output": 68}, {"input": 69, "interpolation": "LINEAR", "output": 70}, {"input": 71, "interpolation": "LINEAR", "output": 72}, {"input": 73, "interpolation": "LINEAR", "output": 74}, {"input": 75, "interpolation": "LINEAR", "output": 76}, {"input": 77, "interpolation": "LINEAR", "output": 78}, {"input": 79, "interpolation": "LINEAR", "output": 80}, {"input": 81, "interpolation": "LINEAR", "output": 82}, {"input": 83, "interpolation": "LINEAR", "output": 84}, {"input": 85, "interpolation": "LINEAR", "output": 86}, {"input": 87, "interpolation": "LINEAR", "output": 88}, {"input": 89, "interpolation": "LINEAR", "output": 90}, {"input": 91, "interpolation": "LINEAR", "output": 92}, {"input": 93, "interpolation": "LINEAR", "output": 94}, {"input": 95, "interpolation": "LINEAR", "output": 96}, {"input": 97, "interpolation": "LINEAR", "output": 98}, {"input": 99, "interpolation": "LINEAR", "output": 100}, {"input": 101, "interpolation": "LINEAR", "output": 102}, {"input": 103, "interpolation": "LINEAR", "output": 104}, {"input": 105, "interpolation": "LINEAR", "output": 106}, {"input": 107, "interpolation": "LINEAR", "output": 108}, {"input": 109, "interpolation": "LINEAR", "output": 110}, {"input": 111, "interpolation": "LINEAR", "output": 112}, {"input": 113, "interpolation": "LINEAR", "output": 114}, {"input": 115, "interpolation": "LINEAR", "output": 116}, {"input": 117, "interpolation": "LINEAR", "output": 118}, {"input": 119, "interpolation": "LINEAR", "output": 120}, {"input": 121, "interpolation": "LINEAR", "output": 122}, {"input": 123, "interpolation": "LINEAR", "output": 124}]}], "asset": {"extras": {"author": "DJMaesen (https://sketchfab.com/bumstrum)", "license": "CC-BY-4.0 (http://creativecommons.org/licenses/by/4.0/)", "source": "https://sketchfab.com/3d-models/knife-animated-5f83f0bd4b2c429aa14aa46461efe404", "title": "Knife animated"}, "generator": "Sketchfab-16.56.0", "version": "2.0"}, "bufferViews": [{"buffer": 0, "byteLength": 36624, "byteStride": 8, "name": "shortBufferViews", "target": 34962}, {"buffer": 0, "byteLength": 110496, "byteOffset": 36624, "name": "floatBufferViews", "target": 34963}, {"buffer": 0, "byteLength": 63336, "byteOffset": 147120, "byteStride": 8, "name": "floatBufferViews", "target": 34962}, {"buffer": 0, "byteLength": 136584, "byteOffset": 210456, "byteStride": 12, "name": "floatBufferViews", "target": 34962}, {"buffer": 0, "byteLength": 164304, "byteOffset": 347040, "byteStride": 16, "name": "floatBufferViews", "target": 34962}, {"buffer": 0, "byteLength": 3200, "byteOffset": 511344, "name": "floatBufferViews"}, {"buffer": 0, "byteLength": 29796, "byteOffset": 514544, "name": "floatBufferViews"}, {"buffer": 0, "byteLength": 36552, "byteOffset": 544340, "byteStride": 12, "name": "floatBufferViews"}, {"buffer": 0, "byteLength": 70448, "byteOffset": 580892, "byteStride": 16, "name": "floatBufferViews"}], "buffers": [{"byteLength": 651340, "uri": "scene.bin"}], "extensionsUsed": ["KHR_materials_specular"], "images": [{"uri": "textures/arms_baseColor.jpg", "mimeType": "image/jpeg"}, {"uri": "textures/arms_metallicRoughness.jpg", "mimeType": "image/jpeg"}, {"uri": "textures/arms_normal.jpg", "mimeType": "image/jpeg"}, {"uri": "textures/knife_baseColor.jpg", "mimeType": "image/jpeg"}, {"uri": "textures/knife_metallicRoughness.jpg", "mimeType": "image/jpeg"}, {"uri": "textures/knife_normal.jpg", "mimeType": "image/jpeg"}], "materials": [{"extensions": {"KHR_materials_specular": {"specularColorFactor": [1.0, 1.0, 1.0], "specularFactor": 0.026030741355513805}}, "name": "arms", "normalTexture": {"index": 2}, "occlusionTexture": {"index": 1}, "pbrMetallicRoughness": {"baseColorTexture": {"index": 0}, "metallicRoughnessTexture": {"index": 1}}}, {"name": "knife", "normalTexture": {"index": 5}, "occlusionTexture": {"index": 4}, "pbrMetallicRoughness": {"baseColorTexture": {"index": 3}, "metallicRoughnessTexture": {"index": 4}}}], "meshes": [{"name": "arms_arms_0", "primitives": [{"attributes": {"JOINTS_0": 13, "NORMAL": 1, "POSITION": 0, "TANGENT": 2, "TEXCOORD_0": 3, "TEXCOORD_1": 3, "TEXCOORD_2": 3, "WEIGHTS_0": 14}, "indices": 4, "material": 0, "mode": 4}]}, {"name": "knife_knife_0", "primitives": [{"attributes": {"NORMAL": 6, "POSITION": 5, "TANGENT": 7, "TEXCOORD_0": 8, "TEXCOORD_1": 9, "TEXCOORD_2": 10}, "indices": 11, "material": 1, "mode": 4}]}], "nodes": [{"children": [1], "matrix": [1.0, 0.0, 0.0, 0.0, 0.0, 2.220446049250313e-16, -1.0, 0.0, 0.0, 1.0, 2.220446049250313e-16, 0.0, 0.0, 0.0, 0.0, 1.0], "name": "Sketchfab_model"}, {"children": [2], "matrix": [1.0, 0.0, 0.0, 0.0, 0.0, 0.0, 1.0, 0.0, 0.0, -1.0, 0.0, 0.0, 0.0, 0.0, 0.0, 1.0], "name": "49c785c576f249e3aa327a25eb2f86dc.fbx"}, {"children": [3], "name": "Object_2"}, {"children": [4], "name": "RootNode"}, {"children": [5, 7, 6, 57, 60, 61, 62, 63], "name": "Object_4"}, {"children": [8], "name": "_rootJoint"}, {"matrix": [1.0, 0.0, -3.469446951953614e-18, 0.0, 0.0, 1.0, 0.0, 0.0, 3.469446951953614e-18, 0.0, 1.0, 0.0, -7.105427357601002e-15, 2.9451502559423304, -17.67090153565373, 1.0], "name": "Object_6"}, {"mesh": 0, "name": "Object_7", "skin": 0}, {"children": [9, 33], "name": "root_01", "translation": [5.664815902709961, -0.9105344414710999, -49.004573822021484]}, {"children": [10], "name": "L_arm_02", "rotation": [0.05289650335907936, 0.9253326654434204, 0.11783602833747864, -0.3564773499965668], "translation": [15.341069221496582, -3.364762306213379, -2.8009281158447266]}, {"children": [11], "name": "L_elbow_03", "rotation": [0.22153031826019287, -0.3909159302711487, -0.2500314712524414, 0.8576673865318298], "translation": [1.4210854715202004e-14, -4.618527782440651e-14, -29.602209091186523]}, {"children": [12, 16, 20, 24], "name": "L_wrist_04", "rotation": [-0.0992555096745491, -0.02567826397716999, -0.17368508875370026, 0.9794501066207886], "translation": [-1.4210854715202004e-14, 1.4210854715202004e-14, -25.331451416015625]}, {"children": [13], "name": "L_thumb1_05", "rotation": [0.3444443345069885, -0.2289455533027649, -0.21781212091445923, 0.8840248584747314], "translation": [1.921784520149231, -0.13238033652305603, -3.445862293243408]}, {"children": [14], "name": "L_thumb2_06", "rotation": [-0.22769491374492645, -0.015594602562487125, -0.003647091332823038, 0.9736009240150452], "translation": [1.7763568394002505e-14, 3.552713678800501e-15, -5.012237548828125]}, {"children": [15], "name": "L_thumb3_07", "rotation": [-0.13017509877681732, -0.023120129480957985, -0.0030363337136805058, 0.991216778755188], "translation": [-1.4210854715202004e-14, 3.552713678800501e-15, -3.037506341934204]}, {"name": "L_thumb_08", "rotation": [-4.806940401280713e-10, -7.096176424248313e-11, 3.0527721222601146e-16, 1.0], "translation": [4.3075232269984554e-10, -2.9179005878177122e-09, -3.0350866317749023]}, {"children": [17], "name": "L_point1_00", "rotation": [-0.005055219866335392, -0.004734032787382603, 0.4008033275604248, 0.9161379337310791], "translation": [-0.4178546965122223, 3.726349353790283, -11.628993034362793]}, {"children": [18], "name": "L_point2_09", "rotation": [-0.1853172779083252, -0.0006542805931530893, -0.00012338673695921898, 0.9826785326004028], "translation": [7.105427357601002e-15, -7.105427357601002e-15, -3.0677490234375]}, {"children": [19], "name": "L_point3_010", "rotation": [-0.11867878586053848, 0.03947819769382477, 0.004722359590232372, 0.9921363592147827], "translation": [7.105427357601002e-15, 1.1546319456101628e-14, -2.2330517768859863]}, {"name": "L_point_011", "rotation": [-2.220446049250313e-16, -4.544975507059235e-16, -1.3617579286417936e-16, 1.0], "translation": [1.4210854715202004e-14, 7.105427357601002e-15, -2.7088754177093506]}, {"children": [21], "name": "L_middle1_012", "rotation": [-0.1066121980547905, -0.022295059636235237, 0.48190292716026306, 0.8694287538528442], "translation": [-2.097245931625366, 1.682554006576538, -11.499493598937988]}, {"children": [22], "name": "L_middle2_013", "rotation": [-0.13273745775222778, 0.013552756048738956, 0.0018151917029172182, 0.9910569190979004], "translation": [0.0, -6.661338147750939e-15, -3.295424699783325]}, {"children": [23], "name": "L_middle3_014", "rotation": [-0.15747012197971344, -0.010087995789945126, -0.0016087137628346682, 0.9874709248542786], "translation": [-2.842170943040401e-14, -6.217248937900877e-15, -2.7107412815093994]}, {"name": "L_middle_015", "rotation": [-9.43689570931383e-16, -2.181414771040835e-15, -3.469446951953614e-18, 1.0], "translation": [2.842170943040401e-14, -1.4210854715202004e-14, -3.2042477130889893]}, {"children": [25, 29], "name": "palm_016", "rotation": [0.012626650743186474, 0.9787022471427917, -0.18092261254787445, -0.0961742028594017], "translation": [-0.9503613114356995, -2.6020636558532715, -7.522320747375488]}, {"children": [26], "name": "L_ring1_017", "rotation": [0.5727308988571167, 0.7809426188468933, 0.13355094194412231, 0.21040932834148407], "translation": [0.7034117579460144, 2.7781155109405518, 3.4729979038238525]}, {"children": [27], "name": "L_ring2_018", "rotation": [-0.23324628174304962, 0.01297282986342907, 0.0031119848135858774, 0.9723261594772339], "translation": [0.0, -3.552713678800501e-15, -2.9420864582061768]}, {"children": [28], "name": "L_ring3_019", "rotation": [-0.11083968728780746, -0.020553141832351685, -0.0022927240934222937, 0.9936231970787048], "translation": [4.667384700951516e-09, -1.1068443939166173e-09, -2.509448766708374]}, {"name": "L_ring_020", "rotation": [-1.5543122344752192e-15, -6.938893903907228e-18, 5.551115123125783e-17, 1.0], "translation": [0.0, -3.552713678800501e-15, -2.948970317840576]}, {"children": [30], "name": "L_pink1_021", "rotation": [0.6102110147476196, 0.6923009753227234, 0.289965957403183, 0.25353819131851196], "translation": [-0.2106703370809555, -0.227929025888443, 3.35941743850708]}, {"children": [31], "name": "L_pink2_022", "rotation": [-0.13871483504772186, -0.04059937968850136, -0.0056915851309895515, 0.9894834756851196], "translation": [-7.105427357601002e-15, 1.4210854715202004e-14, -1.9251525402069092]}, {"children": [32], "name": "L_pink3_023", "rotation": [-0.26606622338294983, 0.011072710156440735, 0.0030564446933567524, 0.9638863205909729], "translation": [-7.105427357601002e-15, -3.552713678800501e-15, -1.8977560997009277]}, {"name": "L_pink_024", "rotation": [-9.783840404509192e-16, -7.667477763817487e-16, -7.501737874631332e-31, 1.0], "translation": [7.105427357601002e-15, -1.7763568394002505e-14, -1.9852255582809448]}, {"children": [34], "name": "R_arm_025", "rotation": [-0.24919922649860382, 0.930171012878418, 0.20166534185409546, 0.17892113327980042], "translation": [-17.157487869262695, 3.364762306213379, 2.5566818714141846]}, {"children": [35], "name": "R_elbow_026", "rotation": [0.27675414085388184, 0.25613510608673096, 0.5169527530670166, 0.7684801816940308], "translation": [-1.4210854715202004e-14, -2.842170943040401e-14, -29.602209091186523]}, {"children": [36, 40, 44, 48], "name": "R_wrist_027", "rotation": [0.008300469256937504, -0.08371905237436295, 0.13680051267147064, 0.9870196580886841], "translation": [2.4424906541753444e-14, -1.7763568394002505e-15, -25.331451416015625]}, {"children": [37], "name": "R_thumb1_028", "rotation": [0.3585011065006256, 0.18041937053203583, 0.29324132204055786, 0.8677184581756592], "translation": [-1.921784520149231, -0.13238033652305603, -3.445862293243408]}, {"children": [38], "name": "R_thumb2_029", "rotation": [-0.32764577865600586, -0.029322410002350807, 0.059495583176612854, 0.9424694776535034], "translation": [-1.2434497875801753e-14, -5.329070518200751e-15, -5.012237548828125]}, {"children": [39], "name": "R_thumb3_030", "rotation": [-0.2499975562095642, 0.04930981621146202, 0.06693324446678162, 0.9646707773208618], "translation": [8.881784197001252e-15, 8.881784197001252e-15, -3.037506341934204]}, {"name": "R_thumb_031", "rotation": [-4.806943176838274e-10, 7.096196547040634e-11, -3.29256364238201e-17, 1.0], "translation": [-4.3075409905668494e-10, -2.9179019200853418e-09, -3.0350866317749023]}, {"children": [41], "name": "R_point1_032", "rotation": [-0.5602549910545349, 0.34246230125427246, -0.36431869864463806, 0.6603831052780151], "translation": [0.4178546965122223, 3.726349353790283, -11.628993034362793]}, {"children": [42], "name": "R_point2_033", "rotation": [-0.4622919261455536, 0.0005903986748307943, 0.00030779355438426137, 0.8867276906967163], "translation": [0.0, -3.552713678800501e-15, -3.0677490234375]}, {"children": [43], "name": "R_point3_034", "rotation": [-0.46085289120674133, -0.03527821600437164, -0.01833784580230713, 0.8865854740142822], "translation": [1.211924960387023e-08, 4.432365585671505e-11, -2.2330517768859863]}, {"name": "R_point_035", "rotation": [-5.699317129348458e-10, -1.6864751817280421e-09, 7.450580596923828e-09, 1.0], "translation": [9.136899237205398e-09, -3.0877398415896096e-09, -2.7088754177093506]}, {"children": [45], "name": "R_middle1_036", "rotation": [-0.48881152272224426, 0.33817777037620544, -0.4212603271007538, 0.6850100755691528], "translation": [2.097245931625366, 1.682554006576538, -11.499493598937988]}, {"children": [46], "name": "R_middle2_037", "rotation": [-0.4022161066532135, -0.012518727220594883, -0.00550032639876008, 0.9154426455497742], "translation": [-7.105427357601002e-15, -1.5987211554602254e-14, -3.295424699783325]}, {"children": [47], "name": "R_middle3_038", "rotation": [-0.5553852915763855, 0.05005360022187233, 0.07586381584405899, 0.8266114592552185], "translation": [2.3092638912203256e-14, 5.329070518200751e-15, -2.7107412815093994]}, {"name": "R_middle_039", "rotation": [-8.951173136040325e-16, 2.4702462297909733e-15, -9.107298248878237e-17, 1.0], "translation": [-2.842170943040401e-14, -1.865174681370263e-14, -3.2042477130889893]}, {"children": [49, 53], "name": "palm_2_040", "rotation": [-0.08663748949766159, 0.9823419451713562, -0.10739500820636749, 0.12635104358196259], "translation": [0.9503613114356995, -2.6020636558532715, -7.522320747375488]}, {"children": [50], "name": "R_ring1_041", "rotation": [-0.4583779275417328, 0.6930010318756104, 0.4095405042171478, -0.3767171800136566], "translation": [-0.7034117579460144, 2.7781155109405518, 3.4729979038238525]}, {"children": [51], "name": "R_ring2_042", "rotation": [-0.5701054930686951, -0.018400095403194427, 0.015395410358905792, 0.8212211728096008], "translation": [0.0, -6.217248937900877e-15, -2.9420864582061768]}, {"children": [52], "name": "R_ring3_043", "rotation": [-0.46299758553504944, 0.029110930860042572, 0.05343393608927727, 0.8842684030532837], "translation": [-4.667390030022034e-09, -1.1068443939166173e-09, -2.509448766708374]}, {"name": "R_ring_044", "rotation": [-1.5265566588595902e-15, 8.326672684688674e-17, -1.5612511283791264e-17, 1.0], "translation": [-3.552713678800501e-15, -1.509903313490213e-14, -2.948970317840576]}, {"children": [54], "name": "R_pink1_045", "rotation": [-0.5756622552871704, 0.6528281569480896, 0.37037336826324463, -0.3244258165359497], "translation": [0.2106703370809555, -0.227929025888443, 3.35941743850708]}, {"children": [55], "name": "R_pink2_046", "rotation": [-0.6678770780563354, -0.002696561859920621, 0.06078125536441803, 0.7417807579040527], "translation": [-1.7763568394002505e-15, 1.7763568394002505e-15, -1.9251525402069092]}, {"children": [56], "name": "R_pink3_047", "rotation": [-0.4641064703464508, -0.003437371924519539, -0.016153208911418915, 0.8856254816055298], "translation": [3.2379787739955646e-10, 9.679723689259845e-11, -1.8977560997009277]}, {"name": "R_pink_048", "rotation": [-3.663957331978551e-11, -8.179510957440073e-10, 1.0969128944757903e-16, 1.0], "translation": [3.2476279443471867e-09, -1.4549605964475631e-10, -1.9852255582809448]}, {"children": [58], "name": "R_wrist_Goal", "rotation": [0.3807668387889862, 0.9146902561187744, -0.09853129088878632, -0.09300515800714493], "translation": [-8.484091758728027, -9.185994148254395, 3.014514207839966]}, {"children": [59], "name": "knife", "rotation": [-0.23998944461345673, 0.9677672386169434, -0.029085354879498482, 0.07060973346233368], "translation": [-0.43206271529197693, -1.2637325525283813, -9.111376762390137]}, {"mesh": 1, "name": "knife_knife_0"}, {"name": "L_wrist_Goal", "rotation": [-0.25308170914649963, 0.9657686948776245, 0.05672775208950043, -0.0047597093507647514], "translation": [36.968414306640625, -11.48598575592041, -5.922645092010498]}, {"name": "L_arm_Pole", "rotation": [0.00041522199171595275, 0.9801000356674194, 0.033054232597351074, 0.19573239982128143], "translation": [60.767398834228516, -19.369369506835938, -35.28461837768555]}, {"name": "R_arm_Pole", "rotation": [0.05847400799393654, 0.978354275226593, 0.021234100684523582, -0.19736480712890625], "translation": [-22.934295654296875, -16.394601821899414, -26.669092178344727]}, {"name": "arms", "rotation": [0.0067567601799964905, -0.0036235309671610594, 0.025997640565037727, 0.9996325969696045], "translation": [0.0, 2.945150136947632, -17.670902252197266]}], "samplers": [{"magFilter": 9729, "minFilter": 9987, "wrapS": 10497, "wrapT": 10497}], "scene": 0, "scenes": [{"name": "Sketchfab_Scene", "nodes": [0]}], "skins": [{"inverseBindMatrices": 12, "joints": [5, 8, 9, 10, 11, 12, 13, 14, 15, 16, 17, 18, 19, 20, 21, 22, 23, 24, 25, 26, 27, 28, 29, 30, 31, 32, 33, 34, 35, 36, 37, 38, 39, 40, 41, 42, 43, 44, 45, 46, 47, 48, 49, 50, 51, 52, 53, 54, 55, 56], "skeleton": 5}], "textures": [{"sampler": 0, "source": 0}, {"sampler": 0, "source": 1}, {"sampler": 0, "source": 2}, {"sampler": 0, "source": 3}, {"sampler": 0, "source": 4}, {"sampler": 0, "source": 5}]}