{"accessors": [{"bufferView": 2, "componentType": 5126, "count": 3095, "max": [8.622495651245117, 2.1165378093719482, 1.0527353286743164], "min": [-24.537065505981445, -3.978856325149536, -1.0527350902557373], "type": "VEC3"}, {"bufferView": 2, "byteOffset": 37140, "componentType": 5126, "count": 3095, "max": [1.0, 1.0, 1.0], "min": [-1.0, -1.0, -1.0], "type": "VEC3"}, {"bufferView": 1, "componentType": 5125, "count": 3261, "type": "SCALAR"}, {"bufferView": 2, "byteOffset": 74280, "componentType": 5126, "count": 6268, "max": [21.75712013244629, 2.4694926738739014, 0.840813159942627], "min": [-14.584200859069824, -4.073392868041992, -0.8408132791519165], "type": "VEC3"}, {"bufferView": 2, "byteOffset": 149496, "componentType": 5126, "count": 6268, "max": [1.0, 1.0, 1.0], "min": [-1.0, -1.0, -1.0], "type": "VEC3"}, {"bufferView": 1, "byteOffset": 13044, "componentType": 5125, "count": 7359, "type": "SCALAR"}, {"bufferView": 2, "byteOffset": 224712, "componentType": 5126, "count": 48, "max": [-22.00011444091797, 0.09612834453582764, -0.1984117329120636], "min": [-22.28425407409668, -0.3857095241546631, -0.46956899762153625], "type": "VEC3"}, {"bufferView": 2, "byteOffset": 225288, "componentType": 5126, "count": 48, "max": [0.9178463220596313, 0.9874216318130493, 1.0], "min": [-0.9178390502929688, -0.14697131514549255, -1.0], "type": "VEC3"}, {"bufferView": 1, "byteOffset": 42480, "componentType": 5125, "count": 48, "type": "SCALAR"}, {"bufferView": 2, "byteOffset": 225864, "componentType": 5126, "count": 877, "max": [24.649431228637695, 1.1926794052124023, 0.44163236021995544], "min": [-22.27312660217285, -2.2249183654785156, -0.5468966960906982], "type": "VEC3"}, {"bufferView": 2, "byteOffset": 236388, "componentType": 5126, "count": 877, "max": [1.0, 0.9874222278594971, 1.0], "min": [-1.0, -0.9874213933944702, -1.0], "type": "VEC3"}, {"bufferView": 1, "byteOffset": 42672, "componentType": 5125, "count": 912, "type": "SCALAR"}, {"bufferView": 2, "byteOffset": 246912, "componentType": 5126, "count": 144, "max": [-6.861084938049316, 0.408597469329834, 0.44490373134613037], "min": [-6.92732048034668, -0.42727601528167725, -0.40000277757644653], "type": "VEC3"}, {"bufferView": 2, "byteOffset": 248640, "componentType": 5126, "count": 144, "max": [0.024737007915973663, 0.9295350313186646, 0.9999011158943176], "min": [-0.9999671578407288, -0.9295333623886108, -0.9999011158943176], "type": "VEC3"}, {"bufferView": 1, "byteOffset": 46320, "componentType": 5125, "count": 144, "type": "SCALAR"}, {"bufferView": 2, "byteOffset": 250368, "componentType": 5126, "count": 972, "max": [-4.959538459777832, 0.5862969756126404, 0.6688661575317383], "min": [-6.93133020401001, -0.6049666404724121, -0.6239778995513916], "type": "VEC3"}, {"bufferView": 2, "byteOffset": 262032, "componentType": 5126, "count": 972, "max": [0.9999674558639526, 0.9295347332954407, 0.9999011158943176], "min": [-0.9999672770500183, -0.9295349717140198, -0.9999011158943176], "type": "VEC3"}, {"bufferView": 1, "byteOffset": 46896, "componentType": 5125, "count": 972, "type": "SCALAR"}, {"bufferView": 2, "byteOffset": 273696, "componentType": 5126, "count": 468, "max": [-4.161635398864746, 0.42351239919662476, 0.42668235301971436], "min": [-4.9652228355407715, -0.46022260189056396, -0.4027327299118042], "type": "VEC3"}, {"bufferView": 2, "byteOffset": 279312, "componentType": 5126, "count": 468, "max": [0.9999671578407288, 0.9293370246887207, 0.9997270703315735], "min": [0.012694387696683407, -0.9293408989906311, -0.9999194741249084], "type": "VEC3"}, {"bufferView": 1, "byteOffset": 50784, "componentType": 5125, "count": 468, "type": "SCALAR"}, {"bufferView": 2, "byteOffset": 284928, "componentType": 5126, "count": 1639, "max": [21.068307876586914, 2.7303712368011475, 0.6955960988998413], "min": [-11.942975997924805, -1.5869693756103516, -0.9740576148033142], "type": "VEC3"}, {"bufferView": 2, "byteOffset": 304596, "componentType": 5126, "count": 1639, "max": [1.0, 1.0, 1.0], "min": [-1.0, -1.0, -1.0], "type": "VEC3"}, {"bufferView": 1, "byteOffset": 52656, "componentType": 5125, "count": 1812, "type": "SCALAR"}, {"bufferView": 2, "byteOffset": 324264, "componentType": 5126, "count": 3660, "max": [21.59557342529297, 2.0511205196380615, 1.474661111831665], "min": [-14.491711616516113, -4.145975112915039, -1.125873327255249], "type": "VEC3"}, {"bufferView": 2, "byteOffset": 368184, "componentType": 5126, "count": 3660, "max": [1.0, 1.0, 1.0], "min": [-1.0, -1.0, -1.0], "type": "VEC3"}, {"bufferView": 1, "byteOffset": 59904, "componentType": 5125, "count": 3924, "type": "SCALAR"}, {"bufferView": 2, "byteOffset": 412104, "componentType": 5126, "count": 261, "max": [-2.6982178688049316, 1.708419919013977, 2.501683473587036], "min": [-7.5248942375183105, 0.6614074110984802, -0.6410256028175354], "type": "VEC3"}, {"bufferView": 2, "byteOffset": 415236, "componentType": 5126, "count": 261, "max": [1.0, 1.0, 1.0], "min": [-1.0, -1.0, -1.0], "type": "VEC3"}, {"bufferView": 1, "byteOffset": 75600, "componentType": 5125, "count": 294, "type": "SCALAR"}, {"bufferView": 2, "byteOffset": 418368, "componentType": 5126, "count": 1137, "max": [20.85988998413086, 2.4132721424102783, 1.031000018119812], "min": [-13.657931327819824, -2.1498048305511475, -0.9570867419242859], "type": "VEC3"}, {"bufferView": 2, "byteOffset": 432012, "componentType": 5126, "count": 1137, "max": [1.0, 1.0, 1.0], "min": [-1.0, -1.0, -1.0], "type": "VEC3"}, {"bufferView": 1, "byteOffset": 76776, "componentType": 5125, "count": 1332, "type": "SCALAR"}, {"bufferView": 2, "byteOffset": 445656, "componentType": 5126, "count": 138, "max": [-1.9041517972946167, 2.3053672313690186, 1.0262552499771118], "min": [-14.027151107788086, 0.8120726943016052, -1.0262552499771118], "type": "VEC3"}, {"bufferView": 2, "byteOffset": 447312, "componentType": 5126, "count": 138, "max": [1.0, 0.8660261631011963, 1.0], "min": [-1.0, -0.8660261631011963, -1.0], "type": "VEC3"}, {"bufferView": 1, "byteOffset": 82104, "componentType": 5125, "count": 180, "type": "SCALAR"}, {"bufferView": 2, "byteOffset": 448968, "componentType": 5126, "count": 279, "max": [-13.368643760681152, 1.3474801778793335, 0.9963470697402954], "min": [-14.189476013183594, 0.7394309639930725, -0.996347188949585], "type": "VEC3"}, {"bufferView": 2, "byteOffset": 452316, "componentType": 5126, "count": 279, "max": [1.0, 1.0, 1.0], "min": [-1.0, -1.0, -1.0], "type": "VEC3"}, {"bufferView": 1, "byteOffset": 82824, "componentType": 5125, "count": 300, "type": "SCALAR"}, {"bufferView": 2, "byteOffset": 455664, "componentType": 5126, "count": 357, "max": [-13.214224815368652, 0.48455023765563965, 0.7924627065658569], "min": [-24.669389724731445, -3.940150499343872, -0.7924637794494629], "type": "VEC3"}, {"bufferView": 2, "byteOffset": 459948, "componentType": 5126, "count": 357, "max": [1.0, 1.0, 1.0], "min": [-0.9865550994873047, -0.9912660121917725, -1.0], "type": "VEC3"}, {"bufferView": 1, "byteOffset": 84024, "componentType": 5125, "count": 384, "type": "SCALAR"}, {"bufferView": 2, "byteOffset": 464232, "componentType": 5126, "count": 1238, "max": [-2.58455753326416, 1.9386347532272339, 0.9349204897880554], "min": [-14.4492826461792, 0.5627166032791138, -0.9292494654655457], "type": "VEC3"}, {"bufferView": 2, "byteOffset": 479088, "componentType": 5126, "count": 1238, "max": [1.0, 1.0, 1.0], "min": [-1.0, -1.0, -1.0], "type": "VEC3"}, {"bufferView": 1, "byteOffset": 85560, "componentType": 5125, "count": 1374, "type": "SCALAR"}, {"bufferView": 2, "byteOffset": 493944, "componentType": 5126, "count": 885, "max": [8.962621688842773, 2.332653284072876, 1.0191134214401245], "min": [-2.5867204666137695, -0.30931198596954346, -1.0191131830215454], "type": "VEC3"}, {"bufferView": 2, "byteOffset": 504564, "componentType": 5126, "count": 885, "max": [1.0, 1.0, 1.0], "min": [-1.0, -1.0, -1.0], "type": "VEC3"}, {"bufferView": 1, "byteOffset": 91056, "componentType": 5125, "count": 1128, "type": "SCALAR"}, {"bufferView": 2, "byteOffset": 515184, "componentType": 5126, "count": 1401, "max": [66.63792419433594, 7.20929479598999, 29.336814880371094], "min": [-76.7759780883789, -4.536859035491943, -31.38681983947754], "type": "VEC3"}, {"bufferView": 2, "byteOffset": 531996, "componentType": 5126, "count": 1401, "max": [1.0, 1.0, 1.0], "min": [-1.0, -1.0, -1.0], "type": "VEC3"}, {"bufferView": 1, "byteOffset": 95568, "componentType": 5125, "count": 1626, "type": "SCALAR"}, {"bufferView": 2, "byteOffset": 548808, "componentType": 5126, "count": 128, "max": [37.77521514892578, 4.904782772064209, 29.808780670166016], "min": [-0.29892539978027344, -4.601797580718994, 9.199113845825195], "type": "VEC3"}, {"bufferView": 2, "byteOffset": 550344, "componentType": 5126, "count": 128, "max": [1.0, 1.0, 1.0], "min": [-1.0, -1.0, -1.0], "type": "VEC3"}, {"bufferView": 1, "byteOffset": 102072, "componentType": 5125, "count": 156, "type": "SCALAR"}, {"bufferView": 2, "byteOffset": 551880, "componentType": 5126, "count": 186, "max": [17.77043914794922, 6.240372180938721, -17.721160888671875], "min": [1.3768138885498047, 3.3988215923309326, -26.7825984954834], "type": "VEC3"}, {"bufferView": 2, "byteOffset": 554112, "componentType": 5126, "count": 186, "max": [1.0, 1.0, 1.0], "min": [-1.0, -1.0, -1.0], "type": "VEC3"}, {"bufferView": 1, "byteOffset": 102696, "componentType": 5125, "count": 216, "type": "SCALAR"}, {"bufferView": 2, "byteOffset": 556344, "componentType": 5126, "count": 28, "max": [64.76443481445312, 3.3920938968658447, 26.54766082763672], "min": [-87.75243377685547, -3.392104387283325, 10.01833724975586], "type": "VEC3"}, {"bufferView": 2, "byteOffset": 556680, "componentType": 5126, "count": 28, "max": [1.0, 2.28538647206733e-06, 0.0], "min": [-1.0, -2.2853846530779265e-06, 0.0], "type": "VEC3"}, {"bufferView": 1, "byteOffset": 103560, "componentType": 5125, "count": 36, "type": "SCALAR"}, {"bufferView": 2, "byteOffset": 557016, "componentType": 5126, "count": 238, "max": [13.194832801818848, 2.0607728958129883, 36.12037658691406], "min": [1.5994224548339844, -7.19228982925415, 13.147321701049805], "type": "VEC3"}, {"bufferView": 2, "byteOffset": 559872, "componentType": 5126, "count": 238, "max": [0.8660260438919067, 1.0, 1.0], "min": [-0.866025984287262, -1.0, -1.0], "type": "VEC3"}, {"bufferView": 1, "byteOffset": 103704, "componentType": 5125, "count": 264, "type": "SCALAR"}, {"bufferView": 2, "byteOffset": 562728, "componentType": 5126, "count": 119, "max": [15.912602424621582, 1.5766595602035522, 9.630609512329102], "min": [9.259032249450684, -1.5766578912734985, 1.4114875793457031], "type": "VEC3"}, {"bufferView": 2, "byteOffset": 564156, "componentType": 5126, "count": 119, "max": [1.0, 0.9730536937713623, 1.0], "min": [-1.0, -0.9730536937713623, -1.0], "type": "VEC3"}, {"bufferView": 1, "byteOffset": 104760, "componentType": 5125, "count": 132, "type": "SCALAR"}, {"bufferView": 2, "byteOffset": 565584, "componentType": 5126, "count": 855, "max": [-12.771707534790039, 6.770936489105225, 30.025108337402344], "min": [-90.16614532470703, -4.819368362426758, 1.6225757598876953], "type": "VEC3"}, {"bufferView": 2, "byteOffset": 575844, "componentType": 5126, "count": 855, "max": [1.0, 0.9858549237251282, 0.7038615942001343], "min": [-1.0, -0.9858549237251282, -0.7038611173629761], "type": "VEC3"}, {"bufferView": 1, "byteOffset": 105288, "componentType": 5125, "count": 930, "type": "SCALAR"}, {"bufferView": 2, "byteOffset": 586104, "componentType": 5126, "count": 176, "max": [34.00867462158203, 6.312828540802002, 11.082122802734375], "min": [31.394519805908203, 3.336334228515625, -13.34175968170166], "type": "VEC3"}, {"bufferView": 2, "byteOffset": 588216, "componentType": 5126, "count": 176, "max": [1.0, 0.9730539321899414, 1.0], "min": [-1.0, -0.9730538725852966, -1.0], "type": "VEC3"}, {"bufferView": 1, "byteOffset": 109008, "componentType": 5125, "count": 240, "type": "SCALAR"}, {"bufferView": 4, "componentType": 5126, "count": 13, "max": [19.924551010131836, 0.19924552738666534, 0.001409855904057622, 0.0, 0.013093939051032066, 13.690299987792969, 0.026393309235572815, 0.0, 7.961303083448001e-08, 7.297527560012895e-08, 19.924551010131836, 0.0, 0.1270630806684494, 2.177283763885498, 3.2274996897285746e-07, 1.0], "min": [-0.19833208620548248, -0.03841222822666168, -0.19550774991512299, 0.0, -0.13690301775932312, -0.13627538084983826, -0.13689957559108734, 0.0, -0.19924554228782654, -4.801819031285959e-08, -2.0288563007397897e-07, 0.0, -0.7827690839767456, -0.6219492554664612, -1.4819031953811646, 1.0], "type": "MAT4"}, {"bufferView": 0, "componentType": 5123, "count": 3095, "type": "VEC4"}, {"bufferView": 3, "componentType": 5126, "count": 3095, "max": [1.0, 0.0, 0.0, 0.0], "min": [1.0, 0.0, 0.0, 0.0], "type": "VEC4"}, {"bufferView": 0, "byteOffset": 24760, "componentType": 5123, "count": 6268, "type": "VEC4"}, {"bufferView": 3, "byteOffset": 49520, "componentType": 5126, "count": 6268, "max": [1.0, 0.0, 0.0, 0.0], "min": [1.0, 0.0, 0.0, 0.0], "type": "VEC4"}, {"bufferView": 0, "byteOffset": 74904, "componentType": 5123, "count": 48, "type": "VEC4"}, {"bufferView": 3, "byteOffset": 149808, "componentType": 5126, "count": 48, "max": [1.0, 0.0, 0.0, 0.0], "min": [1.0, 0.0, 0.0, 0.0], "type": "VEC4"}, {"bufferView": 0, "byteOffset": 75288, "componentType": 5123, "count": 877, "type": "VEC4"}, {"bufferView": 3, "byteOffset": 150576, "componentType": 5126, "count": 877, "max": [1.0, 0.0, 0.0, 0.0], "min": [1.0, 0.0, 0.0, 0.0], "type": "VEC4"}, {"bufferView": 0, "byteOffset": 82304, "componentType": 5123, "count": 144, "type": "VEC4"}, {"bufferView": 3, "byteOffset": 164608, "componentType": 5126, "count": 144, "max": [1.0, 0.0, 0.0, 0.0], "min": [1.0, 0.0, 0.0, 0.0], "type": "VEC4"}, {"bufferView": 0, "byteOffset": 83456, "componentType": 5123, "count": 972, "type": "VEC4"}, {"bufferView": 3, "byteOffset": 166912, "componentType": 5126, "count": 972, "max": [1.0, 0.0, 0.0, 0.0], "min": [1.0, 0.0, 0.0, 0.0], "type": "VEC4"}, {"bufferView": 0, "byteOffset": 91232, "componentType": 5123, "count": 468, "type": "VEC4"}, {"bufferView": 3, "byteOffset": 182464, "componentType": 5126, "count": 468, "max": [1.0, 0.0, 0.0, 0.0], "min": [1.0, 0.0, 0.0, 0.0], "type": "VEC4"}, {"bufferView": 0, "byteOffset": 94976, "componentType": 5123, "count": 1639, "type": "VEC4"}, {"bufferView": 3, "byteOffset": 189952, "componentType": 5126, "count": 1639, "max": [1.0, 0.0, 0.0, 0.0], "min": [1.0, 0.0, 0.0, 0.0], "type": "VEC4"}, {"bufferView": 0, "byteOffset": 108088, "componentType": 5123, "count": 3660, "type": "VEC4"}, {"bufferView": 3, "byteOffset": 216176, "componentType": 5126, "count": 3660, "max": [1.0, 0.0, 0.0, 0.0], "min": [1.0, 0.0, 0.0, 0.0], "type": "VEC4"}, {"bufferView": 0, "byteOffset": 137368, "componentType": 5123, "count": 261, "type": "VEC4"}, {"bufferView": 3, "byteOffset": 274736, "componentType": 5126, "count": 261, "max": [1.0, 0.0, 0.0, 0.0], "min": [1.0, 0.0, 0.0, 0.0], "type": "VEC4"}, {"bufferView": 0, "byteOffset": 139456, "componentType": 5123, "count": 1137, "type": "VEC4"}, {"bufferView": 3, "byteOffset": 278912, "componentType": 5126, "count": 1137, "max": [1.0, 0.0, 0.0, 0.0], "min": [1.0, 0.0, 0.0, 0.0], "type": "VEC4"}, {"bufferView": 0, "byteOffset": 148552, "componentType": 5123, "count": 138, "type": "VEC4"}, {"bufferView": 3, "byteOffset": 297104, "componentType": 5126, "count": 138, "max": [1.0, 0.0, 0.0, 0.0], "min": [1.0, 0.0, 0.0, 0.0], "type": "VEC4"}, {"bufferView": 0, "byteOffset": 149656, "componentType": 5123, "count": 279, "type": "VEC4"}, {"bufferView": 3, "byteOffset": 299312, "componentType": 5126, "count": 279, "max": [1.0, 0.0, 0.0, 0.0], "min": [1.0, 0.0, 0.0, 0.0], "type": "VEC4"}, {"bufferView": 0, "byteOffset": 151888, "componentType": 5123, "count": 357, "type": "VEC4"}, {"bufferView": 3, "byteOffset": 303776, "componentType": 5126, "count": 357, "max": [1.0, 0.0, 0.0, 0.0], "min": [1.0, 0.0, 0.0, 0.0], "type": "VEC4"}, {"bufferView": 0, "byteOffset": 154744, "componentType": 5123, "count": 1238, "type": "VEC4"}, {"bufferView": 3, "byteOffset": 309488, "componentType": 5126, "count": 1238, "max": [1.0, 0.0, 0.0, 0.0], "min": [1.0, 0.0, 0.0, 0.0], "type": "VEC4"}, {"bufferView": 0, "byteOffset": 164648, "componentType": 5123, "count": 885, "type": "VEC4"}, {"bufferView": 3, "byteOffset": 329296, "componentType": 5126, "count": 885, "max": [1.0, 0.0, 0.0, 0.0], "min": [1.0, 0.0, 0.0, 0.0], "type": "VEC4"}], "asset": {"extras": {"author": "TastyTony (https://sketchfab.com/TastyTony)", "license": "CC-BY-4.0 (http://creativecommons.org/licenses/by/4.0/)", "source": "https://sketchfab.com/3d-models/low-poly-svd-dragunov-fe40c5c2696441bc8696ed042056709e", "title": "Low-Poly SVD Dragunov"}, "generator": "Sketchfab-15.10.0", "version": "2.0"}, "bufferViews": [{"buffer": 0, "byteLength": 171728, "byteStride": 8, "name": "shortBufferViews", "target": 34962}, {"buffer": 0, "byteLength": 109968, "byteOffset": 171728, "name": "floatBufferViews", "target": 34963}, {"buffer": 0, "byteLength": 590328, "byteOffset": 281696, "byteStride": 12, "name": "floatBufferViews", "target": 34962}, {"buffer": 0, "byteLength": 343456, "byteOffset": 872024, "byteStride": 16, "name": "floatBufferViews", "target": 34962}, {"buffer": 0, "byteLength": 832, "byteOffset": 1215480, "name": "floatBufferViews"}], "buffers": [{"byteLength": 1216312, "uri": "scene.bin"}], "extensionsUsed": ["KHR_materials_specular"], "materials": [{"doubleSided": true, "extensions": {"KHR_materials_specular": {"specularColorFactor": [1.0, 1.0, 1.0], "specularFactor": 0.0}}, "name": "Material.004", "pbrMetallicRoughness": {"baseColorFactor": [0.0535737806, 0.0298468641, 0.0240116216, 1.0], "metallicFactor": 0.0}}, {"doubleSided": true, "extensions": {"KHR_materials_specular": {"specularColorFactor": [1.0, 1.0, 1.0], "specularFactor": 0.0}}, "name": "Material", "pbrMetallicRoughness": {"baseColorFactor": [0.0197083689, 0.0197083689, 0.0197083689, 1.0], "metallicFactor": 0.0}}, {"doubleSided": true, "extensions": {"KHR_materials_specular": {"specularColorFactor": [1.0, 1.0, 1.0], "specularFactor": 0.0}}, "name": "Material.008", "pbrMetallicRoughness": {"baseColorFactor": [0.05990853656, 0.05990853656, 0.05990853656, 1.0], "metallicFactor": 0.0}}, {"doubleSided": true, "extensions": {"KHR_materials_specular": {"specularColorFactor": [1.0, 1.0, 1.0], "specularFactor": 0.0}}, "name": "Material.007", "pbrMetallicRoughness": {"baseColorFactor": [0.0111280488, 0.0111280488, 0.0111280488, 1.0], "metallicFactor": 0.0}}, {"doubleSided": true, "extensions": {"KHR_materials_specular": {"specularColorFactor": [1.0, 1.0, 1.0], "specularFactor": 0.0}}, "name": "Material.001", "pbrMetallicRoughness": {"baseColorFactor": [0.0851527774837633, 0.07999525687314021, 0.06777137192221593, 1.0], "metallicFactor": 0.0}}, {"doubleSided": true, "extensions": {"KHR_materials_specular": {"specularColorFactor": [1.0, 1.0, 1.0], "specularFactor": 0.0}}, "name": "Material.002", "pbrMetallicRoughness": {"baseColorFactor": [0.09503719215562158, 0.058851313741599964, 0.03421220261775329, 1.0], "metallicFactor": 0.0}}, {"doubleSided": true, "extensions": {"KHR_materials_specular": {"specularColorFactor": [1.0, 1.0, 1.0], "specularFactor": 0.0}}, "name": "Material.003", "pbrMetallicRoughness": {"baseColorFactor": [0.0736778947237429, 0.04248445437939898, 0.034692977906222625, 1.0], "metallicFactor": 0.0}}, {"doubleSided": true, "extensions": {"KHR_materials_specular": {"specularColorFactor": [1.0, 1.0, 1.0], "specularFactor": 0.0}}, "name": "Material.009", "pbrMetallicRoughness": {"baseColorFactor": [0.0356408125, 0.0356408125, 0.0356408125, 1.0], "metallicFactor": 0.0}}, {"doubleSided": true, "extensions": {"KHR_materials_specular": {"specularColorFactor": [1.0, 1.0, 1.0], "specularFactor": 0.0}}, "name": "Material.011", "pbrMetallicRoughness": {"baseColorFactor": [0.017209613892031028, 0.017209613892031028, 0.017209613892031028, 1.0], "metallicFactor": 0.0}}, {"doubleSided": true, "extensions": {"KHR_materials_specular": {"specularColorFactor": [1.0, 1.0, 1.0], "specularFactor": 0.0}}, "name": "Material.015", "pbrMetallicRoughness": {"baseColorFactor": [0.0448130704, 0.0448950492, 0.0426126944, 1.0], "metallicFactor": 0.0}}, {"doubleSided": true, "extensions": {"KHR_materials_specular": {"specularColorFactor": [1.0, 1.0, 1.0], "specularFactor": 0.0}}, "name": "Material.006", "pbrMetallicRoughness": {"baseColorFactor": [0.0276069393, 0.0276069393, 0.0276069393, 1.0], "metallicFactor": 0.0}}, {"doubleSided": true, "extensions": {"KHR_materials_specular": {"specularColorFactor": [1.0, 1.0, 1.0], "specularFactor": 0.0}}, "name": "Material.013", "pbrMetallicRoughness": {"baseColorFactor": [0.03684660619876617, 0.03684660619876617, 0.03684660619876617, 1.0], "metallicFactor": 0.0}}, {"doubleSided": true, "extensions": {"KHR_materials_specular": {"specularColorFactor": [1.0, 1.0, 1.0], "specularFactor": 0.0}}, "name": "Material.012", "pbrMetallicRoughness": {"baseColorFactor": [0.0272635025628941, 0.0272635025628941, 0.0272635025628941, 1.0], "metallicFactor": 0.0}}, {"doubleSided": true, "extensions": {"KHR_materials_specular": {"specularColorFactor": [1.0, 1.0, 1.0], "specularFactor": 0.0}}, "name": "Material.005", "pbrMetallicRoughness": {"baseColorFactor": [0.0432658617, 0.0258632601, 0.0214459784, 1.0], "metallicFactor": 0.0}}, {"doubleSided": true, "extensions": {"KHR_materials_specular": {"specularColorFactor": [1.0, 1.0, 1.0], "specularFactor": 0.0}}, "name": "Material.010", "pbrMetallicRoughness": {"baseColorFactor": [0.0160060976, 0.0160060976, 0.0160060976, 1.0], "metallicFactor": 0.0}}, {"doubleSided": true, "extensions": {"KHR_materials_specular": {"specularColorFactor": [1.0, 1.0, 1.0], "specularFactor": 0.0}}, "name": "Material.014", "pbrMetallicRoughness": {"baseColorFactor": [0.0133142929, 0.0133142929, 0.0133142929, 1.0], "metallicFactor": 0.0}}, {"doubleSided": true, "extensions": {"KHR_materials_specular": {"specularColorFactor": [1.0, 1.0, 1.0], "specularFactor": 0.0}}, "name": "Material.024", "pbrMetallicRoughness": {"baseColorFactor": [0.06478658536000001, 0.06478658536000001, 0.06478658536000001, 1.0], "metallicFactor": 0.0}}, {"doubleSided": true, "extensions": {"KHR_materials_specular": {"specularColorFactor": [1.0, 1.0, 1.0], "specularFactor": 0.0}}, "name": "Material.023", "pbrMetallicRoughness": {"baseColorFactor": [0.054850638798339506, 0.054850638798339506, 0.054850638798339506, 1.0], "metallicFactor": 0.0}}, {"doubleSided": true, "extensions": {"KHR_materials_specular": {"specularColorFactor": [1.0, 1.0, 1.0], "specularFactor": 0.0}}, "name": "Material.022", "pbrMetallicRoughness": {"baseColorFactor": [0.03064024392, 0.03064024392, 0.03064024392, 1.0], "metallicFactor": 0.0}}, {"doubleSided": true, "extensions": {"KHR_materials_specular": {"specularColorFactor": [1.0, 1.0, 1.0], "specularFactor": 0.0}}, "name": "Material.021", "pbrMetallicRoughness": {"baseColorFactor": [0.1280034842, 0.1616789569, 0.1790150717, 1.0], "metallicFactor": 0.0}}, {"doubleSided": true, "extensions": {"KHR_materials_specular": {"specularColorFactor": [1.0, 1.0, 1.0], "specularFactor": 0.0}}, "name": "Material.020", "pbrMetallicRoughness": {"baseColorFactor": [0.050152439039999996, 0.050152439039999996, 0.050152439039999996, 1.0], "metallicFactor": 0.0}}, {"doubleSided": true, "extensions": {"KHR_materials_specular": {"specularColorFactor": [1.0, 1.0, 1.0], "specularFactor": 0.0}}, "name": "Material.019", "pbrMetallicRoughness": {"baseColorFactor": [0.06478658536000001, 0.06478658536000001, 0.06478658536000001, 1.0], "metallicFactor": 0.0}}, {"doubleSided": true, "extensions": {"KHR_materials_specular": {"specularColorFactor": [1.0, 1.0, 1.0], "specularFactor": 0.0}}, "name": "Material.017", "pbrMetallicRoughness": {"baseColorFactor": [0.02088414632, 0.02088414632, 0.02088414632, 1.0], "metallicFactor": 0.0}}, {"doubleSided": true, "extensions": {"KHR_materials_specular": {"specularColorFactor": [1.0, 1.0, 1.0], "specularFactor": 0.0}}, "name": "Material.016", "pbrMetallicRoughness": {"baseColorFactor": [0.10381097560000002, 0.10381097560000002, 0.10381097560000002, 1.0], "metallicFactor": 0.0}}], "meshes": [{"name": "Cube.025_Material.004_0", "primitives": [{"attributes": {"JOINTS_0": 73, "NORMAL": 1, "POSITION": 0, "WEIGHTS_0": 74}, "indices": 2, "material": 0, "mode": 4}]}, {"name": "Cube.025_Material_0", "primitives": [{"attributes": {"JOINTS_0": 75, "NORMAL": 4, "POSITION": 3, "WEIGHTS_0": 76}, "indices": 5, "material": 1, "mode": 4}]}, {"name": "Cube.025_Material.008_0", "primitives": [{"attributes": {"JOINTS_0": 77, "NORMAL": 7, "POSITION": 6, "WEIGHTS_0": 78}, "indices": 8, "material": 2, "mode": 4}]}, {"name": "Cube.025_Material.007_0", "primitives": [{"attributes": {"JOINTS_0": 79, "NORMAL": 10, "POSITION": 9, "WEIGHTS_0": 80}, "indices": 11, "material": 3, "mode": 4}]}, {"name": "Cube.025_Material.001_0", "primitives": [{"attributes": {"JOINTS_0": 81, "NORMAL": 13, "POSITION": 12, "WEIGHTS_0": 82}, "indices": 14, "material": 4, "mode": 4}]}, {"name": "Cube.025_Material.002_0", "primitives": [{"attributes": {"JOINTS_0": 83, "NORMAL": 16, "POSITION": 15, "WEIGHTS_0": 84}, "indices": 17, "material": 5, "mode": 4}]}, {"name": "Cube.025_Material.003_0", "primitives": [{"attributes": {"JOINTS_0": 85, "NORMAL": 19, "POSITION": 18, "WEIGHTS_0": 86}, "indices": 20, "material": 6, "mode": 4}]}, {"name": "Cube.025_Material.009_0", "primitives": [{"attributes": {"JOINTS_0": 87, "NORMAL": 22, "POSITION": 21, "WEIGHTS_0": 88}, "indices": 23, "material": 7, "mode": 4}]}, {"name": "Cube.025_Material.011_0", "primitives": [{"attributes": {"JOINTS_0": 89, "NORMAL": 25, "POSITION": 24, "WEIGHTS_0": 90}, "indices": 26, "material": 8, "mode": 4}]}, {"name": "Cube.025_Material.015_0", "primitives": [{"attributes": {"JOINTS_0": 91, "NORMAL": 28, "POSITION": 27, "WEIGHTS_0": 92}, "indices": 29, "material": 9, "mode": 4}]}, {"name": "Cube.025_Material.006_0", "primitives": [{"attributes": {"JOINTS_0": 93, "NORMAL": 31, "POSITION": 30, "WEIGHTS_0": 94}, "indices": 32, "material": 10, "mode": 4}]}, {"name": "Cube.025_Material.013_0", "primitives": [{"attributes": {"JOINTS_0": 95, "NORMAL": 34, "POSITION": 33, "WEIGHTS_0": 96}, "indices": 35, "material": 11, "mode": 4}]}, {"name": "Cube.025_Material.012_0", "primitives": [{"attributes": {"JOINTS_0": 97, "NORMAL": 37, "POSITION": 36, "WEIGHTS_0": 98}, "indices": 38, "material": 12, "mode": 4}]}, {"name": "Cube.025_Material.005_0", "primitives": [{"attributes": {"JOINTS_0": 99, "NORMAL": 40, "POSITION": 39, "WEIGHTS_0": 100}, "indices": 41, "material": 13, "mode": 4}]}, {"name": "Cube.025_Material.010_0", "primitives": [{"attributes": {"JOINTS_0": 101, "NORMAL": 43, "POSITION": 42, "WEIGHTS_0": 102}, "indices": 44, "material": 14, "mode": 4}]}, {"name": "Cube.025_Material.014_0", "primitives": [{"attributes": {"JOINTS_0": 103, "NORMAL": 46, "POSITION": 45, "WEIGHTS_0": 104}, "indices": 47, "material": 15, "mode": 4}]}, {"name": "Cube.030_Material.024_0", "primitives": [{"attributes": {"NORMAL": 49, "POSITION": 48}, "indices": 50, "material": 16, "mode": 4}]}, {"name": "Cube.030_Material.023_0", "primitives": [{"attributes": {"NORMAL": 52, "POSITION": 51}, "indices": 53, "material": 17, "mode": 4}]}, {"name": "Cube.030_Material.022_0", "primitives": [{"attributes": {"NORMAL": 55, "POSITION": 54}, "indices": 56, "material": 18, "mode": 4}]}, {"name": "Cube.030_Material.021_0", "primitives": [{"attributes": {"NORMAL": 58, "POSITION": 57}, "indices": 59, "material": 19, "mode": 4}]}, {"name": "Cube.030_Material.020_0", "primitives": [{"attributes": {"NORMAL": 61, "POSITION": 60}, "indices": 62, "material": 20, "mode": 4}]}, {"name": "Cube.030_Material.019_0", "primitives": [{"attributes": {"NORMAL": 64, "POSITION": 63}, "indices": 65, "material": 21, "mode": 4}]}, {"name": "Cube.030_Material.017_0", "primitives": [{"attributes": {"NORMAL": 67, "POSITION": 66}, "indices": 68, "material": 22, "mode": 4}]}, {"name": "Cube.030_Material.016_0", "primitives": [{"attributes": {"NORMAL": 70, "POSITION": 69}, "indices": 71, "material": 23, "mode": 4}]}], "nodes": [{"children": [1], "matrix": [0.41942402720451355, 0.0, 0.0, 0.0, 0.0, 9.31308424166918e-17, -0.41942402720451355, 0.0, 0.0, 0.41942402720451355, 9.31308424166918e-17, 0.0, 0.0, 0.0, 0.0, 1.0], "name": "Sketchfab_model"}, {"children": [2], "matrix": [1.0, 0.0, 0.0, 0.0, 0.0, 0.0, 1.0, 0.0, 0.0, -1.0, 0.0, 0.0, 0.0, 0.0, 0.0, 1.0], "name": "17fa98e873ec430ba1fb7777be23e948.fbx"}, {"children": [3, 35, 38, 40], "name": "RootNode"}, {"children": [4], "matrix": [7.549789970973109e-06, -99.99999999999967, 2.980231184057658e-06, 0.0, -2.8212996699972237e-05, -2.980233304583635e-06, -99.99999999999596, 0.0, 99.99999999999572, 7.549789121652495e-06, -2.8212996916465727e-05, 0.0, -25.799781799316406, -3.0186798572540283, -4.055863200846943e-07, 1.0], "name": "Armature"}, {"children": [5, 19, 20, 21, 22, 23, 24, 25, 26, 27, 28, 29, 30, 31, 32, 33, 34, 18], "name": "Object_4"}, {"children": [6], "name": "_rootJoint"}, {"children": [7, 9, 14, 16], "name": "body_00", "rotation": [0.7071068286895752, 1.1281869781330238e-23, -4.2630106427015896e-24, 0.7071067094802856]}, {"children": [8], "name": "bolt_01", "rotation": [2.6469779601696886e-23, 1.6543612251060553e-24, 6.617450422450558e-24, 1.0], "translation": [-0.1572498083114624, -1.1304516792297363, -1.4933561942598317e-07]}, {"name": "bolt_end_010", "rotation": [1.9852334701272664e-23, 3.308722450212111e-24, 6.1136720154628415e-30, 1.0], "translation": [2.7755575615628914e-17, 0.7234663367271423, 2.6469779601696886e-23]}, {"children": [10, 12], "name": "mag_02", "rotation": [-1.8372685417489265e-07, 4.566309552700432e-09, -0.740149974822998, 0.672441840171814], "scale": [1.0000001192092896, 1.0, 1.0], "translation": [0.010937187820672989, -0.5323277711868286, -1.0552660967277916e-07]}, {"children": [11], "name": "bullet_03", "rotation": [1.8372686838574737e-07, -4.566291345042828e-09, 0.7401500940322876, 0.6724416613578796], "scale": [0.9999999403953552, 1.0, 1.0], "translation": [0.5733421444892883, 0.022559693083167076, -2.1930438265371777e-07]}, {"name": "bullet_end_07", "rotation": [6.617444900424222e-24, 0.0, 2.3579953336209805e-23, 1.0], "translation": [0.0, 0.5157124400138855, 0.0]}, {"children": [13], "name": "bullets_04", "rotation": [1.8372683996403794e-07, -4.566304667719123e-09, 0.7401500344276428, 0.6724417805671692], "scale": [0.9999998211860657, 0.9999998807907104, 1.0], "translation": [0.582242488861084, 0.11676298826932907, -2.1264234817408578e-07]}, {"name": "bullets_end_09", "rotation": [-1.3234889800848443e-23, 1.6543612251060553e-24, 9.618936004767146e-25, 1.0], "translation": [-1.3877787807814457e-17, 0.5157124996185303, 2.6469779601696886e-23]}, {"children": [15], "name": "safety_05", "rotation": [-0.0025016816798597574, 0.7071022391319275, 0.0025016809813678265, 0.7071024775505066], "scale": [0.9999999403953552, 0.9999998211860657, 0.9999999403953552], "translation": [0.043225646018981934, -1.9188206195831299, -2.6361826144238876e-07]}, {"name": "safety_end_08", "rotation": [-1.9510082260480313e-19, -2.6469779601696886e-23, -3.970466940254533e-23, 1.0], "translation": [0.0, 0.7047879695892334, -1.3877787807814457e-17]}, {"children": [17], "name": "magrelease_06", "rotation": [0.546074628829956, 0.44922444224357605, -0.5460740327835083, 0.44922494888305664], "scale": [0.9999998807907104, 0.9999997019767761, 0.9999998807907104], "translation": [0.2944008708000183, -1.3160102367401123, -2.163886847483809e-07]}, {"name": "magrelease_end_011", "rotation": [7.61624325960304e-19, 6.617444900424222e-24, 1.0587911840678754e-22, 1.0], "translation": [0.0, 0.16252750158309937, 0.0]}, {"matrix": [19.92455124855153, 1.9306232458426646e-13, -7.495984085184591e-14, 0.0, -5.1505437579849394e-14, 8.382891212190607e-16, -13.69030028581644, 0.0, -1.9306232458426297e-13, 19.92455124855117, 1.2200268955492797e-15, 0.0, -21.663626837373755, 15.285737485370628, 2.1019608475322343e-06, 1.0], "name": "Object_18"}, {"mesh": 0, "name": "Object_19", "skin": 0}, {"mesh": 1, "name": "Object_20", "skin": 0}, {"mesh": 2, "name": "Object_21", "skin": 0}, {"mesh": 3, "name": "Object_22", "skin": 0}, {"mesh": 4, "name": "Object_23", "skin": 0}, {"mesh": 5, "name": "Object_24", "skin": 0}, {"mesh": 6, "name": "Object_25", "skin": 0}, {"mesh": 7, "name": "Object_26", "skin": 0}, {"mesh": 8, "name": "Object_27", "skin": 0}, {"mesh": 9, "name": "Object_28", "skin": 0}, {"mesh": 10, "name": "Object_29", "skin": 0}, {"mesh": 11, "name": "Object_30", "skin": 0}, {"mesh": 12, "name": "Object_31", "skin": 0}, {"mesh": 13, "name": "Object_32", "skin": 0}, {"mesh": 14, "name": "Object_33", "skin": 0}, {"mesh": 15, "name": "Object_34", "skin": 0}, {"children": [36], "matrix": [-23.04548731301541, 66.27149717032853, -71.25302925005212, 0.0, 43.18838668753385, 72.58275712628918, 53.53976674654237, 0.0, 87.19902482288158, -18.434535052544945, -45.348644006342006, 0.0, 5.085849761962891, 1468.3265380859375, 2250.285888671875, 1.0], "name": "Lamp"}, {"children": [37], "matrix": [1.0, 0.0, 0.0, 0.0, 0.0, 2.220446049250313e-16, 1.0, 0.0, 0.0, -1.0, 2.220446049250313e-16, 0.0, 0.0, 0.0, 0.0, 1.0], "name": "Object_36"}, {"name": "Object_37"}, {"children": [39], "matrix": [1.9470721841536002e-05, 0.0, -100.00001525878717, 0.0, 5.024296971964058e-13, 100.00001525878906, 9.782667388797899e-20, 0.0, 99.99999999999811, -5.024296205317393e-13, 1.9470718870540082e-05, 0.0, 4.996615409851074, -22.644790649414062, 1320.7952880859375, 1.0], "name": "Camera"}, {"name": "Object_39"}, {"children": [41, 42, 43, 44, 45, 46, 47, 48], "matrix": [1.545457363128662, 0.0, 0.0, 0.0, -0.0, -6.134648169256594e-07, -3.765420198440502, 0.0, 0.0, 1.5454573631286417, -2.5178696357202994e-07, 0.0, -172.84884643554688, 34.51633834838867, -3.0750865936279297, 1.0], "name": "Cube.030"}, {"mesh": 16, "name": "Cube.030_Material.024_0"}, {"mesh": 17, "name": "Cube.030_Material.023_0"}, {"mesh": 18, "name": "Cube.030_Material.022_0"}, {"mesh": 19, "name": "Cube.030_Material.021_0"}, {"mesh": 20, "name": "Cube.030_Material.020_0"}, {"mesh": 21, "name": "Cube.030_Material.019_0"}, {"mesh": 22, "name": "Cube.030_Material.017_0"}, {"mesh": 23, "name": "Cube.030_Material.016_0"}], "scene": 0, "scenes": [{"name": "Sketchfab_Scene", "nodes": [0]}], "skins": [{"inverseBindMatrices": 72, "joints": [5, 6, 7, 8, 9, 10, 11, 12, 13, 14, 15, 16, 17], "skeleton": 5}]}